{"asset":{"version":"2.0","generator":"GLTFExporter"},"scenes":[{"name":"AuxScene","nodes":[1]}],"scene":0,"nodes":[{"mesh":0},{"children":[0]}],"bufferViews":[{"buffer":0,"byteOffset":0,"byteLength":29808,"target":34962,"byteStride":12},{"buffer":0,"byteOffset":29808,"byteLength":29808,"target":34962,"byteStride":12},{"buffer":0,"byteOffset":59616,"byteLength":29808,"target":34962,"byteStride":12},{"buffer":0,"byteOffset":89424,"byteLength":19872,"target":34962,"byteStride":8}],"buffers":[{"byteLength":109296,"uri":"data:application/octet-stream;base64,"}],"accessors":[{"bufferView":0,"componentType":5126,"count":2484,"max":[0.9174900054931641,4.398839950561523,0.9174900054931641],"min":[-0.9174900054931641,0.002542939968407154,-0.9174900054931641],"type":"VEC3"},{"bufferView":1,"componentType":5126,"count":2484,"max":[0.9807855486869812,1,0.9807853698730469],"min":[-0.9807855486869812,-1,-0.9807853698730469],"type":"VEC3"},{"bufferView":2,"componentType":5126,"count":2484,"max":[1,1,1],"min":[1,1,1],"type":"VEC3"},{"bufferView":3,"componentType":5126,"count":2484,"max":[0.9878150224685669,0.9909229874610901],"min":[0.023754000663757324,0.00624299980700016],"type":"VEC2"}],"materials":[{"pbrMetallicRoughness":{"baseColorFactor":[0.8,0.8,0.8,1],"metallicFactor":0,"roughnessFactor":1}}],"meshes":[{"primitives":[{"mode":4,"attributes":{"POSITION":0,"NORMAL":1,"COLOR_0":2,"TEXCOORD_0":3},"material":0}]}]}