{"asset":{"version":"2.0","generator":"GLTFExporter"},"scenes":[{"name":"AuxScene","nodes":[1]}],"scene":0,"nodes":[{"mesh":0},{"children":[0]}],"bufferViews":[{"buffer":0,"byteOffset":0,"byteLength":103176,"target":34962,"byteStride":12},{"buffer":0,"byteOffset":103176,"byteLength":103176,"target":34962,"byteStride":12},{"buffer":0,"byteOffset":206352,"byteLength":103176,"target":34962,"byteStride":12},{"buffer":0,"byteOffset":309528,"byteLength":68784,"target":34962,"byteStride":8}],"buffers":[{"byteLength":378312,"uri":"data:application/octet-stream;base64,"}],"accessors":[{"bufferView":0,"componentType":5126,"count":8598,"max":[1.0751299858093262,3.533519983291626,0.89683997631073],"min":[-1.0751399993896484,0.00007300000288523734,-1.1501200199127197],"type":"VEC3"},{"bufferView":1,"componentType":5126,"count":8598,"max":[0.9999390244483948,0.9975889921188354,0.9997249841690063],"min":[-0.9999390244483948,-0.951475977897644,-0.9993289709091187],"type":"VEC3"},{"bufferView":2,"componentType":5126,"count":8598,"max":[1,1,1],"min":[1,1,1],"type":"VEC3"},{"bufferView":3,"componentType":5126,"count":8598,"max":[0.9968240261077881,0.9968270063400269],"min":[0.0031759999692440033,0.003172999946400523],"type":"VEC2"}],"materials":[{"pbrMetallicRoughness":{"baseColorFactor":[0.8,0.8,0.8,1],"metallicFactor":0,"roughnessFactor":1}}],"meshes":[{"primitives":[{"mode":4,"attributes":{"POSITION":0,"NORMAL":1,"COLOR_0":2,"TEXCOORD_0":3},"material":0}]}]}