{"asset":{"version":"2.0","generator":"GLTFExporter"},"scenes":[{"name":"AuxScene","nodes":[1]}],"scene":0,"nodes":[{"mesh":0},{"children":[0]}],"bufferViews":[{"buffer":0,"byteOffset":0,"byteLength":48888,"target":34962,"byteStride":12},{"buffer":0,"byteOffset":48888,"byteLength":48888,"target":34962,"byteStride":12},{"buffer":0,"byteOffset":97776,"byteLength":48888,"target":34962,"byteStride":12},{"buffer":0,"byteOffset":146664,"byteLength":32592,"target":34962,"byteStride":8}],"buffers":[{"byteLength":179256,"uri":"data:application/octet-stream;base64,"}],"accessors":[{"bufferView":0,"componentType":5126,"count":4074,"max":[0.8833230137825012,3.3371200561523438,0.8833230137825012],"min":[-0.8833230137825012,0.0018758800579234958,-0.8833230137825012],"type":"VEC3"},{"bufferView":1,"componentType":5126,"count":4074,"max":[0.9944861531257629,1,0.9998947381973267],"min":[-0.9944859743118286,-1,-0.9998554587364197],"type":"VEC3"},{"bufferView":2,"componentType":5126,"count":4074,"max":[1,1,1],"min":[1,1,1],"type":"VEC3"},{"bufferView":3,"componentType":5126,"count":4074,"max":[0.9977380037307739,0.9887340068817139],"min":[0.0014509999891743064,0.009823000058531761],"type":"VEC2"}],"materials":[{"pbrMetallicRoughness":{"baseColorFactor":[0.8,0.8,0.8,1],"metallicFactor":0,"roughnessFactor":1}}],"meshes":[{"primitives":[{"mode":4,"attributes":{"POSITION":0,"NORMAL":1,"COLOR_0":2,"TEXCOORD_0":3},"material":0}]}]}