{"asset":{"version":"2.0","generator":"GLTFExporter"},"scenes":[{"name":"AuxScene","nodes":[4]}],"scene":0,"nodes":[{"extras":{"mapFilename":null},"mesh":0},{"extras":{"mapFilename":"wood.jpg"},"mesh":1},{"extras":{"mapFilename":null},"mesh":2},{"extras":{"mapFilename":"wood.jpg"},"mesh":3},{"children":[0,1,2,3]}],"bufferViews":[{"buffer":0,"byteOffset":0,"byteLength":216,"target":34962,"byteStride":12},{"buffer":0,"byteOffset":216,"byteLength":216,"target":34962,"byteStride":12},{"buffer":0,"byteOffset":432,"byteLength":216,"target":34962,"byteStride":12},{"buffer":0,"byteOffset":648,"byteLength":144,"target":34962,"byteStride":8},{"buffer":0,"byteOffset":792,"byteLength":288,"target":34962,"byteStride":12},{"buffer":0,"byteOffset":1080,"byteLength":288,"target":34962,"byteStride":12},{"buffer":0,"byteOffset":1368,"byteLength":288,"target":34962,"byteStride":12},{"buffer":0,"byteOffset":1656,"byteLength":192,"target":34962,"byteStride":8},{"buffer":0,"byteOffset":1848,"byteLength":1656,"target":34962,"byteStride":12},{"buffer":0,"byteOffset":3504,"byteLength":1656,"target":34962,"byteStride":12},{"buffer":0,"byteOffset":5160,"byteLength":1656,"target":34962,"byteStride":12},{"buffer":0,"byteOffset":6816,"byteLength":1104,"target":34962,"byteStride":8},{"buffer":0,"byteOffset":7920,"byteLength":9360,"target":34962,"byteStride":12},{"buffer":0,"byteOffset":17280,"byteLength":9360,"target":34962,"byteStride":12},{"buffer":0,"byteOffset":26640,"byteLength":9360,"target":34962,"byteStride":12},{"buffer":0,"byteOffset":36000,"byteLength":6240,"target":34962,"byteStride":8}],"buffers":[{"byteLength":42240,"uri":"data:application/octet-stream;base64,"}],"accessors":[{"bufferView":0,"componentType":5126,"count":18,"max":[0.7995089888572693,0.25540000200271606,0.43400999903678894],"min":[-0.6881700158119202,0.25540000200271606,-0.5994870066642761],"type":"VEC3"},{"bufferView":1,"componentType":5126,"count":18,"max":[0.4004330039024353,0.9844970107078552,0.24765799939632416],"min":[-0.4004330039024353,0.903469979763031,-0.42704498767852783],"type":"VEC3"},{"bufferView":2,"componentType":5126,"count":18,"max":[1,1,1],"min":[1,1,1],"type":"VEC3"},{"bufferView":3,"componentType":5126,"count":18,"max":[0.32922399044036865,0.868399977684021],"min":[0.17793500423431396,0.2377910017967224],"type":"VEC2"},{"bufferView":4,"componentType":5126,"count":24,"max":[0.8487930297851562,0.25540000200271606,0.24123799800872803],"min":[-0.6134740114212036,0.00039978299173526466,-0.7706829905509949],"type":"VEC3"},{"bufferView":5,"componentType":5126,"count":24,"max":[0.9292579889297485,0.9155550003051758,0.5601980090141296],"min":[-0.9131140112876892,-0.7058929800987244,-0.8573560118675232],"type":"VEC3"},{"bufferView":6,"componentType":5126,"count":24,"max":[1,1,1],"min":[1,1,1],"type":"VEC3"},{"bufferView":7,"componentType":5126,"count":24,"max":[0.7542750239372253,0.8853409886360168],"min":[0.379381000995636,0.5001999735832214],"type":"VEC2"},{"bufferView":8,"componentType":5126,"count":138,"max":[0.8330749869346619,0.25540000200271606,0.7123299837112427],"min":[-0.785273015499115,0.25540000200271606,-0.7712429761886597],"type":"VEC3"},{"bufferView":9,"componentType":5126,"count":138,"max":[0.43024998903274536,0.9844970107078552,0.3887749910354614],"min":[-0.43024998903274536,0.8991360068321228,-0.42704498767852783],"type":"VEC3"},{"bufferView":10,"componentType":5126,"count":138,"max":[1,1,1],"min":[1,1,1],"type":"VEC3"},{"bufferView":11,"componentType":5126,"count":138,"max":[0.3326379954814911,0.9732000231742859],"min":[0.16806000471115112,0.06796900182962418],"type":"VEC2"},{"bufferView":12,"componentType":5126,"count":780,"max":[0.8487930297851562,0.25540000200271606,0.7273359894752502],"min":[-0.8009920120239258,0.0003997710009571165,-0.7864890098571777],"type":"VEC3"},{"bufferView":13,"componentType":5126,"count":780,"max":[0.9292579889297485,0.9844970107078552,0.9248629808425903],"min":[-0.9292579889297485,-0.7058929800987244,-0.9292579889297485],"type":"VEC3"},{"bufferView":14,"componentType":5126,"count":780,"max":[1,1,1],"min":[1,1,1],"type":"VEC3"},{"bufferView":15,"componentType":5126,"count":780,"max":[0.9243969917297363,0.8932440280914307],"min":[0.0995040014386177,0.13633200526237488],"type":"VEC2"}],"materials":[{"pbrMetallicRoughness":{"baseColorFactor":[0.8,0.8,0.8,1],"metallicFactor":0,"roughnessFactor":1},"name":"face"},{"pbrMetallicRoughness":{"baseColorFactor":[0.6392156862745098,0.6392156862745098,0.6392156862745098,1],"metallicFactor":0,"roughnessFactor":1,"baseColorTexture":{"index":0}},"name":"wood"}],"meshes":[{"primitives":[{"mode":4,"attributes":{"POSITION":0,"NORMAL":1,"COLOR_0":2,"TEXCOORD_0":3},"material":0}]},{"primitives":[{"mode":4,"attributes":{"POSITION":4,"NORMAL":5,"COLOR_0":6,"TEXCOORD_0":7},"material":1}]},{"primitives":[{"mode":4,"attributes":{"POSITION":8,"NORMAL":9,"COLOR_0":10,"TEXCOORD_0":11},"material":0}]},{"primitives":[{"mode":4,"attributes":{"POSITION":12,"NORMAL":13,"COLOR_0":14,"TEXCOORD_0":15},"material":1}]}],"images":[{"uri":"wood.jpg"}],"textures":[{"source":0}]}