{"asset":{"version":"2.0","generator":"GLTFExporter"},"scenes":[{"name":"AuxScene","nodes":[4]}],"scene":0,"nodes":[{"extras":{"mapFilename":null},"mesh":0},{"extras":{"mapFilename":"wood.jpg"},"mesh":1},{"extras":{"mapFilename":null},"mesh":2},{"extras":{"mapFilename":"wood.jpg"},"mesh":3},{"children":[0,1,2,3]}],"bufferViews":[{"buffer":0,"byteOffset":0,"byteLength":288,"target":34962,"byteStride":12},{"buffer":0,"byteOffset":288,"byteLength":288,"target":34962,"byteStride":12},{"buffer":0,"byteOffset":576,"byteLength":288,"target":34962,"byteStride":12},{"buffer":0,"byteOffset":864,"byteLength":192,"target":34962,"byteStride":8},{"buffer":0,"byteOffset":1056,"byteLength":3096,"target":34962,"byteStride":12},{"buffer":0,"byteOffset":4152,"byteLength":3096,"target":34962,"byteStride":12},{"buffer":0,"byteOffset":7248,"byteLength":3096,"target":34962,"byteStride":12},{"buffer":0,"byteOffset":10344,"byteLength":2064,"target":34962,"byteStride":8},{"buffer":0,"byteOffset":12408,"byteLength":1584,"target":34962,"byteStride":12},{"buffer":0,"byteOffset":13992,"byteLength":1584,"target":34962,"byteStride":12},{"buffer":0,"byteOffset":15576,"byteLength":1584,"target":34962,"byteStride":12},{"buffer":0,"byteOffset":17160,"byteLength":1056,"target":34962,"byteStride":8},{"buffer":0,"byteOffset":18216,"byteLength":6552,"target":34962,"byteStride":12},{"buffer":0,"byteOffset":24768,"byteLength":6552,"target":34962,"byteStride":12},{"buffer":0,"byteOffset":31320,"byteLength":6552,"target":34962,"byteStride":12},{"buffer":0,"byteOffset":37872,"byteLength":4368,"target":34962,"byteStride":8}],"buffers":[{"byteLength":42240,"uri":"data:application/octet-stream;base64,"}],"accessors":[{"bufferView":0,"componentType":5126,"count":24,"max":[0.4813709855079651,0.259878009557724,0.7121610045433044],"min":[-0.508450984954834,0.259878009557724,-0.7546510100364685],"type":"VEC3"},{"bufferView":1,"componentType":5126,"count":24,"max":[0.39414700865745544,0.9238560199737549,0.39625200629234314],"min":[-0.39152199029922485,0.8973050117492676,-0.40189799666404724],"type":"VEC3"},{"bufferView":2,"componentType":5126,"count":24,"max":[1,1,1],"min":[1,1,1],"type":"VEC3"},{"bufferView":3,"componentType":5126,"count":24,"max":[0.13056500256061554,0.9515219926834106],"min":[0.03354699909687042,0.08889999985694885],"type":"VEC2"},{"bufferView":4,"componentType":5126,"count":258,"max":[0.7404990196228027,0.259878009557724,0.7271919846534729],"min":[-0.7471519708633423,0.0048784902319312096,-0.7792329788208008],"type":"VEC3"},{"bufferView":5,"componentType":5126,"count":258,"max":[0.9237040281295776,0.9630730152130127,0.7210000157356262],"min":[-0.8349859714508057,-0.707082986831665,-0.9283120036125183],"type":"VEC3"},{"bufferView":6,"componentType":5126,"count":258,"max":[1,1,1],"min":[1,1,1],"type":"VEC3"},{"bufferView":7,"componentType":5126,"count":258,"max":[0.9607750177383423,0.9820669889450073],"min":[0.12642399966716766,0.2288540005683899],"type":"VEC2"},{"bufferView":8,"componentType":5126,"count":132,"max":[0.7252410054206848,0.259878009557724,0.5536540150642395],"min":[-0.7319909930229187,0.259878009557724,-0.7639880180358887],"type":"VEC3"},{"bufferView":9,"componentType":5126,"count":132,"max":[0.41770699620246887,0.9886170029640198,0.25852200388908386],"min":[-0.41499099135398865,0.8973050117492676,-0.4148080050945282],"type":"VEC3"},{"bufferView":10,"componentType":5126,"count":132,"max":[1,1,1],"min":[1,1,1],"type":"VEC3"},{"bufferView":11,"componentType":5126,"count":132,"max":[0.15446799993515015,0.9570140242576599],"min":[0.011636000126600266,0.18211700022220612],"type":"VEC2"},{"bufferView":12,"componentType":5126,"count":546,"max":[0.7404990196228027,0.259878009557724,0.7271919846534729],"min":[-0.7471519708633423,0.0048784902319312096,-0.7792329788208008],"type":"VEC3"},{"bufferView":13,"componentType":5126,"count":546,"max":[0.9240390062332153,0.9886170029640198,0.9259009957313538],"min":[-0.9240090250968933,-0.707082986831665,-0.9283120036125183],"type":"VEC3"},{"bufferView":14,"componentType":5126,"count":546,"max":[1,1,1],"min":[1,1,1],"type":"VEC3"},{"bufferView":15,"componentType":5126,"count":546,"max":[0.9627969861030579,0.9820669889450073],"min":[0.12642399966716766,0.0000470000013592653],"type":"VEC2"}],"materials":[{"pbrMetallicRoughness":{"baseColorFactor":[0.8,0.8,0.8,1],"metallicFactor":0,"roughnessFactor":1},"name":"face"},{"pbrMetallicRoughness":{"baseColorFactor":[0.6392156862745098,0.6392156862745098,0.6392156862745098,1],"metallicFactor":0,"roughnessFactor":1,"baseColorTexture":{"index":0}},"name":"wood"}],"meshes":[{"primitives":[{"mode":4,"attributes":{"POSITION":0,"NORMAL":1,"COLOR_0":2,"TEXCOORD_0":3},"material":0}]},{"primitives":[{"mode":4,"attributes":{"POSITION":4,"NORMAL":5,"COLOR_0":6,"TEXCOORD_0":7},"material":1}]},{"primitives":[{"mode":4,"attributes":{"POSITION":8,"NORMAL":9,"COLOR_0":10,"TEXCOORD_0":11},"material":0}]},{"primitives":[{"mode":4,"attributes":{"POSITION":12,"NORMAL":13,"COLOR_0":14,"TEXCOORD_0":15},"material":1}]}],"images":[{"uri":"wood.jpg"}],"textures":[{"source":0}]}