{"asset":{"version":"2.0","generator":"GLTFExporter"},"scenes":[{"name":"AuxScene","nodes":[1]}],"scene":0,"nodes":[{"mesh":0},{"children":[0]}],"bufferViews":[{"buffer":0,"byteOffset":0,"byteLength":12528,"target":34962,"byteStride":12},{"buffer":0,"byteOffset":12528,"byteLength":12528,"target":34962,"byteStride":12},{"buffer":0,"byteOffset":25056,"byteLength":12528,"target":34962,"byteStride":12},{"buffer":0,"byteOffset":37584,"byteLength":8352,"target":34962,"byteStride":8}],"buffers":[{"byteLength":45936,"uri":"data:application/octet-stream;base64,"}],"accessors":[{"bufferView":0,"componentType":5126,"count":1044,"max":[0.3971959948539734,0.9385190010070801,0.3971959948539734],"min":[-0.3971959948539734,0.0018609799444675446,-0.3971959948539734],"type":"VEC3"},{"bufferView":1,"componentType":5126,"count":1044,"max":[0.9997249841690063,0.9695730209350586,0.9997249841690063],"min":[-0.9997249841690063,-0.6501359939575195,-0.9997249841690063],"type":"VEC3"},{"bufferView":2,"componentType":5126,"count":1044,"max":[1,1,1],"min":[1,1,1],"type":"VEC3"},{"bufferView":3,"componentType":5126,"count":1044,"max":[0.9732409715652466,0.8161410093307495],"min":[0.02269900031387806,0.07289399951696396],"type":"VEC2"}],"materials":[{"pbrMetallicRoughness":{"baseColorFactor":[0.8,0.8,0.8,1],"metallicFactor":0,"roughnessFactor":1}}],"meshes":[{"primitives":[{"mode":4,"attributes":{"POSITION":0,"NORMAL":1,"COLOR_0":2,"TEXCOORD_0":3},"material":0}]}]}