{"asset":{"version":"2.0","generator":"GLTFExporter"},"scenes":[{"name":"AuxScene","nodes":[1]}],"scene":0,"nodes":[{"mesh":0},{"children":[0]}],"bufferViews":[{"buffer":0,"byteOffset":0,"byteLength":12528,"target":34962,"byteStride":12},{"buffer":0,"byteOffset":12528,"byteLength":12528,"target":34962,"byteStride":12},{"buffer":0,"byteOffset":25056,"byteLength":12528,"target":34962,"byteStride":12},{"buffer":0,"byteOffset":37584,"byteLength":8352,"target":34962,"byteStride":8}],"buffers":[{"byteLength":45936,"uri":"data:application/octet-stream;base64,"}],"accessors":[{"bufferView":0,"componentType":5126,"count":1044,"max":[0.9572870135307312,1.4478199481964111,0.9572870135307312],"min":[-0.9572870135307312,0.007956620305776596,-0.9572870135307312],"type":"VEC3"},{"bufferView":1,"componentType":5126,"count":1044,"max":[0.9807853698730469,1,0.9807853698730469],"min":[-0.9807853698730469,-1,-0.9807853698730469],"type":"VEC3"},{"bufferView":2,"componentType":5126,"count":1044,"max":[1,1,1],"min":[1,1,1],"type":"VEC3"},{"bufferView":3,"componentType":5126,"count":1044,"max":[0.9882280230522156,0.990011990070343],"min":[0.01358299981802702,0.012834999710321426],"type":"VEC2"}],"materials":[{"pbrMetallicRoughness":{"baseColorFactor":[0.8,0.8,0.8,1],"metallicFactor":0,"roughnessFactor":1}}],"meshes":[{"primitives":[{"mode":4,"attributes":{"POSITION":0,"NORMAL":1,"COLOR_0":2,"TEXCOORD_0":3},"material":0}]}]}