{"asset":{"version":"2.0","generator":"GLTFExporter"},"scenes":[{"name":"AuxScene","nodes":[1]}],"scene":0,"nodes":[{"mesh":0},{"children":[0]}],"bufferViews":[{"buffer":0,"byteOffset":0,"byteLength":45072,"target":34962,"byteStride":12},{"buffer":0,"byteOffset":45072,"byteLength":45072,"target":34962,"byteStride":12},{"buffer":0,"byteOffset":90144,"byteLength":45072,"target":34962,"byteStride":12},{"buffer":0,"byteOffset":135216,"byteLength":30048,"target":34962,"byteStride":8}],"buffers":[{"byteLength":165264,"uri":"data:application/octet-stream;base64,"}],"accessors":[{"bufferView":0,"componentType":5126,"count":3756,"max":[0.7729989886283875,3.1430699825286865,1.0098199844360352],"min":[-0.7732509970664978,0.002729180036112666,-0.9145470261573792],"type":"VEC3"},{"bufferView":1,"componentType":5126,"count":3756,"max":[0.9999068975448608,1,0.99983811378479],"min":[-0.9999069571495056,-1,-0.9976198673248291],"type":"VEC3"},{"bufferView":2,"componentType":5126,"count":3756,"max":[1,1,1],"min":[1,1,1],"type":"VEC3"},{"bufferView":3,"componentType":5126,"count":3756,"max":[0.9966930150985718,0.991752028465271],"min":[0.004356000106781721,0.009944000281393528],"type":"VEC2"}],"materials":[{"pbrMetallicRoughness":{"baseColorFactor":[0.8,0.8,0.8,1],"metallicFactor":0,"roughnessFactor":1}}],"meshes":[{"primitives":[{"mode":4,"attributes":{"POSITION":0,"NORMAL":1,"COLOR_0":2,"TEXCOORD_0":3},"material":0}]}]}