{"asset":{"version":"2.0","generator":"GLTFExporter"},"scenes":[{"name":"AuxScene","nodes":[1]}],"scene":0,"nodes":[{"mesh":0},{"children":[0]}],"bufferViews":[{"buffer":0,"byteOffset":0,"byteLength":19152,"target":34962,"byteStride":12},{"buffer":0,"byteOffset":19152,"byteLength":19152,"target":34962,"byteStride":12},{"buffer":0,"byteOffset":38304,"byteLength":19152,"target":34962,"byteStride":12},{"buffer":0,"byteOffset":57456,"byteLength":12768,"target":34962,"byteStride":8}],"buffers":[{"byteLength":70224,"uri":"data:application/octet-stream;base64,"}],"accessors":[{"bufferView":0,"componentType":5126,"count":1596,"max":[0.9213449954986572,3.39808988571167,0.9213449954986572],"min":[-0.9213449954986572,0.00693925004452467,-0.9213449954986572],"type":"VEC3"},{"bufferView":1,"componentType":5126,"count":1596,"max":[0.9958357214927673,1,0.9807858467102051],"min":[-0.9958357214927673,-1,-0.9980538487434387],"type":"VEC3"},{"bufferView":2,"componentType":5126,"count":1596,"max":[1,1,1],"min":[1,1,1],"type":"VEC3"},{"bufferView":3,"componentType":5126,"count":1596,"max":[0.9886519908905029,0.9789599776268005],"min":[0.012892000377178192,0.013113999739289284],"type":"VEC2"}],"materials":[{"pbrMetallicRoughness":{"baseColorFactor":[0.8,0.8,0.8,1],"metallicFactor":0,"roughnessFactor":1}}],"meshes":[{"primitives":[{"mode":4,"attributes":{"POSITION":0,"NORMAL":1,"COLOR_0":2,"TEXCOORD_0":3},"material":0}]}]}