{"asset":{"version":"2.0","generator":"GLTFExporter"},"scenes":[{"name":"AuxScene","nodes":[1]}],"scene":0,"nodes":[{"mesh":0},{"children":[0]}],"bufferViews":[{"buffer":0,"byteOffset":0,"byteLength":40608,"target":34962,"byteStride":12},{"buffer":0,"byteOffset":40608,"byteLength":40608,"target":34962,"byteStride":12},{"buffer":0,"byteOffset":81216,"byteLength":40608,"target":34962,"byteStride":12},{"buffer":0,"byteOffset":121824,"byteLength":27072,"target":34962,"byteStride":8}],"buffers":[{"byteLength":148896,"uri":"data:application/octet-stream;base64,"}],"accessors":[{"bufferView":0,"componentType":5126,"count":3384,"max":[0.764805018901825,2.85014009475708,0.764805018901825],"min":[-0.764805018901825,0.0170655008405447,-0.764805018901825],"type":"VEC3"},{"bufferView":1,"componentType":5126,"count":3384,"max":[1,0.9856560230255127,0.9999079704284668],"min":[-1,-0.8406320214271545,-0.9999079704284668],"type":"VEC3"},{"bufferView":2,"componentType":5126,"count":3384,"max":[1,1,1],"min":[1,1,1],"type":"VEC3"},{"bufferView":3,"componentType":5126,"count":3384,"max":[1,0.9861400127410889],"min":[0.0008414689800702035,0.01898919977247715],"type":"VEC2"}],"materials":[{"pbrMetallicRoughness":{"baseColorFactor":[0.8,0.8,0.8,1],"metallicFactor":0,"roughnessFactor":1}}],"meshes":[{"primitives":[{"mode":4,"attributes":{"POSITION":0,"NORMAL":1,"COLOR_0":2,"TEXCOORD_0":3},"material":0}]}]}