{"asset":{"version":"2.0","generator":"GLTFExporter"},"scenes":[{"name":"AuxScene","nodes":[1]}],"scene":0,"nodes":[{"mesh":0},{"children":[0]}],"bufferViews":[{"buffer":0,"byteOffset":0,"byteLength":43056,"target":34962,"byteStride":12},{"buffer":0,"byteOffset":43056,"byteLength":43056,"target":34962,"byteStride":12},{"buffer":0,"byteOffset":86112,"byteLength":43056,"target":34962,"byteStride":12},{"buffer":0,"byteOffset":129168,"byteLength":28704,"target":34962,"byteStride":8}],"buffers":[{"byteLength":157872,"uri":"data:application/octet-stream;base64,"}],"accessors":[{"bufferView":0,"componentType":5126,"count":3588,"max":[0.8790109157562256,3.2405364513397217,0.8790109157562256],"min":[-0.8790109157562256,0.005624945275485516,-0.8790109157562256],"type":"VEC3"},{"bufferView":1,"componentType":5126,"count":3588,"max":[1,1,0.9914456009864807],"min":[-1,-1,-0.9914456009864807],"type":"VEC3"},{"bufferView":2,"componentType":5126,"count":3588,"max":[1,1,1],"min":[1,1,1],"type":"VEC3"},{"bufferView":3,"componentType":5126,"count":3588,"max":[0.9947800040245056,0.9845690131187439],"min":[0.011266999877989292,0.008894000202417374],"type":"VEC2"}],"materials":[{"pbrMetallicRoughness":{"baseColorFactor":[0.8,0.8,0.8,1],"metallicFactor":0,"roughnessFactor":1}}],"meshes":[{"primitives":[{"mode":4,"attributes":{"POSITION":0,"NORMAL":1,"COLOR_0":2,"TEXCOORD_0":3},"material":0}]}]}