{"asset":{"version":"2.0","generator":"GLTFExporter"},"scenes":[{"name":"AuxScene","nodes":[1]}],"scene":0,"nodes":[{"mesh":0},{"children":[0]}],"bufferViews":[{"buffer":0,"byteOffset":0,"byteLength":15984,"target":34962,"byteStride":12},{"buffer":0,"byteOffset":15984,"byteLength":15984,"target":34962,"byteStride":12},{"buffer":0,"byteOffset":31968,"byteLength":15984,"target":34962,"byteStride":12},{"buffer":0,"byteOffset":47952,"byteLength":10656,"target":34962,"byteStride":8}],"buffers":[{"byteLength":58608,"uri":"data:application/octet-stream;base64,"}],"accessors":[{"bufferView":0,"componentType":5126,"count":1332,"max":[0.9370869994163513,2.6345698833465576,0.9370869994163513],"min":[-0.9370869994163513,0.0030287099070847034,-0.9370869994163513],"type":"VEC3"},{"bufferView":1,"componentType":5126,"count":1332,"max":[0.9805591702461243,1,0.9805596470832825],"min":[-0.9805597066879272,-1,-0.9805591702461243],"type":"VEC3"},{"bufferView":2,"componentType":5126,"count":1332,"max":[1,1,1],"min":[1,1,1],"type":"VEC3"},{"bufferView":3,"componentType":5126,"count":1332,"max":[0.9334959983825684,0.9820399880409241],"min":[0.028591999784111977,0.012690999545156956],"type":"VEC2"}],"materials":[{"pbrMetallicRoughness":{"baseColorFactor":[0.8,0.8,0.8,1],"metallicFactor":0,"roughnessFactor":1}}],"meshes":[{"primitives":[{"mode":4,"attributes":{"POSITION":0,"NORMAL":1,"COLOR_0":2,"TEXCOORD_0":3},"material":0}]}]}