{"asset":{"version":"2.0","generator":"GLTFExporter"},"scenes":[{"name":"AuxScene","nodes":[1]}],"scene":0,"nodes":[{"mesh":0},{"children":[0]}],"bufferViews":[{"buffer":0,"byteOffset":0,"byteLength":90576,"target":34962,"byteStride":12},{"buffer":0,"byteOffset":90576,"byteLength":90576,"target":34962,"byteStride":12},{"buffer":0,"byteOffset":181152,"byteLength":90576,"target":34962,"byteStride":12},{"buffer":0,"byteOffset":271728,"byteLength":60384,"target":34962,"byteStride":8}],"buffers":[{"byteLength":332112,"uri":"data:application/octet-stream;base64,"}],"accessors":[{"bufferView":0,"componentType":5126,"count":7548,"max":[0.8261250257492065,3.5095698833465576,0.8261250257492065],"min":[-0.8261250257492065,-0.0005150000215508044,-0.8261250257492065],"type":"VEC3"},{"bufferView":1,"componentType":5126,"count":7548,"max":[1,0.9618520140647888,0.9999690055847168],"min":[-1,-0.8295239806175232,-0.9999690055847168],"type":"VEC3"},{"bufferView":2,"componentType":5126,"count":7548,"max":[1,1,1],"min":[1,1,1],"type":"VEC3"},{"bufferView":3,"componentType":5126,"count":7548,"max":[0.9934710264205933,0.990742027759552],"min":[0.005646000150591135,0.0068060001358389854],"type":"VEC2"}],"materials":[{"pbrMetallicRoughness":{"baseColorFactor":[0.8,0.8,0.8,1],"metallicFactor":0,"roughnessFactor":1}}],"meshes":[{"primitives":[{"mode":4,"attributes":{"POSITION":0,"NORMAL":1,"COLOR_0":2,"TEXCOORD_0":3},"material":0}]}]}