{"asset":{"version":"2.0","generator":"GLTFExporter"},"scenes":[{"name":"AuxScene","nodes":[1]}],"scene":0,"nodes":[{"mesh":0},{"children":[0]}],"bufferViews":[{"buffer":0,"byteOffset":0,"byteLength":27504,"target":34962,"byteStride":12},{"buffer":0,"byteOffset":27504,"byteLength":27504,"target":34962,"byteStride":12},{"buffer":0,"byteOffset":55008,"byteLength":27504,"target":34962,"byteStride":12},{"buffer":0,"byteOffset":82512,"byteLength":18336,"target":34962,"byteStride":8}],"buffers":[{"byteLength":100848,"uri":"data:application/octet-stream;base64,"}],"accessors":[{"bufferView":0,"componentType":5126,"count":2292,"max":[0.7522469758987427,2.8213601112365723,0.7511900067329407],"min":[-0.7522469758987427,0.01340510044246912,-0.7533029913902283],"type":"VEC3"},{"bufferView":1,"componentType":5126,"count":2292,"max":[0.9961389303207397,1,0.9807849526405334],"min":[-0.9961389899253845,-1,-0.9807848930358887],"type":"VEC3"},{"bufferView":2,"componentType":5126,"count":2292,"max":[1,1,1],"min":[1,1,1],"type":"VEC3"},{"bufferView":3,"componentType":5126,"count":2292,"max":[1.0024800300598145,1.0071699619293213],"min":[0.008450999855995178,0.007970999926328659],"type":"VEC2"}],"materials":[{"pbrMetallicRoughness":{"baseColorFactor":[0.8,0.8,0.8,1],"metallicFactor":0,"roughnessFactor":1}}],"meshes":[{"primitives":[{"mode":4,"attributes":{"POSITION":0,"NORMAL":1,"COLOR_0":2,"TEXCOORD_0":3},"material":0}]}]}