{"asset":{"version":"2.0","generator":"GLTFExporter"},"scenes":[{"name":"AuxScene","nodes":[1]}],"scene":0,"nodes":[{"mesh":0},{"children":[0]}],"bufferViews":[{"buffer":0,"byteOffset":0,"byteLength":17280,"target":34962,"byteStride":12},{"buffer":0,"byteOffset":17280,"byteLength":17280,"target":34962,"byteStride":12},{"buffer":0,"byteOffset":34560,"byteLength":17280,"target":34962,"byteStride":12},{"buffer":0,"byteOffset":51840,"byteLength":11520,"target":34962,"byteStride":8}],"buffers":[{"byteLength":63360,"uri":"data:application/octet-stream;base64,"}],"accessors":[{"bufferView":0,"componentType":5126,"count":1440,"max":[0.5847160220146179,1.2160099744796753,0.5847160220146179],"min":[-0.5847160220146179,0.0037147500552237034,-0.5847160220146179],"type":"VEC3"},{"bufferView":1,"componentType":5126,"count":1440,"max":[1,0.9920349717140198,0.9999690055847168],"min":[-1,-0.6856899857521057,-1],"type":"VEC3"},{"bufferView":2,"componentType":5126,"count":1440,"max":[1,1,1],"min":[1,1,1],"type":"VEC3"},{"bufferView":3,"componentType":5126,"count":1440,"max":[0.9826850295066833,0.9779580235481262],"min":[0.011064999736845493,0.01081900019198656],"type":"VEC2"}],"materials":[{"pbrMetallicRoughness":{"baseColorFactor":[0.8,0.8,0.8,1],"metallicFactor":0,"roughnessFactor":1}}],"meshes":[{"primitives":[{"mode":4,"attributes":{"POSITION":0,"NORMAL":1,"COLOR_0":2,"TEXCOORD_0":3},"material":0}]}]}