{"asset":{"version":"2.0","generator":"GLTFExporter"},"scenes":[{"name":"AuxScene","nodes":[1]}],"scene":0,"nodes":[{"mesh":0},{"children":[0]}],"bufferViews":[{"buffer":0,"byteOffset":0,"byteLength":25488,"target":34962,"byteStride":12},{"buffer":0,"byteOffset":25488,"byteLength":25488,"target":34962,"byteStride":12},{"buffer":0,"byteOffset":50976,"byteLength":25488,"target":34962,"byteStride":12},{"buffer":0,"byteOffset":76464,"byteLength":16992,"target":34962,"byteStride":8}],"buffers":[{"byteLength":93456,"uri":"data:application/octet-stream;base64,"}],"accessors":[{"bufferView":0,"componentType":5126,"count":2124,"max":[1.0281505584716797,4.283094882965088,1.0281505584716797],"min":[-1.0281505584716797,-0.02159547433257103,-1.0281505584716797],"type":"VEC3"},{"bufferView":1,"componentType":5126,"count":2124,"max":[1,1,1],"min":[-1,-1,-1],"type":"VEC3"},{"bufferView":2,"componentType":5126,"count":2124,"max":[1,1,1],"min":[1,1,1],"type":"VEC3"},{"bufferView":3,"componentType":5126,"count":2124,"max":[1,0.9991379976272583],"min":[0,0],"type":"VEC2"}],"materials":[{"pbrMetallicRoughness":{"baseColorFactor":[0.8,0.8,0.8,1],"metallicFactor":0,"roughnessFactor":1}}],"meshes":[{"primitives":[{"mode":4,"attributes":{"POSITION":0,"NORMAL":1,"COLOR_0":2,"TEXCOORD_0":3},"material":0}]}]}