{"asset":{"version":"2.0","generator":"GLTFExporter"},"scenes":[{"name":"AuxScene","nodes":[1]}],"scene":0,"nodes":[{"mesh":0},{"children":[0]}],"bufferViews":[{"buffer":0,"byteOffset":0,"byteLength":46584,"target":34962,"byteStride":12},{"buffer":0,"byteOffset":46584,"byteLength":46584,"target":34962,"byteStride":12},{"buffer":0,"byteOffset":93168,"byteLength":46584,"target":34962,"byteStride":12},{"buffer":0,"byteOffset":139752,"byteLength":31056,"target":34962,"byteStride":8}],"buffers":[{"byteLength":170808,"uri":"data:application/octet-stream;base64,"}],"accessors":[{"bufferView":0,"componentType":5126,"count":3882,"max":[0.9182029962539673,3.9827799797058105,0.9456380009651184],"min":[-0.9326819777488708,0.007149000186473131,-0.9372339844703674],"type":"VEC3"},{"bufferView":1,"componentType":5126,"count":3882,"max":[1,0.999114990234375,0.9998779892921448],"min":[-1,-0.9931640028953552,-0.9999690055847168],"type":"VEC3"},{"bufferView":2,"componentType":5126,"count":3882,"max":[1,1,1],"min":[1,1,1],"type":"VEC3"},{"bufferView":3,"componentType":5126,"count":3882,"max":[0.9975360035896301,0.9976800084114075],"min":[0.002756000030785799,0.0006520000169984996],"type":"VEC2"}],"materials":[{"pbrMetallicRoughness":{"baseColorFactor":[0.8,0.8,0.8,1],"metallicFactor":0,"roughnessFactor":1}}],"meshes":[{"primitives":[{"mode":4,"attributes":{"POSITION":0,"NORMAL":1,"COLOR_0":2,"TEXCOORD_0":3},"material":0}]}]}