{"asset":{"version":"2.0","generator":"GLTFExporter"},"scenes":[{"name":"AuxScene","nodes":[1]}],"scene":0,"nodes":[{"mesh":0},{"children":[0]}],"bufferViews":[{"buffer":0,"byteOffset":0,"byteLength":29808,"target":34962,"byteStride":12},{"buffer":0,"byteOffset":29808,"byteLength":29808,"target":34962,"byteStride":12},{"buffer":0,"byteOffset":59616,"byteLength":29808,"target":34962,"byteStride":12},{"buffer":0,"byteOffset":89424,"byteLength":19872,"target":34962,"byteStride":8}],"buffers":[{"byteLength":109296,"uri":"data:application/octet-stream;base64,"}],"accessors":[{"bufferView":0,"componentType":5126,"count":2484,"max":[0.5888440012931824,2.2801899909973145,0.5888440012931824],"min":[-0.5888440012931824,-0.006138649769127369,-0.5888440012931824],"type":"VEC3"},{"bufferView":1,"componentType":5126,"count":2484,"max":[0.9807853698730469,1,0.9807859063148499],"min":[-0.9807859063148499,-1,-0.9807859063148499],"type":"VEC3"},{"bufferView":2,"componentType":5126,"count":2484,"max":[1,1,1],"min":[1,1,1],"type":"VEC3"},{"bufferView":3,"componentType":5126,"count":2484,"max":[0.9867240190505981,0.9919530153274536],"min":[0.013129999861121178,0.010797999799251556],"type":"VEC2"}],"materials":[{"pbrMetallicRoughness":{"baseColorFactor":[0.8,0.8,0.8,1],"metallicFactor":0,"roughnessFactor":1}}],"meshes":[{"primitives":[{"mode":4,"attributes":{"POSITION":0,"NORMAL":1,"COLOR_0":2,"TEXCOORD_0":3},"material":0}]}]}