{"asset":{"version":"2.0","generator":"GLTFExporter"},"scenes":[{"name":"AuxScene","nodes":[1]}],"scene":0,"nodes":[{"extras":{"mapFilename":null},"mesh":0},{"children":[0]}],"bufferViews":[{"buffer":0,"byteOffset":0,"byteLength":36576,"target":34962,"byteStride":12},{"buffer":0,"byteOffset":36576,"byteLength":36576,"target":34962,"byteStride":12},{"buffer":0,"byteOffset":73152,"byteLength":36576,"target":34962,"byteStride":12},{"buffer":0,"byteOffset":109728,"byteLength":24384,"target":34962,"byteStride":8}],"buffers":[{"byteLength":134112,"uri":"data:application/octet-stream;base64,"}],"accessors":[{"bufferView":0,"componentType":5126,"count":3048,"max":[0.7686840295791626,2.3359100818634033,0.9734370112419128],"min":[-0.768684983253479,0.0061097401194274426,-0.692887008190155],"type":"VEC3"},{"bufferView":1,"componentType":5126,"count":3048,"max":[1,0.9915159940719604,0.9999690055847168],"min":[-1,-0.9964290261268616,-0.9999690055847168],"type":"VEC3"},{"bufferView":2,"componentType":5126,"count":3048,"max":[1,1,1],"min":[1,1,1],"type":"VEC3"},{"bufferView":3,"componentType":5126,"count":3048,"max":[0.9877960085868835,0.9912310242652893],"min":[0.01400499977171421,0.007942999713122845],"type":"VEC2"}],"materials":[{"pbrMetallicRoughness":{"metallicFactor":0,"roughnessFactor":1},"name":"default"}],"meshes":[{"primitives":[{"mode":4,"attributes":{"POSITION":0,"NORMAL":1,"COLOR_0":2,"TEXCOORD_0":3},"material":0}]}]}