{"asset":{"version":"2.0","generator":"GLTFExporter"},"scenes":[{"name":"AuxScene","nodes":[1]}],"scene":0,"nodes":[{"mesh":0},{"children":[0]}],"bufferViews":[{"buffer":0,"byteOffset":0,"byteLength":92880,"target":34962,"byteStride":12},{"buffer":0,"byteOffset":92880,"byteLength":92880,"target":34962,"byteStride":12},{"buffer":0,"byteOffset":185760,"byteLength":92880,"target":34962,"byteStride":12},{"buffer":0,"byteOffset":278640,"byteLength":61920,"target":34962,"byteStride":8}],"buffers":[{"byteLength":340560,"uri":"data:application/octet-stream;base64,"}],"accessors":[{"bufferView":0,"componentType":5126,"count":7740,"max":[1.0453636646270752,3.3008453845977783,0.8130499720573425],"min":[-1.0453636646270752,-0.001943636336363852,-1.2302272319793701],"type":"VEC3"},{"bufferView":1,"componentType":5126,"count":7740,"max":[0.9999690055847168,0.9998779892921448,0.9999690055847168],"min":[-0.9999690055847168,-0.9969480037689209,-0.9999690055847168],"type":"VEC3"},{"bufferView":2,"componentType":5126,"count":7740,"max":[1,1,1],"min":[1,1,1],"type":"VEC3"},{"bufferView":3,"componentType":5126,"count":7740,"max":[1,1],"min":[0,0],"type":"VEC2"}],"materials":[{"pbrMetallicRoughness":{"baseColorFactor":[0.8,0.8,0.8,1],"metallicFactor":0,"roughnessFactor":1}}],"meshes":[{"primitives":[{"mode":4,"attributes":{"POSITION":0,"NORMAL":1,"COLOR_0":2,"TEXCOORD_0":3},"material":0}]}]}