{"asset":{"version":"2.0","generator":"GLTFExporter"},"scenes":[{"name":"AuxScene","nodes":[1]}],"scene":0,"nodes":[{"mesh":0},{"children":[0]}],"bufferViews":[{"buffer":0,"byteOffset":0,"byteLength":37008,"target":34962,"byteStride":12},{"buffer":0,"byteOffset":37008,"byteLength":37008,"target":34962,"byteStride":12},{"buffer":0,"byteOffset":74016,"byteLength":37008,"target":34962,"byteStride":12},{"buffer":0,"byteOffset":111024,"byteLength":24672,"target":34962,"byteStride":8}],"buffers":[{"byteLength":135696,"uri":"data:application/octet-stream;base64,"}],"accessors":[{"bufferView":0,"componentType":5126,"count":3084,"max":[0.711745023727417,3.163670063018799,0.711745023727417],"min":[-0.711745023727417,0.036104001104831696,-0.7414349913597107],"type":"VEC3"},{"bufferView":1,"componentType":5126,"count":3084,"max":[1,1,0.9998131990432739],"min":[-1,-1,-1],"type":"VEC3"},{"bufferView":2,"componentType":5126,"count":3084,"max":[1,1,1],"min":[1,1,1],"type":"VEC3"},{"bufferView":3,"componentType":5126,"count":3084,"max":[1,0.9949380159378052],"min":[0.002454000059515238,0],"type":"VEC2"}],"materials":[{"pbrMetallicRoughness":{"baseColorFactor":[0.8,0.8,0.8,1],"metallicFactor":0,"roughnessFactor":1}}],"meshes":[{"primitives":[{"mode":4,"attributes":{"POSITION":0,"NORMAL":1,"COLOR_0":2,"TEXCOORD_0":3},"material":0}]}]}