{"asset":{"version":"2.0","generator":"GLTFExporter"},"scenes":[{"name":"AuxScene","nodes":[1]}],"scene":0,"nodes":[{"extras":{"mapFilename":"fox-texture.jpg"},"mesh":0},{"children":[0]}],"bufferViews":[{"buffer":0,"byteOffset":0,"byteLength":41472,"target":34962,"byteStride":12},{"buffer":0,"byteOffset":41472,"byteLength":41472,"target":34962,"byteStride":12},{"buffer":0,"byteOffset":82944,"byteLength":41472,"target":34962,"byteStride":12},{"buffer":0,"byteOffset":124416,"byteLength":27648,"target":34962,"byteStride":8}],"buffers":[{"byteLength":152064,"uri":"data:application/octet-stream;base64,"}],"accessors":[{"bufferView":0,"componentType":5126,"count":3456,"max":[0.6581360101699829,2.4431099891662598,1.7938300371170044],"min":[-0.6581360101699829,-0.0025102500803768635,-1.1436100006103516],"type":"VEC3"},{"bufferView":1,"componentType":5126,"count":3456,"max":[0.9975889921188354,0.9999690055847168,0.9989320039749146],"min":[-0.9977719783782959,-0.9991459846496582,-0.9974669814109802],"type":"VEC3"},{"bufferView":2,"componentType":5126,"count":3456,"max":[1,1,1],"min":[1,1,1],"type":"VEC3"},{"bufferView":3,"componentType":5126,"count":3456,"max":[0.986581027507782,0.9729989767074585],"min":[0.016804000362753868,0.0030720001086592674],"type":"VEC2"}],"materials":[{"pbrMetallicRoughness":{"metallicFactor":0,"roughnessFactor":1,"baseColorTexture":{"index":0}},"name":"Material"}],"meshes":[{"primitives":[{"mode":4,"attributes":{"POSITION":0,"NORMAL":1,"COLOR_0":2,"TEXCOORD_0":3},"material":0}]}],"images":[{"uri":"fox-texture.jpg"}],"textures":[{"source":0}]}