{"asset":{"version":"2.0","generator":"GLTFExporter"},"scenes":[{"name":"AuxScene","nodes":[1]}],"scene":0,"nodes":[{"extras":{"mapFilename":"goose-texture.jpg"},"mesh":0},{"children":[0]}],"bufferViews":[{"buffer":0,"byteOffset":0,"byteLength":32256,"target":34962,"byteStride":12},{"buffer":0,"byteOffset":32256,"byteLength":32256,"target":34962,"byteStride":12},{"buffer":0,"byteOffset":64512,"byteLength":32256,"target":34962,"byteStride":12},{"buffer":0,"byteOffset":96768,"byteLength":21504,"target":34962,"byteStride":8}],"buffers":[{"byteLength":118272,"uri":"data:application/octet-stream;base64,"}],"accessors":[{"bufferView":0,"componentType":5126,"count":2688,"max":[0.8893679976463318,4.2846198081970215,2.533799886703491],"min":[-0.9142959713935852,0.00540971988812089,-1.514140009880066],"type":"VEC3"},{"bufferView":1,"componentType":5126,"count":2688,"max":[0.9977419972419739,0.9995729923248291,0.9989929795265198],"min":[-0.9977419972419739,-0.9999690055847168,-0.9999390244483948],"type":"VEC3"},{"bufferView":2,"componentType":5126,"count":2688,"max":[1,1,1],"min":[1,1,1],"type":"VEC3"},{"bufferView":3,"componentType":5126,"count":2688,"max":[0.9809309840202332,0.9853150248527527],"min":[0.022816000506281853,0.053008001297712326],"type":"VEC2"}],"materials":[{"pbrMetallicRoughness":{"metallicFactor":0,"roughnessFactor":1,"baseColorTexture":{"index":0}},"name":"Material"}],"meshes":[{"primitives":[{"mode":4,"attributes":{"POSITION":0,"NORMAL":1,"COLOR_0":2,"TEXCOORD_0":3},"material":0}]}],"images":[{"uri":"goose-texture.jpg"}],"textures":[{"source":0}]}