{"asset":{"version":"2.0","generator":"GLTFExporter"},"scenes":[{"name":"AuxScene","nodes":[1]}],"scene":0,"nodes":[{"mesh":0},{"children":[0]}],"bufferViews":[{"buffer":0,"byteOffset":0,"byteLength":34272,"target":34962,"byteStride":12},{"buffer":0,"byteOffset":34272,"byteLength":34272,"target":34962,"byteStride":12},{"buffer":0,"byteOffset":68544,"byteLength":34272,"target":34962,"byteStride":12},{"buffer":0,"byteOffset":102816,"byteLength":22848,"target":34962,"byteStride":8}],"buffers":[{"byteLength":125664,"uri":"data:application/octet-stream;base64,"}],"accessors":[{"bufferView":0,"componentType":5126,"count":2856,"max":[0.9319660067558289,3.264699935913086,0.8158109784126282],"min":[-0.9212610125541687,0.019047999754548073,-0.7708479762077332],"type":"VEC3"},{"bufferView":1,"componentType":5126,"count":2856,"max":[1,0.9998779892921448,0.9999690055847168],"min":[-0.9999690055847168,-0.9513530135154724,-1],"type":"VEC3"},{"bufferView":2,"componentType":5126,"count":2856,"max":[1,1,1],"min":[1,1,1],"type":"VEC3"},{"bufferView":3,"componentType":5126,"count":2856,"max":[0.9952849745750427,0.9947130084037781],"min":[0.0012929999502375722,0.0065750000067055225],"type":"VEC2"}],"materials":[{"pbrMetallicRoughness":{"baseColorFactor":[0.8,0.8,0.8,1],"metallicFactor":0,"roughnessFactor":1}}],"meshes":[{"primitives":[{"mode":4,"attributes":{"POSITION":0,"NORMAL":1,"COLOR_0":2,"TEXCOORD_0":3},"material":0}]}]}