{"asset":{"version":"2.0","generator":"GLTFExporter"},"scenes":[{"name":"AuxScene","nodes":[1]}],"scene":0,"nodes":[{"mesh":0},{"children":[0]}],"bufferViews":[{"buffer":0,"byteOffset":0,"byteLength":9072,"target":34962,"byteStride":12},{"buffer":0,"byteOffset":9072,"byteLength":9072,"target":34962,"byteStride":12},{"buffer":0,"byteOffset":18144,"byteLength":9072,"target":34962,"byteStride":12},{"buffer":0,"byteOffset":27216,"byteLength":6048,"target":34962,"byteStride":8}],"buffers":[{"byteLength":33264,"uri":"data:application/octet-stream;base64,"}],"accessors":[{"bufferView":0,"componentType":5126,"count":756,"max":[0.7592210173606873,0.3432379961013794,0.7592210173606873],"min":[-0.7592210173606873,-0.006415939889848232,-0.7592210173606873],"type":"VEC3"},{"bufferView":1,"componentType":5126,"count":756,"max":[0.9912209510803223,1,0.9912209510803223],"min":[-0.9912209510803223,-1,-0.9912212491035461],"type":"VEC3"},{"bufferView":2,"componentType":5126,"count":756,"max":[1,1,1],"min":[1,1,1],"type":"VEC3"},{"bufferView":3,"componentType":5126,"count":756,"max":[0.9874759912490845,0.9851149916648865],"min":[0.011672000400722027,0.019920000806450844],"type":"VEC2"}],"materials":[{"pbrMetallicRoughness":{"baseColorFactor":[0.8,0.8,0.8,1],"metallicFactor":0,"roughnessFactor":1}}],"meshes":[{"primitives":[{"mode":4,"attributes":{"POSITION":0,"NORMAL":1,"COLOR_0":2,"TEXCOORD_0":3},"material":0}]}]}