{"asset":{"version":"2.0","generator":"GLTFExporter"},"scenes":[{"name":"AuxScene","nodes":[1]}],"scene":0,"nodes":[{"mesh":0},{"children":[0]}],"bufferViews":[{"buffer":0,"byteOffset":0,"byteLength":80352,"target":34962,"byteStride":12},{"buffer":0,"byteOffset":80352,"byteLength":80352,"target":34962,"byteStride":12},{"buffer":0,"byteOffset":160704,"byteLength":80352,"target":34962,"byteStride":12},{"buffer":0,"byteOffset":241056,"byteLength":53568,"target":34962,"byteStride":8}],"buffers":[{"byteLength":294624,"uri":"data:application/octet-stream;base64,"}],"accessors":[{"bufferView":0,"componentType":5126,"count":6696,"max":[0.8300880193710327,2.4353699684143066,0.8300880193710327],"min":[-0.8300880193710327,0.010218500159680843,-0.8300880193710327],"type":"VEC3"},{"bufferView":1,"componentType":5126,"count":6696,"max":[1,1,1],"min":[-1,-1,-1],"type":"VEC3"},{"bufferView":2,"componentType":5126,"count":6696,"max":[1,1,1],"min":[1,1,1],"type":"VEC3"},{"bufferView":3,"componentType":5126,"count":6696,"max":[1.0006599426269531,1.0066800117492676],"min":[0.001979999942705035,0.008702999912202358],"type":"VEC2"}],"materials":[{"pbrMetallicRoughness":{"baseColorFactor":[0.8,0.8,0.8,1],"metallicFactor":0,"roughnessFactor":1}}],"meshes":[{"primitives":[{"mode":4,"attributes":{"POSITION":0,"NORMAL":1,"COLOR_0":2,"TEXCOORD_0":3},"material":0}]}]}