{"asset":{"version":"2.0","generator":"GLTFExporter"},"scenes":[{"name":"AuxScene","nodes":[1]}],"scene":0,"nodes":[{"mesh":0},{"children":[0]}],"bufferViews":[{"buffer":0,"byteOffset":0,"byteLength":35424,"target":34962,"byteStride":12},{"buffer":0,"byteOffset":35424,"byteLength":35424,"target":34962,"byteStride":12},{"buffer":0,"byteOffset":70848,"byteLength":35424,"target":34962,"byteStride":12},{"buffer":0,"byteOffset":106272,"byteLength":23616,"target":34962,"byteStride":8}],"buffers":[{"byteLength":129888,"uri":"data:application/octet-stream;base64,"}],"accessors":[{"bufferView":0,"componentType":5126,"count":2952,"max":[0.7553790211677551,2.9384500980377197,0.7553790211677551],"min":[-0.7553790211677551,-0.019736099988222122,-0.7553790211677551],"type":"VEC3"},{"bufferView":1,"componentType":5126,"count":2952,"max":[0.9999690055847168,0.9856560230255127,0.9999690055847168],"min":[-0.9999690055847168,-0.8174690008163452,-0.9999690055847168],"type":"VEC3"},{"bufferView":2,"componentType":5126,"count":2952,"max":[1,1,1],"min":[1,1,1],"type":"VEC3"},{"bufferView":3,"componentType":5126,"count":2952,"max":[0.973583996295929,0.9699069857597351],"min":[0.01881139911711216,0.015835300087928772],"type":"VEC2"}],"materials":[{"pbrMetallicRoughness":{"baseColorFactor":[0.8,0.8,0.8,1],"metallicFactor":0,"roughnessFactor":1}}],"meshes":[{"primitives":[{"mode":4,"attributes":{"POSITION":0,"NORMAL":1,"COLOR_0":2,"TEXCOORD_0":3},"material":0}]}]}