{"asset":{"version":"2.0","generator":"GLTFExporter"},"scenes":[{"name":"AuxScene","nodes":[1]}],"scene":0,"nodes":[{"mesh":0},{"children":[0]}],"bufferViews":[{"buffer":0,"byteOffset":0,"byteLength":18936,"target":34962,"byteStride":12},{"buffer":0,"byteOffset":18936,"byteLength":18936,"target":34962,"byteStride":12},{"buffer":0,"byteOffset":37872,"byteLength":18936,"target":34962,"byteStride":12},{"buffer":0,"byteOffset":56808,"byteLength":12624,"target":34962,"byteStride":8}],"buffers":[{"byteLength":69432,"uri":"data:application/octet-stream;base64,"}],"accessors":[{"bufferView":0,"componentType":5126,"count":1578,"max":[0.7886809706687927,3.1431798934936523,0.7729830145835876],"min":[-0.7886809706687927,-0.0025217700749635696,-0.8671010136604309],"type":"VEC3"},{"bufferView":1,"componentType":5126,"count":1578,"max":[1,0.9557128548622131,0.980785071849823],"min":[-0.9950327277183533,-1,-0.9996134042739868],"type":"VEC3"},{"bufferView":2,"componentType":5126,"count":1578,"max":[1,1,1],"min":[1,1,1],"type":"VEC3"},{"bufferView":3,"componentType":5126,"count":1578,"max":[0.9943860173225403,0.9940400123596191],"min":[0.010424000211060047,0.007025000173598528],"type":"VEC2"}],"materials":[{"pbrMetallicRoughness":{"baseColorFactor":[0.8,0.8,0.8,1],"metallicFactor":0,"roughnessFactor":1}}],"meshes":[{"primitives":[{"mode":4,"attributes":{"POSITION":0,"NORMAL":1,"COLOR_0":2,"TEXCOORD_0":3},"material":0}]}]}