{"asset":{"version":"2.0","generator":"GLTFExporter"},"scenes":[{"name":"AuxScene","nodes":[1]}],"scene":0,"nodes":[{"mesh":0},{"children":[0]}],"bufferViews":[{"buffer":0,"byteOffset":0,"byteLength":42624,"target":34962,"byteStride":12},{"buffer":0,"byteOffset":42624,"byteLength":42624,"target":34962,"byteStride":12},{"buffer":0,"byteOffset":85248,"byteLength":42624,"target":34962,"byteStride":12},{"buffer":0,"byteOffset":127872,"byteLength":28416,"target":34962,"byteStride":8}],"buffers":[{"byteLength":156288,"uri":"data:application/octet-stream;base64,"}],"accessors":[{"bufferView":0,"componentType":5126,"count":3552,"max":[0.8929219841957092,3.171190023422241,0.9007300138473511],"min":[-0.8929219841957092,0.019437000155448914,-0.9007290005683899],"type":"VEC3"},{"bufferView":1,"componentType":5126,"count":3552,"max":[0.9996640086174011,0.9998469948768616,0.999176025390625],"min":[-0.9996640086174011,-0.9890130162239075,-0.9995120167732239],"type":"VEC3"},{"bufferView":2,"componentType":5126,"count":3552,"max":[1,1,1],"min":[1,1,1],"type":"VEC3"},{"bufferView":3,"componentType":5126,"count":3552,"max":[0.9754019975662231,0.979112982749939],"min":[0.02444400079548359,0.013036999851465225],"type":"VEC2"}],"materials":[{"pbrMetallicRoughness":{"baseColorFactor":[0.8,0.8,0.8,1],"metallicFactor":0,"roughnessFactor":1}}],"meshes":[{"primitives":[{"mode":4,"attributes":{"POSITION":0,"NORMAL":1,"COLOR_0":2,"TEXCOORD_0":3},"material":0}]}]}