{"asset":{"version":"2.0","generator":"GLTFExporter"},"scenes":[{"name":"AuxScene","nodes":[1]}],"scene":0,"nodes":[{"mesh":0},{"children":[0]}],"bufferViews":[{"buffer":0,"byteOffset":0,"byteLength":19800,"target":34962,"byteStride":12},{"buffer":0,"byteOffset":19800,"byteLength":19800,"target":34962,"byteStride":12},{"buffer":0,"byteOffset":39600,"byteLength":19800,"target":34962,"byteStride":12},{"buffer":0,"byteOffset":59400,"byteLength":13200,"target":34962,"byteStride":8}],"buffers":[{"byteLength":72600,"uri":"data:application/octet-stream;base64,"}],"accessors":[{"bufferView":0,"componentType":5126,"count":1650,"max":[1.0183500051498413,4.004049777984619,1.234529972076416],"min":[-1.0183500051498413,0.03311200067400932,-1.0378799438476562],"type":"VEC3"},{"bufferView":1,"componentType":5126,"count":1650,"max":[0.9995378255844116,0.9964116215705872,1],"min":[-0.9995378255844116,-1,-0.9770954847335815],"type":"VEC3"},{"bufferView":2,"componentType":5126,"count":1650,"max":[1,1,1],"min":[1,1,1],"type":"VEC3"},{"bufferView":3,"componentType":5126,"count":1650,"max":[0.9962760210037231,0.9896690249443054],"min":[0.01880200020968914,0.011851999908685684],"type":"VEC2"}],"materials":[{"pbrMetallicRoughness":{"baseColorFactor":[0.8,0.8,0.8,1],"metallicFactor":0,"roughnessFactor":1}}],"meshes":[{"primitives":[{"mode":4,"attributes":{"POSITION":0,"NORMAL":1,"COLOR_0":2,"TEXCOORD_0":3},"material":0}]}]}