{"asset":{"version":"2.0","generator":"GLTFExporter"},"scenes":[{"name":"AuxScene","nodes":[1]}],"scene":0,"nodes":[{"mesh":0},{"children":[0]}],"bufferViews":[{"buffer":0,"byteOffset":0,"byteLength":21888,"target":34962,"byteStride":12},{"buffer":0,"byteOffset":21888,"byteLength":21888,"target":34962,"byteStride":12},{"buffer":0,"byteOffset":43776,"byteLength":21888,"target":34962,"byteStride":12},{"buffer":0,"byteOffset":65664,"byteLength":14592,"target":34962,"byteStride":8}],"buffers":[{"byteLength":80256,"uri":"data:application/octet-stream;base64,"}],"accessors":[{"bufferView":0,"componentType":5126,"count":1824,"max":[0.823432981967926,1.5691699981689453,0.823432981967926],"min":[-0.823432981967926,0.004641570150852203,-0.823432981967926],"type":"VEC3"},{"bufferView":1,"componentType":5126,"count":1824,"max":[1,0.9920349717140198,1],"min":[-1,-1,-0.9999690055847168],"type":"VEC3"},{"bufferView":2,"componentType":5126,"count":1824,"max":[1,1,1],"min":[1,1,1],"type":"VEC3"},{"bufferView":3,"componentType":5126,"count":1824,"max":[0.9886860251426697,0.9922879934310913],"min":[0.012733999639749527,0.014840999618172646],"type":"VEC2"}],"materials":[{"pbrMetallicRoughness":{"baseColorFactor":[0.8,0.8,0.8,1],"metallicFactor":0,"roughnessFactor":1}}],"meshes":[{"primitives":[{"mode":4,"attributes":{"POSITION":0,"NORMAL":1,"COLOR_0":2,"TEXCOORD_0":3},"material":0}]}]}