{"asset":{"version":"2.0","generator":"GLTFExporter"},"scenes":[{"name":"AuxScene","nodes":[1]}],"scene":0,"nodes":[{"mesh":0},{"children":[0]}],"bufferViews":[{"buffer":0,"byteOffset":0,"byteLength":18288,"target":34962,"byteStride":12},{"buffer":0,"byteOffset":18288,"byteLength":18288,"target":34962,"byteStride":12},{"buffer":0,"byteOffset":36576,"byteLength":18288,"target":34962,"byteStride":12},{"buffer":0,"byteOffset":54864,"byteLength":12192,"target":34962,"byteStride":8}],"buffers":[{"byteLength":67056,"uri":"data:application/octet-stream;base64,"}],"accessors":[{"bufferView":0,"componentType":5126,"count":1524,"max":[0.6393600106239319,1.340749979019165,0.6393600106239319],"min":[-0.6393600106239319,0.020031599327921867,-0.6393600106239319],"type":"VEC3"},{"bufferView":1,"componentType":5126,"count":1524,"max":[0.9913020133972168,0.9997559785842896,0.9999690055847168],"min":[-0.9913020133972168,-0.6856899857521057,-0.99822998046875],"type":"VEC3"},{"bufferView":2,"componentType":5126,"count":1524,"max":[1,1,1],"min":[1,1,1],"type":"VEC3"},{"bufferView":3,"componentType":5126,"count":1524,"max":[0.9702399969100952,0.9653369784355164],"min":[0.049421001225709915,0.07754799723625183],"type":"VEC2"}],"materials":[{"pbrMetallicRoughness":{"baseColorFactor":[0.8,0.8,0.8,1],"metallicFactor":0,"roughnessFactor":1}}],"meshes":[{"primitives":[{"mode":4,"attributes":{"POSITION":0,"NORMAL":1,"COLOR_0":2,"TEXCOORD_0":3},"material":0}]}]}