{"asset":{"version":"2.0","generator":"GLTFExporter"},"scenes":[{"name":"AuxScene","nodes":[1]}],"scene":0,"nodes":[{"extras":{"mapFilename":"ukuku-textures.jpg"},"mesh":0},{"children":[0]}],"bufferViews":[{"buffer":0,"byteOffset":0,"byteLength":119808,"target":34962,"byteStride":12},{"buffer":0,"byteOffset":119808,"byteLength":119808,"target":34962,"byteStride":12},{"buffer":0,"byteOffset":239616,"byteLength":119808,"target":34962,"byteStride":12},{"buffer":0,"byteOffset":359424,"byteLength":79872,"target":34962,"byteStride":8}],"buffers":[{"byteLength":439296,"uri":"data:application/octet-stream;base64,"}],"accessors":[{"bufferView":0,"componentType":5126,"count":9984,"max":[0.9762120246887207,0.997409999370575,0.9762120246887207],"min":[-0.9762120246887207,0.005692690145224333,-0.9762120246887207],"type":"VEC3"},{"bufferView":1,"componentType":5126,"count":9984,"max":[1,1,1],"min":[-1,-1,-1],"type":"VEC3"},{"bufferView":2,"componentType":5126,"count":9984,"max":[1,1,1],"min":[1,1,1],"type":"VEC3"},{"bufferView":3,"componentType":5126,"count":9984,"max":[0.9899160265922546,0.9843639731407166],"min":[0.03505299985408783,-0.0014779999619349837],"type":"VEC2"}],"materials":[{"pbrMetallicRoughness":{"baseColorFactor":[0.8,0.8,0.8,1],"metallicFactor":0,"roughnessFactor":1,"baseColorTexture":{"index":0}},"name":"Material.001"}],"meshes":[{"primitives":[{"mode":4,"attributes":{"POSITION":0,"NORMAL":1,"COLOR_0":2,"TEXCOORD_0":3},"material":0}]}],"images":[{"uri":"ukuku-textures.jpg"}],"textures":[{"source":0}]}