{"asset":{"version":"2.0","generator":"GLTFExporter"},"scenes":[{"name":"AuxScene","nodes":[1]}],"scene":0,"nodes":[{"mesh":0},{"children":[0]}],"bufferViews":[{"buffer":0,"byteOffset":0,"byteLength":37224,"target":34962,"byteStride":12},{"buffer":0,"byteOffset":37224,"byteLength":37224,"target":34962,"byteStride":12},{"buffer":0,"byteOffset":74448,"byteLength":37224,"target":34962,"byteStride":12},{"buffer":0,"byteOffset":111672,"byteLength":24816,"target":34962,"byteStride":8},{"buffer":0,"byteOffset":136488,"byteLength":37224,"target":34962,"byteStride":12},{"buffer":0,"byteOffset":173712,"byteLength":37224,"target":34962,"byteStride":12}],"buffers":[{"byteLength":210936,"uri":"data:application/octet-stream;base64,"}],"accessors":[{"bufferView":0,"componentType":5126,"count":3102,"max":[1.2589000463485718,3.1504499912261963,0.8596910238265991],"min":[-1.2589000463485718,0.020871199667453766,-1.4960700273513794],"type":"VEC3"},{"bufferView":1,"componentType":5126,"count":3102,"max":[0.9974045753479004,0.9951251745223999,0.9998862147331238],"min":[-0.9964616894721985,-0.9999746680259705,-0.9930582642555237],"type":"VEC3"},{"bufferView":2,"componentType":5126,"count":3102,"max":[1,1,1],"min":[1,1,1],"type":"VEC3"},{"bufferView":3,"componentType":5126,"count":3102,"max":[1.0014699697494507,0.9723610281944275],"min":[0.00184299994725734,0.0019209999591112137],"type":"VEC2"},{"bufferView":4,"componentType":5126,"count":3102,"max":[0,0,0],"min":[0,0,0],"type":"VEC3"},{"bufferView":5,"componentType":5126,"count":3102,"max":[1.093579888343811,1.7483940124511719,1.223343014717102],"min":[-1.11680006980896,-1.4517600536346436,-2.891618013381958],"type":"VEC3"}],"materials":[{"pbrMetallicRoughness":{"baseColorFactor":[0.8,0.8,0.8,1],"metallicFactor":0,"roughnessFactor":1}}],"meshes":[{"weights":[0,0],"extras":{"targetNames":["animation_000000","animation_000001"]},"primitives":[{"mode":4,"attributes":{"POSITION":0,"NORMAL":1,"COLOR_0":2,"TEXCOORD_0":3},"targets":[{"POSITION":4},{"POSITION":5}],"material":0}]}]}