{"asset":{"version":"2.0","generator":"GLTFExporter"},"scenes":[{"name":"AuxScene","nodes":[1]}],"scene":0,"nodes":[{"mesh":0},{"children":[0]}],"bufferViews":[{"buffer":0,"byteOffset":0,"byteLength":6480,"target":34962,"byteStride":12},{"buffer":0,"byteOffset":6480,"byteLength":6480,"target":34962,"byteStride":12},{"buffer":0,"byteOffset":12960,"byteLength":6480,"target":34962,"byteStride":12}],"buffers":[{"byteLength":19440,"uri":"data:application/octet-stream;base64,"}],"accessors":[{"bufferView":0,"componentType":5126,"count":540,"max":[7.845839977264404,0.2635810077190399,7.311349868774414],"min":[-8.10293960571289,-1.043660044670105,-7.007909774780273],"type":"VEC3"},{"bufferView":1,"componentType":5126,"count":540,"max":[0.9838500022888184,1,0.9547154307365417],"min":[-0.98273766040802,-0.27735280990600586,-0.9796160459518433],"type":"VEC3"},{"bufferView":2,"componentType":5126,"count":540,"max":[1,1,1],"min":[1,1,1],"type":"VEC3"}],"materials":[{"pbrMetallicRoughness":{"baseColorFactor":[0.8,0.8,0.8,1],"metallicFactor":0,"roughnessFactor":1}}],"meshes":[{"primitives":[{"mode":4,"attributes":{"POSITION":0,"NORMAL":1,"COLOR_0":2},"material":0}]}]}