{"asset":{"version":"2.0","generator":"GLTFExporter"},"scenes":[{"name":"AuxScene","nodes":[1]}],"scene":0,"nodes":[{"mesh":0},{"children":[0]}],"bufferViews":[{"buffer":0,"byteOffset":0,"byteLength":22680,"target":34962,"byteStride":12},{"buffer":0,"byteOffset":22680,"byteLength":22680,"target":34962,"byteStride":12},{"buffer":0,"byteOffset":45360,"byteLength":22680,"target":34962,"byteStride":12},{"buffer":0,"byteOffset":68040,"byteLength":15120,"target":34962,"byteStride":8},{"buffer":0,"byteOffset":83160,"byteLength":22680,"target":34962,"byteStride":12},{"buffer":0,"byteOffset":105840,"byteLength":22680,"target":34962,"byteStride":12}],"buffers":[{"byteLength":128520,"uri":"data:application/octet-stream;base64,"}],"accessors":[{"bufferView":0,"componentType":5126,"count":1890,"max":[1.6147799491882324,4.673099994659424,1.5529500246047974],"min":[-1.6147799491882324,0.024315400049090385,-1.9801000356674194],"type":"VEC3"},{"bufferView":1,"componentType":5126,"count":1890,"max":[0.9999527931213379,0.9976566433906555,0.9950856566429138],"min":[-0.9999527931213379,-0.9999967217445374,-0.9948379993438721],"type":"VEC3"},{"bufferView":2,"componentType":5126,"count":1890,"max":[1,1,1],"min":[1,1,1],"type":"VEC3"},{"bufferView":3,"componentType":5126,"count":1890,"max":[0.994288980960846,0.9920520186424255],"min":[0.011381999589502811,0.01810700073838234],"type":"VEC2"},{"bufferView":4,"componentType":5126,"count":1890,"max":[0,0,0],"min":[0,0,0],"type":"VEC3"},{"bufferView":5,"componentType":5126,"count":1890,"max":[1.4921199083328247,2.1450631618499756,1.7362520694732666],"min":[-1.3415900468826294,-2.301500082015991,-4.5727739334106445],"type":"VEC3"}],"materials":[{"pbrMetallicRoughness":{"baseColorFactor":[0.8,0.8,0.8,1],"metallicFactor":0,"roughnessFactor":1}}],"meshes":[{"weights":[0,0],"extras":{"targetNames":["animation_000000","animation_000001"]},"primitives":[{"mode":4,"attributes":{"POSITION":0,"NORMAL":1,"COLOR_0":2,"TEXCOORD_0":3},"targets":[{"POSITION":4},{"POSITION":5}],"material":0}]}]}