{"asset":{"version":"2.0","generator":"GLTFExporter"},"scenes":[{"name":"AuxScene","nodes":[2]}],"scene":0,"nodes":[{"extras":{"mapFilename":null},"mesh":0},{"extras":{"mapFilename":null},"mesh":1},{"children":[0,1]}],"bufferViews":[{"buffer":0,"byteOffset":0,"byteLength":21456,"target":34962,"byteStride":12},{"buffer":0,"byteOffset":21456,"byteLength":21456,"target":34962,"byteStride":12},{"buffer":0,"byteOffset":42912,"byteLength":21456,"target":34962,"byteStride":12},{"buffer":0,"byteOffset":64368,"byteLength":9360,"target":34962,"byteStride":12},{"buffer":0,"byteOffset":73728,"byteLength":9360,"target":34962,"byteStride":12},{"buffer":0,"byteOffset":83088,"byteLength":9360,"target":34962,"byteStride":12}],"buffers":[{"byteLength":92448,"uri":"data:application/octet-stream;base64,"}],"accessors":[{"bufferView":0,"componentType":5126,"count":1788,"max":[0.7013329863548279,1.009369969367981,0.6480249762535095],"min":[-0.7013329863548279,-0.011792199686169624,-0.011488799937069416],"type":"VEC3"},{"bufferView":1,"componentType":5126,"count":1788,"max":[1,0.873652994632721,0.9508649706840515],"min":[0,0,0],"type":"VEC3"},{"bufferView":2,"componentType":5126,"count":1788,"max":[1,1,1],"min":[1,1,1],"type":"VEC3"},{"bufferView":3,"componentType":5126,"count":780,"max":[0.7501929998397827,1.0992300510406494,0.6892179846763611],"min":[-0.745943009853363,-0.01578179933130741,-0.045016899704933167],"type":"VEC3"},{"bufferView":4,"componentType":5126,"count":780,"max":[1,0.9999690055847168,1],"min":[-0.9999690055847168,-1,-1],"type":"VEC3"},{"bufferView":5,"componentType":5126,"count":780,"max":[1,1,1],"min":[1,1,1],"type":"VEC3"}],"materials":[{"pbrMetallicRoughness":{"baseColorFactor":[0.6392156862745098,0.6392156862745098,0.6392156862745098,1],"metallicFactor":0,"roughnessFactor":1},"name":"filet"},{"pbrMetallicRoughness":{"baseColorFactor":[0.8,0,0.054901960784313725,1],"metallicFactor":0,"roughnessFactor":1},"name":"Material.004"}],"meshes":[{"primitives":[{"mode":4,"attributes":{"POSITION":0,"NORMAL":1,"COLOR_0":2},"material":0}]},{"primitives":[{"mode":4,"attributes":{"POSITION":3,"NORMAL":4,"COLOR_0":5},"material":1}]}]}