{"asset":{"version":"2.0","generator":"GLTFExporter"},"scenes":[{"name":"AuxScene","nodes":[1]}],"scene":0,"nodes":[{"extras":{"mapFilename":null},"mesh":0},{"children":[0]}],"bufferViews":[{"buffer":0,"byteOffset":0,"byteLength":4608,"target":34962,"byteStride":12},{"buffer":0,"byteOffset":4608,"byteLength":4608,"target":34962,"byteStride":12},{"buffer":0,"byteOffset":9216,"byteLength":4608,"target":34962,"byteStride":12}],"buffers":[{"byteLength":13824,"uri":"data:application/octet-stream;base64,"}],"accessors":[{"bufferView":0,"componentType":5126,"count":384,"max":[1.599869966506958,1.234570026397705,1.8819600343704224],"min":[-1.4694299697875977,-1.454800009727478,-1.9385900497436523],"type":"VEC3"},{"bufferView":1,"componentType":5126,"count":384,"max":[0.997583270072937,0.998609721660614,0.9958707094192505],"min":[-0.9929349422454834,-0.9999187588691711,-0.984488844871521],"type":"VEC3"},{"bufferView":2,"componentType":5126,"count":384,"max":[1,1,1],"min":[1,1,1],"type":"VEC3"}],"materials":[{"pbrMetallicRoughness":{"metallicFactor":0,"roughnessFactor":1},"name":"Material.003"}],"meshes":[{"primitives":[{"mode":4,"attributes":{"POSITION":0,"NORMAL":1,"COLOR_0":2},"material":0}]}]}