{"asset":{"version":"2.0","generator":"GLTFExporter"},"scenes":[{"name":"AuxScene","nodes":[1]}],"scene":0,"nodes":[{"mesh":0},{"children":[0]}],"bufferViews":[{"buffer":0,"byteOffset":0,"byteLength":36792,"target":34962,"byteStride":12},{"buffer":0,"byteOffset":36792,"byteLength":36792,"target":34962,"byteStride":12},{"buffer":0,"byteOffset":73584,"byteLength":36792,"target":34962,"byteStride":12},{"buffer":0,"byteOffset":110376,"byteLength":24528,"target":34962,"byteStride":8},{"buffer":0,"byteOffset":134904,"byteLength":36792,"target":34962,"byteStride":12},{"buffer":0,"byteOffset":171696,"byteLength":36792,"target":34962,"byteStride":12}],"buffers":[{"byteLength":208488,"uri":"data:application/octet-stream;base64,"}],"accessors":[{"bufferView":0,"componentType":5126,"count":3066,"max":[1.7246099710464478,5.332550048828125,1.545680046081543],"min":[-1.6340899467468262,0.03277299925684929,-2.1135001182556152],"type":"VEC3"},{"bufferView":1,"componentType":5126,"count":3066,"max":[0.9999240040779114,0.9970292448997498,0.9969014525413513],"min":[-0.9999240040779114,-0.9999892711639404,-0.9989190101623535],"type":"VEC3"},{"bufferView":2,"componentType":5126,"count":3066,"max":[1,1,1],"min":[1,1,1],"type":"VEC3"},{"bufferView":3,"componentType":5126,"count":3066,"max":[0.9948149919509888,0.9982569813728333],"min":[-0.0012789999600499868,0.00684100016951561],"type":"VEC2"},{"bufferView":4,"componentType":5126,"count":3066,"max":[0,0,0],"min":[0,0,0],"type":"VEC3"},{"bufferView":5,"componentType":5126,"count":3066,"max":[1.7296301126480103,2.1637351512908936,1.6274369955062866],"min":[-1.644879937171936,-2.7451491355895996,-3.796293020248413],"type":"VEC3"}],"materials":[{"pbrMetallicRoughness":{"baseColorFactor":[0.8,0.8,0.8,1],"metallicFactor":0,"roughnessFactor":1}}],"meshes":[{"weights":[0,0],"extras":{"targetNames":["animation_000000","animation_000001"]},"primitives":[{"mode":4,"attributes":{"POSITION":0,"NORMAL":1,"COLOR_0":2,"TEXCOORD_0":3},"targets":[{"POSITION":4},{"POSITION":5}],"material":0}]}]}