{"asset":{"version":"2.0","generator":"GLTFExporter"},"scenes":[{"name":"AuxScene","nodes":[1]}],"scene":0,"nodes":[{"extras":{"mapFilename":null},"mesh":0},{"children":[0]}],"bufferViews":[{"buffer":0,"byteOffset":0,"byteLength":121824,"target":34962,"byteStride":12},{"buffer":0,"byteOffset":121824,"byteLength":121824,"target":34962,"byteStride":12},{"buffer":0,"byteOffset":243648,"byteLength":121824,"target":34962,"byteStride":12},{"buffer":0,"byteOffset":365472,"byteLength":81216,"target":34962,"byteStride":8}],"buffers":[{"byteLength":446688,"uri":"data:application/octet-stream;base64,"}],"accessors":[{"bufferView":0,"componentType":5126,"count":10152,"max":[7.649980068206787,0.27038198709487915,7.311349868774414],"min":[-7.2769999504089355,-1.1094599962234497,-7.007909774780273],"type":"VEC3"},{"bufferView":1,"componentType":5126,"count":10152,"max":[0.979985773563385,1,0.9819198846817017],"min":[-0.9807927012443542,-0.6616407036781311,-0.9811859130859375],"type":"VEC3"},{"bufferView":2,"componentType":5126,"count":10152,"max":[1,1,1],"min":[1,1,1],"type":"VEC3"},{"bufferView":3,"componentType":5126,"count":10152,"max":[1,0.988681972026825],"min":[0.003022999968379736,0],"type":"VEC2"}],"materials":[{"pbrMetallicRoughness":{"metallicFactor":0,"roughnessFactor":1},"name":"default"}],"meshes":[{"primitives":[{"mode":4,"attributes":{"POSITION":0,"NORMAL":1,"COLOR_0":2,"TEXCOORD_0":3},"material":0}]}]}