{"asset":{"version":"2.0","generator":"GLTFExporter"},"scenes":[{"name":"AuxScene","nodes":[1]}],"scene":0,"nodes":[{"mesh":0},{"children":[0]}],"bufferViews":[{"buffer":0,"byteOffset":0,"byteLength":17280,"target":34962,"byteStride":12},{"buffer":0,"byteOffset":17280,"byteLength":17280,"target":34962,"byteStride":12},{"buffer":0,"byteOffset":34560,"byteLength":17280,"target":34962,"byteStride":12},{"buffer":0,"byteOffset":51840,"byteLength":11520,"target":34962,"byteStride":8}],"buffers":[{"byteLength":63360,"uri":"data:application/octet-stream;base64,"}],"accessors":[{"bufferView":0,"componentType":5126,"count":1440,"max":[0.9187390208244324,0.9187390208244324,0.9187390208244324],"min":[-0.9187390208244324,-0.9187390208244324,-0.9187390208244324],"type":"VEC3"},{"bufferView":1,"componentType":5126,"count":1440,"max":[0.9762414693832397,0.9949952960014343,0.976241409778595],"min":[-0.9762411117553711,-0.9949958324432373,-0.9762412905693054],"type":"VEC3"},{"bufferView":2,"componentType":5126,"count":1440,"max":[1,1,1],"min":[1,1,1],"type":"VEC3"},{"bufferView":3,"componentType":5126,"count":1440,"max":[0.9999189972877502,0.7889620065689087],"min":[0.00008099999831756577,0.1397790014743805],"type":"VEC2"}],"materials":[{"pbrMetallicRoughness":{"baseColorFactor":[0.8,0.8,0.8,1],"metallicFactor":0,"roughnessFactor":1}}],"meshes":[{"primitives":[{"mode":4,"attributes":{"POSITION":0,"NORMAL":1,"COLOR_0":2,"TEXCOORD_0":3},"material":0}]}]}