{"asset":{"version":"2.0","generator":"GLTFExporter"},"scenes":[{"name":"AuxScene","nodes":[1]}],"scene":0,"nodes":[{"mesh":0},{"children":[0]}],"bufferViews":[{"buffer":0,"byteOffset":0,"byteLength":42480,"target":34962,"byteStride":12},{"buffer":0,"byteOffset":42480,"byteLength":42480,"target":34962,"byteStride":12},{"buffer":0,"byteOffset":84960,"byteLength":42480,"target":34962,"byteStride":12},{"buffer":0,"byteOffset":127440,"byteLength":28320,"target":34962,"byteStride":8}],"buffers":[{"byteLength":155760,"uri":"data:application/octet-stream;base64,"}],"accessors":[{"bufferView":0,"componentType":5126,"count":3540,"max":[0.7668690085411072,3.9827799797058105,0.7668690085411072],"min":[-0.7668690085411072,0.005855000112205744,-0.7668690085411072],"type":"VEC3"},{"bufferView":1,"componentType":5126,"count":3540,"max":[0.999176025390625,0.8924530148506165,0.999176025390625],"min":[-0.999176025390625,-0.8422499895095825,-0.9999390244483948],"type":"VEC3"},{"bufferView":2,"componentType":5126,"count":3540,"max":[1,1,1],"min":[1,1,1],"type":"VEC3"},{"bufferView":3,"componentType":5126,"count":3540,"max":[0.9961090087890625,0.9927380084991455],"min":[0.004747000057250261,0.0013160000089555979],"type":"VEC2"}],"materials":[{"pbrMetallicRoughness":{"baseColorFactor":[0.8,0.8,0.8,1],"metallicFactor":0,"roughnessFactor":1}}],"meshes":[{"primitives":[{"mode":4,"attributes":{"POSITION":0,"NORMAL":1,"COLOR_0":2,"TEXCOORD_0":3},"material":0}]}]}