{"asset":{"version":"2.0","generator":"GLTFExporter"},"scenes":[{"name":"AuxScene","nodes":[1]}],"scene":0,"nodes":[{"mesh":0},{"children":[0]}],"bufferViews":[{"buffer":0,"byteOffset":0,"byteLength":7920,"target":34962,"byteStride":12},{"buffer":0,"byteOffset":7920,"byteLength":7920,"target":34962,"byteStride":12},{"buffer":0,"byteOffset":15840,"byteLength":7920,"target":34962,"byteStride":12},{"buffer":0,"byteOffset":23760,"byteLength":5280,"target":34962,"byteStride":8}],"buffers":[{"byteLength":29040,"uri":"data:application/octet-stream;base64,"}],"accessors":[{"bufferView":0,"componentType":5126,"count":660,"max":[0.7963520288467407,1.6985599994659424,0.7963520288467407],"min":[-0.7963520288467407,0.004323959816247225,-0.7963520288467407],"type":"VEC3"},{"bufferView":1,"componentType":5126,"count":660,"max":[0.9807854890823364,1,0.9807854294776917],"min":[-0.9807854890823364,-1,-0.9807854294776917],"type":"VEC3"},{"bufferView":2,"componentType":5126,"count":660,"max":[1,1,1],"min":[1,1,1],"type":"VEC3"},{"bufferView":3,"componentType":5126,"count":660,"max":[0.9642360210418701,0.9998850226402283],"min":[0.00011500000255182385,0.00011500000255182385],"type":"VEC2"}],"materials":[{"pbrMetallicRoughness":{"baseColorFactor":[0.8,0.8,0.8,1],"metallicFactor":0,"roughnessFactor":1}}],"meshes":[{"primitives":[{"mode":4,"attributes":{"POSITION":0,"NORMAL":1,"COLOR_0":2,"TEXCOORD_0":3},"material":0}]}]}