{"asset":{"version":"2.0","generator":"GLTFExporter"},"scenes":[{"name":"AuxScene","nodes":[1]}],"scene":0,"nodes":[{"mesh":0},{"children":[0]}],"bufferViews":[{"buffer":0,"byteOffset":0,"byteLength":53424,"target":34962,"byteStride":12},{"buffer":0,"byteOffset":53424,"byteLength":53424,"target":34962,"byteStride":12},{"buffer":0,"byteOffset":106848,"byteLength":53424,"target":34962,"byteStride":12},{"buffer":0,"byteOffset":160272,"byteLength":35616,"target":34962,"byteStride":8}],"buffers":[{"byteLength":195888,"uri":"data:application/octet-stream;base64,"}],"accessors":[{"bufferView":0,"componentType":5126,"count":4452,"max":[0.9941909909248352,4.629109859466553,0.988910973072052],"min":[-0.994189977645874,0.01177580002695322,-0.9994699954986572],"type":"VEC3"},{"bufferView":1,"componentType":5126,"count":4452,"max":[0.9914447665214539,1,0.991445004940033],"min":[-0.9914453625679016,-1,-0.9914452433586121],"type":"VEC3"},{"bufferView":2,"componentType":5126,"count":4452,"max":[1,1,1],"min":[1,1,1],"type":"VEC3"},{"bufferView":3,"componentType":5126,"count":4452,"max":[0.9958959817886353,0.9863139986991882],"min":[0.006998000200837851,0.013783999718725681],"type":"VEC2"}],"materials":[{"pbrMetallicRoughness":{"baseColorFactor":[0.8,0.8,0.8,1],"metallicFactor":0,"roughnessFactor":1}}],"meshes":[{"primitives":[{"mode":4,"attributes":{"POSITION":0,"NORMAL":1,"COLOR_0":2,"TEXCOORD_0":3},"material":0}]}]}