{"asset":{"version":"2.0","generator":"GLTFExporter"},"scenes":[{"name":"AuxScene","nodes":[2]}],"scene":0,"nodes":[{"extras":{"mapFilename":null},"mesh":0},{"extras":{"mapFilename":null},"mesh":1},{"children":[0,1]}],"bufferViews":[{"buffer":0,"byteOffset":0,"byteLength":9216,"target":34962,"byteStride":12},{"buffer":0,"byteOffset":9216,"byteLength":9216,"target":34962,"byteStride":12},{"buffer":0,"byteOffset":18432,"byteLength":9216,"target":34962,"byteStride":12},{"buffer":0,"byteOffset":27648,"byteLength":4464,"target":34962,"byteStride":12},{"buffer":0,"byteOffset":32112,"byteLength":4464,"target":34962,"byteStride":12},{"buffer":0,"byteOffset":36576,"byteLength":4464,"target":34962,"byteStride":12}],"buffers":[{"byteLength":41040,"uri":"data:application/octet-stream;base64,"}],"accessors":[{"bufferView":0,"componentType":5126,"count":768,"max":[0.8085460066795349,0.14642900228500366,0.8085460066795349],"min":[-0.8085460066795349,0.0501461997628212,-0.8085460066795349],"type":"VEC3"},{"bufferView":1,"componentType":5126,"count":768,"max":[0.9951851963996887,1,0.995185136795044],"min":[-0.995185136795044,-1,-0.9951851963996887],"type":"VEC3"},{"bufferView":2,"componentType":5126,"count":768,"max":[1,1,1],"min":[1,1,1],"type":"VEC3"},{"bufferView":3,"componentType":5126,"count":372,"max":[0.8483819961547852,-0.1980070024728775,0.8483819961547852],"min":[-0.8483819961547852,-0.2102469950914383,-0.8483819961547852],"type":"VEC3"},{"bufferView":4,"componentType":5126,"count":372,"max":[0.9951849579811096,1,0.9951848983764648],"min":[-0.9951843619346619,-1,-0.9951844215393066],"type":"VEC3"},{"bufferView":5,"componentType":5126,"count":372,"max":[1,1,1],"min":[1,1,1],"type":"VEC3"}],"materials":[{"pbrMetallicRoughness":{"baseColorFactor":[0.6392156862745098,0.6392156862745098,0.6392156862745098,1],"metallicFactor":0,"roughnessFactor":1},"name":"ring"},{"pbrMetallicRoughness":{"baseColorFactor":[0.6392156862745098,0.6392156862745098,0.6392156862745098,1],"metallicFactor":0,"roughnessFactor":1},"name":"square"}],"meshes":[{"primitives":[{"mode":4,"attributes":{"POSITION":0,"NORMAL":1,"COLOR_0":2},"material":0}]},{"primitives":[{"mode":4,"attributes":{"POSITION":3,"NORMAL":4,"COLOR_0":5},"material":1}]}]}