{"asset":{"version":"2.0","generator":"GLTFExporter"},"scenes":[{"name":"AuxScene","nodes":[2]}],"scene":0,"nodes":[{"extras":{"mapFilename":null},"mesh":0},{"extras":{"mapFilename":null},"mesh":1},{"children":[0,1]}],"bufferViews":[{"buffer":0,"byteOffset":0,"byteLength":4032,"target":34962,"byteStride":12},{"buffer":0,"byteOffset":4032,"byteLength":4032,"target":34962,"byteStride":12},{"buffer":0,"byteOffset":8064,"byteLength":4032,"target":34962,"byteStride":12},{"buffer":0,"byteOffset":12096,"byteLength":432,"target":34962,"byteStride":12},{"buffer":0,"byteOffset":12528,"byteLength":432,"target":34962,"byteStride":12},{"buffer":0,"byteOffset":12960,"byteLength":432,"target":34962,"byteStride":12}],"buffers":[{"byteLength":13392,"uri":"data:application/octet-stream;base64,"}],"accessors":[{"bufferView":0,"componentType":5126,"count":336,"max":[0.6652119755744934,0.12085100263357162,0.6652129888534546],"min":[-0.6652119755744934,0.07923279702663422,-0.6652119755744934],"type":"VEC3"},{"bufferView":1,"componentType":5126,"count":336,"max":[0.707082986831665,0.9045079946517944,0.707082986831665],"min":[-0.707082986831665,-0.9045079946517944,-0.707082986831665],"type":"VEC3"},{"bufferView":2,"componentType":5126,"count":336,"max":[1,1,1],"min":[1,1,1],"type":"VEC3"},{"bufferView":3,"componentType":5126,"count":36,"max":[0.850383996963501,-0.04891590029001236,0.850383996963501],"min":[-0.850383996963501,-0.10144700109958649,-0.850383996963501],"type":"VEC3"},{"bufferView":4,"componentType":5126,"count":36,"max":[0.5773490071296692,0.5773490071296692,0.5773490071296692],"min":[-0.5773490071296692,-0.5773490071296692,-0.5773490071296692],"type":"VEC3"},{"bufferView":5,"componentType":5126,"count":36,"max":[1,1,1],"min":[1,1,1],"type":"VEC3"}],"materials":[{"pbrMetallicRoughness":{"metallicFactor":0,"roughnessFactor":1},"name":"ring"},{"pbrMetallicRoughness":{"baseColorFactor":[0.6392156862745098,0.6392156862745098,0.6392156862745098,1],"metallicFactor":0,"roughnessFactor":1},"name":"square"}],"meshes":[{"primitives":[{"mode":4,"attributes":{"POSITION":0,"NORMAL":1,"COLOR_0":2},"material":0}]},{"primitives":[{"mode":4,"attributes":{"POSITION":3,"NORMAL":4,"COLOR_0":5},"material":1}]}]}