{"asset":{"version":"2.0","generator":"GLTFExporter"},"scenes":[{"name":"AuxScene","nodes":[2]}],"scene":0,"nodes":[{"extras":{"mapFilename":null},"mesh":0},{"extras":{"mapFilename":null},"mesh":1},{"children":[0,1]}],"bufferViews":[{"buffer":0,"byteOffset":0,"byteLength":7776,"target":34962,"byteStride":12},{"buffer":0,"byteOffset":7776,"byteLength":7776,"target":34962,"byteStride":12},{"buffer":0,"byteOffset":15552,"byteLength":7776,"target":34962,"byteStride":12},{"buffer":0,"byteOffset":23328,"byteLength":720,"target":34962,"byteStride":12},{"buffer":0,"byteOffset":24048,"byteLength":720,"target":34962,"byteStride":12},{"buffer":0,"byteOffset":24768,"byteLength":720,"target":34962,"byteStride":12}],"buffers":[{"byteLength":25488,"uri":"data:application/octet-stream;base64,"}],"accessors":[{"bufferView":0,"componentType":5126,"count":648,"max":[0.8167160153388977,0.1344670057296753,0.9430559873580933],"min":[-0.8167160153388977,0.06255479902029037,-0.9430549740791321],"type":"VEC3"},{"bufferView":1,"componentType":5126,"count":648,"max":[0.7886589765548706,0.8386179804801941,0.7923830151557922],"min":[-0.7886589765548706,-0.8386179804801941,-0.7923830151557922],"type":"VEC3"},{"bufferView":2,"componentType":5126,"count":648,"max":[1,1,1],"min":[1,1,1],"type":"VEC3"},{"bufferView":3,"componentType":5126,"count":60,"max":[0.8660249710083008,0.024776099249720573,1],"min":[-0.8660249710083008,0.011476799845695496,-1],"type":"VEC3"},{"bufferView":4,"componentType":5126,"count":60,"max":[0.6862390041351318,0.6099730134010315,0.7923830151557922],"min":[-0.6862390041351318,-0.6099730134010315,-0.7923830151557922],"type":"VEC3"},{"bufferView":5,"componentType":5126,"count":60,"max":[1,1,1],"min":[1,1,1],"type":"VEC3"}],"materials":[{"pbrMetallicRoughness":{"baseColorFactor":[0.6392156862745098,0.6392156862745098,0.6392156862745098,1],"metallicFactor":0,"roughnessFactor":1},"name":"ring"},{"pbrMetallicRoughness":{"baseColorFactor":[0.6392156862745098,0.6392156862745098,0.6392156862745098,1],"metallicFactor":0,"roughnessFactor":1},"name":"square"}],"meshes":[{"primitives":[{"mode":4,"attributes":{"POSITION":0,"NORMAL":1,"COLOR_0":2},"material":0}]},{"primitives":[{"mode":4,"attributes":{"POSITION":3,"NORMAL":4,"COLOR_0":5},"material":1}]}]}