{"asset":{"version":"2.0","generator":"GLTFExporter"},"scenes":[{"name":"AuxScene","nodes":[4]}],"scene":0,"nodes":[{"extras":{"mapFilename":null},"mesh":0},{"extras":{"mapFilename":null},"mesh":1},{"extras":{"mapFilename":null},"mesh":2},{"extras":{"mapFilename":null},"mesh":3},{"children":[0,1,2,3]}],"bufferViews":[{"buffer":0,"byteOffset":0,"byteLength":2160,"target":34962,"byteStride":12},{"buffer":0,"byteOffset":2160,"byteLength":2160,"target":34962,"byteStride":12},{"buffer":0,"byteOffset":4320,"byteLength":2160,"target":34962,"byteStride":12},{"buffer":0,"byteOffset":6480,"byteLength":1440,"target":34962,"byteStride":8},{"buffer":0,"byteOffset":7920,"byteLength":72,"target":34962,"byteStride":12},{"buffer":0,"byteOffset":7992,"byteLength":72,"target":34962,"byteStride":12},{"buffer":0,"byteOffset":8064,"byteLength":72,"target":34962,"byteStride":12},{"buffer":0,"byteOffset":8136,"byteLength":48,"target":34962,"byteStride":8},{"buffer":0,"byteOffset":8184,"byteLength":8136,"target":34962,"byteStride":12},{"buffer":0,"byteOffset":16320,"byteLength":8136,"target":34962,"byteStride":12},{"buffer":0,"byteOffset":24456,"byteLength":8136,"target":34962,"byteStride":12},{"buffer":0,"byteOffset":32592,"byteLength":5424,"target":34962,"byteStride":8},{"buffer":0,"byteOffset":38016,"byteLength":3312,"target":34962,"byteStride":12},{"buffer":0,"byteOffset":41328,"byteLength":3312,"target":34962,"byteStride":12},{"buffer":0,"byteOffset":44640,"byteLength":3312,"target":34962,"byteStride":12},{"buffer":0,"byteOffset":47952,"byteLength":2208,"target":34962,"byteStride":8}],"buffers":[{"byteLength":50160,"uri":"data:application/octet-stream;base64,"}],"accessors":[{"bufferView":0,"componentType":5126,"count":180,"max":[1.0471400022506714,0.7229769825935364,1.0471400022506714],"min":[-1.0471400022506714,0.5519710183143616,-1.0471400022506714],"type":"VEC3"},{"bufferView":1,"componentType":5126,"count":180,"max":[0.9841610193252563,0.5515919923782349,0.9841610193252563],"min":[-0.9841610193252563,0.17722100019454956,-0.9841610193252563],"type":"VEC3"},{"bufferView":2,"componentType":5126,"count":180,"max":[1,1,1],"min":[1,1,1],"type":"VEC3"},{"bufferView":3,"componentType":5126,"count":180,"max":[1,1],"min":[0,0.19682000577449799],"type":"VEC2"},{"bufferView":4,"componentType":5126,"count":6,"max":[-0.5343919992446899,0.7519109845161438,-0.680154025554657],"min":[-0.7071059942245483,0.7229769825935364,-0.8314700126647949],"type":"VEC3"},{"bufferView":5,"componentType":5126,"count":6,"max":[-0.18701699376106262,0.941618025302887,-0.23801399767398834],"min":[-0.5897700190544128,0.5515919923782349,-0.6935030221939087],"type":"VEC3"},{"bufferView":6,"componentType":5126,"count":6,"max":[1,1,1],"min":[1,1,1],"type":"VEC3"},{"bufferView":7,"componentType":5126,"count":6,"max":[0.23280400037765503,0.9157350063323975],"min":[0.14644700288772583,0.8400769829750061],"type":"VEC2"},{"bufferView":8,"componentType":5126,"count":678,"max":[1.063730001449585,0.7229769825935364,1.063730001449585],"min":[-1.063730001449585,0.010581700131297112,-1.063730001449585],"type":"VEC3"},{"bufferView":9,"componentType":5126,"count":678,"max":[1,0.5515919923782349,1],"min":[-1,-0.777550995349884,-0.9999690055847168],"type":"VEC3"},{"bufferView":10,"componentType":5126,"count":678,"max":[1,1,1],"min":[1,1,1],"type":"VEC3"},{"bufferView":11,"componentType":5126,"count":678,"max":[1,0.9624180197715759],"min":[0,0],"type":"VEC2"},{"bufferView":12,"componentType":5126,"count":276,"max":[1,0.7519109845161438,1],"min":[-1,0.7229769825935364,-1],"type":"VEC3"},{"bufferView":13,"componentType":5126,"count":276,"max":[0.8340709805488586,0.941618025302887,0.8340709805488586],"min":[-0.8340709805488586,0.5515919923782349,-0.8340709805488586],"type":"VEC3"},{"bufferView":14,"componentType":5126,"count":276,"max":[1,1,1],"min":[1,1,1],"type":"VEC3"},{"bufferView":15,"componentType":5126,"count":276,"max":[1,1],"min":[0,0],"type":"VEC2"}],"materials":[{"pbrMetallicRoughness":{"baseColorFactor":[0.6392156862745098,0.6392156862745098,0.6392156862745098,1],"metallicFactor":0,"roughnessFactor":1},"name":"pieceborders"},{"pbrMetallicRoughness":{"baseColorFactor":[0.6392156862745098,0.6392156862745098,0.6392156862745098,1],"metallicFactor":0,"roughnessFactor":1},"name":"piecetop"}],"meshes":[{"primitives":[{"mode":4,"attributes":{"POSITION":0,"NORMAL":1,"COLOR_0":2,"TEXCOORD_0":3},"material":0}]},{"primitives":[{"mode":4,"attributes":{"POSITION":4,"NORMAL":5,"COLOR_0":6,"TEXCOORD_0":7},"material":1}]},{"primitives":[{"mode":4,"attributes":{"POSITION":8,"NORMAL":9,"COLOR_0":10,"TEXCOORD_0":11},"material":0}]},{"primitives":[{"mode":4,"attributes":{"POSITION":12,"NORMAL":13,"COLOR_0":14,"TEXCOORD_0":15},"material":1}]}]}