{"asset":{"version":"2.0","generator":"GLTFExporter"},"scenes":[{"name":"AuxScene","nodes":[1]}],"scene":0,"nodes":[{"mesh":0},{"children":[0]}],"bufferViews":[{"buffer":0,"byteOffset":0,"byteLength":37872,"target":34962,"byteStride":12},{"buffer":0,"byteOffset":37872,"byteLength":37872,"target":34962,"byteStride":12},{"buffer":0,"byteOffset":75744,"byteLength":37872,"target":34962,"byteStride":12},{"buffer":0,"byteOffset":113616,"byteLength":25248,"target":34962,"byteStride":8}],"buffers":[{"byteLength":138864,"uri":"data:application/octet-stream;base64,"}],"accessors":[{"bufferView":0,"componentType":5126,"count":3156,"max":[1.117550015449524,3.4400100708007812,1.053820013999939],"min":[-1.117550015449524,0.0022727299947291613,-1.053820013999939],"type":"VEC3"},{"bufferView":1,"componentType":5126,"count":3156,"max":[0.9914462566375732,1,0.9993211627006531],"min":[-0.991446316242218,-1,-0.9993211627006531],"type":"VEC3"},{"bufferView":2,"componentType":5126,"count":3156,"max":[1,1,1],"min":[1,1,1],"type":"VEC3"},{"bufferView":3,"componentType":5126,"count":3156,"max":[0.9928110241889954,0.9918389916419983],"min":[0.010389000177383423,0.027341999113559723],"type":"VEC2"}],"materials":[{"pbrMetallicRoughness":{"baseColorFactor":[0.8,0.8,0.8,1],"metallicFactor":0,"roughnessFactor":1}}],"meshes":[{"primitives":[{"mode":4,"attributes":{"POSITION":0,"NORMAL":1,"COLOR_0":2,"TEXCOORD_0":3},"material":0}]}]}