{"asset":{"version":"2.0","generator":"GLTFExporter"},"scenes":[{"name":"AuxScene","nodes":[1]}],"scene":0,"nodes":[{"extras":{"mapFilename":null},"mesh":0},{"children":[0]}],"bufferViews":[{"buffer":0,"byteOffset":0,"byteLength":5184,"target":34962,"byteStride":12},{"buffer":0,"byteOffset":5184,"byteLength":5184,"target":34962,"byteStride":12},{"buffer":0,"byteOffset":10368,"byteLength":5184,"target":34962,"byteStride":12}],"buffers":[{"byteLength":15552,"uri":"data:application/octet-stream;base64,"}],"accessors":[{"bufferView":0,"componentType":5126,"count":432,"max":[7.450579886381092e-8,1,1],"min":[-0.10000000149011612,-1,-1],"type":"VEC3"},{"bufferView":1,"componentType":5126,"count":432,"max":[0.7298200130462646,0.6835839748382568,0.6835839748382568],"min":[-0.7298200130462646,-0.6835839748382568,-0.6835839748382568],"type":"VEC3"},{"bufferView":2,"componentType":5126,"count":432,"max":[1,1,1],"min":[1,1,1],"type":"VEC3"}],"materials":[{"pbrMetallicRoughness":{"baseColorFactor":[0,0.28627450980392155,0.8,1],"metallicFactor":0,"roughnessFactor":1},"name":"mat-cell"}],"meshes":[{"primitives":[{"mode":4,"attributes":{"POSITION":0,"NORMAL":1,"COLOR_0":2},"material":0}]}]}