{"asset":{"version":"2.0","generator":"GLTFExporter"},"scenes":[{"name":"AuxScene","nodes":[1]}],"scene":0,"nodes":[{"extras":{"mapFilename":null},"mesh":0},{"children":[0]}],"bufferViews":[{"buffer":0,"byteOffset":0,"byteLength":2304,"target":34962,"byteStride":12},{"buffer":0,"byteOffset":2304,"byteLength":2304,"target":34962,"byteStride":12},{"buffer":0,"byteOffset":4608,"byteLength":2304,"target":34962,"byteStride":12}],"buffers":[{"byteLength":6912,"uri":"data:application/octet-stream;base64,"}],"accessors":[{"bufferView":0,"componentType":5126,"count":192,"max":[1.4707800149917603,1,0.10000000149011612],"min":[-1.4707800149917603,-2.153369903564453,-0.10000000149011612],"type":"VEC3"},{"bufferView":1,"componentType":5126,"count":192,"max":[0.7686089873313904,0.707082986831665,1],"min":[-0.7686089873313904,-0.6644489765167236,-1],"type":"VEC3"},{"bufferView":2,"componentType":5126,"count":192,"max":[1,1,1],"min":[1,1,1],"type":"VEC3"}],"materials":[{"pbrMetallicRoughness":{"baseColorFactor":[0,0,0,1],"metallicFactor":0,"roughnessFactor":1},"name":"mat-cell"}],"meshes":[{"primitives":[{"mode":4,"attributes":{"POSITION":0,"NORMAL":1,"COLOR_0":2},"material":0}]}]}