{"asset":{"version":"2.0","generator":"GLTFExporter"},"scenes":[{"name":"AuxScene","nodes":[3]}],"scene":0,"nodes":[{"extras":{"mapFilename":null},"mesh":0},{"extras":{"mapFilename":null},"mesh":1},{"extras":{"mapFilename":null},"mesh":2},{"children":[0,1,2]}],"bufferViews":[{"buffer":0,"byteOffset":0,"byteLength":1008,"target":34962,"byteStride":12},{"buffer":0,"byteOffset":1008,"byteLength":1008,"target":34962,"byteStride":12},{"buffer":0,"byteOffset":2016,"byteLength":1008,"target":34962,"byteStride":12},{"buffer":0,"byteOffset":3024,"byteLength":672,"target":34962,"byteStride":8},{"buffer":0,"byteOffset":3696,"byteLength":72,"target":34962,"byteStride":12},{"buffer":0,"byteOffset":3768,"byteLength":72,"target":34962,"byteStride":12},{"buffer":0,"byteOffset":3840,"byteLength":72,"target":34962,"byteStride":12},{"buffer":0,"byteOffset":3912,"byteLength":48,"target":34962,"byteStride":8},{"buffer":0,"byteOffset":3960,"byteLength":216,"target":34962,"byteStride":12},{"buffer":0,"byteOffset":4176,"byteLength":216,"target":34962,"byteStride":12},{"buffer":0,"byteOffset":4392,"byteLength":216,"target":34962,"byteStride":12},{"buffer":0,"byteOffset":4608,"byteLength":144,"target":34962,"byteStride":8}],"buffers":[{"byteLength":4752,"uri":"data:application/octet-stream;base64,"}],"accessors":[{"bufferView":0,"componentType":5126,"count":84,"max":[5,0.004179699812084436,5],"min":[-5,-0.4880000054836273,-5],"type":"VEC3"},{"bufferView":1,"componentType":5126,"count":84,"max":[1,1,1],"min":[-1,-1,-1],"type":"VEC3"},{"bufferView":2,"componentType":5126,"count":84,"max":[1,1,1],"min":[1,1,1],"type":"VEC3"},{"bufferView":3,"componentType":5126,"count":84,"max":[0,0],"min":[0,0],"type":"VEC2"},{"bufferView":4,"componentType":5126,"count":6,"max":[4.551760196685791,-0.08189310133457184,4.551760196685791],"min":[-4.551760196685791,-0.08189350366592407,-4.551760196685791],"type":"VEC3"},{"bufferView":5,"componentType":5126,"count":6,"max":[0,1,-4.3939046179275465e-8],"min":[0,1,-4.3939046179275465e-8],"type":"VEC3"},{"bufferView":6,"componentType":5126,"count":6,"max":[1,1,1],"min":[1,1,1],"type":"VEC3"},{"bufferView":7,"componentType":5126,"count":6,"max":[0.9998999834060669,0.9998999834060669],"min":[0.00009999999747378752,0.00009999999747378752],"type":"VEC2"},{"bufferView":8,"componentType":5126,"count":18,"max":[4.595590114593506,0.004179679788649082,4.595590114593506],"min":[-4.595590114593506,-0.08189350366592407,-4.595590114593506],"type":"VEC3"},{"bufferView":9,"componentType":5126,"count":18,"max":[0.8911164999008179,0.4537745714187622,-1.9748259916241295e-8],"min":[-0.8911164999008179,0.4537745416164398,-0.8911164999008179],"type":"VEC3"},{"bufferView":10,"componentType":5126,"count":18,"max":[1,1,1],"min":[1,1,1],"type":"VEC3"},{"bufferView":11,"componentType":5126,"count":18,"max":[0,0],"min":[0,0],"type":"VEC2"}],"materials":[{"pbrMetallicRoughness":{"baseColorFactor":[0,0,0,1],"metallicFactor":0,"roughnessFactor":1},"name":"board"},{"pbrMetallicRoughness":{"baseColorFactor":[0.6392156862745098,0.6392156862745098,0.6392156862745098,1],"metallicFactor":0,"roughnessFactor":1},"name":"boardsquare"}],"meshes":[{"primitives":[{"mode":4,"attributes":{"POSITION":0,"NORMAL":1,"COLOR_0":2,"TEXCOORD_0":3},"material":0}]},{"primitives":[{"mode":4,"attributes":{"POSITION":4,"NORMAL":5,"COLOR_0":6,"TEXCOORD_0":7},"material":1}]},{"primitives":[{"mode":4,"attributes":{"POSITION":8,"NORMAL":9,"COLOR_0":10,"TEXCOORD_0":11},"material":0}]}]}