{"asset":{"version":"2.0","generator":"GLTFExporter"},"scenes":[{"name":"AuxScene","nodes":[2]}],"scene":0,"nodes":[{"extras":{"mapFilename":null},"mesh":0},{"extras":{"mapFilename":"woodtoken-diffuse.jpg"},"mesh":1},{"children":[0,1]}],"bufferViews":[{"buffer":0,"byteOffset":0,"byteLength":648,"target":34962,"byteStride":12},{"buffer":0,"byteOffset":648,"byteLength":648,"target":34962,"byteStride":12},{"buffer":0,"byteOffset":1296,"byteLength":648,"target":34962,"byteStride":12},{"buffer":0,"byteOffset":1944,"byteLength":432,"target":34962,"byteStride":8},{"buffer":0,"byteOffset":2376,"byteLength":6768,"target":34962,"byteStride":12},{"buffer":0,"byteOffset":9144,"byteLength":6768,"target":34962,"byteStride":12},{"buffer":0,"byteOffset":15912,"byteLength":6768,"target":34962,"byteStride":12},{"buffer":0,"byteOffset":22680,"byteLength":4512,"target":34962,"byteStride":8}],"buffers":[{"byteLength":27192,"uri":"data:application/octet-stream;base64,"}],"accessors":[{"bufferView":0,"componentType":5126,"count":54,"max":[0.4885070025920868,2.2764899730682373,0.41554901003837585],"min":[-0.4885070025920868,2.053679943084717,-0.5136470198631287],"type":"VEC3"},{"bufferView":1,"componentType":5126,"count":54,"max":[0.9413740038871765,1,0.9716479778289795],"min":[-0.9413740038871765,-0.14221599698066711,-0.9898070096969604],"type":"VEC3"},{"bufferView":2,"componentType":5126,"count":54,"max":[1,1,1],"min":[1,1,1],"type":"VEC3"},{"bufferView":3,"componentType":5126,"count":54,"max":[0,0],"min":[0,0],"type":"VEC2"},{"bufferView":4,"componentType":5126,"count":564,"max":[0.9596189856529236,2.0334200859069824,0.9596189856529236],"min":[-0.9596189856529236,0.03342150151729584,-0.9596189856529236],"type":"VEC3"},{"bufferView":5,"componentType":5126,"count":564,"max":[0.9783009886741638,0.8777430057525635,0.9783009886741638],"min":[-0.9783009886741638,-0.8777430057525635,-0.9783009886741638],"type":"VEC3"},{"bufferView":6,"componentType":5126,"count":564,"max":[1,1,1],"min":[1,1,1],"type":"VEC3"},{"bufferView":7,"componentType":5126,"count":564,"max":[0.9947630167007446,0.9959859848022461],"min":[0,0],"type":"VEC2"}],"materials":[{"pbrMetallicRoughness":{"baseColorFactor":[0.6392156862745098,0.0196078431372549,0,1],"metallicFactor":0,"roughnessFactor":1},"name":"redstar"},{"pbrMetallicRoughness":{"baseColorFactor":[0.6392156862745098,0.6392156862745098,0.6392156862745098,1],"metallicFactor":0,"roughnessFactor":1,"baseColorTexture":{"index":0}},"name":"wood"}],"meshes":[{"primitives":[{"mode":4,"attributes":{"POSITION":0,"NORMAL":1,"COLOR_0":2,"TEXCOORD_0":3},"material":0}]},{"primitives":[{"mode":4,"attributes":{"POSITION":4,"NORMAL":5,"COLOR_0":6,"TEXCOORD_0":7},"material":1}]}],"images":[{"uri":"woodtoken-diffuse.jpg"}],"textures":[{"source":0}]}