{"asset":{"version":"2.0","generator":"GLTFExporter"},"scenes":[{"name":"AuxScene","nodes":[1]}],"scene":0,"nodes":[{"mesh":0},{"children":[0]}],"bufferViews":[{"buffer":0,"byteOffset":0,"byteLength":27504,"target":34962,"byteStride":12},{"buffer":0,"byteOffset":27504,"byteLength":27504,"target":34962,"byteStride":12},{"buffer":0,"byteOffset":55008,"byteLength":27504,"target":34962,"byteStride":12},{"buffer":0,"byteOffset":82512,"byteLength":18336,"target":34962,"byteStride":8}],"buffers":[{"byteLength":100848,"uri":"data:application/octet-stream;base64,"}],"accessors":[{"bufferView":0,"componentType":5126,"count":2292,"max":[0.7501130104064941,2.506809949874878,0.7501130104064941],"min":[-0.7501130104064941,-0.0014483899576589465,-0.7501130104064941],"type":"VEC3"},{"bufferView":1,"componentType":5126,"count":2292,"max":[0.9999905228614807,1,0.9999904632568359],"min":[-0.9999904632568359,-1,-0.9999905228614807],"type":"VEC3"},{"bufferView":2,"componentType":5126,"count":2292,"max":[1,1,1],"min":[1,1,1],"type":"VEC3"},{"bufferView":3,"componentType":5126,"count":2292,"max":[0.9916769862174988,0.996533989906311],"min":[-0.00021300000662449747,0.005890999920666218],"type":"VEC2"}],"materials":[{"pbrMetallicRoughness":{"baseColorFactor":[0.8,0.8,0.8,1],"metallicFactor":0,"roughnessFactor":1}}],"meshes":[{"primitives":[{"mode":4,"attributes":{"POSITION":0,"NORMAL":1,"COLOR_0":2,"TEXCOORD_0":3},"material":0}]}]}