{"asset":{"version":"2.0","generator":"GLTFExporter"},"scenes":[{"name":"AuxScene","nodes":[1]}],"scene":0,"nodes":[{"extras":{"mapFilename":null},"mesh":0},{"children":[0]}],"bufferViews":[{"buffer":0,"byteOffset":0,"byteLength":1584,"target":34962,"byteStride":12},{"buffer":0,"byteOffset":1584,"byteLength":1584,"target":34962,"byteStride":12},{"buffer":0,"byteOffset":3168,"byteLength":1584,"target":34962,"byteStride":12}],"buffers":[{"byteLength":4752,"uri":"data:application/octet-stream;base64,"}],"accessors":[{"bufferView":0,"componentType":5126,"count":132,"max":[1.1574900150299072,0.07501690089702606,1.777649998664856],"min":[-1.1574900150299072,-0.061452001333236694,-1.8072500228881836],"type":"VEC3"},{"bufferView":1,"componentType":5126,"count":132,"max":[0.7504810094833374,0.9887080192565918,0.6427810192108154],"min":[-0.7504810094833374,-0.9107030034065247,-0.869288980960846],"type":"VEC3"},{"bufferView":2,"componentType":5126,"count":132,"max":[1,1,1],"min":[1,1,1],"type":"VEC3"}],"materials":[{"pbrMetallicRoughness":{"baseColorFactor":[0,0,0,1],"metallicFactor":0,"roughnessFactor":1},"name":"mat.arrow"}],"meshes":[{"primitives":[{"mode":4,"attributes":{"POSITION":0,"NORMAL":1,"COLOR_0":2},"material":0}]}]}