{"asset":{"version":"2.0","generator":"GLTFExporter"},"scenes":[{"name":"AuxScene","nodes":[8]}],"scene":0,"nodes":[{"extras":{"mapFilename":null},"mesh":0},{"extras":{"mapFilename":null},"mesh":1},{"extras":{"mapFilename":null},"mesh":2},{"extras":{"mapFilename":null},"mesh":3},{"extras":{"mapFilename":null},"mesh":4},{"extras":{"mapFilename":null},"mesh":5},{"extras":{"mapFilename":null},"mesh":6},{"extras":{"mapFilename":null},"mesh":7},{"children":[0,1,2,3,4,5,6,7]}],"bufferViews":[{"buffer":0,"byteOffset":0,"byteLength":1008,"target":34962,"byteStride":12},{"buffer":0,"byteOffset":1008,"byteLength":1008,"target":34962,"byteStride":12},{"buffer":0,"byteOffset":2016,"byteLength":1008,"target":34962,"byteStride":12},{"buffer":0,"byteOffset":3024,"byteLength":672,"target":34962,"byteStride":8},{"buffer":0,"byteOffset":3696,"byteLength":1080,"target":34962,"byteStride":12},{"buffer":0,"byteOffset":4776,"byteLength":1080,"target":34962,"byteStride":12},{"buffer":0,"byteOffset":5856,"byteLength":1080,"target":34962,"byteStride":12},{"buffer":0,"byteOffset":6936,"byteLength":720,"target":34962,"byteStride":8},{"buffer":0,"byteOffset":7656,"byteLength":1296,"target":34962,"byteStride":12},{"buffer":0,"byteOffset":8952,"byteLength":1296,"target":34962,"byteStride":12},{"buffer":0,"byteOffset":10248,"byteLength":1296,"target":34962,"byteStride":12},{"buffer":0,"byteOffset":11544,"byteLength":864,"target":34962,"byteStride":8},{"buffer":0,"byteOffset":12408,"byteLength":2304,"target":34962,"byteStride":12},{"buffer":0,"byteOffset":14712,"byteLength":2304,"target":34962,"byteStride":12},{"buffer":0,"byteOffset":17016,"byteLength":2304,"target":34962,"byteStride":12},{"buffer":0,"byteOffset":19320,"byteLength":1536,"target":34962,"byteStride":8},{"buffer":0,"byteOffset":20856,"byteLength":2304,"target":34962,"byteStride":12},{"buffer":0,"byteOffset":23160,"byteLength":2304,"target":34962,"byteStride":12},{"buffer":0,"byteOffset":25464,"byteLength":2304,"target":34962,"byteStride":12},{"buffer":0,"byteOffset":27768,"byteLength":1536,"target":34962,"byteStride":8},{"buffer":0,"byteOffset":29304,"byteLength":2304,"target":34962,"byteStride":12},{"buffer":0,"byteOffset":31608,"byteLength":2304,"target":34962,"byteStride":12},{"buffer":0,"byteOffset":33912,"byteLength":2304,"target":34962,"byteStride":12},{"buffer":0,"byteOffset":36216,"byteLength":1536,"target":34962,"byteStride":8},{"buffer":0,"byteOffset":37752,"byteLength":2304,"target":34962,"byteStride":12},{"buffer":0,"byteOffset":40056,"byteLength":2304,"target":34962,"byteStride":12},{"buffer":0,"byteOffset":42360,"byteLength":2304,"target":34962,"byteStride":12},{"buffer":0,"byteOffset":44664,"byteLength":1536,"target":34962,"byteStride":8},{"buffer":0,"byteOffset":46200,"byteLength":6912,"target":34962,"byteStride":12},{"buffer":0,"byteOffset":53112,"byteLength":6912,"target":34962,"byteStride":12},{"buffer":0,"byteOffset":60024,"byteLength":6912,"target":34962,"byteStride":12},{"buffer":0,"byteOffset":66936,"byteLength":4608,"target":34962,"byteStride":8}],"buffers":[{"byteLength":71544,"uri":"data:application/octet-stream;base64,"}],"accessors":[{"bufferView":0,"componentType":5126,"count":84,"max":[10.93850040435791,1.0224900245666504,13.421199798583984],"min":[-10.333800315856934,0.15043699741363525,-13.512999534606934],"type":"VEC3"},{"bufferView":1,"componentType":5126,"count":84,"max":[0.13141299784183502,0.9984130263328552,0.11169800162315369],"min":[-0.13251100480556488,0.9910579919815063,-0.11227799952030182],"type":"VEC3"},{"bufferView":2,"componentType":5126,"count":84,"max":[1,1,1],"min":[1,1,1],"type":"VEC3"},{"bufferView":3,"componentType":5126,"count":84,"max":[0,0],"min":[0,0],"type":"VEC2"},{"bufferView":4,"componentType":5126,"count":90,"max":[4.382840156555176,0.15043699741363525,5.704060077667236],"min":[-4.382840156555176,0.15043699741363525,-5.7548298835754395],"type":"VEC3"},{"bufferView":5,"componentType":5126,"count":90,"max":[0.06756799668073654,0.9984130263328552,0.05734400078654289],"min":[-0.06756799668073654,0.9975280165672302,-0.05761900171637535],"type":"VEC3"},{"bufferView":6,"componentType":5126,"count":90,"max":[1,1,1],"min":[1,1,1],"type":"VEC3"},{"bufferView":7,"componentType":5126,"count":90,"max":[0,0],"min":[0,0],"type":"VEC2"},{"bufferView":8,"componentType":5126,"count":108,"max":[10.93850040435791,1.0224900245666504,13.410499572753906],"min":[-10.93850040435791,0.15043699741363525,-13.512999534606934],"type":"VEC3"},{"bufferView":9,"componentType":5126,"count":108,"max":[0.13254199922084808,0.9984130263328552,0.11169800162315369],"min":[-0.13254199922084808,0.9910579919815063,-0.11136200278997421],"type":"VEC3"},{"bufferView":10,"componentType":5126,"count":108,"max":[1,1,1],"min":[1,1,1],"type":"VEC3"},{"bufferView":11,"componentType":5126,"count":108,"max":[0,0],"min":[0,0],"type":"VEC2"},{"bufferView":12,"componentType":5126,"count":192,"max":[6.813419818878174,0.9957669973373413,8.57470989227295],"min":[-6.813419818878174,0.842244029045105,-8.64074993133545],"type":"VEC3"},{"bufferView":13,"componentType":5126,"count":192,"max":[0.9517499804496765,0.3212380111217499,0.9635609984397888],"min":[-0.9517499804496765,-0.6932889819145203,-0.9634079933166504],"type":"VEC3"},{"bufferView":14,"componentType":5126,"count":192,"max":[1,1,1],"min":[1,1,1],"type":"VEC3"},{"bufferView":15,"componentType":5126,"count":192,"max":[0.9994500279426575,1.001960039138794],"min":[0.5772500038146973,0.9547100067138672],"type":"VEC2"},{"bufferView":16,"componentType":5126,"count":192,"max":[9.641010284423828,1.9855600595474243,11.79069995880127],"min":[-9.641010284423828,0.9957659840583801,-11.873900413513184],"type":"VEC3"},{"bufferView":17,"componentType":5126,"count":192,"max":[0.9517499804496765,0.9627670049667358,0.9635609984397888],"min":[-0.9517499804496765,0.2674340009689331,-0.9634079933166504],"type":"VEC3"},{"bufferView":18,"componentType":5126,"count":192,"max":[1,1,1],"min":[1,1,1],"type":"VEC3"},{"bufferView":19,"componentType":5126,"count":192,"max":[0.6291019916534424,0.9965019822120667],"min":[0.00484299985691905,0.6090909838676453],"type":"VEC2"},{"bufferView":20,"componentType":5126,"count":192,"max":[9.56742000579834,2.1152501106262207,11.71310043334961],"min":[-9.56742000579834,1.9029500484466553,-11.795900344848633],"type":"VEC3"},{"bufferView":21,"componentType":5126,"count":192,"max":[0.9838560223579407,0.18265299499034882,0.9887080192565918],"min":[-0.9831539988517761,-0.8363289833068848,-0.9894099831581116],"type":"VEC3"},{"bufferView":22,"componentType":5126,"count":192,"max":[1,1,1],"min":[1,1,1],"type":"VEC3"},{"bufferView":23,"componentType":5126,"count":192,"max":[0,0],"min":[0,0],"type":"VEC2"},{"bufferView":24,"componentType":5126,"count":192,"max":[13.035699844360352,3.421449899673462,15.540800094604492],"min":[-12.949799537658691,2.1152501106262207,-15.802300453186035],"type":"VEC3"},{"bufferView":25,"componentType":5126,"count":192,"max":[0.9838560223579407,0.9595630168914795,0.9887080192565918],"min":[-0.9831539988517761,0.14496299624443054,-0.9894099831581116],"type":"VEC3"},{"bufferView":26,"componentType":5126,"count":192,"max":[1,1,1],"min":[1,1,1],"type":"VEC3"},{"bufferView":27,"componentType":5126,"count":192,"max":[0,0],"min":[0,0],"type":"VEC2"},{"bufferView":28,"componentType":5126,"count":576,"max":[12.842100143432617,5.262290000915527,15.369000434875488],"min":[-12.842100143432617,4.815690040588379,-15.471199989318848],"type":"VEC3"},{"bufferView":29,"componentType":5126,"count":576,"max":[1,0.000060999998822808266,1],"min":[-0.9999690055847168,-0.7854549884796143,-1],"type":"VEC3"},{"bufferView":30,"componentType":5126,"count":576,"max":[1,1,1],"min":[1,1,1],"type":"VEC3"},{"bufferView":31,"componentType":5126,"count":576,"max":[0,0],"min":[0,0],"type":"VEC2"}],"materials":[{"pbrMetallicRoughness":{"baseColorFactor":[0.011764705882352941,0.011764705882352941,0.011764705882352941,1],"metallicFactor":0,"roughnessFactor":1},"name":"Material.004"},{"pbrMetallicRoughness":{"baseColorFactor":[0.2,0.2,0.2,1],"metallicFactor":0,"roughnessFactor":1},"name":"Material.003"}],"meshes":[{"primitives":[{"mode":4,"attributes":{"POSITION":0,"NORMAL":1,"COLOR_0":2,"TEXCOORD_0":3},"material":0}]},{"primitives":[{"mode":4,"attributes":{"POSITION":4,"NORMAL":5,"COLOR_0":6,"TEXCOORD_0":7},"material":1}]},{"primitives":[{"mode":4,"attributes":{"POSITION":8,"NORMAL":9,"COLOR_0":10,"TEXCOORD_0":11},"material":0}]},{"primitives":[{"mode":4,"attributes":{"POSITION":12,"NORMAL":13,"COLOR_0":14,"TEXCOORD_0":15},"material":1}]},{"primitives":[{"mode":4,"attributes":{"POSITION":16,"NORMAL":17,"COLOR_0":18,"TEXCOORD_0":19},"material":0}]},{"primitives":[{"mode":4,"attributes":{"POSITION":20,"NORMAL":21,"COLOR_0":22,"TEXCOORD_0":23},"material":1}]},{"primitives":[{"mode":4,"attributes":{"POSITION":24,"NORMAL":25,"COLOR_0":26,"TEXCOORD_0":27},"material":0}]},{"primitives":[{"mode":4,"attributes":{"POSITION":28,"NORMAL":29,"COLOR_0":30,"TEXCOORD_0":31},"material":1}]}]}