{"asset":{"version":"2.0","generator":"GLTFExporter"},"scenes":[{"name":"AuxScene","nodes":[3]}],"scene":0,"nodes":[{"extras":{"mapFilename":null},"mesh":0},{"extras":{"mapFilename":null},"mesh":1},{"extras":{"mapFilename":null},"mesh":2},{"children":[0,1,2]}],"bufferViews":[{"buffer":0,"byteOffset":0,"byteLength":2304,"target":34962,"byteStride":12},{"buffer":0,"byteOffset":2304,"byteLength":2304,"target":34962,"byteStride":12},{"buffer":0,"byteOffset":4608,"byteLength":2304,"target":34962,"byteStride":12},{"buffer":0,"byteOffset":6912,"byteLength":1536,"target":34962,"byteStride":8},{"buffer":0,"byteOffset":8448,"byteLength":2304,"target":34962,"byteStride":12},{"buffer":0,"byteOffset":10752,"byteLength":2304,"target":34962,"byteStride":12},{"buffer":0,"byteOffset":13056,"byteLength":2304,"target":34962,"byteStride":12},{"buffer":0,"byteOffset":15360,"byteLength":1536,"target":34962,"byteStride":8},{"buffer":0,"byteOffset":16896,"byteLength":2304,"target":34962,"byteStride":12},{"buffer":0,"byteOffset":19200,"byteLength":2304,"target":34962,"byteStride":12},{"buffer":0,"byteOffset":21504,"byteLength":2304,"target":34962,"byteStride":12},{"buffer":0,"byteOffset":23808,"byteLength":1536,"target":34962,"byteStride":8}],"buffers":[{"byteLength":25344,"uri":"data:application/octet-stream;base64,"}],"accessors":[{"bufferView":0,"componentType":5126,"count":192,"max":[6.959690093994141,0.5430589914321899,8.756970405578613],"min":[-6.961730003356934,0.22336900234222412,-8.787220001220703],"type":"VEC3"},{"bufferView":1,"componentType":5126,"count":192,"max":[0.13403700292110443,0.9942629933357239,0.11169800162315369],"min":[-0.13403700292110443,0.9908139705657959,-0.11227799952030182],"type":"VEC3"},{"bufferView":2,"componentType":5126,"count":192,"max":[1,1,1],"min":[1,1,1],"type":"VEC3"},{"bufferView":3,"componentType":5126,"count":192,"max":[0,0],"min":[0,0],"type":"VEC2"},{"bufferView":4,"componentType":5126,"count":192,"max":[9.142560005187988,1.8448899984359741,11.221599578857422],"min":[-9.142560005187988,1.098479986190796,-11.3016996383667],"type":"VEC3"},{"bufferView":5,"componentType":5126,"count":192,"max":[0.32364898920059204,0.9627670049667358,0.28141099214553833],"min":[-0.32364898920059204,0.9448840022087097,-0.28281500935554504],"type":"VEC3"},{"bufferView":6,"componentType":5126,"count":192,"max":[1,1,1],"min":[1,1,1],"type":"VEC3"},{"bufferView":7,"componentType":5126,"count":192,"max":[0.6290510296821594,0.8996490240097046],"min":[0.004991000052541494,0.8027960062026978],"type":"VEC2"},{"bufferView":8,"componentType":5126,"count":192,"max":[12.34529972076416,3.196000099182129,14.776200294494629],"min":[-12.279800415039062,2.2646899223327637,-15.002699851989746],"type":"VEC3"},{"bufferView":9,"componentType":5126,"count":192,"max":[0.3491930067539215,0.9595630168914795,0.28931498527526855],"min":[-0.3421739935874939,0.9340490102767944,-0.3008210062980652],"type":"VEC3"},{"bufferView":10,"componentType":5126,"count":192,"max":[1,1,1],"min":[1,1,1],"type":"VEC3"},{"bufferView":11,"componentType":5126,"count":192,"max":[0,0],"min":[0,0],"type":"VEC2"}],"materials":[{"pbrMetallicRoughness":{"metallicFactor":0,"roughnessFactor":1},"name":"undefined_dummy_0"},{"pbrMetallicRoughness":{"baseColorFactor":[0.6392156862745098,0.6392156862745098,0.6392156862745098,1],"metallicFactor":0,"roughnessFactor":1},"name":"Material.002"}],"meshes":[{"primitives":[{"mode":4,"attributes":{"POSITION":0,"NORMAL":1,"COLOR_0":2,"TEXCOORD_0":3},"material":0}]},{"primitives":[{"mode":4,"attributes":{"POSITION":4,"NORMAL":5,"COLOR_0":6,"TEXCOORD_0":7},"material":1}]},{"primitives":[{"mode":4,"attributes":{"POSITION":8,"NORMAL":9,"COLOR_0":10,"TEXCOORD_0":11},"material":0}]}]}