{"asset":{"version":"2.0","generator":"GLTFExporter"},"scenes":[{"name":"AuxScene","nodes":[1]}],"scene":0,"nodes":[{"mesh":0},{"children":[0]}],"bufferViews":[{"buffer":0,"byteOffset":0,"byteLength":22896,"target":34962,"byteStride":12},{"buffer":0,"byteOffset":22896,"byteLength":22896,"target":34962,"byteStride":12},{"buffer":0,"byteOffset":45792,"byteLength":22896,"target":34962,"byteStride":12},{"buffer":0,"byteOffset":68688,"byteLength":15264,"target":34962,"byteStride":8}],"buffers":[{"byteLength":83952,"uri":"data:application/octet-stream;base64,"}],"accessors":[{"bufferView":0,"componentType":5126,"count":1908,"max":[1.100000023841858,3.3384499549865723,0.7553790211677551],"min":[-1.100000023841858,-0.019735800102353096,-1.100000023841858],"type":"VEC3"},{"bufferView":1,"componentType":5126,"count":1908,"max":[0.9667772054672241,1,0.999614417552948],"min":[-0.9667772054672241,-1,-0.9667771458625793],"type":"VEC3"},{"bufferView":2,"componentType":5126,"count":1908,"max":[1,1,1],"min":[1,1,1],"type":"VEC3"},{"bufferView":3,"componentType":5126,"count":1908,"max":[1,0.9700000286102295],"min":[0,0],"type":"VEC2"}],"materials":[{"pbrMetallicRoughness":{"baseColorFactor":[0.8,0.8,0.8,1],"metallicFactor":0,"roughnessFactor":1}}],"meshes":[{"primitives":[{"mode":4,"attributes":{"POSITION":0,"NORMAL":1,"COLOR_0":2,"TEXCOORD_0":3},"material":0}]}]}