{"asset":{"version":"2.0","generator":"GLTFExporter"},"scenes":[{"name":"AuxScene","nodes":[1]}],"scene":0,"nodes":[{"mesh":0},{"children":[0]}],"bufferViews":[{"buffer":0,"byteOffset":0,"byteLength":34272,"target":34962,"byteStride":12},{"buffer":0,"byteOffset":34272,"byteLength":34272,"target":34962,"byteStride":12},{"buffer":0,"byteOffset":68544,"byteLength":34272,"target":34962,"byteStride":12},{"buffer":0,"byteOffset":102816,"byteLength":22848,"target":34962,"byteStride":8}],"buffers":[{"byteLength":125664,"uri":"data:application/octet-stream;base64,"}],"accessors":[{"bufferView":0,"componentType":5126,"count":2856,"max":[0.7684615254402161,2.858461618423462,0.7684615254402161],"min":[-0.7684615254402161,0,-1.2869230508804321],"type":"VEC3"},{"bufferView":1,"componentType":5126,"count":2856,"max":[1,0.9939639568328857,0.9992976188659668],"min":[-0.9938486218452454,-0.9990561604499817,-0.9909267425537109],"type":"VEC3"},{"bufferView":2,"componentType":5126,"count":2856,"max":[1,1,1],"min":[1,1,1],"type":"VEC3"},{"bufferView":3,"componentType":5126,"count":2856,"max":[0.8125,0.8125],"min":[0,0],"type":"VEC2"}],"materials":[{"pbrMetallicRoughness":{"baseColorFactor":[0.8,0.8,0.8,1],"metallicFactor":0,"roughnessFactor":1}}],"meshes":[{"primitives":[{"mode":4,"attributes":{"POSITION":0,"NORMAL":1,"COLOR_0":2,"TEXCOORD_0":3},"material":0}]}]}