{"asset":{"version":"2.0","generator":"GLTFExporter"},"scenes":[{"name":"AuxScene","nodes":[1]}],"scene":0,"nodes":[{"mesh":0},{"children":[0]}],"bufferViews":[{"buffer":0,"byteOffset":0,"byteLength":56448,"target":34962,"byteStride":12},{"buffer":0,"byteOffset":56448,"byteLength":56448,"target":34962,"byteStride":12},{"buffer":0,"byteOffset":112896,"byteLength":56448,"target":34962,"byteStride":12},{"buffer":0,"byteOffset":169344,"byteLength":37632,"target":34962,"byteStride":8}],"buffers":[{"byteLength":206976,"uri":"data:application/octet-stream;base64,"}],"accessors":[{"bufferView":0,"componentType":5126,"count":4704,"max":[0.9990000128746033,3.0299999713897705,1.1119999885559082],"min":[-0.9990000128746033,0,-1.2920000553131104],"type":"VEC3"},{"bufferView":1,"componentType":5126,"count":4704,"max":[1,0.9937915802001953,0.9999491572380066],"min":[-0.9962008595466614,-0.9977036118507385,-0.980093240737915],"type":"VEC3"},{"bufferView":2,"componentType":5126,"count":4704,"max":[1,1,1],"min":[1,1,1],"type":"VEC3"},{"bufferView":3,"componentType":5126,"count":4704,"max":[0.8125,0.8105469942092896],"min":[0,0],"type":"VEC2"}],"materials":[{"pbrMetallicRoughness":{"baseColorFactor":[0.8,0.8,0.8,1],"metallicFactor":0,"roughnessFactor":1}}],"meshes":[{"primitives":[{"mode":4,"attributes":{"POSITION":0,"NORMAL":1,"COLOR_0":2,"TEXCOORD_0":3},"material":0}]}]}