{"asset":{"version":"2.0","generator":"GLTFExporter"},"scenes":[{"name":"AuxScene","nodes":[1]}],"scene":0,"nodes":[{"mesh":0},{"children":[0]}],"bufferViews":[{"buffer":0,"byteOffset":0,"byteLength":33048,"target":34962,"byteStride":12},{"buffer":0,"byteOffset":33048,"byteLength":33048,"target":34962,"byteStride":12},{"buffer":0,"byteOffset":66096,"byteLength":33048,"target":34962,"byteStride":12},{"buffer":0,"byteOffset":99144,"byteLength":22032,"target":34962,"byteStride":8}],"buffers":[{"byteLength":121176,"uri":"data:application/octet-stream;base64,"}],"accessors":[{"bufferView":0,"componentType":5126,"count":2754,"max":[0.8633229732513428,3.394160032272339,1.0430500507354736],"min":[-0.863323986530304,-0.005963440053164959,-1.119789958000183],"type":"VEC3"},{"bufferView":1,"componentType":5126,"count":2754,"max":[0.9964410066604614,1,0.9920864701271057],"min":[-0.9964411854743958,-1,-0.9864461421966553],"type":"VEC3"},{"bufferView":2,"componentType":5126,"count":2754,"max":[1,1,1],"min":[1,1,1],"type":"VEC3"},{"bufferView":3,"componentType":5126,"count":2754,"max":[0.9954439997673035,0.9953609704971313],"min":[0.00633700005710125,0.0030360000673681498],"type":"VEC2"}],"materials":[{"pbrMetallicRoughness":{"baseColorFactor":[0.8,0.8,0.8,1],"metallicFactor":0,"roughnessFactor":1}}],"meshes":[{"primitives":[{"mode":4,"attributes":{"POSITION":0,"NORMAL":1,"COLOR_0":2,"TEXCOORD_0":3},"material":0}]}]}