{"asset":{"version":"2.0","generator":"GLTFExporter"},"scenes":[{"name":"AuxScene","nodes":[1]}],"scene":0,"nodes":[{"mesh":0},{"children":[0]}],"bufferViews":[{"buffer":0,"byteOffset":0,"byteLength":20160,"target":34962,"byteStride":12},{"buffer":0,"byteOffset":20160,"byteLength":20160,"target":34962,"byteStride":12},{"buffer":0,"byteOffset":40320,"byteLength":20160,"target":34962,"byteStride":12},{"buffer":0,"byteOffset":60480,"byteLength":13440,"target":34962,"byteStride":8}],"buffers":[{"byteLength":73920,"uri":"data:application/octet-stream;base64,"}],"accessors":[{"bufferView":0,"componentType":5126,"count":1680,"max":[0.7549999952316284,2.7119998931884766,0.7549999952316284],"min":[-0.7549999952316284,0,-0.7549999952316284],"type":"VEC3"},{"bufferView":1,"componentType":5126,"count":1680,"max":[0.9759351015090942,0.9999960064888,0.9674209952354431],"min":[-0.9710661768913269,-0.9997729063034058,-0.9674209952354431],"type":"VEC3"},{"bufferView":2,"componentType":5126,"count":1680,"max":[1,1,1],"min":[1,1,1],"type":"VEC3"},{"bufferView":3,"componentType":5126,"count":1680,"max":[0.9955999851226807,0.9940599799156189],"min":[0,0],"type":"VEC2"}],"materials":[{"pbrMetallicRoughness":{"baseColorFactor":[0.8,0.8,0.8,1],"metallicFactor":0,"roughnessFactor":1}}],"meshes":[{"primitives":[{"mode":4,"attributes":{"POSITION":0,"NORMAL":1,"COLOR_0":2,"TEXCOORD_0":3},"material":0}]}]}