{"asset":{"version":"2.0","generator":"GLTFExporter"},"scenes":[{"name":"AuxScene","nodes":[1]}],"scene":0,"nodes":[{"mesh":0},{"children":[0]}],"bufferViews":[{"buffer":0,"byteOffset":0,"byteLength":6480,"target":34962,"byteStride":12},{"buffer":0,"byteOffset":6480,"byteLength":6480,"target":34962,"byteStride":12},{"buffer":0,"byteOffset":12960,"byteLength":6480,"target":34962,"byteStride":12},{"buffer":0,"byteOffset":19440,"byteLength":4320,"target":34962,"byteStride":8}],"buffers":[{"byteLength":23760,"uri":"data:application/octet-stream;base64,"}],"accessors":[{"bufferView":0,"componentType":5126,"count":540,"max":[0.576869010925293,1.1435199975967407,0.3295679986476898],"min":[-0.576869010925293,-1.4405899584346571e-8,-0.3295679986476898],"type":"VEC3"},{"bufferView":1,"componentType":5126,"count":540,"max":[1,1,1],"min":[-1,-1,-1],"type":"VEC3"},{"bufferView":2,"componentType":5126,"count":540,"max":[1,1,1],"min":[1,1,1],"type":"VEC3"},{"bufferView":3,"componentType":5126,"count":540,"max":[1,0.800000011920929],"min":[0,0],"type":"VEC2"}],"materials":[{"pbrMetallicRoughness":{"baseColorFactor":[0.8,0.8,0.8,1],"metallicFactor":0,"roughnessFactor":1}}],"meshes":[{"primitives":[{"mode":4,"attributes":{"POSITION":0,"NORMAL":1,"COLOR_0":2,"TEXCOORD_0":3},"material":0}]}]}