{"asset":{"version":"2.0","generator":"GLTFExporter"},"scenes":[{"name":"AuxScene","nodes":[1]}],"scene":0,"nodes":[{"extras":{"mapFilename":"goat-texture.jpg"},"mesh":0},{"children":[0]}],"bufferViews":[{"buffer":0,"byteOffset":0,"byteLength":57456,"target":34962,"byteStride":12},{"buffer":0,"byteOffset":57456,"byteLength":57456,"target":34962,"byteStride":12},{"buffer":0,"byteOffset":114912,"byteLength":57456,"target":34962,"byteStride":12},{"buffer":0,"byteOffset":172368,"byteLength":38304,"target":34962,"byteStride":8}],"buffers":[{"byteLength":210672,"uri":"data:application/octet-stream;base64,"}],"accessors":[{"bufferView":0,"componentType":5126,"count":4788,"max":[0.40083199739456177,2.072999954223633,1.8346099853515625],"min":[-0.41286900639533997,-0.041057899594306946,-0.9694939851760864],"type":"VEC3"},{"bufferView":1,"componentType":5126,"count":4788,"max":[1,0.9986569881439209,0.997406005859375],"min":[-0.9989619851112366,-0.9979550242424011,-0.9981080293655396],"type":"VEC3"},{"bufferView":2,"componentType":5126,"count":4788,"max":[1,1,1],"min":[1,1,1],"type":"VEC3"},{"bufferView":3,"componentType":5126,"count":4788,"max":[0.9874849915504456,0.9736490249633789],"min":[0.016804000362753868,0.0030720001086592674],"type":"VEC2"}],"materials":[{"pbrMetallicRoughness":{"metallicFactor":0,"roughnessFactor":1,"baseColorTexture":{"index":0}},"name":"Material"}],"meshes":[{"primitives":[{"mode":4,"attributes":{"POSITION":0,"NORMAL":1,"COLOR_0":2,"TEXCOORD_0":3},"material":0}]}],"images":[{"uri":"goat-texture.jpg"}],"textures":[{"source":0}]}