{"asset":{"version":"2.0","generator":"GLTFExporter"},"scenes":[{"name":"AuxScene","nodes":[2]}],"scene":0,"nodes":[{"extras":{"mapFilename":null},"mesh":0},{"extras":{"mapFilename":null},"mesh":1},{"children":[0,1]}],"bufferViews":[{"buffer":0,"byteOffset":0,"byteLength":16416,"target":34962,"byteStride":12},{"buffer":0,"byteOffset":16416,"byteLength":16416,"target":34962,"byteStride":12},{"buffer":0,"byteOffset":32832,"byteLength":16416,"target":34962,"byteStride":12},{"buffer":0,"byteOffset":49248,"byteLength":4464,"target":34962,"byteStride":12},{"buffer":0,"byteOffset":53712,"byteLength":4464,"target":34962,"byteStride":12},{"buffer":0,"byteOffset":58176,"byteLength":4464,"target":34962,"byteStride":12}],"buffers":[{"byteLength":62640,"uri":"data:application/octet-stream;base64,"}],"accessors":[{"bufferView":0,"componentType":5126,"count":1368,"max":[0.6816909909248352,1.8408900499343872,1],"min":[-0.6816909909248352,0.6380460262298584,-0.8791149854660034],"type":"VEC3"},{"bufferView":1,"componentType":5126,"count":1368,"max":[1,0.9993590116500854,0.9212319850921631],"min":[-0.9998469948768616,-0.9980159997940063,-0.9831539988517761],"type":"VEC3"},{"bufferView":2,"componentType":5126,"count":1368,"max":[1,1,1],"min":[1,1,1],"type":"VEC3"},{"bufferView":3,"componentType":5126,"count":372,"max":[1.2128900289535522,0.6036499738693237,1.2128900289535522],"min":[-1.2128900289535522,0.015190999954938889,-1.2128900289535522],"type":"VEC3"},{"bufferView":4,"componentType":5126,"count":372,"max":[0.8158820271492004,0.5782039761543274,0.8158820271492004],"min":[-0.8158820271492004,-0.7813959717750549,-0.8158820271492004],"type":"VEC3"},{"bufferView":5,"componentType":5126,"count":372,"max":[1,1,1],"min":[1,1,1],"type":"VEC3"}],"materials":[{"pbrMetallicRoughness":{"baseColorFactor":[0.023529411764705882,0.023529411764705882,0.023529411764705882,1],"metallicFactor":0,"roughnessFactor":1},"name":"Material"},{"pbrMetallicRoughness":{"baseColorFactor":[0.7176470588235294,0.7176470588235294,0.7176470588235294,1],"metallicFactor":0,"roughnessFactor":1},"name":"Material.001"}],"meshes":[{"primitives":[{"mode":4,"attributes":{"POSITION":0,"NORMAL":1,"COLOR_0":2},"material":0}]},{"primitives":[{"mode":4,"attributes":{"POSITION":3,"NORMAL":4,"COLOR_0":5},"material":1}]}]}