{"asset":{"version":"2.0","generator":"GLTFExporter"},"scenes":[{"name":"AuxScene","nodes":[1]}],"scene":0,"nodes":[{"extras":{"mapFilename":"lamb-texture.jpg"},"mesh":0},{"children":[0]}],"bufferViews":[{"buffer":0,"byteOffset":0,"byteLength":48384,"target":34962,"byteStride":12},{"buffer":0,"byteOffset":48384,"byteLength":48384,"target":34962,"byteStride":12},{"buffer":0,"byteOffset":96768,"byteLength":48384,"target":34962,"byteStride":12},{"buffer":0,"byteOffset":145152,"byteLength":32256,"target":34962,"byteStride":8}],"buffers":[{"byteLength":177408,"uri":"data:application/octet-stream;base64,"}],"accessors":[{"bufferView":0,"componentType":5126,"count":4032,"max":[0.5377910137176514,2.0952000617980957,1.6164900064468384],"min":[-0.5385299921035767,-0.04195139929652214,-0.8203830122947693],"type":"VEC3"},{"bufferView":1,"componentType":5126,"count":4032,"max":[0.9993289709091187,0.9999079704284668,0.9997860193252563],"min":[-0.9995729923248291,-0.9998469948768616,-0.9997249841690063],"type":"VEC3"},{"bufferView":2,"componentType":5126,"count":4032,"max":[1,1,1],"min":[1,1,1],"type":"VEC3"},{"bufferView":3,"componentType":5126,"count":4032,"max":[0.9874849915504456,0.9769300222396851],"min":[0.016804000362753868,0.0030720001086592674],"type":"VEC2"}],"materials":[{"pbrMetallicRoughness":{"metallicFactor":0,"roughnessFactor":1,"baseColorTexture":{"index":0}},"name":"Material"}],"meshes":[{"primitives":[{"mode":4,"attributes":{"POSITION":0,"NORMAL":1,"COLOR_0":2,"TEXCOORD_0":3},"material":0}]}],"images":[{"uri":"lamb-texture.jpg"}],"textures":[{"source":0}]}