{"asset":{"version":"2.0","generator":"GLTFExporter"},"scenes":[{"name":"AuxScene","nodes":[1]}],"scene":0,"nodes":[{"extras":{"mapFilename":"woodcell2x512.jpg"},"mesh":0},{"children":[0]}],"bufferViews":[{"buffer":0,"byteOffset":0,"byteLength":34560,"target":34962,"byteStride":12},{"buffer":0,"byteOffset":34560,"byteLength":34560,"target":34962,"byteStride":12},{"buffer":0,"byteOffset":69120,"byteLength":34560,"target":34962,"byteStride":12},{"buffer":0,"byteOffset":103680,"byteLength":23040,"target":34962,"byteStride":8}],"buffers":[{"byteLength":126720,"uri":"data:application/octet-stream;base64,"}],"accessors":[{"bufferView":0,"componentType":5126,"count":2880,"max":[0.8231760263442993,1.317199945449829,0.8231750130653381],"min":[-0.8231760263442993,-0.008660909719765186,-0.8231760263442993],"type":"VEC3"},{"bufferView":1,"componentType":5126,"count":2880,"max":[0.9894099831581116,1,0.9894099831581116],"min":[-0.9894099831581116,-1,-0.9894099831581116],"type":"VEC3"},{"bufferView":2,"componentType":5126,"count":2880,"max":[1,1,1],"min":[1,1,1],"type":"VEC3"},{"bufferView":3,"componentType":5126,"count":2880,"max":[0.9867839813232422,0.9839910268783569],"min":[0.020076999440789223,0.2947880029678345],"type":"VEC2"}],"materials":[{"pbrMetallicRoughness":{"baseColorFactor":[0.8,0.8,0.8,1],"metallicFactor":0,"roughnessFactor":1,"baseColorTexture":{"index":0}},"name":"mouton"}],"meshes":[{"primitives":[{"mode":4,"attributes":{"POSITION":0,"NORMAL":1,"COLOR_0":2,"TEXCOORD_0":3},"material":0}]}],"images":[{"uri":"woodcell2x512.jpg"}],"textures":[{"source":0}]}