{"asset":{"version":"2.0","generator":"GLTFExporter"},"scenes":[{"name":"AuxScene","nodes":[1]}],"scene":0,"nodes":[{"extras":{"mapFilename":"pulijudam-board-wood.jpg"},"mesh":0},{"children":[0]}],"bufferViews":[{"buffer":0,"byteOffset":0,"byteLength":57096,"target":34962,"byteStride":12},{"buffer":0,"byteOffset":57096,"byteLength":57096,"target":34962,"byteStride":12},{"buffer":0,"byteOffset":114192,"byteLength":57096,"target":34962,"byteStride":12},{"buffer":0,"byteOffset":171288,"byteLength":38064,"target":34962,"byteStride":8}],"buffers":[{"byteLength":209352,"uri":"data:application/octet-stream;base64,"}],"accessors":[{"bufferView":0,"componentType":5126,"count":4758,"max":[4.285669803619385,-0.02392840012907982,2.682149887084961],"min":[-4.2924299240112305,-0.4100950062274933,-3.627429962158203],"type":"VEC3"},{"bufferView":1,"componentType":5126,"count":4758,"max":[0.987945020198822,1,0.9879760146141052],"min":[-0.9880369901657104,-0.9976199865341187,-0.9880369901657104],"type":"VEC3"},{"bufferView":2,"componentType":5126,"count":4758,"max":[1,1,1],"min":[1,1,1],"type":"VEC3"},{"bufferView":3,"componentType":5126,"count":4758,"max":[0.9999849796295166,0.9345059990882874],"min":[0.000014999999621068127,0.000014999999621068127],"type":"VEC2"}],"materials":[{"pbrMetallicRoughness":{"baseColorFactor":[0.8,0.8,0.8,1],"metallicFactor":0,"roughnessFactor":1,"baseColorTexture":{"index":0}},"name":"boardmat"}],"meshes":[{"primitives":[{"mode":4,"attributes":{"POSITION":0,"NORMAL":1,"COLOR_0":2,"TEXCOORD_0":3},"material":0}]}],"images":[{"uri":"pulijudam-board-wood.jpg"}],"textures":[{"source":0}]}