{"asset":{"version":"2.0","generator":"GLTFExporter"},"scenes":[{"name":"AuxScene","nodes":[1]}],"scene":0,"nodes":[{"extras":{"mapFilename":null},"mesh":0},{"children":[0]}],"bufferViews":[{"buffer":0,"byteOffset":0,"byteLength":23328,"target":34962,"byteStride":12},{"buffer":0,"byteOffset":23328,"byteLength":23328,"target":34962,"byteStride":12},{"buffer":0,"byteOffset":46656,"byteLength":23328,"target":34962,"byteStride":12}],"buffers":[{"byteLength":69984,"uri":"data:application/octet-stream;base64,"}],"accessors":[{"bufferView":0,"componentType":5126,"count":1944,"max":[0.362870991230011,1.9274699687957764,2.1429901123046875],"min":[-0.4089139997959137,-0.0051802401430904865,-1.7563999891281128],"type":"VEC3"},{"bufferView":1,"componentType":5126,"count":1944,"max":[0.9977110028266907,0.9988399744033813,1],"min":[-0.9989320039749146,-0.9996029734611511,-0.9943850040435791],"type":"VEC3"},{"bufferView":2,"componentType":5126,"count":1944,"max":[1,1,1],"min":[1,1,1],"type":"VEC3"}],"materials":[{"pbrMetallicRoughness":{"baseColorFactor":[0.6392156862745098,0.1607843137254902,0,1],"metallicFactor":0,"roughnessFactor":1},"name":"Material.001"}],"meshes":[{"primitives":[{"mode":4,"attributes":{"POSITION":0,"NORMAL":1,"COLOR_0":2},"material":0}]}]}