{"asset":{"version":"2.0","generator":"GLTFExporter"},"scenes":[{"name":"AuxScene","nodes":[2]}],"scene":0,"nodes":[{"extras":{"mapFilename":null},"mesh":0},{"extras":{"mapFilename":"tigernail-uvs.jpg"},"mesh":1},{"children":[0,1]}],"bufferViews":[{"buffer":0,"byteOffset":0,"byteLength":4464,"target":34962,"byteStride":12},{"buffer":0,"byteOffset":4464,"byteLength":4464,"target":34962,"byteStride":12},{"buffer":0,"byteOffset":8928,"byteLength":4464,"target":34962,"byteStride":12},{"buffer":0,"byteOffset":13392,"byteLength":2976,"target":34962,"byteStride":8},{"buffer":0,"byteOffset":16368,"byteLength":25344,"target":34962,"byteStride":12},{"buffer":0,"byteOffset":41712,"byteLength":25344,"target":34962,"byteStride":12},{"buffer":0,"byteOffset":67056,"byteLength":25344,"target":34962,"byteStride":12},{"buffer":0,"byteOffset":92400,"byteLength":16896,"target":34962,"byteStride":8}],"buffers":[{"byteLength":109296,"uri":"data:application/octet-stream;base64,"}],"accessors":[{"bufferView":0,"componentType":5126,"count":372,"max":[1.2128900289535522,0.6036499738693237,1.2128900289535522],"min":[-1.2128900289535522,0.015190999954938889,-1.2128900289535522],"type":"VEC3"},{"bufferView":1,"componentType":5126,"count":372,"max":[0.8158820271492004,0.5782039761543274,0.8158820271492004],"min":[-0.8158820271492004,-0.7813959717750549,-0.8158820271492004],"type":"VEC3"},{"bufferView":2,"componentType":5126,"count":372,"max":[1,1,1],"min":[1,1,1],"type":"VEC3"},{"bufferView":3,"componentType":5126,"count":372,"max":[0,0],"min":[0,0],"type":"VEC2"},{"bufferView":4,"componentType":5126,"count":2112,"max":[0.48654600977897644,3.1999599933624268,1.1736600399017334],"min":[-0.48654600977897644,0.5927600264549255,-0.980970025062561],"type":"VEC3"},{"bufferView":5,"componentType":5126,"count":2112,"max":[0.9958800077438354,0.9828180074691772,0.9959719777107239],"min":[-0.9972839951515198,-1,-0.9982600212097168],"type":"VEC3"},{"bufferView":6,"componentType":5126,"count":2112,"max":[1,1,1],"min":[1,1,1],"type":"VEC3"},{"bufferView":7,"componentType":5126,"count":2112,"max":[0.9959740042686462,0.9728909730911255],"min":[-0.003826000029221177,0.005007999949157238],"type":"VEC2"}],"materials":[{"pbrMetallicRoughness":{"baseColorFactor":[0.023529411764705882,0.023529411764705882,0.023529411764705882,1],"metallicFactor":0,"roughnessFactor":1},"name":"Material"},{"pbrMetallicRoughness":{"baseColorFactor":[0.6392156862745098,0.6392156862745098,0.6392156862745098,1],"metallicFactor":0,"roughnessFactor":1,"baseColorTexture":{"index":0}},"name":"tigertooth"}],"meshes":[{"primitives":[{"mode":4,"attributes":{"POSITION":0,"NORMAL":1,"COLOR_0":2,"TEXCOORD_0":3},"material":0}]},{"primitives":[{"mode":4,"attributes":{"POSITION":4,"NORMAL":5,"COLOR_0":6,"TEXCOORD_0":7},"material":1}]}],"images":[{"uri":"tigernail-uvs.jpg"}],"textures":[{"source":0}]}