{"asset":{"version":"2.0","generator":"GLTFExporter"},"scenes":[{"name":"AuxScene","nodes":[1]}],"scene":0,"nodes":[{"extras":{"mapFilename":"tiger-textures.jpg"},"mesh":0},{"children":[0]}],"bufferViews":[{"buffer":0,"byteOffset":0,"byteLength":94176,"target":34962,"byteStride":12},{"buffer":0,"byteOffset":94176,"byteLength":94176,"target":34962,"byteStride":12},{"buffer":0,"byteOffset":188352,"byteLength":94176,"target":34962,"byteStride":12},{"buffer":0,"byteOffset":282528,"byteLength":62784,"target":34962,"byteStride":8}],"buffers":[{"byteLength":345312,"uri":"data:application/octet-stream;base64,"}],"accessors":[{"bufferView":0,"componentType":5126,"count":7848,"max":[0.3419570028781891,2.0337600708007812,2.1153199672698975],"min":[-0.3805660009384155,0.0036616299767047167,-1.546839952468872],"type":"VEC3"},{"bufferView":1,"componentType":5126,"count":7848,"max":[0.9992070198059082,0.9998779892921448,0.99822998046875],"min":[-0.9992070198059082,-0.9999690055847168,-0.9994810223579407],"type":"VEC3"},{"bufferView":2,"componentType":5126,"count":7848,"max":[1,1,1],"min":[1,1,1],"type":"VEC3"},{"bufferView":3,"componentType":5126,"count":7848,"max":[0.9767230153083801,0.9941250085830688],"min":[0.00009100000170292333,0.00009100000170292333],"type":"VEC2"}],"materials":[{"pbrMetallicRoughness":{"metallicFactor":0,"roughnessFactor":1,"baseColorTexture":{"index":0}},"name":"Material.001"}],"meshes":[{"primitives":[{"mode":4,"attributes":{"POSITION":0,"NORMAL":1,"COLOR_0":2,"TEXCOORD_0":3},"material":0}]}],"images":[{"uri":"tiger-textures.jpg"}],"textures":[{"source":0}]}