{"asset":{"version":"2.0","generator":"GLTFExporter"},"scenes":[{"name":"AuxScene","nodes":[3]}],"scene":0,"nodes":[{"extras":{"mapFilename":null},"mesh":0},{"extras":{"mapFilename":null},"mesh":1},{"extras":{"mapFilename":"woodcell1x512.jpg"},"mesh":2},{"children":[0,1,2]}],"bufferViews":[{"buffer":0,"byteOffset":0,"byteLength":432,"target":34962,"byteStride":12},{"buffer":0,"byteOffset":432,"byteLength":432,"target":34962,"byteStride":12},{"buffer":0,"byteOffset":864,"byteLength":432,"target":34962,"byteStride":12},{"buffer":0,"byteOffset":1296,"byteLength":288,"target":34962,"byteStride":8},{"buffer":0,"byteOffset":1584,"byteLength":432,"target":34962,"byteStride":12},{"buffer":0,"byteOffset":2016,"byteLength":432,"target":34962,"byteStride":12},{"buffer":0,"byteOffset":2448,"byteLength":432,"target":34962,"byteStride":12},{"buffer":0,"byteOffset":2880,"byteLength":288,"target":34962,"byteStride":8},{"buffer":0,"byteOffset":3168,"byteLength":720,"target":34962,"byteStride":12},{"buffer":0,"byteOffset":3888,"byteLength":720,"target":34962,"byteStride":12},{"buffer":0,"byteOffset":4608,"byteLength":720,"target":34962,"byteStride":12},{"buffer":0,"byteOffset":5328,"byteLength":480,"target":34962,"byteStride":8}],"buffers":[{"byteLength":5808,"uri":"data:application/octet-stream;base64,"}],"accessors":[{"bufferView":0,"componentType":5126,"count":36,"max":[0.674983024597168,0.04953239858150482,-3.8613200187683105],"min":[-0.674983024597168,-0.049532800912857056,-3.882740020751953],"type":"VEC3"},{"bufferView":1,"componentType":5126,"count":36,"max":[0.5773490071296692,0.5773490071296692,0.5773490071296692],"min":[-0.5773490071296692,-0.5773490071296692,-0.5773490071296692],"type":"VEC3"},{"bufferView":2,"componentType":5126,"count":36,"max":[1,1,1],"min":[1,1,1],"type":"VEC3"},{"bufferView":3,"componentType":5126,"count":36,"max":[0,0],"min":[0,0],"type":"VEC2"},{"bufferView":4,"componentType":5126,"count":36,"max":[0.674983024597168,0.049532800912857056,3.8822999000549316],"min":[-0.674983024597168,-0.04953239858150482,3.860879898071289],"type":"VEC3"},{"bufferView":5,"componentType":5126,"count":36,"max":[0.5773490071296692,0.5773490071296692,0.5773490071296692],"min":[-0.5773490071296692,-0.5773490071296692,-0.5773490071296692],"type":"VEC3"},{"bufferView":6,"componentType":5126,"count":36,"max":[1,1,1],"min":[1,1,1],"type":"VEC3"},{"bufferView":7,"componentType":5126,"count":36,"max":[0,0],"min":[0,0],"type":"VEC2"},{"bufferView":8,"componentType":5126,"count":60,"max":[3.8594601154327393,0.16234800219535828,3.8594601154327393],"min":[-3.8594601154327393,-0.1511780023574829,-3.8594601154327393],"type":"VEC3"},{"bufferView":9,"componentType":5126,"count":60,"max":[0.6821190118789673,0.794031023979187,0.6821190118789673],"min":[-0.6821190118789673,-0.5773490071296692,-0.6821190118789673],"type":"VEC3"},{"bufferView":10,"componentType":5126,"count":60,"max":[1,1,1],"min":[1,1,1],"type":"VEC3"},{"bufferView":11,"componentType":5126,"count":60,"max":[1,1],"min":[0,0],"type":"VEC2"}],"materials":[{"pbrMetallicRoughness":{"baseColorFactor":[0.6392156862745098,0.6392156862745098,0.6392156862745098,1],"metallicFactor":0,"roughnessFactor":1},"name":"playerb"},{"pbrMetallicRoughness":{"baseColorFactor":[0.6392156862745098,0.6392156862745098,0.6392156862745098,1],"metallicFactor":0,"roughnessFactor":1},"name":"playera"},{"pbrMetallicRoughness":{"baseColorFactor":[0.6392156862745098,0.6392156862745098,0.6392156862745098,1],"metallicFactor":0,"roughnessFactor":1,"baseColorTexture":{"index":0}},"name":"mainframe"}],"meshes":[{"primitives":[{"mode":4,"attributes":{"POSITION":0,"NORMAL":1,"COLOR_0":2,"TEXCOORD_0":3},"material":0}]},{"primitives":[{"mode":4,"attributes":{"POSITION":4,"NORMAL":5,"COLOR_0":6,"TEXCOORD_0":7},"material":1}]},{"primitives":[{"mode":4,"attributes":{"POSITION":8,"NORMAL":9,"COLOR_0":10,"TEXCOORD_0":11},"material":2}]}],"images":[{"uri":"woodcell1x512.jpg"}],"textures":[{"source":0}]}