{"asset":{"version":"2.0","generator":"GLTFExporter"},"scenes":[{"name":"AuxScene","nodes":[4]}],"scene":0,"nodes":[{"extras":{"mapFilename":null},"mesh":0},{"extras":{"mapFilename":null},"mesh":1},{"extras":{"mapFilename":null},"mesh":2},{"extras":{"mapFilename":null},"mesh":3},{"children":[0,1,2,3]}],"bufferViews":[{"buffer":0,"byteOffset":0,"byteLength":4032,"target":34962,"byteStride":12},{"buffer":0,"byteOffset":4032,"byteLength":4032,"target":34962,"byteStride":12},{"buffer":0,"byteOffset":8064,"byteLength":4032,"target":34962,"byteStride":12},{"buffer":0,"byteOffset":12096,"byteLength":2688,"target":34962,"byteStride":8},{"buffer":0,"byteOffset":14784,"byteLength":7920,"target":34962,"byteStride":12},{"buffer":0,"byteOffset":22704,"byteLength":7920,"target":34962,"byteStride":12},{"buffer":0,"byteOffset":30624,"byteLength":7920,"target":34962,"byteStride":12},{"buffer":0,"byteOffset":38544,"byteLength":5280,"target":34962,"byteStride":8},{"buffer":0,"byteOffset":43824,"byteLength":1656,"target":34962,"byteStride":12},{"buffer":0,"byteOffset":45480,"byteLength":1656,"target":34962,"byteStride":12},{"buffer":0,"byteOffset":47136,"byteLength":1656,"target":34962,"byteStride":12},{"buffer":0,"byteOffset":48792,"byteLength":1104,"target":34962,"byteStride":8},{"buffer":0,"byteOffset":49896,"byteLength":4680,"target":34962,"byteStride":12},{"buffer":0,"byteOffset":54576,"byteLength":4680,"target":34962,"byteStride":12},{"buffer":0,"byteOffset":59256,"byteLength":4680,"target":34962,"byteStride":12},{"buffer":0,"byteOffset":63936,"byteLength":3120,"target":34962,"byteStride":8}],"buffers":[{"byteLength":67056,"uri":"data:application/octet-stream;base64,"}],"accessors":[{"bufferView":0,"componentType":5126,"count":336,"max":[1,0.40796399116516113,1],"min":[-0.9807850122451782,0.35308700799942017,-0.9618819952011108],"type":"VEC3"},{"bufferView":1,"componentType":5126,"count":336,"max":[0.8930630087852478,0.9920349717140198,0.8930630087852478],"min":[-0.8759120106697083,0.4498730003833771,-0.742546021938324],"type":"VEC3"},{"bufferView":2,"componentType":5126,"count":336,"max":[1,1,1],"min":[1,1,1],"type":"VEC3"},{"bufferView":3,"componentType":5126,"count":336,"max":[0.981909990310669,0.9659199714660645],"min":[0.02430099993944168,0.01744999922811985],"type":"VEC2"},{"bufferView":4,"componentType":5126,"count":660,"max":[1,0.38138800859451294,1],"min":[-1,0.004885340109467506,-1],"type":"VEC3"},{"bufferView":5,"componentType":5126,"count":660,"max":[1,0.4498730003833771,1],"min":[-1,-0.9424120187759399,-1],"type":"VEC3"},{"bufferView":6,"componentType":5126,"count":660,"max":[1,1,1],"min":[1,1,1],"type":"VEC3"},{"bufferView":7,"componentType":5126,"count":660,"max":[0.9929590225219727,0.9534580111503601],"min":[0.02232700027525425,0.06060599908232689],"type":"VEC2"},{"bufferView":8,"componentType":5126,"count":138,"max":[0.9807850122451782,0.40796399116516113,1],"min":[-1,0.38138800859451294,-1],"type":"VEC3"},{"bufferView":9,"componentType":5126,"count":138,"max":[0.8759120106697083,0.9778739809989929,0.8930630087852478],"min":[-0.8930630087852478,0.4498730003833771,-0.8930630087852478],"type":"VEC3"},{"bufferView":10,"componentType":5126,"count":138,"max":[1,1,1],"min":[1,1,1],"type":"VEC3"},{"bufferView":11,"componentType":5126,"count":138,"max":[0.9726210236549377,0.9843479990959167],"min":[0.015011999756097794,0.01744999922811985],"type":"VEC2"},{"bufferView":12,"componentType":5126,"count":390,"max":[1,0.38138800859451294,1],"min":[-1,0.004885329864919186,-1],"type":"VEC3"},{"bufferView":13,"componentType":5126,"count":390,"max":[0.9999690055847168,0.4498730003833771,0.9999690055847168],"min":[-0.9999690055847168,-0.9424120187759399,-0.9999690055847168],"type":"VEC3"},{"bufferView":14,"componentType":5126,"count":390,"max":[1,1,1],"min":[1,1,1],"type":"VEC3"},{"bufferView":15,"componentType":5126,"count":390,"max":[0.9929590225219727,0.9534580111503601],"min":[0.02232700027525425,0.05206099897623062],"type":"VEC2"}],"materials":[{"pbrMetallicRoughness":{"baseColorFactor":[0.6392156862745098,0.6392156862745098,0.6392156862745098,1],"metallicFactor":0,"roughnessFactor":1},"name":"piecetop"},{"pbrMetallicRoughness":{"baseColorFactor":[0.6392156862745098,0.6392156862745098,0.6392156862745098,1],"metallicFactor":0,"roughnessFactor":1},"name":"pieceborders"}],"meshes":[{"primitives":[{"mode":4,"attributes":{"POSITION":0,"NORMAL":1,"COLOR_0":2,"TEXCOORD_0":3},"material":0}]},{"primitives":[{"mode":4,"attributes":{"POSITION":4,"NORMAL":5,"COLOR_0":6,"TEXCOORD_0":7},"material":1}]},{"primitives":[{"mode":4,"attributes":{"POSITION":8,"NORMAL":9,"COLOR_0":10,"TEXCOORD_0":11},"material":0}]},{"primitives":[{"mode":4,"attributes":{"POSITION":12,"NORMAL":13,"COLOR_0":14,"TEXCOORD_0":15},"material":1}]}]}