{"asset":{"version":"2.0","generator":"GLTFExporter"},"scenes":[{"name":"AuxScene","nodes":[1]}],"scene":0,"nodes":[{"mesh":0},{"children":[0]}],"bufferViews":[{"buffer":0,"byteOffset":0,"byteLength":34056,"target":34962,"byteStride":12},{"buffer":0,"byteOffset":34056,"byteLength":34056,"target":34962,"byteStride":12},{"buffer":0,"byteOffset":68112,"byteLength":34056,"target":34962,"byteStride":12},{"buffer":0,"byteOffset":102168,"byteLength":22704,"target":34962,"byteStride":8}],"buffers":[{"byteLength":124872,"uri":"data:application/octet-stream;base64,"}],"accessors":[{"bufferView":0,"componentType":5126,"count":2838,"max":[0.8681409955024719,3.091949939727783,1.0483800172805786],"min":[-0.8681409955024719,0.0036140000447630882,-0.8681399822235107],"type":"VEC3"},{"bufferView":1,"componentType":5126,"count":2838,"max":[0.9970399737358093,0.9919130206108093,0.9985659718513489],"min":[-0.9970399737358093,-0.9997860193252563,-0.9970399737358093],"type":"VEC3"},{"bufferView":2,"componentType":5126,"count":2838,"max":[1,1,1],"min":[1,1,1],"type":"VEC3"},{"bufferView":3,"componentType":5126,"count":2838,"max":[1,1],"min":[0,0],"type":"VEC2"}],"materials":[{"pbrMetallicRoughness":{"baseColorFactor":[0.8,0.8,0.8,1],"metallicFactor":0,"roughnessFactor":1}}],"meshes":[{"primitives":[{"mode":4,"attributes":{"POSITION":0,"NORMAL":1,"COLOR_0":2,"TEXCOORD_0":3},"material":0}]}]}