{"asset":{"version":"2.0","generator":"GLTFExporter"},"scenes":[{"name":"AuxScene","nodes":[1]}],"scene":0,"nodes":[{"mesh":0},{"children":[0]}],"bufferViews":[{"buffer":0,"byteOffset":0,"byteLength":57024,"target":34962,"byteStride":12},{"buffer":0,"byteOffset":57024,"byteLength":57024,"target":34962,"byteStride":12},{"buffer":0,"byteOffset":114048,"byteLength":57024,"target":34962,"byteStride":12},{"buffer":0,"byteOffset":171072,"byteLength":38016,"target":34962,"byteStride":8}],"buffers":[{"byteLength":209088,"uri":"data:application/octet-stream;base64,"}],"accessors":[{"bufferView":0,"componentType":5126,"count":4752,"max":[0.8649320006370544,3.092859983444214,0.9088540077209473],"min":[-0.8649320006370544,0.003980000037699938,-0.9376400113105774],"type":"VEC3"},{"bufferView":1,"componentType":5126,"count":4752,"max":[0.9998779892921448,0.9992070198059082,0.9969180226325989],"min":[-0.9998779892921448,-0.9996340274810791,-0.9987789988517761],"type":"VEC3"},{"bufferView":2,"componentType":5126,"count":4752,"max":[1,1,1],"min":[1,1,1],"type":"VEC3"},{"bufferView":3,"componentType":5126,"count":4752,"max":[0.9998610019683838,0.955256998538971],"min":[0.00013899999612476677,0.00013899999612476677],"type":"VEC2"}],"materials":[{"pbrMetallicRoughness":{"baseColorFactor":[0.8,0.8,0.8,1],"metallicFactor":0,"roughnessFactor":1}}],"meshes":[{"primitives":[{"mode":4,"attributes":{"POSITION":0,"NORMAL":1,"COLOR_0":2,"TEXCOORD_0":3},"material":0}]}]}