{"asset":{"version":"2.0","generator":"GLTFExporter"},"scenes":[{"name":"AuxScene","nodes":[1]}],"scene":0,"nodes":[{"mesh":0},{"children":[0]}],"bufferViews":[{"buffer":0,"byteOffset":0,"byteLength":49968,"target":34962,"byteStride":12},{"buffer":0,"byteOffset":49968,"byteLength":49968,"target":34962,"byteStride":12},{"buffer":0,"byteOffset":99936,"byteLength":49968,"target":34962,"byteStride":12},{"buffer":0,"byteOffset":149904,"byteLength":33312,"target":34962,"byteStride":8}],"buffers":[{"byteLength":183216,"uri":"data:application/octet-stream;base64,"}],"accessors":[{"bufferView":0,"componentType":5126,"count":4164,"max":[1,4.345749855041504,1],"min":[-1,0.007344199810177088,-1],"type":"VEC3"},{"bufferView":1,"componentType":5126,"count":4164,"max":[0.9914432764053345,1,0.9914432764053345],"min":[-0.9914432764053345,-1,-0.9914432764053345],"type":"VEC3"},{"bufferView":2,"componentType":5126,"count":4164,"max":[1,1,1],"min":[1,1,1],"type":"VEC3"},{"bufferView":3,"componentType":5126,"count":4164,"max":[0.9960100054740906,0.9862819910049438],"min":[0.003636999987065792,0.006407999899238348],"type":"VEC2"}],"materials":[{"pbrMetallicRoughness":{"baseColorFactor":[0.8,0.8,0.8,1],"metallicFactor":0,"roughnessFactor":1}}],"meshes":[{"primitives":[{"mode":4,"attributes":{"POSITION":0,"NORMAL":1,"COLOR_0":2,"TEXCOORD_0":3},"material":0}]}]}