{"asset":{"version":"2.0","generator":"GLTFExporter"},"scenes":[{"name":"AuxScene","nodes":[1]}],"scene":0,"nodes":[{"mesh":0},{"children":[0]}],"bufferViews":[{"buffer":0,"byteOffset":0,"byteLength":17136,"target":34962,"byteStride":12},{"buffer":0,"byteOffset":17136,"byteLength":17136,"target":34962,"byteStride":12},{"buffer":0,"byteOffset":34272,"byteLength":17136,"target":34962,"byteStride":12},{"buffer":0,"byteOffset":51408,"byteLength":11424,"target":34962,"byteStride":8}],"buffers":[{"byteLength":62832,"uri":"data:application/octet-stream;base64,"}],"accessors":[{"bufferView":0,"componentType":5126,"count":1428,"max":[0.7553790211677551,2.9384500980377197,0.7553790211677551],"min":[-0.7553790211677551,-0.019735800102353096,-0.7553790211677551],"type":"VEC3"},{"bufferView":1,"componentType":5126,"count":1428,"max":[0.9667772054672241,1,0.9667772054672241],"min":[-0.9667772054672241,-1,-0.9667771458625793],"type":"VEC3"},{"bufferView":2,"componentType":5126,"count":1428,"max":[1,1,1],"min":[1,1,1],"type":"VEC3"},{"bufferView":3,"componentType":5126,"count":1428,"max":[1,0.9241780042648315],"min":[0,0],"type":"VEC2"}],"materials":[{"pbrMetallicRoughness":{"baseColorFactor":[0.8,0.8,0.8,1],"metallicFactor":0,"roughnessFactor":1}}],"meshes":[{"primitives":[{"mode":4,"attributes":{"POSITION":0,"NORMAL":1,"COLOR_0":2,"TEXCOORD_0":3},"material":0}]}]}