{"asset":{"version":"2.0","generator":"GLTFExporter"},"scenes":[{"name":"AuxScene","nodes":[2]}],"scene":0,"nodes":[{"extras":{"mapFilename":null},"mesh":0},{"extras":{"mapFilename":null},"mesh":1},{"children":[0,1]}],"bufferViews":[{"buffer":0,"byteOffset":0,"byteLength":3456,"target":34962,"byteStride":12},{"buffer":0,"byteOffset":3456,"byteLength":3456,"target":34962,"byteStride":12},{"buffer":0,"byteOffset":6912,"byteLength":3456,"target":34962,"byteStride":12},{"buffer":0,"byteOffset":10368,"byteLength":6768,"target":34962,"byteStride":12},{"buffer":0,"byteOffset":17136,"byteLength":6768,"target":34962,"byteStride":12},{"buffer":0,"byteOffset":23904,"byteLength":6768,"target":34962,"byteStride":12}],"buffers":[{"byteLength":30672,"uri":"data:application/octet-stream;base64,"}],"accessors":[{"bufferView":0,"componentType":5126,"count":288,"max":[4.357399940490723,0.2465669959783554,4.357399940490723],"min":[-4.357399940490723,0.1881610006093979,-4.357399940490723],"type":"VEC3"},{"bufferView":1,"componentType":5126,"count":288,"max":[0.3254370093345642,0.9455757737159729,0.3254370093345642],"min":[-0.3254370093345642,-0.9455756545066833,-0.3254370093345642],"type":"VEC3"},{"bufferView":2,"componentType":5126,"count":288,"max":[1,1,1],"min":[1,1,1],"type":"VEC3"},{"bufferView":3,"componentType":5126,"count":564,"max":[4.912149906158447,0.22694000601768494,4.912149906158447],"min":[-4.912149906158447,-0.22694000601768494,-4.912149906158447],"type":"VEC3"},{"bufferView":4,"componentType":5126,"count":564,"max":[1,1,1],"min":[-1,-1,-1],"type":"VEC3"},{"bufferView":5,"componentType":5126,"count":564,"max":[1,1,1],"min":[1,1,1],"type":"VEC3"}],"materials":[{"pbrMetallicRoughness":{"baseColorFactor":[0.6392156862745098,0.6392156862745098,0.6392156862745098,1],"metallicFactor":0,"roughnessFactor":1},"name":"deco"},{"pbrMetallicRoughness":{"baseColorFactor":[0.6392156862745098,0.6392156862745098,0.6392156862745098,1],"metallicFactor":0,"roughnessFactor":1},"name":"mainframe"}],"meshes":[{"primitives":[{"mode":4,"attributes":{"POSITION":0,"NORMAL":1,"COLOR_0":2},"material":0}]},{"primitives":[{"mode":4,"attributes":{"POSITION":3,"NORMAL":4,"COLOR_0":5},"material":1}]}]}