{"asset":{"version":"2.0","generator":"GLTFExporter"},"scenes":[{"name":"AuxScene","nodes":[4]}],"scene":0,"nodes":[{"extras":{"mapFilename":null},"mesh":0},{"extras":{"mapFilename":null},"mesh":1},{"extras":{"mapFilename":"web cam exp.png"},"mesh":2},{"extras":{"mapFilename":null},"mesh":3},{"children":[0,1,2,3]}],"bufferViews":[{"buffer":0,"byteOffset":0,"byteLength":432,"target":34962,"byteStride":12},{"buffer":0,"byteOffset":432,"byteLength":432,"target":34962,"byteStride":12},{"buffer":0,"byteOffset":864,"byteLength":432,"target":34962,"byteStride":12},{"buffer":0,"byteOffset":1296,"byteLength":288,"target":34962,"byteStride":8},{"buffer":0,"byteOffset":1584,"byteLength":432,"target":34962,"byteStride":12},{"buffer":0,"byteOffset":2016,"byteLength":432,"target":34962,"byteStride":12},{"buffer":0,"byteOffset":2448,"byteLength":432,"target":34962,"byteStride":12},{"buffer":0,"byteOffset":2880,"byteLength":288,"target":34962,"byteStride":8},{"buffer":0,"byteOffset":3168,"byteLength":72,"target":34962,"byteStride":12},{"buffer":0,"byteOffset":3240,"byteLength":72,"target":34962,"byteStride":12},{"buffer":0,"byteOffset":3312,"byteLength":72,"target":34962,"byteStride":12},{"buffer":0,"byteOffset":3384,"byteLength":48,"target":34962,"byteStride":8},{"buffer":0,"byteOffset":3432,"byteLength":1224,"target":34962,"byteStride":12},{"buffer":0,"byteOffset":4656,"byteLength":1224,"target":34962,"byteStride":12},{"buffer":0,"byteOffset":5880,"byteLength":1224,"target":34962,"byteStride":12},{"buffer":0,"byteOffset":7104,"byteLength":816,"target":34962,"byteStride":8}],"buffers":[{"byteLength":7920,"uri":"data:application/octet-stream;base64,"}],"accessors":[{"bufferView":0,"componentType":5126,"count":36,"max":[-2.8189499378204346,2.016249895095825,0.0795975998044014],"min":[-3.68245005607605,-2.012120008468628,0.05245169997215271],"type":"VEC3"},{"bufferView":1,"componentType":5126,"count":36,"max":[0.5773490071296692,0.5773490071296692,0.5773490071296692],"min":[-0.5773490071296692,-0.5773490071296692,-0.5773490071296692],"type":"VEC3"},{"bufferView":2,"componentType":5126,"count":36,"max":[1,1,1],"min":[1,1,1],"type":"VEC3"},{"bufferView":3,"componentType":5126,"count":36,"max":[0,0],"min":[0,0],"type":"VEC2"},{"bufferView":4,"componentType":5126,"count":36,"max":[3.6738998889923096,2.016249895095825,0.0795975998044014],"min":[2.810389995574951,-2.012120008468628,0.05245169997215271],"type":"VEC3"},{"bufferView":5,"componentType":5126,"count":36,"max":[0.5773490071296692,0.5773490071296692,0.5773490071296692],"min":[-0.5773490071296692,-0.5773490071296692,-0.5773490071296692],"type":"VEC3"},{"bufferView":6,"componentType":5126,"count":36,"max":[1,1,1],"min":[1,1,1],"type":"VEC3"},{"bufferView":7,"componentType":5126,"count":36,"max":[0,0],"min":[0,0],"type":"VEC2"},{"bufferView":8,"componentType":5126,"count":6,"max":[2.640000104904175,1.9800000190734863,2.360339976803516e-7],"min":[-2.640000104904175,-1.9800000190734863,-2.360339976803516e-7],"type":"VEC3"},{"bufferView":9,"componentType":5126,"count":6,"max":[0,0,1],"min":[0,0,1],"type":"VEC3"},{"bufferView":10,"componentType":5126,"count":6,"max":[1,1,1],"min":[1,1,1],"type":"VEC3"},{"bufferView":11,"componentType":5126,"count":6,"max":[1,1],"min":[0,0],"type":"VEC2"},{"bufferView":12,"componentType":5126,"count":102,"max":[3.8262500762939453,2.1355700492858887,0.059964198619127274],"min":[-3.8262500762939453,-2.1355700492858887,-0.28924500942230225],"type":"VEC3"},{"bufferView":13,"componentType":5126,"count":102,"max":[0.707082986831665,0.707082986831665,0.9045079946517944],"min":[-0.707082986831665,-0.707082986831665,0],"type":"VEC3"},{"bufferView":14,"componentType":5126,"count":102,"max":[1,1,1],"min":[1,1,1],"type":"VEC3"},{"bufferView":15,"componentType":5126,"count":102,"max":[0,0],"min":[0,0],"type":"VEC2"}],"materials":[{"pbrMetallicRoughness":{"baseColorFactor":[0,0,0,0.4078947901725769],"metallicFactor":0,"roughnessFactor":1},"alphaMode":"BLEND","name":"boomer"},{"pbrMetallicRoughness":{"baseColorFactor":[0,0,0,0.4078947901725769],"metallicFactor":0,"roughnessFactor":1},"alphaMode":"BLEND","name":"boomer"},{"pbrMetallicRoughness":{"baseColorFactor":[0.6392156862745098,0.6392156862745098,0.6392156862745098,1],"metallicFactor":0,"roughnessFactor":1,"baseColorTexture":{"index":0}},"name":"screen"},{"pbrMetallicRoughness":{"baseColorFactor":[0.596078431372549,0.596078431372549,0.596078431372549,1],"metallicFactor":0,"roughnessFactor":1},"name":"tv"}],"meshes":[{"primitives":[{"mode":4,"attributes":{"POSITION":0,"NORMAL":1,"COLOR_0":2,"TEXCOORD_0":3},"material":0}]},{"primitives":[{"mode":4,"attributes":{"POSITION":4,"NORMAL":5,"COLOR_0":6,"TEXCOORD_0":7},"material":1}]},{"primitives":[{"mode":4,"attributes":{"POSITION":8,"NORMAL":9,"COLOR_0":10,"TEXCOORD_0":11},"material":2}]},{"primitives":[{"mode":4,"attributes":{"POSITION":12,"NORMAL":13,"COLOR_0":14,"TEXCOORD_0":15},"material":3}]}],"images":[{"uri":"web cam exp.png"}],"textures":[{"source":0}]}