{"asset":{"version":"2.0","generator":"GLTFExporter"},"scenes":[{"name":"AuxScene","nodes":[5]}],"scene":0,"nodes":[{"extras":{"mapFilename":"baril-256.jpg"},"mesh":0},{"extras":{"mapFilename":null},"mesh":1},{"extras":{"mapFilename":"web cam exp.png"},"mesh":2},{"extras":{"mapFilename":null},"mesh":3},{"extras":{"mapFilename":"baril-256.jpg"},"mesh":4},{"children":[0,1,2,3,4]}],"bufferViews":[{"buffer":0,"byteOffset":0,"byteLength":4464,"target":34962,"byteStride":12},{"buffer":0,"byteOffset":4464,"byteLength":4464,"target":34962,"byteStride":12},{"buffer":0,"byteOffset":8928,"byteLength":4464,"target":34962,"byteStride":12},{"buffer":0,"byteOffset":13392,"byteLength":2976,"target":34962,"byteStride":8},{"buffer":0,"byteOffset":16368,"byteLength":1008,"target":34962,"byteStride":12},{"buffer":0,"byteOffset":17376,"byteLength":1008,"target":34962,"byteStride":12},{"buffer":0,"byteOffset":18384,"byteLength":1008,"target":34962,"byteStride":12},{"buffer":0,"byteOffset":19392,"byteLength":672,"target":34962,"byteStride":8},{"buffer":0,"byteOffset":20064,"byteLength":72,"target":34962,"byteStride":12},{"buffer":0,"byteOffset":20136,"byteLength":72,"target":34962,"byteStride":12},{"buffer":0,"byteOffset":20208,"byteLength":72,"target":34962,"byteStride":12},{"buffer":0,"byteOffset":20280,"byteLength":48,"target":34962,"byteStride":8},{"buffer":0,"byteOffset":20328,"byteLength":1008,"target":34962,"byteStride":12},{"buffer":0,"byteOffset":21336,"byteLength":1008,"target":34962,"byteStride":12},{"buffer":0,"byteOffset":22344,"byteLength":1008,"target":34962,"byteStride":12},{"buffer":0,"byteOffset":23352,"byteLength":672,"target":34962,"byteStride":8},{"buffer":0,"byteOffset":24024,"byteLength":4464,"target":34962,"byteStride":12},{"buffer":0,"byteOffset":28488,"byteLength":4464,"target":34962,"byteStride":12},{"buffer":0,"byteOffset":32952,"byteLength":4464,"target":34962,"byteStride":12},{"buffer":0,"byteOffset":37416,"byteLength":2976,"target":34962,"byteStride":8}],"buffers":[{"byteLength":40392,"uri":"data:application/octet-stream;base64,"}],"accessors":[{"bufferView":0,"componentType":5126,"count":372,"max":[0.31932199001312256,0.37211400270462036,-0.8335070013999939],"min":[-0.31932199001312256,-0.2607080042362213,-1.478600025177002],"type":"VEC3"},{"bufferView":1,"componentType":5126,"count":372,"max":[0.993133008480072,0.7501749992370605,0.9930109977722168],"min":[-0.993133008480072,-0.7501749992370605,-0.9930109977722168],"type":"VEC3"},{"bufferView":2,"componentType":5126,"count":372,"max":[1,1,1],"min":[1,1,1],"type":"VEC3"},{"bufferView":3,"componentType":5126,"count":372,"max":[0.9881809949874878,0.9858899712562561],"min":[0.013869999907910824,0.008701999671757221],"type":"VEC2"},{"bufferView":4,"componentType":5126,"count":84,"max":[0.02245360054075718,2.2181899547576904,-1.1335999965667725],"min":[-0.02245360054075718,0.31629499793052673,-1.1785099506378174],"type":"VEC3"},{"bufferView":5,"componentType":5126,"count":84,"max":[0.7763599753379822,0.6302379965782166,0.7763599753379822],"min":[-0.7763599753379822,-0.6302379965782166,-0.7763599753379822],"type":"VEC3"},{"bufferView":6,"componentType":5126,"count":84,"max":[1,1,1],"min":[1,1,1],"type":"VEC3"},{"bufferView":7,"componentType":5126,"count":84,"max":[0,0],"min":[0,0],"type":"VEC2"},{"bufferView":8,"componentType":5126,"count":6,"max":[1.5557300514501549e-7,2.211359977722168,1.200700044631958],"min":[-1.5557300514501549e-7,0.44511300325393677,-1.154289960861206],"type":"VEC3"},{"bufferView":9,"componentType":5126,"count":6,"max":[1,0,0],"min":[1,0,0],"type":"VEC3"},{"bufferView":10,"componentType":5126,"count":6,"max":[1,1,1],"min":[1,1,1],"type":"VEC3"},{"bufferView":11,"componentType":5126,"count":6,"max":[0.9959570169448853,0.9999129772186279],"min":[0.0000870000003487803,0.0000870000003487803],"type":"VEC2"},{"bufferView":12,"componentType":5126,"count":84,"max":[0.02245360054075718,2.2181899547576904,1.2267500162124634],"min":[-0.02245360054075718,0.31629499793052673,1.181839942932129],"type":"VEC3"},{"bufferView":13,"componentType":5126,"count":84,"max":[0.7763599753379822,0.6302379965782166,0.7763599753379822],"min":[-0.7763599753379822,-0.6302379965782166,-0.7763599753379822],"type":"VEC3"},{"bufferView":14,"componentType":5126,"count":84,"max":[1,1,1],"min":[1,1,1],"type":"VEC3"},{"bufferView":15,"componentType":5126,"count":84,"max":[0,0],"min":[0,0],"type":"VEC2"},{"bufferView":16,"componentType":5126,"count":372,"max":[0.31932199001312256,0.37211400270462036,1.5268499851226807],"min":[-0.31932199001312256,-0.2607080042362213,0.8817499876022339],"type":"VEC3"},{"bufferView":17,"componentType":5126,"count":372,"max":[0.993133008480072,0.7501749992370605,0.9930109977722168],"min":[-0.993133008480072,-0.7501749992370605,-0.9930109977722168],"type":"VEC3"},{"bufferView":18,"componentType":5126,"count":372,"max":[1,1,1],"min":[1,1,1],"type":"VEC3"},{"bufferView":19,"componentType":5126,"count":372,"max":[0.9881809949874878,0.9858899712562561],"min":[0.013869999907910824,0.008701999671757221],"type":"VEC2"}],"materials":[{"pbrMetallicRoughness":{"baseColorFactor":[0.8,0.8,0.8,1],"metallicFactor":0,"roughnessFactor":1,"baseColorTexture":{"index":0}},"name":"Material.003"},{"pbrMetallicRoughness":{"baseColorFactor":[0.10196078431372549,0.027450980392156862,0.011764705882352941,1],"metallicFactor":0,"roughnessFactor":1},"name":"Material.002"},{"pbrMetallicRoughness":{"metallicFactor":0,"roughnessFactor":1,"baseColorTexture":{"index":1}},"name":"screen"},{"pbrMetallicRoughness":{"baseColorFactor":[0.10196078431372549,0.027450980392156862,0.011764705882352941,1],"metallicFactor":0,"roughnessFactor":1},"name":"Material.002"},{"pbrMetallicRoughness":{"baseColorFactor":[0.8,0.8,0.8,1],"metallicFactor":0,"roughnessFactor":1,"baseColorTexture":{"index":0}},"name":"Material.003"}],"meshes":[{"primitives":[{"mode":4,"attributes":{"POSITION":0,"NORMAL":1,"COLOR_0":2,"TEXCOORD_0":3},"material":0}]},{"primitives":[{"mode":4,"attributes":{"POSITION":4,"NORMAL":5,"COLOR_0":6,"TEXCOORD_0":7},"material":1}]},{"primitives":[{"mode":4,"attributes":{"POSITION":8,"NORMAL":9,"COLOR_0":10,"TEXCOORD_0":11},"material":2}]},{"primitives":[{"mode":4,"attributes":{"POSITION":12,"NORMAL":13,"COLOR_0":14,"TEXCOORD_0":15},"material":3}]},{"primitives":[{"mode":4,"attributes":{"POSITION":16,"NORMAL":17,"COLOR_0":18,"TEXCOORD_0":19},"material":4}]}],"images":[{"uri":"baril-256.jpg"},{"uri":"web cam exp.png"}],"textures":[{"source":0},{"source":1}]}