{"asset":{"version":"2.0","generator":"GLTFExporter"},"scenes":[{"name":"AuxScene","nodes":[3]}],"scene":0,"nodes":[{"extras":{"mapFilename":null},"mesh":0},{"extras":{"mapFilename":null},"mesh":1},{"extras":{"mapFilename":"baril-256.jpg"},"mesh":2},{"children":[0,1,2]}],"bufferViews":[{"buffer":0,"byteOffset":0,"byteLength":1296,"target":34962,"byteStride":12},{"buffer":0,"byteOffset":1296,"byteLength":1296,"target":34962,"byteStride":12},{"buffer":0,"byteOffset":2592,"byteLength":1296,"target":34962,"byteStride":12},{"buffer":0,"byteOffset":3888,"byteLength":864,"target":34962,"byteStride":8},{"buffer":0,"byteOffset":4752,"byteLength":1008,"target":34962,"byteStride":12},{"buffer":0,"byteOffset":5760,"byteLength":1008,"target":34962,"byteStride":12},{"buffer":0,"byteOffset":6768,"byteLength":1008,"target":34962,"byteStride":12},{"buffer":0,"byteOffset":7776,"byteLength":672,"target":34962,"byteStride":8},{"buffer":0,"byteOffset":8448,"byteLength":4464,"target":34962,"byteStride":12},{"buffer":0,"byteOffset":12912,"byteLength":4464,"target":34962,"byteStride":12},{"buffer":0,"byteOffset":17376,"byteLength":4464,"target":34962,"byteStride":12},{"buffer":0,"byteOffset":21840,"byteLength":2976,"target":34962,"byteStride":8}],"buffers":[{"byteLength":24816,"uri":"data:application/octet-stream;base64,"}],"accessors":[{"bufferView":0,"componentType":5126,"count":108,"max":[0.014610799960792065,1.8394700288772583,-0.02500689961016178],"min":[-0.019286399707198143,1.4131699800491333,-0.6822469830513],"type":"VEC3"},{"bufferView":1,"componentType":5126,"count":108,"max":[0.7716609835624695,0.7506330013275146,0.6158329844474792],"min":[-0.7573779821395874,-0.764549970626831,-0.6553239822387695],"type":"VEC3"},{"bufferView":2,"componentType":5126,"count":108,"max":[1,1,1],"min":[1,1,1],"type":"VEC3"},{"bufferView":3,"componentType":5126,"count":108,"max":[0,0],"min":[0,0],"type":"VEC2"},{"bufferView":4,"componentType":5126,"count":84,"max":[0.02245360054075718,1.87663996219635,0.015882600098848343],"min":[-0.02245360054075718,-0.41286900639533997,-0.029024800285696983],"type":"VEC3"},{"bufferView":5,"componentType":5126,"count":84,"max":[0.7763599753379822,0.6302379965782166,0.7763599753379822],"min":[-0.7763599753379822,-0.6302379965782166,-0.7763599753379822],"type":"VEC3"},{"bufferView":6,"componentType":5126,"count":84,"max":[1,1,1],"min":[1,1,1],"type":"VEC3"},{"bufferView":7,"componentType":5126,"count":84,"max":[0,0],"min":[0,0],"type":"VEC2"},{"bufferView":8,"componentType":5126,"count":372,"max":[0.4561749994754791,0.5077189803123474,0.4542109966278076],"min":[-0.4561749994754791,-0.39631301164627075,-0.4673529863357544],"type":"VEC3"},{"bufferView":9,"componentType":5126,"count":372,"max":[0.993133008480072,0.7501749992370605,0.9930109977722168],"min":[-0.993133008480072,-0.7501749992370605,-0.9930109977722168],"type":"VEC3"},{"bufferView":10,"componentType":5126,"count":372,"max":[1,1,1],"min":[1,1,1],"type":"VEC3"},{"bufferView":11,"componentType":5126,"count":372,"max":[0.9881809949874878,0.9858899712562561],"min":[0.013869999907910824,0.008701999671757221],"type":"VEC2"}],"materials":[{"pbrMetallicRoughness":{"baseColorFactor":[0.6392156862745098,0.058823529411764705,0,1],"metallicFactor":0,"roughnessFactor":1},"name":"Material.001"},{"pbrMetallicRoughness":{"baseColorFactor":[0.10196078431372549,0.027450980392156862,0.011764705882352941,1],"metallicFactor":0,"roughnessFactor":1},"name":"Material.002"},{"pbrMetallicRoughness":{"baseColorFactor":[0.8,0.8,0.8,1],"metallicFactor":0,"roughnessFactor":1,"baseColorTexture":{"index":0}},"name":"Material.003"}],"meshes":[{"primitives":[{"mode":4,"attributes":{"POSITION":0,"NORMAL":1,"COLOR_0":2,"TEXCOORD_0":3},"material":0}]},{"primitives":[{"mode":4,"attributes":{"POSITION":4,"NORMAL":5,"COLOR_0":6,"TEXCOORD_0":7},"material":1}]},{"primitives":[{"mode":4,"attributes":{"POSITION":8,"NORMAL":9,"COLOR_0":10,"TEXCOORD_0":11},"material":2}]}],"images":[{"uri":"baril-256.jpg"}],"textures":[{"source":0}]}