{"asset":{"version":"2.0","generator":"GLTFExporter"},"scenes":[{"name":"AuxScene","nodes":[6]}],"scene":0,"nodes":[{"extras":{"mapFilename":"jarmada-admiral-voiles-uvs-512.jpg"},"mesh":0},{"extras":{"mapFilename":null},"mesh":1},{"extras":{"mapFilename":null},"mesh":2},{"extras":{"mapFilename":null},"mesh":3},{"extras":{"mapFilename":null},"mesh":4},{"extras":{"mapFilename":"jarmada-frigate-uvs-512.jpg"},"mesh":5},{"children":[0,1,2,3,4,5]}],"bufferViews":[{"buffer":0,"byteOffset":0,"byteLength":2160,"target":34962,"byteStride":12},{"buffer":0,"byteOffset":2160,"byteLength":2160,"target":34962,"byteStride":12},{"buffer":0,"byteOffset":4320,"byteLength":2160,"target":34962,"byteStride":12},{"buffer":0,"byteOffset":6480,"byteLength":1440,"target":34962,"byteStride":8},{"buffer":0,"byteOffset":7920,"byteLength":1008,"target":34962,"byteStride":12},{"buffer":0,"byteOffset":8928,"byteLength":1008,"target":34962,"byteStride":12},{"buffer":0,"byteOffset":9936,"byteLength":1008,"target":34962,"byteStride":12},{"buffer":0,"byteOffset":10944,"byteLength":672,"target":34962,"byteStride":8},{"buffer":0,"byteOffset":11616,"byteLength":1008,"target":34962,"byteStride":12},{"buffer":0,"byteOffset":12624,"byteLength":1008,"target":34962,"byteStride":12},{"buffer":0,"byteOffset":13632,"byteLength":1008,"target":34962,"byteStride":12},{"buffer":0,"byteOffset":14640,"byteLength":672,"target":34962,"byteStride":8},{"buffer":0,"byteOffset":15312,"byteLength":1008,"target":34962,"byteStride":12},{"buffer":0,"byteOffset":16320,"byteLength":1008,"target":34962,"byteStride":12},{"buffer":0,"byteOffset":17328,"byteLength":1008,"target":34962,"byteStride":12},{"buffer":0,"byteOffset":18336,"byteLength":672,"target":34962,"byteStride":8},{"buffer":0,"byteOffset":19008,"byteLength":1008,"target":34962,"byteStride":12},{"buffer":0,"byteOffset":20016,"byteLength":1008,"target":34962,"byteStride":12},{"buffer":0,"byteOffset":21024,"byteLength":1008,"target":34962,"byteStride":12},{"buffer":0,"byteOffset":22032,"byteLength":672,"target":34962,"byteStride":8},{"buffer":0,"byteOffset":22704,"byteLength":3744,"target":34962,"byteStride":12},{"buffer":0,"byteOffset":26448,"byteLength":3744,"target":34962,"byteStride":12},{"buffer":0,"byteOffset":30192,"byteLength":3744,"target":34962,"byteStride":12},{"buffer":0,"byteOffset":33936,"byteLength":2496,"target":34962,"byteStride":8}],"buffers":[{"byteLength":36432,"uri":"data:application/octet-stream;base64,"}],"accessors":[{"bufferView":0,"componentType":5126,"count":180,"max":[0.278425008058548,0.7868130207061768,0.31894001364707947],"min":[-0.2305070012807846,0.16136500239372253,-0.32801899313926697],"type":"VEC3"},{"bufferView":1,"componentType":5126,"count":180,"max":[0.9689930081367493,0.9137849807739258,0.9985349774360657],"min":[-0.9877930283546448,-0.8317509889602661,-0.9985349774360657],"type":"VEC3"},{"bufferView":2,"componentType":5126,"count":180,"max":[1,1,1],"min":[1,1,1],"type":"VEC3"},{"bufferView":3,"componentType":5126,"count":180,"max":[0.8390370011329651,0.3932360112667084],"min":[0.19058899581432343,0.0038209999911487103],"type":"VEC2"},{"bufferView":4,"componentType":5126,"count":84,"max":[0.13832299411296844,0.39380601048469543,0.3256469964981079],"min":[-0.14202600717544556,0.38787999749183655,0.3197219967842102],"type":"VEC3"},{"bufferView":5,"componentType":5126,"count":84,"max":[0.6302379965782166,0.7645800113677979,0.7645800113677979],"min":[-0.6302379965782166,-0.7645800113677979,-0.7645800113677979],"type":"VEC3"},{"bufferView":6,"componentType":5126,"count":84,"max":[1,1,1],"min":[1,1,1],"type":"VEC3"},{"bufferView":7,"componentType":5126,"count":84,"max":[0,0],"min":[0,0],"type":"VEC2"},{"bufferView":8,"componentType":5126,"count":84,"max":[0.0022175100166350603,0.41685599088668823,0.3428640067577362],"min":[-0.0059210797771811485,-0.003193330019712448,0.26438000798225403],"type":"VEC3"},{"bufferView":9,"componentType":5126,"count":84,"max":[0.7763599753379822,0.7503589987754822,0.8702049851417542],"min":[-0.7763599753379822,-0.7503589987754822,-0.8702049851417542],"type":"VEC3"},{"bufferView":10,"componentType":5126,"count":84,"max":[1,1,1],"min":[1,1,1],"type":"VEC3"},{"bufferView":11,"componentType":5126,"count":84,"max":[0,0],"min":[0,0],"type":"VEC2"},{"bufferView":12,"componentType":5126,"count":84,"max":[0.017571499571204185,0.6836810111999512,-0.10630299896001816],"min":[0.0049934000708162785,0.04407380148768425,-0.2778080105781555],"type":"VEC3"},{"bufferView":13,"componentType":5126,"count":84,"max":[0.7763599753379822,0.7998899817466736,0.9061560034751892],"min":[-0.7763599753379822,-0.7998899817466736,-0.9061560034751892],"type":"VEC3"},{"bufferView":14,"componentType":5126,"count":84,"max":[1,1,1],"min":[1,1,1],"type":"VEC3"},{"bufferView":15,"componentType":5126,"count":84,"max":[0,0],"min":[0,0],"type":"VEC2"},{"bufferView":16,"componentType":5126,"count":84,"max":[0.28116199374198914,0.8023250102996826,-0.1807509958744049],"min":[-0.2063630074262619,0.21417100727558136,-0.3391689956188202],"type":"VEC3"},{"bufferView":17,"componentType":5126,"count":84,"max":[0.9994509816169739,0.9551680088043213,0.8764920234680176],"min":[-0.9994509816169739,-0.9551680088043213,-0.8764920234680176],"type":"VEC3"},{"bufferView":18,"componentType":5126,"count":84,"max":[1,1,1],"min":[1,1,1],"type":"VEC3"},{"bufferView":19,"componentType":5126,"count":84,"max":[0,0],"min":[0,0],"type":"VEC2"},{"bufferView":20,"componentType":5126,"count":312,"max":[0.17872899770736694,0.09656839817762375,0.3495410084724426],"min":[-0.16968700289726257,-0.03511299937963486,-0.3504999876022339],"type":"VEC3"},{"bufferView":21,"componentType":5126,"count":312,"max":[0.9938660264015198,1,0.9817500114440918],"min":[-0.9938660264015198,-1,-0.9839469790458679],"type":"VEC3"},{"bufferView":22,"componentType":5126,"count":312,"max":[1,1,1],"min":[1,1,1],"type":"VEC3"},{"bufferView":23,"componentType":5126,"count":312,"max":[0.9950649738311768,0.9862279891967773],"min":[0.012109000235795975,0.009189000353217125],"type":"VEC2"}],"materials":[{"pbrMetallicRoughness":{"baseColorFactor":[0.6392156862745098,0.6392156862745098,0.6392156862745098,1],"metallicFactor":0,"roughnessFactor":1,"baseColorTexture":{"index":0}},"name":"voiles"},{"pbrMetallicRoughness":{"baseColorFactor":[0.12941176470588237,0.0392156862745098,0.01568627450980392,1],"metallicFactor":0,"roughnessFactor":1},"name":"bois"},{"pbrMetallicRoughness":{"baseColorFactor":[0.12941176470588237,0.0392156862745098,0.01568627450980392,1],"metallicFactor":0,"roughnessFactor":1},"name":"bois"},{"pbrMetallicRoughness":{"baseColorFactor":[0.12941176470588237,0.0392156862745098,0.01568627450980392,1],"metallicFactor":0,"roughnessFactor":1},"name":"bois"},{"pbrMetallicRoughness":{"baseColorFactor":[0.12941176470588237,0.0392156862745098,0.01568627450980392,1],"metallicFactor":0,"roughnessFactor":1},"name":"bois"},{"pbrMetallicRoughness":{"baseColorFactor":[0.6392156862745098,0.6392156862745098,0.6392156862745098,1],"metallicFactor":0,"roughnessFactor":1,"baseColorTexture":{"index":1}},"name":"coque"}],"meshes":[{"primitives":[{"mode":4,"attributes":{"POSITION":0,"NORMAL":1,"COLOR_0":2,"TEXCOORD_0":3},"material":0}]},{"primitives":[{"mode":4,"attributes":{"POSITION":4,"NORMAL":5,"COLOR_0":6,"TEXCOORD_0":7},"material":1}]},{"primitives":[{"mode":4,"attributes":{"POSITION":8,"NORMAL":9,"COLOR_0":10,"TEXCOORD_0":11},"material":2}]},{"primitives":[{"mode":4,"attributes":{"POSITION":12,"NORMAL":13,"COLOR_0":14,"TEXCOORD_0":15},"material":3}]},{"primitives":[{"mode":4,"attributes":{"POSITION":16,"NORMAL":17,"COLOR_0":18,"TEXCOORD_0":19},"material":4}]},{"primitives":[{"mode":4,"attributes":{"POSITION":20,"NORMAL":21,"COLOR_0":22,"TEXCOORD_0":23},"material":5}]}],"images":[{"uri":"jarmada-admiral-voiles-uvs-512.jpg"},{"uri":"jarmada-frigate-uvs-512.jpg"}],"textures":[{"source":0},{"source":1}]}