{"asset":{"version":"2.0","generator":"GLTFExporter"},"scenes":[{"name":"AuxScene","nodes":[7]}],"scene":0,"nodes":[{"extras":{"mapFilename":"jarmada-gallion-uvs-512.jpg"},"mesh":0},{"extras":{"mapFilename":"jarmada-admiral-voiles-uvs-512.jpg"},"mesh":1},{"extras":{"mapFilename":null},"mesh":2},{"extras":{"mapFilename":null},"mesh":3},{"extras":{"mapFilename":null},"mesh":4},{"extras":{"mapFilename":null},"mesh":5},{"extras":{"mapFilename":null},"mesh":6},{"children":[0,1,2,3,4,5,6]}],"bufferViews":[{"buffer":0,"byteOffset":0,"byteLength":7776,"target":34962,"byteStride":12},{"buffer":0,"byteOffset":7776,"byteLength":7776,"target":34962,"byteStride":12},{"buffer":0,"byteOffset":15552,"byteLength":7776,"target":34962,"byteStride":12},{"buffer":0,"byteOffset":23328,"byteLength":5184,"target":34962,"byteStride":8},{"buffer":0,"byteOffset":28512,"byteLength":3312,"target":34962,"byteStride":12},{"buffer":0,"byteOffset":31824,"byteLength":3312,"target":34962,"byteStride":12},{"buffer":0,"byteOffset":35136,"byteLength":3312,"target":34962,"byteStride":12},{"buffer":0,"byteOffset":38448,"byteLength":2208,"target":34962,"byteStride":8},{"buffer":0,"byteOffset":40656,"byteLength":1008,"target":34962,"byteStride":12},{"buffer":0,"byteOffset":41664,"byteLength":1008,"target":34962,"byteStride":12},{"buffer":0,"byteOffset":42672,"byteLength":1008,"target":34962,"byteStride":12},{"buffer":0,"byteOffset":43680,"byteLength":672,"target":34962,"byteStride":8},{"buffer":0,"byteOffset":44352,"byteLength":1008,"target":34962,"byteStride":12},{"buffer":0,"byteOffset":45360,"byteLength":1008,"target":34962,"byteStride":12},{"buffer":0,"byteOffset":46368,"byteLength":1008,"target":34962,"byteStride":12},{"buffer":0,"byteOffset":47376,"byteLength":672,"target":34962,"byteStride":8},{"buffer":0,"byteOffset":48048,"byteLength":1008,"target":34962,"byteStride":12},{"buffer":0,"byteOffset":49056,"byteLength":1008,"target":34962,"byteStride":12},{"buffer":0,"byteOffset":50064,"byteLength":1008,"target":34962,"byteStride":12},{"buffer":0,"byteOffset":51072,"byteLength":672,"target":34962,"byteStride":8},{"buffer":0,"byteOffset":51744,"byteLength":1008,"target":34962,"byteStride":12},{"buffer":0,"byteOffset":52752,"byteLength":1008,"target":34962,"byteStride":12},{"buffer":0,"byteOffset":53760,"byteLength":1008,"target":34962,"byteStride":12},{"buffer":0,"byteOffset":54768,"byteLength":672,"target":34962,"byteStride":8},{"buffer":0,"byteOffset":55440,"byteLength":1008,"target":34962,"byteStride":12},{"buffer":0,"byteOffset":56448,"byteLength":1008,"target":34962,"byteStride":12},{"buffer":0,"byteOffset":57456,"byteLength":1008,"target":34962,"byteStride":12},{"buffer":0,"byteOffset":58464,"byteLength":672,"target":34962,"byteStride":8}],"buffers":[{"byteLength":59136,"uri":"data:application/octet-stream;base64,"}],"accessors":[{"bufferView":0,"componentType":5126,"count":648,"max":[0.2689000070095062,0.47152000665664673,0.9227830171585083],"min":[-0.20845599472522736,-0.154462993144989,-0.9182010293006897],"type":"VEC3"},{"bufferView":1,"componentType":5126,"count":648,"max":[0.9859610199928284,1,0.9534590244293213],"min":[-0.9859610199928284,-1,-0.9257479906082153],"type":"VEC3"},{"bufferView":2,"componentType":5126,"count":648,"max":[1,1,1],"min":[1,1,1],"type":"VEC3"},{"bufferView":3,"componentType":5126,"count":648,"max":[0.9916080236434937,0.9615150094032288],"min":[0.00021899999410379678,0.04654200002551079],"type":"VEC2"},{"bufferView":4,"componentType":5126,"count":276,"max":[0.4799099862575531,1.0626599788665771,0.7431660294532776],"min":[-0.42309099435806274,0.41220200061798096,-0.8628420233726501],"type":"VEC3"},{"bufferView":5,"componentType":5126,"count":276,"max":[0.9689930081367493,0.9137849807739258,0.9985349774360657],"min":[-0.9877930283546448,-0.8317509889602661,-0.9985349774360657],"type":"VEC3"},{"bufferView":6,"componentType":5126,"count":276,"max":[1,1,1],"min":[1,1,1],"type":"VEC3"},{"bufferView":7,"componentType":5126,"count":276,"max":[0.8390370011329651,0.3932360112667084],"min":[0.19058899581432343,0.0038209999911487103],"type":"VEC2"},{"bufferView":8,"componentType":5126,"count":84,"max":[0.3283959925174713,0.8417350053787231,0.7465879917144775],"min":[-0.2666099965572357,0.8332129716873169,0.7380660176277161],"type":"VEC3"},{"bufferView":9,"componentType":5126,"count":84,"max":[0.6302379965782166,0.7645800113677979,0.7645800113677979],"min":[-0.6302379965782166,-0.7645800113677979,-0.7645800113677979],"type":"VEC3"},{"bufferView":10,"componentType":5126,"count":84,"max":[1,1,1],"min":[1,1,1],"type":"VEC3"},{"bufferView":11,"componentType":5126,"count":84,"max":[0,0],"min":[0,0],"type":"VEC2"},{"bufferView":12,"componentType":5126,"count":84,"max":[0.5027530193328857,0.9673129916191101,-0.024538200348615646],"min":[-0.44096699357032776,0.949222981929779,-0.04262790083885193],"type":"VEC3"},{"bufferView":13,"componentType":5126,"count":84,"max":[0.6302379965782166,0.7763599753379822,0.7763599753379822],"min":[-0.6302379965782166,-0.7763599753379822,-0.7763599753379822],"type":"VEC3"},{"bufferView":14,"componentType":5126,"count":84,"max":[1,1,1],"min":[1,1,1],"type":"VEC3"},{"bufferView":15,"componentType":5126,"count":84,"max":[0,0],"min":[0,0],"type":"VEC2"},{"bufferView":16,"componentType":5126,"count":84,"max":[0.03993780165910721,0.9783200025558472,-0.5737910270690918],"min":[0.021848000586032867,0.058442000299692154,-0.8204479813575745],"type":"VEC3"},{"bufferView":17,"componentType":5126,"count":84,"max":[0.7763599753379822,0.7998899817466736,0.9061560034751892],"min":[-0.7763599753379822,-0.7998899817466736,-0.9061560034751892],"type":"VEC3"},{"bufferView":18,"componentType":5126,"count":84,"max":[1,1,1],"min":[1,1,1],"type":"VEC3"},{"bufferView":19,"componentType":5126,"count":84,"max":[0,0],"min":[0,0],"type":"VEC2"},{"bufferView":20,"componentType":5126,"count":84,"max":[0.036745499819517136,0.8748850226402283,0.7713490128517151],"min":[0.025040600448846817,0.2707740068435669,0.6584740281105042],"type":"VEC3"},{"bufferView":21,"componentType":5126,"count":84,"max":[0.7763599753379822,0.7503589987754822,0.8702049851417542],"min":[-0.7763599753379822,-0.7503589987754822,-0.8702049851417542],"type":"VEC3"},{"bufferView":22,"componentType":5126,"count":84,"max":[1,1,1],"min":[1,1,1],"type":"VEC3"},{"bufferView":23,"componentType":5126,"count":84,"max":[0,0],"min":[0,0],"type":"VEC2"},{"bufferView":24,"componentType":5126,"count":84,"max":[0.044823601841926575,1.1049100160598755,0.012474199756979942],"min":[0.0162563007324934,0.10757099837064743,-0.05099809914827347],"type":"VEC3"},{"bufferView":25,"componentType":5126,"count":84,"max":[0.7783750295639038,0.6643270254135132,0.7999510169029236],"min":[-0.7783750295639038,-0.6596270203590393,-0.8037350177764893],"type":"VEC3"},{"bufferView":26,"componentType":5126,"count":84,"max":[1,1,1],"min":[1,1,1],"type":"VEC3"},{"bufferView":27,"componentType":5126,"count":84,"max":[0,0],"min":[0,0],"type":"VEC2"}],"materials":[{"pbrMetallicRoughness":{"baseColorFactor":[0.6392156862745098,0.6392156862745098,0.6392156862745098,1],"metallicFactor":0,"roughnessFactor":1,"baseColorTexture":{"index":0}},"name":"coque"},{"pbrMetallicRoughness":{"baseColorFactor":[0.6392156862745098,0.6392156862745098,0.6392156862745098,1],"metallicFactor":0,"roughnessFactor":1,"baseColorTexture":{"index":1}},"name":"voiles"},{"pbrMetallicRoughness":{"baseColorFactor":[0.12941176470588237,0.0392156862745098,0.01568627450980392,1],"metallicFactor":0,"roughnessFactor":1},"name":"bois"},{"pbrMetallicRoughness":{"baseColorFactor":[0.12941176470588237,0.0392156862745098,0.01568627450980392,1],"metallicFactor":0,"roughnessFactor":1},"name":"bois"},{"pbrMetallicRoughness":{"baseColorFactor":[0.12941176470588237,0.0392156862745098,0.01568627450980392,1],"metallicFactor":0,"roughnessFactor":1},"name":"bois"},{"pbrMetallicRoughness":{"baseColorFactor":[0.12941176470588237,0.0392156862745098,0.01568627450980392,1],"metallicFactor":0,"roughnessFactor":1},"name":"bois"},{"pbrMetallicRoughness":{"baseColorFactor":[0.12941176470588237,0.0392156862745098,0.01568627450980392,1],"metallicFactor":0,"roughnessFactor":1},"name":"bois"}],"meshes":[{"primitives":[{"mode":4,"attributes":{"POSITION":0,"NORMAL":1,"COLOR_0":2,"TEXCOORD_0":3},"material":0}]},{"primitives":[{"mode":4,"attributes":{"POSITION":4,"NORMAL":5,"COLOR_0":6,"TEXCOORD_0":7},"material":1}]},{"primitives":[{"mode":4,"attributes":{"POSITION":8,"NORMAL":9,"COLOR_0":10,"TEXCOORD_0":11},"material":2}]},{"primitives":[{"mode":4,"attributes":{"POSITION":12,"NORMAL":13,"COLOR_0":14,"TEXCOORD_0":15},"material":3}]},{"primitives":[{"mode":4,"attributes":{"POSITION":16,"NORMAL":17,"COLOR_0":18,"TEXCOORD_0":19},"material":4}]},{"primitives":[{"mode":4,"attributes":{"POSITION":20,"NORMAL":21,"COLOR_0":22,"TEXCOORD_0":23},"material":5}]},{"primitives":[{"mode":4,"attributes":{"POSITION":24,"NORMAL":25,"COLOR_0":26,"TEXCOORD_0":27},"material":6}]}],"images":[{"uri":"jarmada-gallion-uvs-512.jpg"},{"uri":"jarmada-admiral-voiles-uvs-512.jpg"}],"textures":[{"source":0},{"source":1}]}