{"asset":{"version":"2.0","generator":"GLTFExporter"},"scenes":[{"name":"AuxScene","nodes":[7]}],"scene":0,"nodes":[{"extras":{"mapFilename":null},"mesh":0},{"extras":{"mapFilename":null},"mesh":1},{"extras":{"mapFilename":null},"mesh":2},{"extras":{"mapFilename":null},"mesh":3},{"extras":{"mapFilename":null},"mesh":4},{"extras":{"mapFilename":null},"mesh":5},{"extras":{"mapFilename":null},"mesh":6},{"children":[0,1,2,3,4,5,6]}],"bufferViews":[{"buffer":0,"byteOffset":0,"byteLength":17280,"target":34962,"byteStride":12},{"buffer":0,"byteOffset":17280,"byteLength":17280,"target":34962,"byteStride":12},{"buffer":0,"byteOffset":34560,"byteLength":17280,"target":34962,"byteStride":12},{"buffer":0,"byteOffset":51840,"byteLength":3456,"target":34962,"byteStride":12},{"buffer":0,"byteOffset":55296,"byteLength":3456,"target":34962,"byteStride":12},{"buffer":0,"byteOffset":58752,"byteLength":3456,"target":34962,"byteStride":12},{"buffer":0,"byteOffset":62208,"byteLength":3456,"target":34962,"byteStride":12},{"buffer":0,"byteOffset":65664,"byteLength":3456,"target":34962,"byteStride":12},{"buffer":0,"byteOffset":69120,"byteLength":3456,"target":34962,"byteStride":12},{"buffer":0,"byteOffset":72576,"byteLength":17280,"target":34962,"byteStride":12},{"buffer":0,"byteOffset":89856,"byteLength":17280,"target":34962,"byteStride":12},{"buffer":0,"byteOffset":107136,"byteLength":17280,"target":34962,"byteStride":12},{"buffer":0,"byteOffset":124416,"byteLength":17280,"target":34962,"byteStride":12},{"buffer":0,"byteOffset":141696,"byteLength":17280,"target":34962,"byteStride":12},{"buffer":0,"byteOffset":158976,"byteLength":17280,"target":34962,"byteStride":12},{"buffer":0,"byteOffset":176256,"byteLength":3456,"target":34962,"byteStride":12},{"buffer":0,"byteOffset":179712,"byteLength":3456,"target":34962,"byteStride":12},{"buffer":0,"byteOffset":183168,"byteLength":3456,"target":34962,"byteStride":12},{"buffer":0,"byteOffset":186624,"byteLength":1152,"target":34962,"byteStride":12},{"buffer":0,"byteOffset":187776,"byteLength":1152,"target":34962,"byteStride":12},{"buffer":0,"byteOffset":188928,"byteLength":1152,"target":34962,"byteStride":12}],"buffers":[{"byteLength":190080,"uri":"data:application/octet-stream;base64,"}],"accessors":[{"bufferView":0,"componentType":5126,"count":1440,"max":[0.1796489953994751,0.8048629760742188,0.1814199984073639],"min":[-0.6195420026779175,0.4803279936313629,-0.5218700170516968],"type":"VEC3"},{"bufferView":1,"componentType":5126,"count":1440,"max":[0.9776909947395325,0.8740500211715698,0.9951480031013489],"min":[-0.9997559785842896,-0.9931640028953552,-0.9760429859161377],"type":"VEC3"},{"bufferView":2,"componentType":5126,"count":1440,"max":[1,1,1],"min":[1,1,1],"type":"VEC3"},{"bufferView":3,"componentType":5126,"count":288,"max":[0.017957400530576706,0.6141229867935181,-0.023420099169015884],"min":[-0.1989240050315857,0.0379876010119915,-0.15349499881267548],"type":"VEC3"},{"bufferView":4,"componentType":5126,"count":288,"max":[0.9552599787712097,0.5909600257873535,0.9872130155563354],"min":[-0.9714040160179138,-0.5403000116348267,-0.985289990901947],"type":"VEC3"},{"bufferView":5,"componentType":5126,"count":288,"max":[1,1,1],"min":[1,1,1],"type":"VEC3"},{"bufferView":6,"componentType":5126,"count":288,"max":[0.11950699985027313,0.524662971496582,0.3141399919986725],"min":[0.034439701586961746,0.09278000146150589,0.14629900455474854],"type":"VEC3"},{"bufferView":7,"componentType":5126,"count":288,"max":[0.9684739708900452,0.5909600257873535,0.974058985710144],"min":[-0.9598069787025452,-0.5403000116348267,-0.9517199993133545],"type":"VEC3"},{"bufferView":8,"componentType":5126,"count":288,"max":[1,1,1],"min":[1,1,1],"type":"VEC3"},{"bufferView":9,"componentType":5126,"count":1440,"max":[0.35872599482536316,0.6676459908485413,0.5538970232009888],"min":[-0.2201559990644455,0.4243670105934143,0.06593459844589233],"type":"VEC3"},{"bufferView":10,"componentType":5126,"count":1440,"max":[0.9761350154876709,0.8740500211715698,0.9979550242424011],"min":[-0.9810479879379272,-0.9931640028953552,-0.9290440082550049],"type":"VEC3"},{"bufferView":11,"componentType":5126,"count":1440,"max":[1,1,1],"min":[1,1,1],"type":"VEC3"},{"bufferView":12,"componentType":5126,"count":1440,"max":[0.8065279722213745,1.0064599514007568,0.3046799898147583],"min":[-0.009646180085837841,0.6186180114746094,-0.692637026309967],"type":"VEC3"},{"bufferView":13,"componentType":5126,"count":1440,"max":[0.9572129845619202,0.8740500211715698,0.982695996761322],"min":[-0.9919130206108093,-0.9931640028953552,-0.9869080185890198],"type":"VEC3"},{"bufferView":14,"componentType":5126,"count":1440,"max":[1,1,1],"min":[1,1,1],"type":"VEC3"},{"bufferView":15,"componentType":5126,"count":288,"max":[0.41301101446151733,0.7785109877586365,-0.043807998299598694],"min":[0.17710399627685547,0.08999329805374146,-0.23545099794864655],"type":"VEC3"},{"bufferView":16,"componentType":5126,"count":288,"max":[0.9588000178337097,0.5909600257873535,0.9779350161552429],"min":[-0.9526050090789795,-0.5403000116348267,-0.9694200158119202],"type":"VEC3"},{"bufferView":17,"componentType":5126,"count":288,"max":[1,1,1],"min":[1,1,1],"type":"VEC3"},{"bufferView":18,"componentType":5126,"count":96,"max":[0.550915002822876,0.21255899965763092,0.5136479735374451],"min":[-0.4281339943408966,0.0011428899597376585,-0.4654009938240051],"type":"VEC3"},{"bufferView":19,"componentType":5126,"count":96,"max":[0.49931299686431885,1,0.49931299686431885],"min":[-0.49931299686431885,0.8636130094528198,-0.49931299686431885],"type":"VEC3"},{"bufferView":20,"componentType":5126,"count":96,"max":[1,1,1],"min":[1,1,1],"type":"VEC3"}],"materials":[{"pbrMetallicRoughness":{"baseColorFactor":[0.4235294117647059,0.6392156862745098,0.24705882352941178,1],"metallicFactor":0,"roughnessFactor":1},"name":"leaves"},{"pbrMetallicRoughness":{"baseColorFactor":[0.16862745098039217,0.058823529411764705,0.00784313725490196,1],"metallicFactor":0,"roughnessFactor":1},"name":"wood"},{"pbrMetallicRoughness":{"baseColorFactor":[0.16862745098039217,0.058823529411764705,0.00784313725490196,1],"metallicFactor":0,"roughnessFactor":1},"name":"wood"},{"pbrMetallicRoughness":{"baseColorFactor":[0.4235294117647059,0.6392156862745098,0.24705882352941178,1],"metallicFactor":0,"roughnessFactor":1},"name":"leaves"},{"pbrMetallicRoughness":{"baseColorFactor":[0.4235294117647059,0.6392156862745098,0.24705882352941178,1],"metallicFactor":0,"roughnessFactor":1},"name":"leaves"},{"pbrMetallicRoughness":{"baseColorFactor":[0.16862745098039217,0.058823529411764705,0.00784313725490196,1],"metallicFactor":0,"roughnessFactor":1},"name":"wood"},{"pbrMetallicRoughness":{"baseColorFactor":[0.6392156862745098,0.4549019607843137,0.20392156862745098,1],"metallicFactor":0,"roughnessFactor":1},"name":"sand"}],"meshes":[{"primitives":[{"mode":4,"attributes":{"POSITION":0,"NORMAL":1,"COLOR_0":2},"material":0}]},{"primitives":[{"mode":4,"attributes":{"POSITION":3,"NORMAL":4,"COLOR_0":5},"material":1}]},{"primitives":[{"mode":4,"attributes":{"POSITION":6,"NORMAL":7,"COLOR_0":8},"material":2}]},{"primitives":[{"mode":4,"attributes":{"POSITION":9,"NORMAL":10,"COLOR_0":11},"material":3}]},{"primitives":[{"mode":4,"attributes":{"POSITION":12,"NORMAL":13,"COLOR_0":14},"material":4}]},{"primitives":[{"mode":4,"attributes":{"POSITION":15,"NORMAL":16,"COLOR_0":17},"material":5}]},{"primitives":[{"mode":4,"attributes":{"POSITION":18,"NORMAL":19,"COLOR_0":20},"material":6}]}]}