{"asset":{"version":"2.0","generator":"GLTFExporter"},"scenes":[{"name":"AuxScene","nodes":[10]}],"scene":0,"nodes":[{"extras":{"mapFilename":"jarmada-admiral-voiles-uvs-512.jpg"},"mesh":0},{"extras":{"mapFilename":null},"mesh":1},{"extras":{"mapFilename":null},"mesh":2},{"extras":{"mapFilename":null},"mesh":3},{"extras":{"mapFilename":null},"mesh":4},{"extras":{"mapFilename":null},"mesh":5},{"extras":{"mapFilename":null},"mesh":6},{"extras":{"mapFilename":null},"mesh":7},{"extras":{"mapFilename":null},"mesh":8},{"extras":{"mapFilename":"jarmada-admiral-uvs-512.jpg"},"mesh":9},{"children":[0,1,2,3,4,5,6,7,8,9]}],"bufferViews":[{"buffer":0,"byteOffset":0,"byteLength":5616,"target":34962,"byteStride":12},{"buffer":0,"byteOffset":5616,"byteLength":5616,"target":34962,"byteStride":12},{"buffer":0,"byteOffset":11232,"byteLength":5616,"target":34962,"byteStride":12},{"buffer":0,"byteOffset":16848,"byteLength":3744,"target":34962,"byteStride":8},{"buffer":0,"byteOffset":20592,"byteLength":1008,"target":34962,"byteStride":12},{"buffer":0,"byteOffset":21600,"byteLength":1008,"target":34962,"byteStride":12},{"buffer":0,"byteOffset":22608,"byteLength":1008,"target":34962,"byteStride":12},{"buffer":0,"byteOffset":23616,"byteLength":672,"target":34962,"byteStride":8},{"buffer":0,"byteOffset":24288,"byteLength":1008,"target":34962,"byteStride":12},{"buffer":0,"byteOffset":25296,"byteLength":1008,"target":34962,"byteStride":12},{"buffer":0,"byteOffset":26304,"byteLength":1008,"target":34962,"byteStride":12},{"buffer":0,"byteOffset":27312,"byteLength":672,"target":34962,"byteStride":8},{"buffer":0,"byteOffset":27984,"byteLength":1008,"target":34962,"byteStride":12},{"buffer":0,"byteOffset":28992,"byteLength":1008,"target":34962,"byteStride":12},{"buffer":0,"byteOffset":30000,"byteLength":1008,"target":34962,"byteStride":12},{"buffer":0,"byteOffset":31008,"byteLength":672,"target":34962,"byteStride":8},{"buffer":0,"byteOffset":31680,"byteLength":1008,"target":34962,"byteStride":12},{"buffer":0,"byteOffset":32688,"byteLength":1008,"target":34962,"byteStride":12},{"buffer":0,"byteOffset":33696,"byteLength":1008,"target":34962,"byteStride":12},{"buffer":0,"byteOffset":34704,"byteLength":672,"target":34962,"byteStride":8},{"buffer":0,"byteOffset":35376,"byteLength":1008,"target":34962,"byteStride":12},{"buffer":0,"byteOffset":36384,"byteLength":1008,"target":34962,"byteStride":12},{"buffer":0,"byteOffset":37392,"byteLength":1008,"target":34962,"byteStride":12},{"buffer":0,"byteOffset":38400,"byteLength":672,"target":34962,"byteStride":8},{"buffer":0,"byteOffset":39072,"byteLength":1008,"target":34962,"byteStride":12},{"buffer":0,"byteOffset":40080,"byteLength":1008,"target":34962,"byteStride":12},{"buffer":0,"byteOffset":41088,"byteLength":1008,"target":34962,"byteStride":12},{"buffer":0,"byteOffset":42096,"byteLength":672,"target":34962,"byteStride":8},{"buffer":0,"byteOffset":42768,"byteLength":1008,"target":34962,"byteStride":12},{"buffer":0,"byteOffset":43776,"byteLength":1008,"target":34962,"byteStride":12},{"buffer":0,"byteOffset":44784,"byteLength":1008,"target":34962,"byteStride":12},{"buffer":0,"byteOffset":45792,"byteLength":672,"target":34962,"byteStride":8},{"buffer":0,"byteOffset":46464,"byteLength":1008,"target":34962,"byteStride":12},{"buffer":0,"byteOffset":47472,"byteLength":1008,"target":34962,"byteStride":12},{"buffer":0,"byteOffset":48480,"byteLength":1008,"target":34962,"byteStride":12},{"buffer":0,"byteOffset":49488,"byteLength":672,"target":34962,"byteStride":8},{"buffer":0,"byteOffset":50160,"byteLength":8208,"target":34962,"byteStride":12},{"buffer":0,"byteOffset":58368,"byteLength":8208,"target":34962,"byteStride":12},{"buffer":0,"byteOffset":66576,"byteLength":8208,"target":34962,"byteStride":12},{"buffer":0,"byteOffset":74784,"byteLength":5472,"target":34962,"byteStride":8}],"buffers":[{"byteLength":80256,"uri":"data:application/octet-stream;base64,"}],"accessors":[{"bufferView":0,"componentType":5126,"count":468,"max":[0.5120279788970947,1.484089970588684,0.7021309733390808],"min":[-0.5085669755935669,0.42872801423072815,-0.7539460062980652],"type":"VEC3"},{"bufferView":1,"componentType":5126,"count":468,"max":[0.9689630270004272,0.8314160108566284,0.9999690055847168],"min":[-0.9877930283546448,-0.7722709774971008,-0.9999690055847168],"type":"VEC3"},{"bufferView":2,"componentType":5126,"count":468,"max":[1,1,1],"min":[1,1,1],"type":"VEC3"},{"bufferView":3,"componentType":5126,"count":468,"max":[0.9900760054588318,0.9975079894065857],"min":[0.0026000000070780516,0.0038209999911487103],"type":"VEC2"},{"bufferView":4,"componentType":5126,"count":84,"max":[0.2627590000629425,1.2062300443649292,0.7136309742927551],"min":[-0.25711899995803833,0.6665650010108948,0.3448149859905243],"type":"VEC3"},{"bufferView":5,"componentType":5126,"count":84,"max":[0.9994509816169739,0.9996950030326843,0.9296240210533142],"min":[-0.9994509816169739,-0.9996950030326843,-0.9296240210533142],"type":"VEC3"},{"bufferView":6,"componentType":5126,"count":84,"max":[1,1,1],"min":[1,1,1],"type":"VEC3"},{"bufferView":7,"componentType":5126,"count":84,"max":[0,0],"min":[0,0],"type":"VEC2"},{"bufferView":8,"componentType":5126,"count":84,"max":[0.38615599274635315,0.8936179876327515,-0.6985870003700256],"min":[-0.3805150091648102,0.8732410073280334,-0.7189630270004272],"type":"VEC3"},{"bufferView":9,"componentType":5126,"count":84,"max":[0.6302379965782166,0.7763599753379822,0.7763599753379822],"min":[-0.6302379965782166,-0.7763599753379822,-0.7763599753379822],"type":"VEC3"},{"bufferView":10,"componentType":5126,"count":84,"max":[1,1,1],"min":[1,1,1],"type":"VEC3"},{"bufferView":11,"componentType":5126,"count":84,"max":[0,0],"min":[0,0],"type":"VEC2"},{"bufferView":12,"componentType":5126,"count":84,"max":[0.24020600318908691,1.2472399473190308,-0.6985870003700256],"min":[-0.23456500470638275,1.2268600463867188,-0.7189630270004272],"type":"VEC3"},{"bufferView":13,"componentType":5126,"count":84,"max":[0.6302379965782166,0.7763599753379822,0.7763599753379822],"min":[-0.6302379965782166,-0.7763599753379822,-0.7763599753379822],"type":"VEC3"},{"bufferView":14,"componentType":5126,"count":84,"max":[1,1,1],"min":[1,1,1],"type":"VEC3"},{"bufferView":15,"componentType":5126,"count":84,"max":[0,0],"min":[0,0],"type":"VEC2"},{"bufferView":16,"componentType":5126,"count":84,"max":[0.5343440175056458,1.0997200012207031,0.044212400913238525],"min":[-0.528702974319458,1.0793399810791016,0.023835700005292892],"type":"VEC3"},{"bufferView":17,"componentType":5126,"count":84,"max":[0.6302379965782166,0.7763599753379822,0.7763599753379822],"min":[-0.6302379965782166,-0.7763599753379822,-0.7763599753379822],"type":"VEC3"},{"bufferView":18,"componentType":5126,"count":84,"max":[1,1,1],"min":[1,1,1],"type":"VEC3"},{"bufferView":19,"componentType":5126,"count":84,"max":[0,0],"min":[0,0],"type":"VEC2"},{"bufferView":20,"componentType":5126,"count":84,"max":[0.3021169900894165,1.5066900253295898,0.07516229897737503],"min":[-0.29647698998451233,1.4863100051879883,0.054785698652267456],"type":"VEC3"},{"bufferView":21,"componentType":5126,"count":84,"max":[0.6302379965782166,0.7763599753379822,0.7763599753379822],"min":[-0.6302379965782166,-0.7763599753379822,-0.7763599753379822],"type":"VEC3"},{"bufferView":22,"componentType":5126,"count":84,"max":[1,1,1],"min":[1,1,1],"type":"VEC3"},{"bufferView":23,"componentType":5126,"count":84,"max":[0,0],"min":[0,0],"type":"VEC2"},{"bufferView":24,"componentType":5126,"count":84,"max":[0.013008699752390385,1.1313400268554688,0.5921329855918884],"min":[-0.00736792990937829,0.07190509885549545,0.4616740047931671],"type":"VEC3"},{"bufferView":25,"componentType":5126,"count":84,"max":[0.7763599753379822,0.7073270082473755,0.8375189900398254],"min":[-0.7763599753379822,-0.7073270082473755,-0.8375189900398254],"type":"VEC3"},{"bufferView":26,"componentType":5126,"count":84,"max":[1,1,1],"min":[1,1,1],"type":"VEC3"},{"bufferView":27,"componentType":5126,"count":84,"max":[0,0],"min":[0,0],"type":"VEC2"},{"bufferView":28,"componentType":5126,"count":84,"max":[0.01639609970152378,1.3609199523925781,-0.6540340185165405],"min":[-0.010755299590528011,-0.05573340132832527,-0.692255973815918],"type":"VEC3"},{"bufferView":29,"componentType":5126,"count":84,"max":[0.7763599753379822,0.6362800002098083,0.7812740206718445],"min":[-0.7763599753379822,-0.6362800002098083,-0.7812740206718445],"type":"VEC3"},{"bufferView":30,"componentType":5126,"count":84,"max":[1,1,1],"min":[1,1,1],"type":"VEC3"},{"bufferView":31,"componentType":5126,"count":84,"max":[0,0],"min":[0,0],"type":"VEC2"},{"bufferView":32,"componentType":5126,"count":84,"max":[0.025316499173641205,1.5820300579071045,0.1098639965057373],"min":[-0.0204709991812706,-0.016936199739575386,-0.002253950107842684],"type":"VEC3"},{"bufferView":33,"componentType":5126,"count":84,"max":[0.7763910293579102,0.6619769930839539,0.801842987537384],"min":[-0.7763910293579102,-0.6619769930839539,-0.801842987537384],"type":"VEC3"},{"bufferView":34,"componentType":5126,"count":84,"max":[1,1,1],"min":[1,1,1],"type":"VEC3"},{"bufferView":35,"componentType":5126,"count":84,"max":[0,0],"min":[0,0],"type":"VEC2"},{"bufferView":36,"componentType":5126,"count":684,"max":[0.41332998871803284,0.5411159992218018,0.9534689784049988],"min":[-0.40768900513648987,-0.1334110051393509,-1.0408999919891357],"type":"VEC3"},{"bufferView":37,"componentType":5126,"count":684,"max":[0.9845880270004272,1,0.9534590244293213],"min":[-0.9845880270004272,-1,-0.974029004573822],"type":"VEC3"},{"bufferView":38,"componentType":5126,"count":684,"max":[1,1,1],"min":[1,1,1],"type":"VEC3"},{"bufferView":39,"componentType":5126,"count":684,"max":[0.9941030144691467,0.9892410039901733],"min":[0.006016999948769808,0.004772999789565802],"type":"VEC2"}],"materials":[{"pbrMetallicRoughness":{"baseColorFactor":[0.6392156862745098,0.6392156862745098,0.6392156862745098,1],"metallicFactor":0,"roughnessFactor":1,"baseColorTexture":{"index":0}},"name":"voiles"},{"pbrMetallicRoughness":{"baseColorFactor":[0.12941176470588237,0.0392156862745098,0.01568627450980392,1],"metallicFactor":0,"roughnessFactor":1},"name":"bois"},{"pbrMetallicRoughness":{"baseColorFactor":[0.12941176470588237,0.0392156862745098,0.01568627450980392,1],"metallicFactor":0,"roughnessFactor":1},"name":"bois"},{"pbrMetallicRoughness":{"baseColorFactor":[0.12941176470588237,0.0392156862745098,0.01568627450980392,1],"metallicFactor":0,"roughnessFactor":1},"name":"bois"},{"pbrMetallicRoughness":{"baseColorFactor":[0.12941176470588237,0.0392156862745098,0.01568627450980392,1],"metallicFactor":0,"roughnessFactor":1},"name":"bois"},{"pbrMetallicRoughness":{"baseColorFactor":[0.12941176470588237,0.0392156862745098,0.01568627450980392,1],"metallicFactor":0,"roughnessFactor":1},"name":"bois"},{"pbrMetallicRoughness":{"baseColorFactor":[0.12941176470588237,0.0392156862745098,0.01568627450980392,1],"metallicFactor":0,"roughnessFactor":1},"name":"bois"},{"pbrMetallicRoughness":{"baseColorFactor":[0.12941176470588237,0.0392156862745098,0.01568627450980392,1],"metallicFactor":0,"roughnessFactor":1},"name":"bois"},{"pbrMetallicRoughness":{"baseColorFactor":[0.12941176470588237,0.0392156862745098,0.01568627450980392,1],"metallicFactor":0,"roughnessFactor":1},"name":"bois"},{"pbrMetallicRoughness":{"baseColorFactor":[0.6392156862745098,0.6392156862745098,0.6392156862745098,1],"metallicFactor":0,"roughnessFactor":1,"baseColorTexture":{"index":1}},"name":"coque"}],"meshes":[{"primitives":[{"mode":4,"attributes":{"POSITION":0,"NORMAL":1,"COLOR_0":2,"TEXCOORD_0":3},"material":0}]},{"primitives":[{"mode":4,"attributes":{"POSITION":4,"NORMAL":5,"COLOR_0":6,"TEXCOORD_0":7},"material":1}]},{"primitives":[{"mode":4,"attributes":{"POSITION":8,"NORMAL":9,"COLOR_0":10,"TEXCOORD_0":11},"material":2}]},{"primitives":[{"mode":4,"attributes":{"POSITION":12,"NORMAL":13,"COLOR_0":14,"TEXCOORD_0":15},"material":3}]},{"primitives":[{"mode":4,"attributes":{"POSITION":16,"NORMAL":17,"COLOR_0":18,"TEXCOORD_0":19},"material":4}]},{"primitives":[{"mode":4,"attributes":{"POSITION":20,"NORMAL":21,"COLOR_0":22,"TEXCOORD_0":23},"material":5}]},{"primitives":[{"mode":4,"attributes":{"POSITION":24,"NORMAL":25,"COLOR_0":26,"TEXCOORD_0":27},"material":6}]},{"primitives":[{"mode":4,"attributes":{"POSITION":28,"NORMAL":29,"COLOR_0":30,"TEXCOORD_0":31},"material":7}]},{"primitives":[{"mode":4,"attributes":{"POSITION":32,"NORMAL":33,"COLOR_0":34,"TEXCOORD_0":35},"material":8}]},{"primitives":[{"mode":4,"attributes":{"POSITION":36,"NORMAL":37,"COLOR_0":38,"TEXCOORD_0":39},"material":9}]}],"images":[{"uri":"jarmada-admiral-voiles-uvs-512.jpg"},{"uri":"jarmada-admiral-uvs-512.jpg"}],"textures":[{"source":0},{"source":1}]}