{"asset":{"version":"2.0","generator":"GLTFExporter"},"scenes":[{"name":"AuxScene","nodes":[1]}],"scene":0,"nodes":[{"extras":{"mapFilename":null},"mesh":0},{"children":[0]}],"bufferViews":[{"buffer":0,"byteOffset":0,"byteLength":37764,"target":34962,"byteStride":12},{"buffer":0,"byteOffset":37764,"byteLength":37764,"target":34962,"byteStride":12},{"buffer":0,"byteOffset":75528,"byteLength":37764,"target":34962,"byteStride":12}],"buffers":[{"byteLength":113292,"uri":"data:application/octet-stream;base64,"}],"accessors":[{"bufferView":0,"componentType":5126,"count":3147,"max":[14.226099967956543,0.6057739853858948,25.577699661254883],"min":[-19.853700637817383,-0.008365239948034286,-18.227800369262695],"type":"VEC3"},{"bufferView":1,"componentType":5126,"count":3147,"max":[0.8910179734230042,0.9999390244483948,0.5468000173568726],"min":[-0.5004119873046875,-0.052553001791238785,-0.6222419738769531],"type":"VEC3"},{"bufferView":2,"componentType":5126,"count":3147,"max":[1,1,1],"min":[1,1,1],"type":"VEC3"}],"materials":[{"pbrMetallicRoughness":{"baseColorFactor":[0.6392156862745098,0.6039215686274509,0.3215686274509804,1],"metallicFactor":0,"roughnessFactor":1},"name":"beachmat"}],"meshes":[{"primitives":[{"mode":4,"attributes":{"POSITION":0,"NORMAL":1,"COLOR_0":2},"material":0}]}]}