{"asset":{"version":"2.0","generator":"GLTFExporter"},"scenes":[{"name":"AuxScene","nodes":[1]}],"scene":0,"nodes":[{"extras":{"mapFilename":null},"mesh":0},{"children":[0]}],"bufferViews":[{"buffer":0,"byteOffset":0,"byteLength":20736,"target":34962,"byteStride":12},{"buffer":0,"byteOffset":20736,"byteLength":20736,"target":34962,"byteStride":12},{"buffer":0,"byteOffset":41472,"byteLength":20736,"target":34962,"byteStride":12}],"buffers":[{"byteLength":62208,"uri":"data:application/octet-stream;base64,"}],"accessors":[{"bufferView":0,"componentType":5126,"count":1728,"max":[14.900400161743164,0.7778440117835999,26.252099990844727],"min":[-20.437700271606445,-1.358680009841919,-18.659900665283203],"type":"VEC3"},{"bufferView":1,"componentType":5126,"count":1728,"max":[0.8774380087852478,0.9999690055847168,0.6882839798927307],"min":[-0.6372569799423218,0.0016169999726116657,-0.6593829989433289],"type":"VEC3"},{"bufferView":2,"componentType":5126,"count":1728,"max":[1,1,1],"min":[1,1,1],"type":"VEC3"}],"materials":[{"pbrMetallicRoughness":{"baseColorFactor":[0.6392156862745098,0.6039215686274509,0.3215686274509804,1],"metallicFactor":0,"roughnessFactor":1},"name":"Material.001"}],"meshes":[{"primitives":[{"mode":4,"attributes":{"POSITION":0,"NORMAL":1,"COLOR_0":2},"material":0}]}]}