{"asset":{"version":"2.0","generator":"GLTFExporter"},"scenes":[{"name":"AuxScene","nodes":[1]}],"scene":0,"nodes":[{"extras":{"mapFilename":null},"mesh":0},{"children":[0]}],"bufferViews":[{"buffer":0,"byteOffset":0,"byteLength":6048,"target":34962,"byteStride":12},{"buffer":0,"byteOffset":6048,"byteLength":6048,"target":34962,"byteStride":12},{"buffer":0,"byteOffset":12096,"byteLength":6048,"target":34962,"byteStride":12}],"buffers":[{"byteLength":18144,"uri":"data:application/octet-stream;base64,"}],"accessors":[{"bufferView":0,"componentType":5126,"count":504,"max":[2.158590078353882,0.5538899898529053,0.5322679877281189],"min":[-0.0006738899974152446,-0.32178500294685364,-0.5338699817657471],"type":"VEC3"},{"bufferView":1,"componentType":5126,"count":504,"max":[0.8143249750137329,0.9374979734420776,0.6398509740829468],"min":[-0.2974640130996704,0.3168739974498749,-0.6298099756240845],"type":"VEC3"},{"bufferView":2,"componentType":5126,"count":504,"max":[1,1,1],"min":[1,1,1],"type":"VEC3"}],"materials":[{"pbrMetallicRoughness":{"baseColorFactor":[0.2,0.4,0.047058823529411764,1],"metallicFactor":0,"roughnessFactor":1},"name":"palmgreen"}],"meshes":[{"primitives":[{"mode":4,"attributes":{"POSITION":0,"NORMAL":1,"COLOR_0":2},"material":0}]}]}