{"asset":{"version":"2.0","generator":"GLTFExporter"},"scenes":[{"name":"AuxScene","nodes":[1]}],"scene":0,"nodes":[{"extras":{"mapFilename":"ocean-texture2.jpg"},"mesh":0},{"children":[0]}],"bufferViews":[{"buffer":0,"byteOffset":0,"byteLength":4464,"target":34962,"byteStride":12},{"buffer":0,"byteOffset":4464,"byteLength":4464,"target":34962,"byteStride":12},{"buffer":0,"byteOffset":8928,"byteLength":4464,"target":34962,"byteStride":12},{"buffer":0,"byteOffset":13392,"byteLength":2976,"target":34962,"byteStride":8}],"buffers":[{"byteLength":16368,"uri":"data:application/octet-stream;base64,"}],"accessors":[{"bufferView":0,"componentType":5126,"count":372,"max":[1,0.012316199950873852,1],"min":[-1,-0.012316199950873852,-1],"type":"VEC3"},{"bufferView":1,"componentType":5126,"count":372,"max":[0.727865993976593,0.6856899857521057,0.727865993976593],"min":[-0.727865993976593,-0.6856899857521057,-0.727865993976593],"type":"VEC3"},{"bufferView":2,"componentType":5126,"count":372,"max":[1,1,1],"min":[1,1,1],"type":"VEC3"},{"bufferView":3,"componentType":5126,"count":372,"max":[1,1],"min":[0,0],"type":"VEC2"}],"materials":[{"pbrMetallicRoughness":{"metallicFactor":0,"roughnessFactor":1,"baseColorTexture":{"index":0}},"name":"ocean"}],"meshes":[{"primitives":[{"mode":4,"attributes":{"POSITION":0,"NORMAL":1,"COLOR_0":2,"TEXCOORD_0":3},"material":0}]}],"images":[{"uri":"ocean-texture2.jpg"}],"textures":[{"source":0}]}