{"asset":{"version":"2.0","generator":"GLTFExporter"},"scenes":[{"name":"AuxScene","nodes":[2]}],"scene":0,"nodes":[{"extras":{"mapFilename":null},"mesh":0},{"extras":{"mapFilename":null},"mesh":1},{"children":[0,1]}],"bufferViews":[{"buffer":0,"byteOffset":0,"byteLength":17280,"target":34962,"byteStride":12},{"buffer":0,"byteOffset":17280,"byteLength":17280,"target":34962,"byteStride":12},{"buffer":0,"byteOffset":34560,"byteLength":17280,"target":34962,"byteStride":12},{"buffer":0,"byteOffset":51840,"byteLength":3456,"target":34962,"byteStride":12},{"buffer":0,"byteOffset":55296,"byteLength":3456,"target":34962,"byteStride":12},{"buffer":0,"byteOffset":58752,"byteLength":3456,"target":34962,"byteStride":12}],"buffers":[{"byteLength":62208,"uri":"data:application/octet-stream;base64,"}],"accessors":[{"bufferView":0,"componentType":5126,"count":1440,"max":[0.5987309813499451,0.9194080233573914,0.3861140012741089],"min":[-0.21744300425052643,0.5315669775009155,-0.6112030148506165],"type":"VEC3"},{"bufferView":1,"componentType":5126,"count":1440,"max":[0.9572129845619202,0.8740500211715698,0.982695996761322],"min":[-0.9919130206108093,-0.9931640028953552,-0.9869080185890198],"type":"VEC3"},{"bufferView":2,"componentType":5126,"count":1440,"max":[1,1,1],"min":[1,1,1],"type":"VEC3"},{"bufferView":3,"componentType":5126,"count":288,"max":[0.2052139937877655,0.6914610266685486,0.0376259982585907],"min":[-0.030693400651216507,0.002943129977211356,-0.15401700139045715],"type":"VEC3"},{"bufferView":4,"componentType":5126,"count":288,"max":[0.9588000178337097,0.5909600257873535,0.9779350161552429],"min":[-0.9526050090789795,-0.5403000116348267,-0.9694200158119202],"type":"VEC3"},{"bufferView":5,"componentType":5126,"count":288,"max":[1,1,1],"min":[1,1,1],"type":"VEC3"}],"materials":[{"pbrMetallicRoughness":{"baseColorFactor":[0.4235294117647059,0.6392156862745098,0.24705882352941178,1],"metallicFactor":0,"roughnessFactor":1},"name":"leaves"},{"pbrMetallicRoughness":{"baseColorFactor":[0.16862745098039217,0.058823529411764705,0.00784313725490196,1],"metallicFactor":0,"roughnessFactor":1},"name":"wood"}],"meshes":[{"primitives":[{"mode":4,"attributes":{"POSITION":0,"NORMAL":1,"COLOR_0":2},"material":0}]},{"primitives":[{"mode":4,"attributes":{"POSITION":3,"NORMAL":4,"COLOR_0":5},"material":1}]}]}