{"asset":{"version":"2.0","generator":"GLTFExporter"},"scenes":[{"name":"AuxScene","nodes":[3]}],"scene":0,"nodes":[{"extras":{"mapFilename":null},"mesh":0},{"extras":{"mapFilename":null},"mesh":1},{"extras":{"mapFilename":null},"mesh":2},{"children":[0,1,2]}],"bufferViews":[{"buffer":0,"byteOffset":0,"byteLength":288,"target":34962,"byteStride":12},{"buffer":0,"byteOffset":288,"byteLength":288,"target":34962,"byteStride":12},{"buffer":0,"byteOffset":576,"byteLength":288,"target":34962,"byteStride":12},{"buffer":0,"byteOffset":864,"byteLength":1008,"target":34962,"byteStride":12},{"buffer":0,"byteOffset":1872,"byteLength":1008,"target":34962,"byteStride":12},{"buffer":0,"byteOffset":2880,"byteLength":1008,"target":34962,"byteStride":12},{"buffer":0,"byteOffset":3888,"byteLength":3456,"target":34962,"byteStride":12},{"buffer":0,"byteOffset":7344,"byteLength":3456,"target":34962,"byteStride":12},{"buffer":0,"byteOffset":10800,"byteLength":3456,"target":34962,"byteStride":12}],"buffers":[{"byteLength":14256,"uri":"data:application/octet-stream;base64,"}],"accessors":[{"bufferView":0,"componentType":5126,"count":24,"max":[-0.004774299915879965,2.254470109939575,1.6390999555587769],"min":[-0.009133820421993732,1.382580041885376,0.04002460092306137],"type":"VEC3"},{"bufferView":1,"componentType":5126,"count":24,"max":[0.5646229982376099,0.6558730006217957,0.8406630158424377],"min":[-0.5646229982376099,-0.6558730006217957,-0.5009920001029968],"type":"VEC3"},{"bufferView":2,"componentType":5126,"count":24,"max":[1,1,1],"min":[1,1,1],"type":"VEC3"},{"bufferView":3,"componentType":5126,"count":84,"max":[0.0416266992688179,2.297919988632202,0.0416266992688179],"min":[-0.0416266992688179,-0.1581439971923828,-0.04162679985165596],"type":"VEC3"},{"bufferView":4,"componentType":5126,"count":84,"max":[0.7763599753379822,0.6302379965782166,0.7763599753379822],"min":[-0.7763599753379822,-0.6302379965782166,-0.7763599753379822],"type":"VEC3"},{"bufferView":5,"componentType":5126,"count":84,"max":[1,1,1],"min":[1,1,1],"type":"VEC3"},{"bufferView":6,"componentType":5126,"count":288,"max":[0.5262749791145325,0.03967120125889778,0.5262749791145325],"min":[-0.5262749791145325,-0.1433199942111969,-0.5262749791145325],"type":"VEC3"},{"bufferView":7,"componentType":5126,"count":288,"max":[0.9992679953575134,1,0.9992679953575134],"min":[-0.9992679953575134,-0.9999690055847168,-0.9992679953575134],"type":"VEC3"},{"bufferView":8,"componentType":5126,"count":288,"max":[1,1,1],"min":[1,1,1],"type":"VEC3"}],"materials":[{"pbrMetallicRoughness":{"baseColorFactor":[0.6392156862745098,0.047058823529411764,0,1],"metallicFactor":0,"roughnessFactor":1},"name":"redflag"},{"pbrMetallicRoughness":{"baseColorFactor":[0.6392156862745098,0.6392156862745098,0.6392156862745098,1],"metallicFactor":0,"roughnessFactor":1},"name":"flagmat"},{"pbrMetallicRoughness":{"baseColorFactor":[0.6392156862745098,0.6392156862745098,0.6392156862745098,1],"metallicFactor":0,"roughnessFactor":1},"name":"flagmat"}],"meshes":[{"primitives":[{"mode":4,"attributes":{"POSITION":0,"NORMAL":1,"COLOR_0":2},"material":0}]},{"primitives":[{"mode":4,"attributes":{"POSITION":3,"NORMAL":4,"COLOR_0":5},"material":1}]},{"primitives":[{"mode":4,"attributes":{"POSITION":6,"NORMAL":7,"COLOR_0":8},"material":2}]}]}