{"asset":{"version":"2.0","generator":"GLTFExporter"},"scenes":[{"name":"AuxScene","nodes":[1]}],"scene":0,"nodes":[{"extras":{"mapFilename":null},"mesh":0},{"children":[0]}],"bufferViews":[{"buffer":0,"byteOffset":0,"byteLength":41472,"target":34962,"byteStride":12},{"buffer":0,"byteOffset":41472,"byteLength":41472,"target":34962,"byteStride":12},{"buffer":0,"byteOffset":82944,"byteLength":41472,"target":34962,"byteStride":12}],"buffers":[{"byteLength":124416,"uri":"data:application/octet-stream;base64,"}],"accessors":[{"bufferView":0,"componentType":5126,"count":3456,"max":[0.641836941242218,3.254422426223755,2.1354973316192627],"min":[-0.6107019186019897,0.0022088640835136175,-2.1354970932006836],"type":"VEC3"},{"bufferView":1,"componentType":5126,"count":3456,"max":[0.9999409914016724,0.9999953508377075,0.9999285936355591],"min":[-0.9996601939201355,-0.9999940991401672,-0.9997935891151428],"type":"VEC3"},{"bufferView":2,"componentType":5126,"count":3456,"max":[1,1,1],"min":[1,1,1],"type":"VEC3"}],"materials":[{"pbrMetallicRoughness":{"baseColorFactor":[0.4980392156862745,0.4980392156862745,0.4980392156862745,1],"metallicFactor":0,"roughnessFactor":1},"name":"ivory"}],"meshes":[{"primitives":[{"mode":4,"attributes":{"POSITION":0,"NORMAL":1,"COLOR_0":2},"material":0}]}]}