{"asset":{"version":"2.0","generator":"GLTFExporter"},"scenes":[{"name":"AuxScene","nodes":[1]}],"scene":0,"nodes":[{"extras":{"mapFilename":null},"mesh":0},{"children":[0]}],"bufferViews":[{"buffer":0,"byteOffset":0,"byteLength":128952,"target":34962,"byteStride":12},{"buffer":0,"byteOffset":128952,"byteLength":128952,"target":34962,"byteStride":12},{"buffer":0,"byteOffset":257904,"byteLength":128952,"target":34962,"byteStride":12}],"buffers":[{"byteLength":386856,"uri":"data:application/octet-stream;base64,"}],"accessors":[{"bufferView":0,"componentType":5126,"count":10746,"max":[1.64349365234375,5.0504350662231445,1.6252923011779785],"min":[-1.607088565826416,0.0032009100541472435,-1.6252927780151367],"type":"VEC3"},{"bufferView":1,"componentType":5126,"count":10746,"max":[0.9999986290931702,1,1],"min":[-0.9999977350234985,-0.9999769926071167,-1],"type":"VEC3"},{"bufferView":2,"componentType":5126,"count":10746,"max":[1,1,1],"min":[1,1,1],"type":"VEC3"}],"materials":[{"pbrMetallicRoughness":{"baseColorFactor":[0.4980392156862745,0.4980392156862745,0.4980392156862745,1],"metallicFactor":0,"roughnessFactor":1},"name":"ivory"}],"meshes":[{"primitives":[{"mode":4,"attributes":{"POSITION":0,"NORMAL":1,"COLOR_0":2},"material":0}]}]}