{"asset":{"version":"2.0","generator":"GLTFExporter"},"scenes":[{"name":"AuxScene","nodes":[1]}],"scene":0,"nodes":[{"extras":{"mapFilename":null},"mesh":0},{"children":[0]}],"bufferViews":[{"buffer":0,"byteOffset":0,"byteLength":149040,"target":34962,"byteStride":12},{"buffer":0,"byteOffset":149040,"byteLength":149040,"target":34962,"byteStride":12},{"buffer":0,"byteOffset":298080,"byteLength":149040,"target":34962,"byteStride":12}],"buffers":[{"byteLength":447120,"uri":"data:application/octet-stream;base64,"}],"accessors":[{"bufferView":0,"componentType":5126,"count":12420,"max":[1.598983645439148,6.733977794647217,3.2602667808532715],"min":[-1.598983645439148,0.011615924537181854,-3.7984163761138916],"type":"VEC3"},{"bufferView":1,"componentType":5126,"count":12420,"max":[0.9997622966766357,0.9999176263809204,0.999847948551178],"min":[-0.9997619390487671,-0.9999172687530518,-0.9997603893280029],"type":"VEC3"},{"bufferView":2,"componentType":5126,"count":12420,"max":[1,1,1],"min":[1,1,1],"type":"VEC3"}],"materials":[{"pbrMetallicRoughness":{"baseColorFactor":[0.4980392156862745,0.4980392156862745,0.4980392156862745,1],"metallicFactor":0,"roughnessFactor":1},"name":"ivory"}],"meshes":[{"primitives":[{"mode":4,"attributes":{"POSITION":0,"NORMAL":1,"COLOR_0":2},"material":0}]}]}