{"asset":{"version":"2.0","generator":"GLTFExporter"},"scenes":[{"name":"AuxScene","nodes":[1]}],"scene":0,"nodes":[{"extras":{"mapFilename":null},"mesh":0},{"children":[0]}],"bufferViews":[{"buffer":0,"byteOffset":0,"byteLength":127008,"target":34962,"byteStride":12},{"buffer":0,"byteOffset":127008,"byteLength":127008,"target":34962,"byteStride":12},{"buffer":0,"byteOffset":254016,"byteLength":127008,"target":34962,"byteStride":12}],"buffers":[{"byteLength":381024,"uri":"data:application/octet-stream;base64,"}],"accessors":[{"bufferView":0,"componentType":5126,"count":10584,"max":[1.1376473903656006,4.866748332977295,2.895810842514038],"min":[-1.1377322673797607,0.011847100220620632,-2.8173859119415283],"type":"VEC3"},{"bufferView":1,"componentType":5126,"count":10584,"max":[0.9999873042106628,0.9997869729995728,0.9999809861183167],"min":[-0.9999591708183289,-0.9999239444732666,-0.9999938011169434],"type":"VEC3"},{"bufferView":2,"componentType":5126,"count":10584,"max":[1,1,1],"min":[1,1,1],"type":"VEC3"}],"materials":[{"pbrMetallicRoughness":{"baseColorFactor":[0.4980392156862745,0.4980392156862745,0.4980392156862745,1],"metallicFactor":0,"roughnessFactor":1},"name":"ivory"}],"meshes":[{"primitives":[{"mode":4,"attributes":{"POSITION":0,"NORMAL":1,"COLOR_0":2},"material":0}]}]}