{"asset":{"version":"2.0","generator":"GLTFExporter"},"scenes":[{"name":"AuxScene","nodes":[1]}],"scene":0,"nodes":[{"extras":{"mapFilename":"wood-texture.jpg"},"mesh":0},{"children":[0]}],"bufferViews":[{"buffer":0,"byteOffset":0,"byteLength":1296,"target":34962,"byteStride":12},{"buffer":0,"byteOffset":1296,"byteLength":1296,"target":34962,"byteStride":12},{"buffer":0,"byteOffset":2592,"byteLength":1296,"target":34962,"byteStride":12},{"buffer":0,"byteOffset":3888,"byteLength":864,"target":34962,"byteStride":8}],"buffers":[{"byteLength":4752,"uri":"data:application/octet-stream;base64,"}],"accessors":[{"bufferView":0,"componentType":5126,"count":108,"max":[2.5,0.15037399530410767,2.5],"min":[-2.5,-0.12677599489688873,-2.5],"type":"VEC3"},{"bufferView":1,"componentType":5126,"count":108,"max":[0.6794340014457703,0.8520159721374512,0.6794340014457703],"min":[-0.6794340014457703,-0.851069986820221,-0.6794340014457703],"type":"VEC3"},{"bufferView":2,"componentType":5126,"count":108,"max":[1,1,1],"min":[1,1,1],"type":"VEC3"},{"bufferView":3,"componentType":5126,"count":108,"max":[0.9999390244483948,0.9920139908790588],"min":[0.0034719998948276043,0.006783000193536282],"type":"VEC2"}],"materials":[{"pbrMetallicRoughness":{"baseColorFactor":[0.6392156862745098,0.6392156862745098,0.6392156862745098,1],"metallicFactor":0,"roughnessFactor":1,"baseColorTexture":{"index":0}},"name":"Material"}],"meshes":[{"primitives":[{"mode":4,"attributes":{"POSITION":0,"NORMAL":1,"COLOR_0":2,"TEXCOORD_0":3},"material":0}]}],"images":[{"uri":"wood-texture.jpg"}],"textures":[{"source":0}]}