{"asset":{"version":"2.0","generator":"GLTFExporter"},"scenes":[{"name":"AuxScene","nodes":[1]}],"scene":0,"nodes":[{"mesh":0},{"children":[0]}],"bufferViews":[{"buffer":0,"byteOffset":0,"byteLength":50688,"target":34962,"byteStride":12},{"buffer":0,"byteOffset":50688,"byteLength":50688,"target":34962,"byteStride":12},{"buffer":0,"byteOffset":101376,"byteLength":50688,"target":34962,"byteStride":12},{"buffer":0,"byteOffset":152064,"byteLength":33792,"target":34962,"byteStride":8}],"buffers":[{"byteLength":185856,"uri":"data:application/octet-stream;base64,"}],"accessors":[{"bufferView":0,"componentType":5126,"count":4224,"max":[0.7708359956741333,2.761850118637085,0.7708359956741333],"min":[-0.7708359956741333,0.02334499917924404,-0.7708359956741333],"type":"VEC3"},{"bufferView":1,"componentType":5126,"count":4224,"max":[0.9973750114440918,1,0.9999690055847168],"min":[-0.9973750114440918,-1,-1],"type":"VEC3"},{"bufferView":2,"componentType":5126,"count":4224,"max":[1,1,1],"min":[1,1,1],"type":"VEC3"},{"bufferView":3,"componentType":5126,"count":4224,"max":[0.9931319952011108,0.9971820116043091],"min":[0.003587000072002411,0.0023769999388605356],"type":"VEC2"}],"materials":[{"pbrMetallicRoughness":{"baseColorFactor":[0.8,0.8,0.8,1],"metallicFactor":0,"roughnessFactor":1}}],"meshes":[{"primitives":[{"mode":4,"attributes":{"POSITION":0,"NORMAL":1,"COLOR_0":2,"TEXCOORD_0":3},"material":0}]}]}