{"asset":{"version":"2.0","generator":"GLTFExporter"},"scenes":[{"name":"AuxScene","nodes":[1]}],"scene":0,"nodes":[{"mesh":0},{"children":[0]}],"bufferViews":[{"buffer":0,"byteOffset":0,"byteLength":33912,"target":34962,"byteStride":12},{"buffer":0,"byteOffset":33912,"byteLength":33912,"target":34962,"byteStride":12},{"buffer":0,"byteOffset":67824,"byteLength":33912,"target":34962,"byteStride":12},{"buffer":0,"byteOffset":101736,"byteLength":22608,"target":34962,"byteStride":8}],"buffers":[{"byteLength":124344,"uri":"data:application/octet-stream;base64,"}],"accessors":[{"bufferView":0,"componentType":5126,"count":2826,"max":[0.7064300179481506,2.436572790145874,0.9446091055870056],"min":[-0.7064309120178223,0.009755999781191349,-0.8102745413780212],"type":"VEC3"},{"bufferView":1,"componentType":5126,"count":2826,"max":[0.9995296597480774,1,0.9996487498283386],"min":[-0.9995296597480774,-1,-0.9988144636154175],"type":"VEC3"},{"bufferView":2,"componentType":5126,"count":2826,"max":[1,1,1],"min":[1,1,1],"type":"VEC3"},{"bufferView":3,"componentType":5126,"count":2826,"max":[0.9919270277023315,1.0237900018692017],"min":[0,0],"type":"VEC2"}],"materials":[{"pbrMetallicRoughness":{"baseColorFactor":[0.8,0.8,0.8,1],"metallicFactor":0,"roughnessFactor":1}}],"meshes":[{"primitives":[{"mode":4,"attributes":{"POSITION":0,"NORMAL":1,"COLOR_0":2,"TEXCOORD_0":3},"material":0}]}]}