{"asset":{"version":"2.0","generator":"GLTFExporter"},"scenes":[{"name":"AuxScene","nodes":[1]}],"scene":0,"nodes":[{"mesh":0},{"children":[0]}],"bufferViews":[{"buffer":0,"byteOffset":0,"byteLength":73728,"target":34962,"byteStride":12},{"buffer":0,"byteOffset":73728,"byteLength":73728,"target":34962,"byteStride":12},{"buffer":0,"byteOffset":147456,"byteLength":73728,"target":34962,"byteStride":12},{"buffer":0,"byteOffset":221184,"byteLength":49152,"target":34962,"byteStride":8}],"buffers":[{"byteLength":270336,"uri":"data:application/octet-stream;base64,"}],"accessors":[{"bufferView":0,"componentType":5126,"count":6144,"max":[0.8663049936294556,3.458359956741333,1.056879997253418],"min":[-0.8663049936294556,0.0037479999009519815,-0.8966749906539917],"type":"VEC3"},{"bufferView":1,"componentType":5126,"count":6144,"max":[0.9985659718513489,0.9998170137405396,0.9998779892921448],"min":[-0.9985659718513489,-0.9999690055847168,-0.9990230202674866],"type":"VEC3"},{"bufferView":2,"componentType":5126,"count":6144,"max":[1,1,1],"min":[1,1,1],"type":"VEC3"},{"bufferView":3,"componentType":5126,"count":6144,"max":[0.9879329800605774,0.9889280200004578],"min":[-0.0002099999983329326,0.0034570000134408474],"type":"VEC2"}],"materials":[{"pbrMetallicRoughness":{"baseColorFactor":[0.8,0.8,0.8,1],"metallicFactor":0,"roughnessFactor":1}}],"meshes":[{"primitives":[{"mode":4,"attributes":{"POSITION":0,"NORMAL":1,"COLOR_0":2,"TEXCOORD_0":3},"material":0}]}]}