{"asset":{"version":"2.0","generator":"GLTFExporter"},"scenes":[{"name":"AuxScene","nodes":[1]}],"scene":0,"nodes":[{"extras":{"mapFilename":"woodcell1x512.jpg"},"mesh":0},{"children":[0]}],"bufferViews":[{"buffer":0,"byteOffset":0,"byteLength":3744,"target":34962,"byteStride":12},{"buffer":0,"byteOffset":3744,"byteLength":3744,"target":34962,"byteStride":12},{"buffer":0,"byteOffset":7488,"byteLength":3744,"target":34962,"byteStride":12},{"buffer":0,"byteOffset":11232,"byteLength":2496,"target":34962,"byteStride":8}],"buffers":[{"byteLength":13728,"uri":"data:application/octet-stream;base64,"}],"accessors":[{"bufferView":0,"componentType":5126,"count":312,"max":[1.8511500358581543,0.2800000011920929,-0.14885100722312927],"min":[0,-8.662709660711698e-8,-2],"type":"VEC3"},{"bufferView":1,"componentType":5126,"count":312,"max":[0.9646599888801575,0.7298200130462646,0.9605090022087097],"min":[-0.757224977016449,-0.7298200130462646,-0.757224977016449],"type":"VEC3"},{"bufferView":2,"componentType":5126,"count":312,"max":[1,1,1],"min":[1,1,1],"type":"VEC3"},{"bufferView":3,"componentType":5126,"count":312,"max":[0.9552689790725708,0.8476570248603821],"min":[0,0],"type":"VEC2"}],"materials":[{"pbrMetallicRoughness":{"baseColorFactor":[0.6392156862745098,0.6392156862745098,0.6392156862745098,1],"metallicFactor":0,"roughnessFactor":1,"baseColorTexture":{"index":0}},"name":"mainframe"}],"meshes":[{"primitives":[{"mode":4,"attributes":{"POSITION":0,"NORMAL":1,"COLOR_0":2,"TEXCOORD_0":3},"material":0}]}],"images":[{"uri":"woodcell1x512.jpg"}],"textures":[{"source":0}]}