{"asset":{"version":"2.0","generator":"GLTFExporter"},"scenes":[{"name":"AuxScene","nodes":[3]}],"scene":0,"nodes":[{"extras":{"mapFilename":"woodcell1x512.jpg"},"mesh":0},{"extras":{"mapFilename":null},"mesh":1},{"extras":{"mapFilename":"woodcell1x512.jpg"},"mesh":2},{"children":[0,1,2]}],"bufferViews":[{"buffer":0,"byteOffset":0,"byteLength":22536,"target":34962,"byteStride":12},{"buffer":0,"byteOffset":22536,"byteLength":22536,"target":34962,"byteStride":12},{"buffer":0,"byteOffset":45072,"byteLength":22536,"target":34962,"byteStride":12},{"buffer":0,"byteOffset":67608,"byteLength":15024,"target":34962,"byteStride":8},{"buffer":0,"byteOffset":82632,"byteLength":2304,"target":34962,"byteStride":12},{"buffer":0,"byteOffset":84936,"byteLength":2304,"target":34962,"byteStride":12},{"buffer":0,"byteOffset":87240,"byteLength":2304,"target":34962,"byteStride":12},{"buffer":0,"byteOffset":89544,"byteLength":1536,"target":34962,"byteStride":8},{"buffer":0,"byteOffset":91080,"byteLength":22248,"target":34962,"byteStride":12},{"buffer":0,"byteOffset":113328,"byteLength":22248,"target":34962,"byteStride":12},{"buffer":0,"byteOffset":135576,"byteLength":22248,"target":34962,"byteStride":12},{"buffer":0,"byteOffset":157824,"byteLength":14832,"target":34962,"byteStride":8}],"buffers":[{"byteLength":172656,"uri":"data:application/octet-stream;base64,"}],"accessors":[{"bufferView":0,"componentType":5126,"count":1878,"max":[5.668300151824951,0.27583301067352295,5.668300151824951],"min":[-5.668300151824951,-0.27583301067352295,-5.668300151824951],"type":"VEC3"},{"bufferView":1,"componentType":5126,"count":1878,"max":[0.6835839748382568,0.9996640086174011,0.6910309791564941],"min":[-0.6910309791564941,-0.7298499941825867,-0.6910309791564941],"type":"VEC3"},{"bufferView":2,"componentType":5126,"count":1878,"max":[1,1,1],"min":[1,1,1],"type":"VEC3"},{"bufferView":3,"componentType":5126,"count":1878,"max":[1,0.9998999834060669],"min":[0,0.00009999999747378752],"type":"VEC2"},{"bufferView":4,"componentType":5126,"count":192,"max":[4.0654401779174805,0.27583301067352295,4.0654401779174805],"min":[-4.0654401779174805,0.25018998980522156,-4.0654401779174805],"type":"VEC3"},{"bufferView":5,"componentType":5126,"count":192,"max":[0.6910309791564941,0.7206640243530273,0.6910309791564941],"min":[-0.6910309791564941,0.4517039954662323,-0.6910309791564941],"type":"VEC3"},{"bufferView":6,"componentType":5126,"count":192,"max":[1,1,1],"min":[1,1,1],"type":"VEC3"},{"bufferView":7,"componentType":5126,"count":192,"max":[0.8363590240478516,0.8455380201339722],"min":[0.1527629941701889,0.15844100713729858],"type":"VEC2"},{"bufferView":8,"componentType":5126,"count":1854,"max":[4.210509777069092,0.27583301067352295,4.210509777069092],"min":[-4.210509777069092,-0.27583301067352295,-4.210509777069092],"type":"VEC3"},{"bufferView":9,"componentType":5126,"count":1854,"max":[0.6910309791564941,0.7298499941825867,0.6910309791564941],"min":[-0.6910309791564941,-0.7298499941825867,-0.6910309791564941],"type":"VEC3"},{"bufferView":10,"componentType":5126,"count":1854,"max":[1,1,1],"min":[1,1,1],"type":"VEC3"},{"bufferView":11,"componentType":5126,"count":1854,"max":[1,1],"min":[0,0],"type":"VEC2"}],"materials":[{"pbrMetallicRoughness":{"baseColorFactor":[0.6392156862745098,0.6392156862745098,0.6392156862745098,1],"metallicFactor":0,"roughnessFactor":1,"baseColorTexture":{"index":0}},"name":"mainframe"},{"pbrMetallicRoughness":{"baseColorFactor":[0.8,0.7843137254901961,0.796078431372549,1],"metallicFactor":0,"roughnessFactor":1},"name":"mat.bevel"}],"meshes":[{"primitives":[{"mode":4,"attributes":{"POSITION":0,"NORMAL":1,"COLOR_0":2,"TEXCOORD_0":3},"material":0}]},{"primitives":[{"mode":4,"attributes":{"POSITION":4,"NORMAL":5,"COLOR_0":6,"TEXCOORD_0":7},"material":1}]},{"primitives":[{"mode":4,"attributes":{"POSITION":8,"NORMAL":9,"COLOR_0":10,"TEXCOORD_0":11},"material":0}]}],"images":[{"uri":"woodcell1x512.jpg"}],"textures":[{"source":0}]}