{"asset":{"version":"2.0","generator":"GLTFExporter"},"scenes":[{"name":"AuxScene","nodes":[1]}],"scene":0,"nodes":[{"extras":{"mapFilename":null},"mesh":0},{"children":[0]}],"bufferViews":[{"buffer":0,"byteOffset":0,"byteLength":6768,"target":34962,"byteStride":12},{"buffer":0,"byteOffset":6768,"byteLength":6768,"target":34962,"byteStride":12},{"buffer":0,"byteOffset":13536,"byteLength":6768,"target":34962,"byteStride":12}],"buffers":[{"byteLength":20304,"uri":"data:application/octet-stream;base64,"}],"accessors":[{"bufferView":0,"componentType":5126,"count":564,"max":[0.20643000304698944,0.26637300848960876,0.20643000304698944],"min":[-0.20643000304698944,-0.014136300422251225,-0.20643000304698944],"type":"VEC3"},{"bufferView":1,"componentType":5126,"count":564,"max":[1,0.9317299723625183,1],"min":[-1,-0.6657000184059143,-1],"type":"VEC3"},{"bufferView":2,"componentType":5126,"count":564,"max":[1,1,1],"min":[1,1,1],"type":"VEC3"}],"materials":[{"pbrMetallicRoughness":{"baseColorFactor":[0,0,0,1],"metallicFactor":0,"roughnessFactor":1},"name":"mat.slot"}],"meshes":[{"primitives":[{"mode":4,"attributes":{"POSITION":0,"NORMAL":1,"COLOR_0":2},"material":0}]}]}