{"asset":{"version":"2.0","generator":"GLTFExporter"},"scenes":[{"name":"AuxScene","nodes":[4]}],"scene":0,"nodes":[{"extras":{"mapFilename":null},"mesh":0},{"extras":{"mapFilename":null},"mesh":1},{"extras":{"mapFilename":null},"mesh":2},{"extras":{"mapFilename":null},"mesh":3},{"children":[0,1,2,3]}],"bufferViews":[{"buffer":0,"byteOffset":0,"byteLength":2592,"target":34962,"byteStride":12},{"buffer":0,"byteOffset":2592,"byteLength":2592,"target":34962,"byteStride":12},{"buffer":0,"byteOffset":5184,"byteLength":2592,"target":34962,"byteStride":12},{"buffer":0,"byteOffset":7776,"byteLength":2592,"target":34962,"byteStride":12},{"buffer":0,"byteOffset":10368,"byteLength":2592,"target":34962,"byteStride":12},{"buffer":0,"byteOffset":12960,"byteLength":2592,"target":34962,"byteStride":12},{"buffer":0,"byteOffset":15552,"byteLength":3456,"target":34962,"byteStride":12},{"buffer":0,"byteOffset":19008,"byteLength":3456,"target":34962,"byteStride":12},{"buffer":0,"byteOffset":22464,"byteLength":3456,"target":34962,"byteStride":12},{"buffer":0,"byteOffset":25920,"byteLength":6768,"target":34962,"byteStride":12},{"buffer":0,"byteOffset":32688,"byteLength":6768,"target":34962,"byteStride":12},{"buffer":0,"byteOffset":39456,"byteLength":6768,"target":34962,"byteStride":12}],"buffers":[{"byteLength":46224,"uri":"data:application/octet-stream;base64,"}],"accessors":[{"bufferView":0,"componentType":5126,"count":216,"max":[0.2909489870071411,0.09804289788007736,4.985310077667236],"min":[-0.28893300890922546,-0.09766720235347748,4.853919982910156],"type":"VEC3"},{"bufferView":1,"componentType":5126,"count":216,"max":[1,1,1],"min":[-1,-1,-1],"type":"VEC3"},{"bufferView":2,"componentType":5126,"count":216,"max":[1,1,1],"min":[1,1,1],"type":"VEC3"},{"bufferView":3,"componentType":5126,"count":216,"max":[0.2909489870071411,0.09804250299930573,-4.856170177459717],"min":[-0.28893300890922546,-0.09766770154237747,-4.987559795379639],"type":"VEC3"},{"bufferView":4,"componentType":5126,"count":216,"max":[1,1,1],"min":[-1,-1,-1],"type":"VEC3"},{"bufferView":5,"componentType":5126,"count":216,"max":[1,1,1],"min":[1,1,1],"type":"VEC3"},{"bufferView":6,"componentType":5126,"count":288,"max":[4.357399940490723,0.2465669959783554,4.357399940490723],"min":[-4.357399940490723,0.1881610006093979,-4.357399940490723],"type":"VEC3"},{"bufferView":7,"componentType":5126,"count":288,"max":[1,1,1],"min":[-1,-1,-1],"type":"VEC3"},{"bufferView":8,"componentType":5126,"count":288,"max":[1,1,1],"min":[1,1,1],"type":"VEC3"},{"bufferView":9,"componentType":5126,"count":564,"max":[4.912149906158447,0.22694000601768494,4.912149906158447],"min":[-4.912149906158447,-0.22694000601768494,-4.912149906158447],"type":"VEC3"},{"bufferView":10,"componentType":5126,"count":564,"max":[0.707082986831665,1,0.707082986831665],"min":[-0.707082986831665,-1,-0.707082986831665],"type":"VEC3"},{"bufferView":11,"componentType":5126,"count":564,"max":[1,1,1],"min":[1,1,1],"type":"VEC3"}],"materials":[{"pbrMetallicRoughness":{"baseColorFactor":[0.6392156862745098,0.6392156862745098,0.6392156862745098,1],"metallicFactor":0,"roughnessFactor":1},"name":"playera"},{"pbrMetallicRoughness":{"baseColorFactor":[0.6392156862745098,0.6392156862745098,0.6392156862745098,1],"metallicFactor":0,"roughnessFactor":1},"name":"playerb"},{"pbrMetallicRoughness":{"baseColorFactor":[0.6392156862745098,0.6392156862745098,0.6392156862745098,1],"metallicFactor":0,"roughnessFactor":1},"name":"deco"},{"pbrMetallicRoughness":{"baseColorFactor":[0.6392156862745098,0.6392156862745098,0.6392156862745098,1],"metallicFactor":0,"roughnessFactor":1},"name":"mainframe"}],"meshes":[{"primitives":[{"mode":4,"attributes":{"POSITION":0,"NORMAL":1,"COLOR_0":2},"material":0}]},{"primitives":[{"mode":4,"attributes":{"POSITION":3,"NORMAL":4,"COLOR_0":5},"material":1}]},{"primitives":[{"mode":4,"attributes":{"POSITION":6,"NORMAL":7,"COLOR_0":8},"material":2}]},{"primitives":[{"mode":4,"attributes":{"POSITION":9,"NORMAL":10,"COLOR_0":11},"material":3}]}]}