{"asset":{"version":"2.0","generator":"GLTFExporter"},"scenes":[{"name":"AuxScene","nodes":[2]}],"scene":0,"nodes":[{"extras":{"mapFilename":null},"mesh":0},{"extras":{"mapFilename":null},"mesh":1},{"children":[0,1]}],"bufferViews":[{"buffer":0,"byteOffset":0,"byteLength":6912,"target":34962,"byteStride":12},{"buffer":0,"byteOffset":6912,"byteLength":6912,"target":34962,"byteStride":12},{"buffer":0,"byteOffset":13824,"byteLength":6912,"target":34962,"byteStride":12},{"buffer":0,"byteOffset":20736,"byteLength":6192,"target":34962,"byteStride":12},{"buffer":0,"byteOffset":26928,"byteLength":6192,"target":34962,"byteStride":12},{"buffer":0,"byteOffset":33120,"byteLength":6192,"target":34962,"byteStride":12}],"buffers":[{"byteLength":39312,"uri":"data:application/octet-stream;base64,"}],"accessors":[{"bufferView":0,"componentType":5126,"count":576,"max":[0.3869369924068451,0.2651349902153015,0.3869369924068451],"min":[-0.3869369924068451,0.15292499959468842,-0.3869369924068451],"type":"VEC3"},{"bufferView":1,"componentType":5126,"count":576,"max":[1,0.9914849996566772,1],"min":[-1,-0.9990230202674866,-1],"type":"VEC3"},{"bufferView":2,"componentType":5126,"count":576,"max":[1,1,1],"min":[1,1,1],"type":"VEC3"},{"bufferView":3,"componentType":5126,"count":516,"max":[0.6891639828681946,0.28728100657463074,0.6891639828681946],"min":[-0.6891639828681946,0.0030821599066257477,-0.6891639828681946],"type":"VEC3"},{"bufferView":4,"componentType":5126,"count":516,"max":[0.9953309893608093,0.9999690055847168,0.9953309893608093],"min":[-0.9953309893608093,-0.702750027179718,-0.9953309893608093],"type":"VEC3"},{"bufferView":5,"componentType":5126,"count":516,"max":[1,1,1],"min":[1,1,1],"type":"VEC3"}],"materials":[{"pbrMetallicRoughness":{"baseColorFactor":[0.7372549019607844,0.49019607843137253,0.25098039215686274,1],"metallicFactor":0,"roughnessFactor":1},"name":"queen"},{"pbrMetallicRoughness":{"baseColorFactor":[0.6392156862745098,0.6392156862745098,0.6392156862745098,1],"metallicFactor":0,"roughnessFactor":1},"name":"base"}],"meshes":[{"primitives":[{"mode":4,"attributes":{"POSITION":0,"NORMAL":1,"COLOR_0":2},"material":0}]},{"primitives":[{"mode":4,"attributes":{"POSITION":3,"NORMAL":4,"COLOR_0":5},"material":1}]}]}