{"asset":{"version":"2.0","generator":"GLTFExporter"},"scenes":[{"name":"AuxScene","nodes":[2]}],"scene":0,"nodes":[{"extras":{"mapFilename":null},"mesh":0},{"extras":{"mapFilename":null},"mesh":1},{"children":[0,1]}],"bufferViews":[{"buffer":0,"byteOffset":0,"byteLength":2736,"target":34962,"byteStride":12},{"buffer":0,"byteOffset":2736,"byteLength":2736,"target":34962,"byteStride":12},{"buffer":0,"byteOffset":5472,"byteLength":2736,"target":34962,"byteStride":12},{"buffer":0,"byteOffset":8208,"byteLength":432,"target":34962,"byteStride":12},{"buffer":0,"byteOffset":8640,"byteLength":432,"target":34962,"byteStride":12},{"buffer":0,"byteOffset":9072,"byteLength":432,"target":34962,"byteStride":12}],"buffers":[{"byteLength":9504,"uri":"data:application/octet-stream;base64,"}],"accessors":[{"bufferView":0,"componentType":5126,"count":228,"max":[0.7047039866447449,0.3680410087108612,0.7047039866447449],"min":[-0.7047039866447449,-0.062161099165678024,-0.7047039866447449],"type":"VEC3"},{"bufferView":1,"componentType":5126,"count":228,"max":[1,0.9846799969673157,1],"min":[-1,-0.6302379965782166,-1],"type":"VEC3"},{"bufferView":2,"componentType":5126,"count":228,"max":[1,1,1],"min":[1,1,1],"type":"VEC3"},{"bufferView":3,"componentType":5126,"count":36,"max":[0.850383996963501,-0.04891590029001236,0.850383996963501],"min":[-0.850383996963501,-0.10144700109958649,-0.850383996963501],"type":"VEC3"},{"bufferView":4,"componentType":5126,"count":36,"max":[0.5773490071296692,0.5773490071296692,0.5773490071296692],"min":[-0.5773490071296692,-0.5773490071296692,-0.5773490071296692],"type":"VEC3"},{"bufferView":5,"componentType":5126,"count":36,"max":[1,1,1],"min":[1,1,1],"type":"VEC3"}],"materials":[{"pbrMetallicRoughness":{"baseColorFactor":[0.23921568627450981,0.38823529411764707,0,1],"metallicFactor":0,"roughnessFactor":1},"name":"ring"},{"pbrMetallicRoughness":{"baseColorFactor":[0.6392156862745098,0.6392156862745098,0.6392156862745098,1],"metallicFactor":0,"roughnessFactor":1},"name":"square"}],"meshes":[{"primitives":[{"mode":4,"attributes":{"POSITION":0,"NORMAL":1,"COLOR_0":2},"material":0}]},{"primitives":[{"mode":4,"attributes":{"POSITION":3,"NORMAL":4,"COLOR_0":5},"material":1}]}]}