{"asset":{"version":"2.0","generator":"GLTFExporter"},"scenes":[{"name":"AuxScene","nodes":[2]}],"scene":0,"nodes":[{"extras":{"mapFilename":null},"mesh":0},{"extras":{"mapFilename":null},"mesh":1},{"children":[0,1]}],"bufferViews":[{"buffer":0,"byteOffset":0,"byteLength":6192,"target":34962,"byteStride":12},{"buffer":0,"byteOffset":6192,"byteLength":6192,"target":34962,"byteStride":12},{"buffer":0,"byteOffset":12384,"byteLength":6192,"target":34962,"byteStride":12},{"buffer":0,"byteOffset":18576,"byteLength":6192,"target":34962,"byteStride":12},{"buffer":0,"byteOffset":24768,"byteLength":6192,"target":34962,"byteStride":12},{"buffer":0,"byteOffset":30960,"byteLength":6192,"target":34962,"byteStride":12}],"buffers":[{"byteLength":37152,"uri":"data:application/octet-stream;base64,"}],"accessors":[{"bufferView":0,"componentType":5126,"count":516,"max":[0.6891639828681946,0.507794976234436,0.6891639828681946],"min":[-0.6891639828681946,0.23983299732208252,-0.6891639828681946],"type":"VEC3"},{"bufferView":1,"componentType":5126,"count":516,"max":[0.9889829754829407,0.9999690055847168,0.9889829754829407],"min":[-0.9889829754829407,-0.7416300177574158,-0.9889829754829407],"type":"VEC3"},{"bufferView":2,"componentType":5126,"count":516,"max":[1,1,1],"min":[1,1,1],"type":"VEC3"},{"bufferView":3,"componentType":5126,"count":516,"max":[0.6891639828681946,0.28728100657463074,0.6891639828681946],"min":[-0.6891639828681946,0.0030821599066257477,-0.6891639828681946],"type":"VEC3"},{"bufferView":4,"componentType":5126,"count":516,"max":[0.9953309893608093,0.9999690055847168,0.9953309893608093],"min":[-0.9953309893608093,-0.70271897315979,-0.9953309893608093],"type":"VEC3"},{"bufferView":5,"componentType":5126,"count":516,"max":[1,1,1],"min":[1,1,1],"type":"VEC3"}],"materials":[{"pbrMetallicRoughness":{"baseColorFactor":[0.6392156862745098,0.6392156862745098,0.6392156862745098,1],"metallicFactor":0,"roughnessFactor":1},"name":"queen"},{"pbrMetallicRoughness":{"baseColorFactor":[0.6392156862745098,0.6392156862745098,0.6392156862745098,1],"metallicFactor":0,"roughnessFactor":1},"name":"base"}],"meshes":[{"primitives":[{"mode":4,"attributes":{"POSITION":0,"NORMAL":1,"COLOR_0":2},"material":0}]},{"primitives":[{"mode":4,"attributes":{"POSITION":3,"NORMAL":4,"COLOR_0":5},"material":1}]}]}