{"asset":{"version":"2.0","generator":"GLTFExporter"},"scenes":[{"name":"AuxScene","nodes":[1]}],"scene":0,"nodes":[{"extras":{"mapFilename":"rainbow.png"},"mesh":0},{"children":[0]}],"bufferViews":[{"buffer":0,"byteOffset":0,"byteLength":11376,"target":34962,"byteStride":12},{"buffer":0,"byteOffset":11376,"byteLength":11376,"target":34962,"byteStride":12},{"buffer":0,"byteOffset":22752,"byteLength":11376,"target":34962,"byteStride":12},{"buffer":0,"byteOffset":34128,"byteLength":7584,"target":34962,"byteStride":8}],"buffers":[{"byteLength":41712,"uri":"data:application/octet-stream;base64,"}],"accessors":[{"bufferView":0,"componentType":5126,"count":948,"max":[1.2414100170135498,1.234470009803772,5.601900099350132e-8],"min":[-1.2414100170135498,-0.006947760004550219,-9.798980045161443e-7],"type":"VEC3"},{"bufferView":1,"componentType":5126,"count":948,"max":[0,0,-0.9999690055847168],"min":[0,0,-1],"type":"VEC3"},{"bufferView":2,"componentType":5126,"count":948,"max":[1,1,1],"min":[1,1,1],"type":"VEC3"},{"bufferView":3,"componentType":5126,"count":948,"max":[0.9999669790267944,0.9979760050773621],"min":[0.00003300000025774352,0.47439301013946533],"type":"VEC2"}],"materials":[{"pbrMetallicRoughness":{"baseColorFactor":[0.6392156862745098,0.6392156862745098,0.6392156862745098,1],"metallicFactor":0,"roughnessFactor":1,"baseColorTexture":{"index":0}},"name":"rainbowcol"}],"meshes":[{"primitives":[{"mode":4,"attributes":{"POSITION":0,"NORMAL":1,"COLOR_0":2,"TEXCOORD_0":3},"material":0}]}],"images":[{"uri":"rainbow.png"}],"textures":[{"source":0}]}