{"asset":{"version":"2.0","generator":"GLTFExporter"},"scenes":[{"name":"AuxScene","nodes":[1]}],"scene":0,"nodes":[{"extras":{"mapFilename":"rock.jpg"},"mesh":0},{"children":[0]}],"bufferViews":[{"buffer":0,"byteOffset":0,"byteLength":27648,"target":34962,"byteStride":12},{"buffer":0,"byteOffset":27648,"byteLength":27648,"target":34962,"byteStride":12},{"buffer":0,"byteOffset":55296,"byteLength":27648,"target":34962,"byteStride":12},{"buffer":0,"byteOffset":82944,"byteLength":18432,"target":34962,"byteStride":8}],"buffers":[{"byteLength":101376,"uri":"data:application/octet-stream;base64,"}],"accessors":[{"bufferView":0,"componentType":5126,"count":2304,"max":[0.9948580265045166,0.7691869735717773,0.9975200295448303],"min":[-0.9933410286903381,-0.6497910022735596,-0.9838460087776184],"type":"VEC3"},{"bufferView":1,"componentType":5126,"count":2304,"max":[0.9998469948768616,0.9981080293655396,0.9995729923248291],"min":[-0.9999690055847168,-1,-0.9971619844436646],"type":"VEC3"},{"bufferView":2,"componentType":5126,"count":2304,"max":[1,1,1],"min":[1,1,1],"type":"VEC3"},{"bufferView":3,"componentType":5126,"count":2304,"max":[0.9998990297317505,0.9833719730377197],"min":[0.014275999739766121,0.00010099999781232327],"type":"VEC2"}],"materials":[{"pbrMetallicRoughness":{"baseColorFactor":[0.6392156862745098,0.6392156862745098,0.6392156862745098,1],"metallicFactor":0,"roughnessFactor":1,"baseColorTexture":{"index":0}},"name":"mat.rock"}],"meshes":[{"primitives":[{"mode":4,"attributes":{"POSITION":0,"NORMAL":1,"COLOR_0":2,"TEXCOORD_0":3},"material":0}]}],"images":[{"uri":"rock.jpg"}],"textures":[{"source":0}]}