{"asset":{"version":"2.0","generator":"GLTFExporter"},"scenes":[{"name":"AuxScene","nodes":[1]}],"scene":0,"nodes":[{"extras":{"mapFilename":null},"mesh":0},{"children":[0]}],"bufferViews":[{"buffer":0,"byteOffset":0,"byteLength":18288,"target":34962,"byteStride":12},{"buffer":0,"byteOffset":18288,"byteLength":18288,"target":34962,"byteStride":12},{"buffer":0,"byteOffset":36576,"byteLength":18288,"target":34962,"byteStride":12}],"buffers":[{"byteLength":54864,"uri":"data:application/octet-stream;base64,"}],"accessors":[{"bufferView":0,"componentType":5126,"count":1524,"max":[0.5333729982376099,2.0387299060821533,0.5333729982376099],"min":[-0.5333729982376099,0.01424300018697977,-0.5333729982376099],"type":"VEC3"},{"bufferView":1,"componentType":5126,"count":1524,"max":[0.9996029734611511,0.9684739708900452,0.9996029734611511],"min":[-0.9996029734611511,-0.8281199932098389,-0.9996029734611511],"type":"VEC3"},{"bufferView":2,"componentType":5126,"count":1524,"max":[1,1,1],"min":[1,1,1],"type":"VEC3"}],"materials":[{"pbrMetallicRoughness":{"baseColorFactor":[0.6392156862745098,0,0.01568627450980392,1],"metallicFactor":0,"roughnessFactor":1},"name":"base"}],"meshes":[{"primitives":[{"mode":4,"attributes":{"POSITION":0,"NORMAL":1,"COLOR_0":2},"material":0}]}]}