{"asset":{"version":"2.0","generator":"GLTFExporter"},"scenes":[{"name":"AuxScene","nodes":[1]}],"scene":0,"nodes":[{"extras":{"mapFilename":"turtle.png"},"mesh":0},{"children":[0]}],"bufferViews":[{"buffer":0,"byteOffset":0,"byteLength":14976,"target":34962,"byteStride":12},{"buffer":0,"byteOffset":14976,"byteLength":14976,"target":34962,"byteStride":12},{"buffer":0,"byteOffset":29952,"byteLength":14976,"target":34962,"byteStride":12},{"buffer":0,"byteOffset":44928,"byteLength":9984,"target":34962,"byteStride":8}],"buffers":[{"byteLength":54912,"uri":"data:application/octet-stream;base64,"}],"accessors":[{"bufferView":0,"componentType":5126,"count":1248,"max":[0.2500770092010498,0.6673089861869812,-0.7010999917984009],"min":[-0.2146420031785965,0.2025900036096573,-1.2526500225067139],"type":"VEC3"},{"bufferView":1,"componentType":5126,"count":1248,"max":[0.9681689739227295,0.9623709917068481,-0.09238000214099884],"min":[-0.9681689739227295,-0.995697021484375,-0.9999690055847168],"type":"VEC3"},{"bufferView":2,"componentType":5126,"count":1248,"max":[1,1,1],"min":[1,1,1],"type":"VEC3"},{"bufferView":3,"componentType":5126,"count":1248,"max":[0.9782339930534363,0.7382709980010986],"min":[0.7953299880027771,0.5555750131607056],"type":"VEC2"}],"materials":[{"pbrMetallicRoughness":{"baseColorFactor":[0.6392156862745098,0.6392156862745098,0.6392156862745098,1],"metallicFactor":0,"roughnessFactor":1,"baseColorTexture":{"index":0}},"name":"mat.turtle"}],"meshes":[{"primitives":[{"mode":4,"attributes":{"POSITION":0,"NORMAL":1,"COLOR_0":2,"TEXCOORD_0":3},"material":0}]}],"images":[{"uri":"turtle.png"}],"textures":[{"source":0}]}