{"asset":{"version":"2.0","generator":"GLTFExporter"},"scenes":[{"name":"AuxScene","nodes":[1]}],"scene":0,"nodes":[{"extras":{"mapFilename":"turtle.png"},"mesh":0},{"children":[0]}],"bufferViews":[{"buffer":0,"byteOffset":0,"byteLength":138240,"target":34962,"byteStride":12},{"buffer":0,"byteOffset":138240,"byteLength":138240,"target":34962,"byteStride":12},{"buffer":0,"byteOffset":276480,"byteLength":138240,"target":34962,"byteStride":12},{"buffer":0,"byteOffset":414720,"byteLength":92160,"target":34962,"byteStride":8}],"buffers":[{"byteLength":506880,"uri":"data:application/octet-stream;base64,"}],"accessors":[{"bufferView":0,"componentType":5126,"count":11520,"max":[1.1286799907684326,0.5477330088615417,0.7705910205841064],"min":[-1.1286799907684326,0.011256200261414051,-1.266700029373169],"type":"VEC3"},{"bufferView":1,"componentType":5126,"count":11520,"max":[1,0.9999690055847168,0.9989010095596313],"min":[-1,-0.9999690055847168,-0.9989010095596313],"type":"VEC3"},{"bufferView":2,"componentType":5126,"count":11520,"max":[1,1,1],"min":[1,1,1],"type":"VEC3"},{"bufferView":3,"componentType":5126,"count":11520,"max":[0.9853929877281189,0.988523006439209],"min":[0.8441870212554932,0.766228973865509],"type":"VEC2"}],"materials":[{"pbrMetallicRoughness":{"baseColorFactor":[0.6392156862745098,0.6392156862745098,0.6392156862745098,1],"metallicFactor":0,"roughnessFactor":1,"baseColorTexture":{"index":0}},"name":"mat.turtle"}],"meshes":[{"primitives":[{"mode":4,"attributes":{"POSITION":0,"NORMAL":1,"COLOR_0":2,"TEXCOORD_0":3},"material":0}]}],"images":[{"uri":"turtle.png"}],"textures":[{"source":0}]}