{"asset":{"version":"2.0","generator":"GLTFExporter"},"scenes":[{"name":"AuxScene","nodes":[1]}],"scene":0,"nodes":[{"extras":{"mapFilename":"turtle.png"},"mesh":0},{"children":[0]}],"bufferViews":[{"buffer":0,"byteOffset":0,"byteLength":1728,"target":34962,"byteStride":12},{"buffer":0,"byteOffset":1728,"byteLength":1728,"target":34962,"byteStride":12},{"buffer":0,"byteOffset":3456,"byteLength":1728,"target":34962,"byteStride":12},{"buffer":0,"byteOffset":5184,"byteLength":1152,"target":34962,"byteStride":8}],"buffers":[{"byteLength":6336,"uri":"data:application/octet-stream;base64,"}],"accessors":[{"bufferView":0,"componentType":5126,"count":144,"max":[0.6223220229148865,2.038259983062744,0.37426701188087463],"min":[-0.6223220229148865,0.20009900629520416,-0.8703770041465759],"type":"VEC3"},{"bufferView":1,"componentType":5126,"count":144,"max":[0.5773490071296692,0.9045079946517944,0.707082986831665],"min":[-0.707082986831665,-0.707082986831665,-0.707082986831665],"type":"VEC3"},{"bufferView":2,"componentType":5126,"count":144,"max":[1,1,1],"min":[1,1,1],"type":"VEC3"},{"bufferView":3,"componentType":5126,"count":144,"max":[0.8137630224227905,0.6134499907493591],"min":[0,0],"type":"VEC2"}],"materials":[{"pbrMetallicRoughness":{"baseColorFactor":[0.6392156862745098,0.6392156862745098,0.6392156862745098,1],"metallicFactor":0,"roughnessFactor":1,"baseColorTexture":{"index":0}},"name":"mat.buildings"}],"meshes":[{"primitives":[{"mode":4,"attributes":{"POSITION":0,"NORMAL":1,"COLOR_0":2,"TEXCOORD_0":3},"material":0}]}],"images":[{"uri":"turtle.png"}],"textures":[{"source":0}]}