{"asset":{"version":"2.0","generator":"GLTFExporter"},"scenes":[{"name":"AuxScene","nodes":[6]}],"scene":0,"nodes":[{"extras":{"mapFilename":"turtle.png"},"mesh":0},{"extras":{"mapFilename":null},"mesh":1},{"extras":{"mapFilename":null},"mesh":2},{"extras":{"mapFilename":"turtle.png"},"mesh":3},{"extras":{"mapFilename":null},"mesh":4},{"extras":{"mapFilename":"turtle.png"},"mesh":5},{"children":[0,1,2,3,4,5]}],"bufferViews":[{"buffer":0,"byteOffset":0,"byteLength":2160,"target":34962,"byteStride":12},{"buffer":0,"byteOffset":2160,"byteLength":2160,"target":34962,"byteStride":12},{"buffer":0,"byteOffset":4320,"byteLength":2160,"target":34962,"byteStride":12},{"buffer":0,"byteOffset":6480,"byteLength":1440,"target":34962,"byteStride":8},{"buffer":0,"byteOffset":7920,"byteLength":2304,"target":34962,"byteStride":12},{"buffer":0,"byteOffset":10224,"byteLength":2304,"target":34962,"byteStride":12},{"buffer":0,"byteOffset":12528,"byteLength":2304,"target":34962,"byteStride":12},{"buffer":0,"byteOffset":14832,"byteLength":1536,"target":34962,"byteStride":8},{"buffer":0,"byteOffset":16368,"byteLength":720,"target":34962,"byteStride":12},{"buffer":0,"byteOffset":17088,"byteLength":720,"target":34962,"byteStride":12},{"buffer":0,"byteOffset":17808,"byteLength":720,"target":34962,"byteStride":12},{"buffer":0,"byteOffset":18528,"byteLength":480,"target":34962,"byteStride":8},{"buffer":0,"byteOffset":19008,"byteLength":936,"target":34962,"byteStride":12},{"buffer":0,"byteOffset":19944,"byteLength":936,"target":34962,"byteStride":12},{"buffer":0,"byteOffset":20880,"byteLength":936,"target":34962,"byteStride":12},{"buffer":0,"byteOffset":21816,"byteLength":624,"target":34962,"byteStride":8},{"buffer":0,"byteOffset":22440,"byteLength":720,"target":34962,"byteStride":12},{"buffer":0,"byteOffset":23160,"byteLength":720,"target":34962,"byteStride":12},{"buffer":0,"byteOffset":23880,"byteLength":720,"target":34962,"byteStride":12},{"buffer":0,"byteOffset":24600,"byteLength":480,"target":34962,"byteStride":8},{"buffer":0,"byteOffset":25080,"byteLength":8640,"target":34962,"byteStride":12},{"buffer":0,"byteOffset":33720,"byteLength":8640,"target":34962,"byteStride":12},{"buffer":0,"byteOffset":42360,"byteLength":8640,"target":34962,"byteStride":12},{"buffer":0,"byteOffset":51000,"byteLength":5760,"target":34962,"byteStride":8}],"buffers":[{"byteLength":56760,"uri":"data:application/octet-stream;base64,"}],"accessors":[{"bufferView":0,"componentType":5126,"count":180,"max":[0.4677119851112366,1.0191400051116943,1.4811700582504272],"min":[-0.5013089776039124,0.22083400189876556,0.05030030012130737],"type":"VEC3"},{"bufferView":1,"componentType":5126,"count":180,"max":[0.9327369928359985,0.9310590028762817,0.8912320137023926],"min":[-0.933804988861084,-0.9993590116500854,-0.5773490071296692],"type":"VEC3"},{"bufferView":2,"componentType":5126,"count":180,"max":[1,1,1],"min":[1,1,1],"type":"VEC3"},{"bufferView":3,"componentType":5126,"count":180,"max":[0.6730380058288574,0.9838830232620239],"min":[0.006089999806135893,0.5172669887542725],"type":"VEC2"},{"bufferView":4,"componentType":5126,"count":192,"max":[0.5350340008735657,1.2368799448013306,-0.29515498876571655],"min":[0.327908992767334,0.7986969947814941,-0.5022799968719482],"type":"VEC3"},{"bufferView":5,"componentType":5126,"count":192,"max":[0.707082986831665,1,0.707082986831665],"min":[-0.707082986831665,-0.9045079946517944,-0.707082986831665],"type":"VEC3"},{"bufferView":6,"componentType":5126,"count":192,"max":[1,1,1],"min":[1,1,1],"type":"VEC3"},{"bufferView":7,"componentType":5126,"count":192,"max":[0,0],"min":[0,0],"type":"VEC2"},{"bufferView":8,"componentType":5126,"count":60,"max":[0.7181370258331299,1.2048900127410889,0.47008201479911804],"min":[-0.7181370258331299,0.7676730155944824,-0.9661920070648193],"type":"VEC3"},{"bufferView":9,"componentType":5126,"count":60,"max":[0.679830014705658,0.7876219749450684,0.8222600221633911],"min":[-0.679830014705658,-0.7060459852218628,-0.8222600221633911],"type":"VEC3"},{"bufferView":10,"componentType":5126,"count":60,"max":[1,1,1],"min":[1,1,1],"type":"VEC3"},{"bufferView":11,"componentType":5126,"count":60,"max":[0.9925550222396851,0.45370298624038696],"min":[0.6971420049667358,0.003083999967202544],"type":"VEC2"},{"bufferView":12,"componentType":5126,"count":78,"max":[0.26556798815727234,0.6827999949455261,-0.7010999917984009],"min":[-0.23013299703598022,0.18709899485111237,-1.2587499618530273],"type":"VEC3"},{"bufferView":13,"componentType":5126,"count":78,"max":[0.7030850052833557,0.6533709764480591,-0.29148200154304504],"min":[-0.7030850052833557,-0.6533709764480591,-0.7970520257949829],"type":"VEC3"},{"bufferView":14,"componentType":5126,"count":78,"max":[1,1,1],"min":[1,1,1],"type":"VEC3"},{"bufferView":15,"componentType":5126,"count":78,"max":[0.2023179978132248,0.20847900211811066],"min":[0.006132000125944614,0.01261799968779087],"type":"VEC2"},{"bufferView":16,"componentType":5126,"count":60,"max":[0.6223220229148865,1.1456799507141113,0.37426701188087463],"min":[-0.6223220229148865,0.20009900629520416,-0.8703770041465759],"type":"VEC3"},{"bufferView":17,"componentType":5126,"count":60,"max":[0.6764730215072632,0.7851499915122986,0.707082986831665],"min":[-0.6764730215072632,-0.707082986831665,-0.707082986831665],"type":"VEC3"},{"bufferView":18,"componentType":5126,"count":60,"max":[1,1,1],"min":[1,1,1],"type":"VEC3"},{"bufferView":19,"componentType":5126,"count":60,"max":[0.9999409914016724,0.29804301261901855],"min":[0,0],"type":"VEC2"},{"bufferView":20,"componentType":5126,"count":720,"max":[1.1509900093078613,0.5567229986190796,0.7974640130996704],"min":[-1.1509900093078613,0.008029280230402946,-1.2935700416564941],"type":"VEC3"},{"bufferView":21,"componentType":5126,"count":720,"max":[0.9299600124359131,0.7954649925231934,0.7875000238418579],"min":[-0.9299600124359131,-0.7954649925231934,-0.7875000238418579],"type":"VEC3"},{"bufferView":22,"componentType":5126,"count":720,"max":[1,1,1],"min":[1,1,1],"type":"VEC3"},{"bufferView":23,"componentType":5126,"count":720,"max":[0.9853929877281189,0.988523006439209],"min":[0.8381829857826233,0.7622420191764832],"type":"VEC2"}],"materials":[{"pbrMetallicRoughness":{"baseColorFactor":[0.6392156862745098,0.6392156862745098,0.6392156862745098,1],"metallicFactor":0,"roughnessFactor":1,"baseColorTexture":{"index":0}},"name":"mat.turtle"},{"pbrMetallicRoughness":{"baseColorFactor":[0.23137254901960785,0.6392156862745098,0.07058823529411765,1],"metallicFactor":0,"roughnessFactor":1},"name":"house"},{"pbrMetallicRoughness":{"baseColorFactor":[0.0392156862745098,0.07058823529411765,0,1],"metallicFactor":0,"roughnessFactor":1},"name":"roof"},{"pbrMetallicRoughness":{"baseColorFactor":[0.6392156862745098,0.6392156862745098,0.6392156862745098,1],"metallicFactor":0,"roughnessFactor":1,"baseColorTexture":{"index":0}},"name":"mat.turtle"},{"pbrMetallicRoughness":{"baseColorFactor":[0.23137254901960785,0.6392156862745098,0.07058823529411765,1],"metallicFactor":0,"roughnessFactor":1},"name":"house"},{"pbrMetallicRoughness":{"baseColorFactor":[0.6392156862745098,0.6392156862745098,0.6392156862745098,1],"metallicFactor":0,"roughnessFactor":1,"baseColorTexture":{"index":0}},"name":"mat.turtle"}],"meshes":[{"primitives":[{"mode":4,"attributes":{"POSITION":0,"NORMAL":1,"COLOR_0":2,"TEXCOORD_0":3},"material":0}]},{"primitives":[{"mode":4,"attributes":{"POSITION":4,"NORMAL":5,"COLOR_0":6,"TEXCOORD_0":7},"material":1}]},{"primitives":[{"mode":4,"attributes":{"POSITION":8,"NORMAL":9,"COLOR_0":10,"TEXCOORD_0":11},"material":2}]},{"primitives":[{"mode":4,"attributes":{"POSITION":12,"NORMAL":13,"COLOR_0":14,"TEXCOORD_0":15},"material":3}]},{"primitives":[{"mode":4,"attributes":{"POSITION":16,"NORMAL":17,"COLOR_0":18,"TEXCOORD_0":19},"material":4}]},{"primitives":[{"mode":4,"attributes":{"POSITION":20,"NORMAL":21,"COLOR_0":22,"TEXCOORD_0":23},"material":5}]}],"images":[{"uri":"turtle.png"}],"textures":[{"source":0}]}