{"asset":{"version":"2.0","generator":"GLTFExporter"},"scenes":[{"name":"AuxScene","nodes":[1]}],"scene":0,"nodes":[{"extras":{"mapFilename":"turtle.png"},"mesh":0},{"children":[0]}],"bufferViews":[{"buffer":0,"byteOffset":0,"byteLength":34560,"target":34962,"byteStride":12},{"buffer":0,"byteOffset":34560,"byteLength":34560,"target":34962,"byteStride":12},{"buffer":0,"byteOffset":69120,"byteLength":34560,"target":34962,"byteStride":12},{"buffer":0,"byteOffset":103680,"byteLength":23040,"target":34962,"byteStride":8}],"buffers":[{"byteLength":126720,"uri":"data:application/octet-stream;base64,"}],"accessors":[{"bufferView":0,"componentType":5126,"count":2880,"max":[0.3575870096683502,0.8359320163726807,1.489799976348877],"min":[-0.39027899503707886,0.19277599453926086,0.06040219962596893],"type":"VEC3"},{"bufferView":1,"componentType":5126,"count":2880,"max":[1,1,0.9941400289535522],"min":[-0.9999690055847168,-1,-1],"type":"VEC3"},{"bufferView":2,"componentType":5126,"count":2880,"max":[1,1,1],"min":[1,1,1],"type":"VEC3"},{"bufferView":3,"componentType":5126,"count":2880,"max":[0.9768000245094299,0.9838830232620239],"min":[0.03664499893784523,0.5706729888916016],"type":"VEC2"}],"materials":[{"pbrMetallicRoughness":{"baseColorFactor":[0.6392156862745098,0.6392156862745098,0.6392156862745098,1],"metallicFactor":0,"roughnessFactor":1,"baseColorTexture":{"index":0}},"name":"mat.turtle"}],"meshes":[{"primitives":[{"mode":4,"attributes":{"POSITION":0,"NORMAL":1,"COLOR_0":2,"TEXCOORD_0":3},"material":0}]}],"images":[{"uri":"turtle.png"}],"textures":[{"source":0}]}