{"asset":{"version":"2.0","generator":"GLTFExporter"},"scenes":[{"name":"AuxScene","nodes":[3]}],"scene":0,"nodes":[{"extras":{"mapFilename":"turtle.png"},"mesh":0},{"extras":{"mapFilename":"turtle.png"},"mesh":1},{"extras":{"mapFilename":"turtle.png"},"mesh":2},{"children":[0,1,2]}],"bufferViews":[{"buffer":0,"byteOffset":0,"byteLength":2304,"target":34962,"byteStride":12},{"buffer":0,"byteOffset":2304,"byteLength":2304,"target":34962,"byteStride":12},{"buffer":0,"byteOffset":4608,"byteLength":2304,"target":34962,"byteStride":12},{"buffer":0,"byteOffset":6912,"byteLength":1536,"target":34962,"byteStride":8},{"buffer":0,"byteOffset":8448,"byteLength":720,"target":34962,"byteStride":12},{"buffer":0,"byteOffset":9168,"byteLength":720,"target":34962,"byteStride":12},{"buffer":0,"byteOffset":9888,"byteLength":720,"target":34962,"byteStride":12},{"buffer":0,"byteOffset":10608,"byteLength":480,"target":34962,"byteStride":8},{"buffer":0,"byteOffset":11088,"byteLength":720,"target":34962,"byteStride":12},{"buffer":0,"byteOffset":11808,"byteLength":720,"target":34962,"byteStride":12},{"buffer":0,"byteOffset":12528,"byteLength":720,"target":34962,"byteStride":12},{"buffer":0,"byteOffset":13248,"byteLength":480,"target":34962,"byteStride":8}],"buffers":[{"byteLength":13728,"uri":"data:application/octet-stream;base64,"}],"accessors":[{"bufferView":0,"componentType":5126,"count":192,"max":[0.5350340008735657,1.2368799448013306,-0.29515498876571655],"min":[0.327908992767334,0.7986969947814941,-0.5022799968719482],"type":"VEC3"},{"bufferView":1,"componentType":5126,"count":192,"max":[0.707082986831665,1,0.707082986831665],"min":[-0.707082986831665,-0.9045079946517944,-0.707082986831665],"type":"VEC3"},{"bufferView":2,"componentType":5126,"count":192,"max":[1,1,1],"min":[1,1,1],"type":"VEC3"},{"bufferView":3,"componentType":5126,"count":192,"max":[0.8303880095481873,0.2869719862937927],"min":[0.46355700492858887,0.024103999137878418],"type":"VEC2"},{"bufferView":4,"componentType":5126,"count":60,"max":[0.7181370258331299,1.2048900127410889,0.47008201479911804],"min":[-0.7181370258331299,0.7676730155944824,-0.9661920070648193],"type":"VEC3"},{"bufferView":5,"componentType":5126,"count":60,"max":[0.679830014705658,0.7876219749450684,0.8222600221633911],"min":[-0.679830014705658,-0.7060459852218628,-0.8222600221633911],"type":"VEC3"},{"bufferView":6,"componentType":5126,"count":60,"max":[1,1,1],"min":[1,1,1],"type":"VEC3"},{"bufferView":7,"componentType":5126,"count":60,"max":[0.8224970102310181,0.2661939859390259],"min":[0.6955379843711853,0.003083999967202544],"type":"VEC2"},{"bufferView":8,"componentType":5126,"count":60,"max":[0.6223220229148865,1.1456799507141113,0.37426701188087463],"min":[-0.6223220229148865,0.20009900629520416,-0.8703770041465759],"type":"VEC3"},{"bufferView":9,"componentType":5126,"count":60,"max":[0.6764730215072632,0.7851499915122986,0.707082986831665],"min":[-0.6764730215072632,-0.707082986831665,-0.707082986831665],"type":"VEC3"},{"bufferView":10,"componentType":5126,"count":60,"max":[1,1,1],"min":[1,1,1],"type":"VEC3"},{"bufferView":11,"componentType":5126,"count":60,"max":[0.9999409914016724,0.25409701466560364],"min":[0,0],"type":"VEC2"}],"materials":[{"pbrMetallicRoughness":{"baseColorFactor":[0.6392156862745098,0.6392156862745098,0.6392156862745098,1],"metallicFactor":0,"roughnessFactor":1,"baseColorTexture":{"index":0}},"name":"mat.buildings"},{"pbrMetallicRoughness":{"baseColorFactor":[0.6392156862745098,0.6392156862745098,0.6392156862745098,1],"metallicFactor":0,"roughnessFactor":1,"baseColorTexture":{"index":0}},"name":"mat.buildings"},{"pbrMetallicRoughness":{"baseColorFactor":[0.6392156862745098,0.6392156862745098,0.6392156862745098,1],"metallicFactor":0,"roughnessFactor":1,"baseColorTexture":{"index":0}},"name":"mat.buildings"}],"meshes":[{"primitives":[{"mode":4,"attributes":{"POSITION":0,"NORMAL":1,"COLOR_0":2,"TEXCOORD_0":3},"material":0}]},{"primitives":[{"mode":4,"attributes":{"POSITION":4,"NORMAL":5,"COLOR_0":6,"TEXCOORD_0":7},"material":1}]},{"primitives":[{"mode":4,"attributes":{"POSITION":8,"NORMAL":9,"COLOR_0":10,"TEXCOORD_0":11},"material":2}]}],"images":[{"uri":"turtle.png"}],"textures":[{"source":0}]}