{"asset":{"version":"2.0","generator":"GLTFExporter"},"scenes":[{"name":"AuxScene","nodes":[1]}],"scene":0,"nodes":[{"mesh":0},{"children":[0]}],"bufferViews":[{"buffer":0,"byteOffset":0,"byteLength":19008,"target":34962,"byteStride":12},{"buffer":0,"byteOffset":19008,"byteLength":19008,"target":34962,"byteStride":12},{"buffer":0,"byteOffset":38016,"byteLength":19008,"target":34962,"byteStride":12},{"buffer":0,"byteOffset":57024,"byteLength":12672,"target":34962,"byteStride":8}],"buffers":[{"byteLength":69696,"uri":"data:application/octet-stream;base64,"}],"accessors":[{"bufferView":0,"componentType":5126,"count":1584,"max":[0.7549999952316284,2.950000047683716,0.7549999952316284],"min":[-0.7549999952316284,0,-0.7549999952316284],"type":"VEC3"},{"bufferView":1,"componentType":5126,"count":1584,"max":[0.9761844873428345,0.986992359161377,0.9761844873428345],"min":[-0.9761844873428345,-0.9861091375350952,-0.9761844873428345],"type":"VEC3"},{"bufferView":2,"componentType":5126,"count":1584,"max":[1,1,1],"min":[1,1,1],"type":"VEC3"},{"bufferView":3,"componentType":5126,"count":1584,"max":[0.9955999851226807,0.9940599799156189],"min":[0,0],"type":"VEC2"}],"materials":[{"pbrMetallicRoughness":{"baseColorFactor":[0.8,0.8,0.8,1],"metallicFactor":0,"roughnessFactor":1}}],"meshes":[{"primitives":[{"mode":4,"attributes":{"POSITION":0,"NORMAL":1,"COLOR_0":2,"TEXCOORD_0":3},"material":0}]}]}