{"asset":{"version":"2.0","generator":"GLTFExporter"},"scenes":[{"name":"AuxScene","nodes":[1]}],"scene":0,"nodes":[{"mesh":0},{"children":[0]}],"bufferViews":[{"buffer":0,"byteOffset":0,"byteLength":17028,"target":34962,"byteStride":12},{"buffer":0,"byteOffset":17028,"byteLength":17028,"target":34962,"byteStride":12},{"buffer":0,"byteOffset":34056,"byteLength":17028,"target":34962,"byteStride":12},{"buffer":0,"byteOffset":51084,"byteLength":11352,"target":34962,"byteStride":8}],"buffers":[{"byteLength":62436,"uri":"data:application/octet-stream;base64,"}],"accessors":[{"bufferView":0,"componentType":5126,"count":1419,"max":[0.6681550145149231,2.799999952316284,0.6681550145149231],"min":[-0.6681550145149231,-2.9669600110082683e-8,-0.6681550145149231],"type":"VEC3"},{"bufferView":1,"componentType":5126,"count":1419,"max":[0.9820815920829773,0.9809010028839111,0.991227924823761],"min":[-0.9820815920829773,-1,-0.991227924823761],"type":"VEC3"},{"bufferView":2,"componentType":5126,"count":1419,"max":[1,1,1],"min":[1,1,1],"type":"VEC3"},{"bufferView":3,"componentType":5126,"count":1419,"max":[1,0.9664989709854126],"min":[0,0],"type":"VEC2"}],"materials":[{"pbrMetallicRoughness":{"baseColorFactor":[0.8,0.8,0.8,1],"metallicFactor":0,"roughnessFactor":1}}],"meshes":[{"primitives":[{"mode":4,"attributes":{"POSITION":0,"NORMAL":1,"COLOR_0":2,"TEXCOORD_0":3},"material":0}]}]}