{"asset":{"version":"2.0","generator":"GLTFExporter"},"scenes":[{"name":"AuxScene","nodes":[1]}],"scene":0,"nodes":[{"mesh":0},{"children":[0]}],"bufferViews":[{"buffer":0,"byteOffset":0,"byteLength":23616,"target":34962,"byteStride":12},{"buffer":0,"byteOffset":23616,"byteLength":23616,"target":34962,"byteStride":12},{"buffer":0,"byteOffset":47232,"byteLength":23616,"target":34962,"byteStride":12},{"buffer":0,"byteOffset":70848,"byteLength":15744,"target":34962,"byteStride":8}],"buffers":[{"byteLength":86592,"uri":"data:application/octet-stream;base64,"}],"accessors":[{"bufferView":0,"componentType":5126,"count":1968,"max":[0.6679999828338623,2.6730000972747803,0.6679999828338623],"min":[-0.6679999828338623,0,-0.6679999828338623],"type":"VEC3"},{"bufferView":1,"componentType":5126,"count":1968,"max":[1,0.907616913318634,0.9805806875228882],"min":[-0.9805806875228882,-1,-0.9805806875228882],"type":"VEC3"},{"bufferView":2,"componentType":5126,"count":1968,"max":[1,1,1],"min":[1,1,1],"type":"VEC3"},{"bufferView":3,"componentType":5126,"count":1968,"max":[0.9955999851226807,0.9940599799156189],"min":[0,0],"type":"VEC2"}],"materials":[{"pbrMetallicRoughness":{"baseColorFactor":[0.8,0.8,0.8,1],"metallicFactor":0,"roughnessFactor":1}}],"meshes":[{"primitives":[{"mode":4,"attributes":{"POSITION":0,"NORMAL":1,"COLOR_0":2,"TEXCOORD_0":3},"material":0}]}]}