{"asset":{"version":"2.0","generator":"GLTFExporter"},"scenes":[{"name":"AuxScene","nodes":[1]}],"scene":0,"nodes":[{"mesh":0},{"children":[0]}],"bufferViews":[{"buffer":0,"byteOffset":0,"byteLength":23904,"target":34962,"byteStride":12},{"buffer":0,"byteOffset":23904,"byteLength":23904,"target":34962,"byteStride":12},{"buffer":0,"byteOffset":47808,"byteLength":23904,"target":34962,"byteStride":12},{"buffer":0,"byteOffset":71712,"byteLength":15936,"target":34962,"byteStride":8}],"buffers":[{"byteLength":87648,"uri":"data:application/octet-stream;base64,"}],"accessors":[{"bufferView":0,"componentType":5126,"count":1992,"max":[0.7691429853439331,2.5344200134277344,0.7691419720649719],"min":[-0.7691429853439331,0.013318999670445919,-0.7691429853439331],"type":"VEC3"},{"bufferView":1,"componentType":5126,"count":1992,"max":[1,1,1],"min":[-1,-1,-0.9997950196266174],"type":"VEC3"},{"bufferView":2,"componentType":5126,"count":1992,"max":[1,1,1],"min":[1,1,1],"type":"VEC3"},{"bufferView":3,"componentType":5126,"count":1992,"max":[0.9919220209121704,0.9918190240859985],"min":[0.011003999970853329,0.003777999896556139],"type":"VEC2"}],"materials":[{"pbrMetallicRoughness":{"baseColorFactor":[0.8,0.8,0.8,1],"metallicFactor":0,"roughnessFactor":1}}],"meshes":[{"primitives":[{"mode":4,"attributes":{"POSITION":0,"NORMAL":1,"COLOR_0":2,"TEXCOORD_0":3},"material":0}]}]}