{"asset":{"version":"2.0","generator":"GLTFExporter"},"scenes":[{"name":"AuxScene","nodes":[1]}],"scene":0,"nodes":[{"mesh":0},{"children":[0]}],"bufferViews":[{"buffer":0,"byteOffset":0,"byteLength":22320,"target":34962,"byteStride":12},{"buffer":0,"byteOffset":22320,"byteLength":22320,"target":34962,"byteStride":12},{"buffer":0,"byteOffset":44640,"byteLength":22320,"target":34962,"byteStride":12},{"buffer":0,"byteOffset":66960,"byteLength":14880,"target":34962,"byteStride":8}],"buffers":[{"byteLength":81840,"uri":"data:application/octet-stream;base64,"}],"accessors":[{"bufferView":0,"componentType":5126,"count":1860,"max":[0.5648049712181091,2.4275898933410645,0.5648049712181091],"min":[-0.5648049712181091,0.08299999684095383,-0.5648049712181091],"type":"VEC3"},{"bufferView":1,"componentType":5126,"count":1860,"max":[1,1,1],"min":[-1,-1,-1],"type":"VEC3"},{"bufferView":2,"componentType":5126,"count":1860,"max":[1,1,1],"min":[1,1,1],"type":"VEC3"},{"bufferView":3,"componentType":5126,"count":1860,"max":[1,0.961696982383728],"min":[0.0008410000009462237,0],"type":"VEC2"}],"materials":[{"pbrMetallicRoughness":{"baseColorFactor":[0.8,0.8,0.8,1],"metallicFactor":0,"roughnessFactor":1}}],"meshes":[{"primitives":[{"mode":4,"attributes":{"POSITION":0,"NORMAL":1,"COLOR_0":2,"TEXCOORD_0":3},"material":0}]}]}