{"asset":{"version":"2.0","generator":"GLTFExporter"},"scenes":[{"name":"AuxScene","nodes":[1]}],"scene":0,"nodes":[{"mesh":0},{"children":[0]}],"bufferViews":[{"buffer":0,"byteOffset":0,"byteLength":50472,"target":34962,"byteStride":12},{"buffer":0,"byteOffset":50472,"byteLength":50472,"target":34962,"byteStride":12},{"buffer":0,"byteOffset":100944,"byteLength":50472,"target":34962,"byteStride":12},{"buffer":0,"byteOffset":151416,"byteLength":33648,"target":34962,"byteStride":8}],"buffers":[{"byteLength":185064,"uri":"data:application/octet-stream;base64,"}],"accessors":[{"bufferView":0,"componentType":5126,"count":4206,"max":[0.8586549758911133,2.355870008468628,0.8914759755134583],"min":[-0.8586549758911133,-0.014065000228583813,-0.8586549758911133],"type":"VEC3"},{"bufferView":1,"componentType":5126,"count":4206,"max":[0.9998170137405396,0.9950860142707825,0.9984130263328552],"min":[-0.9998170137405396,-0.9999690055847168,-0.9970089793205261],"type":"VEC3"},{"bufferView":2,"componentType":5126,"count":4206,"max":[1,1,1],"min":[1,1,1],"type":"VEC3"},{"bufferView":3,"componentType":5126,"count":4206,"max":[0.9962040185928345,0.9942929744720459],"min":[0.003370000049471855,0.01233499962836504],"type":"VEC2"}],"materials":[{"pbrMetallicRoughness":{"baseColorFactor":[0.8,0.8,0.8,1],"metallicFactor":0,"roughnessFactor":1}}],"meshes":[{"primitives":[{"mode":4,"attributes":{"POSITION":0,"NORMAL":1,"COLOR_0":2,"TEXCOORD_0":3},"material":0}]}]}