{"asset":{"version":"2.0","generator":"GLTFExporter"},"scenes":[{"name":"AuxScene","nodes":[1]}],"scene":0,"nodes":[{"mesh":0},{"children":[0]}],"bufferViews":[{"buffer":0,"byteOffset":0,"byteLength":26352,"target":34962,"byteStride":12},{"buffer":0,"byteOffset":26352,"byteLength":26352,"target":34962,"byteStride":12},{"buffer":0,"byteOffset":52704,"byteLength":26352,"target":34962,"byteStride":12},{"buffer":0,"byteOffset":79056,"byteLength":17568,"target":34962,"byteStride":8}],"buffers":[{"byteLength":96624,"uri":"data:application/octet-stream;base64,"}],"accessors":[{"bufferView":0,"componentType":5126,"count":2196,"max":[1.100000023841858,3.6517701148986816,0.9265080094337463],"min":[-1.100000023841858,-0.0054006800055503845,-1.100000023841858],"type":"VEC3"},{"bufferView":1,"componentType":5126,"count":2196,"max":[0.9805001616477966,1,0.999687671661377],"min":[-0.9805008172988892,-1,-0.9805006980895996],"type":"VEC3"},{"bufferView":2,"componentType":5126,"count":2196,"max":[1,1,1],"min":[1,1,1],"type":"VEC3"},{"bufferView":3,"componentType":5126,"count":2196,"max":[1,0.9808599948883057],"min":[0,0],"type":"VEC2"}],"materials":[{"pbrMetallicRoughness":{"baseColorFactor":[0.8,0.8,0.8,1],"metallicFactor":0,"roughnessFactor":1}}],"meshes":[{"primitives":[{"mode":4,"attributes":{"POSITION":0,"NORMAL":1,"COLOR_0":2,"TEXCOORD_0":3},"material":0}]}]}