{"asset":{"version":"2.0","generator":"GLTFExporter"},"scenes":[{"name":"AuxScene","nodes":[1]}],"scene":0,"nodes":[{"mesh":0},{"children":[0]}],"bufferViews":[{"buffer":0,"byteOffset":0,"byteLength":20592,"target":34962,"byteStride":12},{"buffer":0,"byteOffset":20592,"byteLength":20592,"target":34962,"byteStride":12},{"buffer":0,"byteOffset":41184,"byteLength":20592,"target":34962,"byteStride":12},{"buffer":0,"byteOffset":61776,"byteLength":13728,"target":34962,"byteStride":8}],"buffers":[{"byteLength":75504,"uri":"data:application/octet-stream;base64,"}],"accessors":[{"bufferView":0,"componentType":5126,"count":1716,"max":[1.0070749521255493,3.5345325469970703,1.0070738792419434],"min":[-1.0070738792419434,-0.0058703045360744,-1.0070738792419434],"type":"VEC3"},{"bufferView":1,"componentType":5126,"count":1716,"max":[0.9803583025932312,1,0.9803583025932312],"min":[-0.980358362197876,-1,-0.9803582429885864],"type":"VEC3"},{"bufferView":2,"componentType":5126,"count":1716,"max":[1,1,1],"min":[1,1,1],"type":"VEC3"},{"bufferView":3,"componentType":5126,"count":1716,"max":[1,0.9808599948883057],"min":[0,0],"type":"VEC2"}],"materials":[{"pbrMetallicRoughness":{"baseColorFactor":[0.8,0.8,0.8,1],"metallicFactor":0,"roughnessFactor":1}}],"meshes":[{"primitives":[{"mode":4,"attributes":{"POSITION":0,"NORMAL":1,"COLOR_0":2,"TEXCOORD_0":3},"material":0}]}]}