{"asset":{"version":"2.0","generator":"GLTFExporter"},"scenes":[{"name":"AuxScene","nodes":[5]}],"scene":0,"nodes":[{"extras":{"mapFilename":null},"mesh":0},{"extras":{"mapFilename":null},"mesh":1},{"extras":{"mapFilename":null},"mesh":2},{"extras":{"mapFilename":null},"mesh":3},{"extras":{"mapFilename":null},"mesh":4},{"children":[0,1,2,3,4]}],"bufferViews":[{"buffer":0,"byteOffset":0,"byteLength":2160,"target":34962,"byteStride":12},{"buffer":0,"byteOffset":2160,"byteLength":2160,"target":34962,"byteStride":12},{"buffer":0,"byteOffset":4320,"byteLength":2160,"target":34962,"byteStride":12},{"buffer":0,"byteOffset":6480,"byteLength":1440,"target":34962,"byteStride":8},{"buffer":0,"byteOffset":7920,"byteLength":72,"target":34962,"byteStride":12},{"buffer":0,"byteOffset":7992,"byteLength":72,"target":34962,"byteStride":12},{"buffer":0,"byteOffset":8064,"byteLength":72,"target":34962,"byteStride":12},{"buffer":0,"byteOffset":8136,"byteLength":48,"target":34962,"byteStride":8},{"buffer":0,"byteOffset":8184,"byteLength":7128,"target":34962,"byteStride":12},{"buffer":0,"byteOffset":15312,"byteLength":7128,"target":34962,"byteStride":12},{"buffer":0,"byteOffset":22440,"byteLength":7128,"target":34962,"byteStride":12},{"buffer":0,"byteOffset":29568,"byteLength":4752,"target":34962,"byteStride":8},{"buffer":0,"byteOffset":34320,"byteLength":3312,"target":34962,"byteStride":12},{"buffer":0,"byteOffset":37632,"byteLength":3312,"target":34962,"byteStride":12},{"buffer":0,"byteOffset":40944,"byteLength":3312,"target":34962,"byteStride":12},{"buffer":0,"byteOffset":44256,"byteLength":2208,"target":34962,"byteStride":8},{"buffer":0,"byteOffset":46464,"byteLength":3312,"target":34962,"byteStride":12},{"buffer":0,"byteOffset":49776,"byteLength":3312,"target":34962,"byteStride":12},{"buffer":0,"byteOffset":53088,"byteLength":3312,"target":34962,"byteStride":12},{"buffer":0,"byteOffset":56400,"byteLength":2208,"target":34962,"byteStride":8}],"buffers":[{"byteLength":58608,"uri":"data:application/octet-stream;base64,"}],"accessors":[{"bufferView":0,"componentType":5126,"count":180,"max":[1.0257099866867065,0.5393649935722351,1.0257099866867065],"min":[-1.0257099866867065,0.41715899109840393,-1.0257099866867065],"type":"VEC3"},{"bufferView":1,"componentType":5126,"count":180,"max":[0.9899290204048157,0.46855100989341736,0.9899290204048157],"min":[-0.9899290204048157,0.14148400723934174,-0.9899290204048157],"type":"VEC3"},{"bufferView":2,"componentType":5126,"count":180,"max":[1,1,1],"min":[1,1,1],"type":"VEC3"},{"bufferView":3,"componentType":5126,"count":180,"max":[0.9118880033493042,0.9466390013694763],"min":[0.026760999113321304,0.1421779990196228],"type":"VEC2"},{"bufferView":4,"componentType":5126,"count":6,"max":[-0.5343919992446899,0.5775520205497742,-0.680154025554657],"min":[-0.7071059942245483,0.5393649935722351,-0.8314700126647949],"type":"VEC3"},{"bufferView":5,"componentType":5126,"count":6,"max":[-0.22397500276565552,0.9151279926300049,-0.28507301211357117],"min":[-0.6246529817581177,0.46855100989341736,-0.7345190048217773],"type":"VEC3"},{"bufferView":6,"componentType":5126,"count":6,"max":[1,1,1],"min":[1,1,1],"type":"VEC3"},{"bufferView":7,"componentType":5126,"count":6,"max":[0.23280400037765503,0.9157350063323975],"min":[0.14644700288772583,0.8400769829750061],"type":"VEC2"},{"bufferView":8,"componentType":5126,"count":594,"max":[1.0355900526046753,0.5393649935722351,1.0355900526046753],"min":[-1.0355900526046753,-0.0016347799682989717,-1.0355900526046753],"type":"VEC3"},{"bufferView":9,"componentType":5126,"count":594,"max":[0.9999690055847168,0.46855100989341736,1],"min":[-0.9999690055847168,-0.907010018825531,-0.9999690055847168],"type":"VEC3"},{"bufferView":10,"componentType":5126,"count":594,"max":[1,1,1],"min":[1,1,1],"type":"VEC3"},{"bufferView":11,"componentType":5126,"count":594,"max":[0.9796299934387207,0.9434859752655029],"min":[0.041423000395298004,0.045680999755859375],"type":"VEC2"},{"bufferView":12,"componentType":5126,"count":276,"max":[1,0.5775520205497742,1],"min":[-1,0.5393649935722351,-1],"type":"VEC3"},{"bufferView":13,"componentType":5126,"count":276,"max":[0.8834189772605896,0.9151279926300049,0.8834189772605896],"min":[-0.8834189772605896,0.46855100989341736,-0.8834189772605896],"type":"VEC3"},{"bufferView":14,"componentType":5126,"count":276,"max":[1,1,1],"min":[1,1,1],"type":"VEC3"},{"bufferView":15,"componentType":5126,"count":276,"max":[1,1],"min":[0,0],"type":"VEC2"},{"bufferView":16,"componentType":5126,"count":276,"max":[1,0.04130759835243225,1],"min":[-1,-0.0016347799682989717,-1],"type":"VEC3"},{"bufferView":17,"componentType":5126,"count":276,"max":[0.8917509913444519,-0.4524979889392853,0.8917509913444519],"min":[-0.8917509913444519,-0.907010018825531,-0.8917509913444519],"type":"VEC3"},{"bufferView":18,"componentType":5126,"count":276,"max":[1,1,1],"min":[1,1,1],"type":"VEC3"},{"bufferView":19,"componentType":5126,"count":276,"max":[0.9796299934387207,0.8058159947395325],"min":[0.1309880018234253,0.045680999755859375],"type":"VEC2"}],"materials":[{"pbrMetallicRoughness":{"baseColorFactor":[0.6392156862745098,0.6392156862745098,0.6392156862745098,1],"metallicFactor":0,"roughnessFactor":1},"name":"pieceborders"},{"pbrMetallicRoughness":{"baseColorFactor":[0.6392156862745098,0.6392156862745098,0.6392156862745098,1],"metallicFactor":0,"roughnessFactor":1},"name":"piecetop"}],"meshes":[{"primitives":[{"mode":4,"attributes":{"POSITION":0,"NORMAL":1,"COLOR_0":2,"TEXCOORD_0":3},"material":0}]},{"primitives":[{"mode":4,"attributes":{"POSITION":4,"NORMAL":5,"COLOR_0":6,"TEXCOORD_0":7},"material":1}]},{"primitives":[{"mode":4,"attributes":{"POSITION":8,"NORMAL":9,"COLOR_0":10,"TEXCOORD_0":11},"material":0}]},{"primitives":[{"mode":4,"attributes":{"POSITION":12,"NORMAL":13,"COLOR_0":14,"TEXCOORD_0":15},"material":1}]},{"primitives":[{"mode":4,"attributes":{"POSITION":16,"NORMAL":17,"COLOR_0":18,"TEXCOORD_0":19},"material":0}]}]}