{"asset":{"version":"2.0","generator":"GLTFExporter"},"scenes":[{"name":"AuxScene","nodes":[1]}],"scene":0,"nodes":[{"mesh":0},{"children":[0]}],"bufferViews":[{"buffer":0,"byteOffset":0,"byteLength":41184,"target":34962,"byteStride":12},{"buffer":0,"byteOffset":41184,"byteLength":41184,"target":34962,"byteStride":12},{"buffer":0,"byteOffset":82368,"byteLength":41184,"target":34962,"byteStride":12},{"buffer":0,"byteOffset":123552,"byteLength":27456,"target":34962,"byteStride":8}],"buffers":[{"byteLength":151008,"uri":"data:application/octet-stream;base64,"}],"accessors":[{"bufferView":0,"componentType":5126,"count":3432,"max":[0.9084330201148987,2.4382998943328857,0.9084330201148987],"min":[-0.9084330201148987,0.011303800158202648,-0.9084320068359375],"type":"VEC3"},{"bufferView":1,"componentType":5126,"count":3432,"max":[1,1,1],"min":[-1,-1,-1],"type":"VEC3"},{"bufferView":2,"componentType":5126,"count":3432,"max":[1,1,1],"min":[1,1,1],"type":"VEC3"},{"bufferView":3,"componentType":5126,"count":3432,"max":[1,1],"min":[0,-0.0023109999019652605],"type":"VEC2"}],"materials":[{"pbrMetallicRoughness":{"baseColorFactor":[0.8,0.8,0.8,1],"metallicFactor":0,"roughnessFactor":1}}],"meshes":[{"primitives":[{"mode":4,"attributes":{"POSITION":0,"NORMAL":1,"COLOR_0":2,"TEXCOORD_0":3},"material":0}]}]}