{"asset":{"version":"2.0","generator":"GLTFExporter"},"scenes":[{"name":"AuxScene","nodes":[1]}],"scene":0,"nodes":[{"mesh":0},{"children":[0]}],"bufferViews":[{"buffer":0,"byteOffset":0,"byteLength":46512,"target":34962,"byteStride":12},{"buffer":0,"byteOffset":46512,"byteLength":46512,"target":34962,"byteStride":12},{"buffer":0,"byteOffset":93024,"byteLength":46512,"target":34962,"byteStride":12},{"buffer":0,"byteOffset":139536,"byteLength":31008,"target":34962,"byteStride":8}],"buffers":[{"byteLength":170544,"uri":"data:application/octet-stream;base64,"}],"accessors":[{"bufferView":0,"componentType":5126,"count":3876,"max":[0.7685369849205017,2.1429600715637207,0.7685369849205017],"min":[-0.7685369849205017,0.009808000177145004,-0.7685369849205017],"type":"VEC3"},{"bufferView":1,"componentType":5126,"count":3876,"max":[0.9999690055847168,0.994841992855072,0.9999690055847168],"min":[-0.9999690055847168,-0.7580490112304688,-0.9999690055847168],"type":"VEC3"},{"bufferView":2,"componentType":5126,"count":3876,"max":[1,1,1],"min":[1,1,1],"type":"VEC3"},{"bufferView":3,"componentType":5126,"count":3876,"max":[1.001710057258606,0.9957129955291748],"min":[0.003911000210791826,0.001151000033132732],"type":"VEC2"}],"materials":[{"pbrMetallicRoughness":{"baseColorFactor":[0.8,0.8,0.8,1],"metallicFactor":0,"roughnessFactor":1}}],"meshes":[{"primitives":[{"mode":4,"attributes":{"POSITION":0,"NORMAL":1,"COLOR_0":2,"TEXCOORD_0":3},"material":0}]}]}