{"asset":{"version":"2.0","generator":"GLTFExporter"},"scenes":[{"name":"AuxScene","nodes":[1]}],"scene":0,"nodes":[{"mesh":0},{"children":[0]}],"bufferViews":[{"buffer":0,"byteOffset":0,"byteLength":28224,"target":34962,"byteStride":12},{"buffer":0,"byteOffset":28224,"byteLength":28224,"target":34962,"byteStride":12},{"buffer":0,"byteOffset":56448,"byteLength":28224,"target":34962,"byteStride":12},{"buffer":0,"byteOffset":84672,"byteLength":18816,"target":34962,"byteStride":8}],"buffers":[{"byteLength":103488,"uri":"data:application/octet-stream;base64,"}],"accessors":[{"bufferView":0,"componentType":5126,"count":2352,"max":[0.6863636374473572,2.7409090995788574,0.6863636374473572],"min":[-0.6863636374473572,0,-0.6863636374473572],"type":"VEC3"},{"bufferView":1,"componentType":5126,"count":2352,"max":[1,1,0.9987523555755615],"min":[-0.9870448112487793,-0.969200611114502,-0.9807776808738708],"type":"VEC3"},{"bufferView":2,"componentType":5126,"count":2352,"max":[1,1,1],"min":[1,1,1],"type":"VEC3"},{"bufferView":3,"componentType":5126,"count":2352,"max":[0.9955999851226807,0.9940599799156189],"min":[0,0],"type":"VEC2"}],"materials":[{"pbrMetallicRoughness":{"baseColorFactor":[0.8,0.8,0.8,1],"metallicFactor":0,"roughnessFactor":1}}],"meshes":[{"primitives":[{"mode":4,"attributes":{"POSITION":0,"NORMAL":1,"COLOR_0":2,"TEXCOORD_0":3},"material":0}]}]}