{"asset":{"version":"2.0","generator":"GLTFExporter"},"scenes":[{"name":"AuxScene","nodes":[1]}],"scene":0,"nodes":[{"mesh":0},{"children":[0]}],"bufferViews":[{"buffer":0,"byteOffset":0,"byteLength":36864,"target":34962,"byteStride":12},{"buffer":0,"byteOffset":36864,"byteLength":36864,"target":34962,"byteStride":12},{"buffer":0,"byteOffset":73728,"byteLength":36864,"target":34962,"byteStride":12},{"buffer":0,"byteOffset":110592,"byteLength":24576,"target":34962,"byteStride":8}],"buffers":[{"byteLength":135168,"uri":"data:application/octet-stream;base64,"}],"accessors":[{"bufferView":0,"componentType":5126,"count":3072,"max":[1.1080000400543213,2.7809998989105225,0.7549999952316284],"min":[-1.1080000400543213,0,-0.7549999952316284],"type":"VEC3"},{"bufferView":1,"componentType":5126,"count":3072,"max":[1,1,1],"min":[-0.9818833470344543,-0.9834462404251099,-1],"type":"VEC3"},{"bufferView":2,"componentType":5126,"count":3072,"max":[1,1,1],"min":[1,1,1],"type":"VEC3"},{"bufferView":3,"componentType":5126,"count":3072,"max":[0.8125,0.8125],"min":[0,0],"type":"VEC2"}],"materials":[{"pbrMetallicRoughness":{"baseColorFactor":[0.8,0.8,0.8,1],"metallicFactor":0,"roughnessFactor":1}}],"meshes":[{"primitives":[{"mode":4,"attributes":{"POSITION":0,"NORMAL":1,"COLOR_0":2,"TEXCOORD_0":3},"material":0}]}]}