{"asset":{"version":"2.0","generator":"GLTFExporter"},"scenes":[{"name":"AuxScene","nodes":[1]}],"scene":0,"nodes":[{"mesh":0},{"children":[0]}],"bufferViews":[{"buffer":0,"byteOffset":0,"byteLength":26496,"target":34962,"byteStride":12},{"buffer":0,"byteOffset":26496,"byteLength":26496,"target":34962,"byteStride":12},{"buffer":0,"byteOffset":52992,"byteLength":26496,"target":34962,"byteStride":12},{"buffer":0,"byteOffset":79488,"byteLength":17664,"target":34962,"byteStride":8}],"buffers":[{"byteLength":97152,"uri":"data:application/octet-stream;base64,"}],"accessors":[{"bufferView":0,"componentType":5126,"count":2208,"max":[0.7549999952316284,3.0999999046325684,0.8299999833106995],"min":[-0.7549999952316284,0,-0.9879999756813049],"type":"VEC3"},{"bufferView":1,"componentType":5126,"count":2208,"max":[1,1,0.9985681176185608],"min":[-0.9810501933097839,-0.98920077085495,-0.9882152676582336],"type":"VEC3"},{"bufferView":2,"componentType":5126,"count":2208,"max":[1,1,1],"min":[1,1,1],"type":"VEC3"},{"bufferView":3,"componentType":5126,"count":2208,"max":[0.8125,0.8105469942092896],"min":[0,0],"type":"VEC2"}],"materials":[{"pbrMetallicRoughness":{"baseColorFactor":[0.8,0.8,0.8,1],"metallicFactor":0,"roughnessFactor":1}}],"meshes":[{"primitives":[{"mode":4,"attributes":{"POSITION":0,"NORMAL":1,"COLOR_0":2,"TEXCOORD_0":3},"material":0}]}]}