{"asset":{"version":"2.0","generator":"GLTFExporter"},"scenes":[{"name":"AuxScene","nodes":[1]}],"scene":0,"nodes":[{"mesh":0},{"children":[0]}],"bufferViews":[{"buffer":0,"byteOffset":0,"byteLength":55296,"target":34962,"byteStride":12},{"buffer":0,"byteOffset":55296,"byteLength":55296,"target":34962,"byteStride":12},{"buffer":0,"byteOffset":110592,"byteLength":55296,"target":34962,"byteStride":12},{"buffer":0,"byteOffset":165888,"byteLength":36864,"target":34962,"byteStride":8}],"buffers":[{"byteLength":202752,"uri":"data:application/octet-stream;base64,"}],"accessors":[{"bufferView":0,"componentType":5126,"count":4608,"max":[0.7607349753379822,2.9302399158477783,0.7452489733695984],"min":[-0.7616130113601685,0.021662700921297073,-0.7762479782104492],"type":"VEC3"},{"bufferView":1,"componentType":5126,"count":4608,"max":[0.9999390244483948,0.9999390244483948,0.9999390244483948],"min":[-0.9999390244483948,-0.9999690055847168,-0.9999390244483948],"type":"VEC3"},{"bufferView":2,"componentType":5126,"count":4608,"max":[1,1,1],"min":[1,1,1],"type":"VEC3"},{"bufferView":3,"componentType":5126,"count":4608,"max":[0.9940699934959412,0.9861400127410889],"min":[0.011526600457727909,0.0026330200489610434],"type":"VEC2"}],"materials":[{"pbrMetallicRoughness":{"baseColorFactor":[0.8,0.8,0.8,1],"metallicFactor":0,"roughnessFactor":1}}],"meshes":[{"primitives":[{"mode":4,"attributes":{"POSITION":0,"NORMAL":1,"COLOR_0":2,"TEXCOORD_0":3},"material":0}]}]}