{"asset":{"version":"2.0","generator":"GLTFExporter"},"scenes":[{"name":"AuxScene","nodes":[1]}],"scene":0,"nodes":[{"mesh":0},{"children":[0]}],"bufferViews":[{"buffer":0,"byteOffset":0,"byteLength":17208,"target":34962,"byteStride":12},{"buffer":0,"byteOffset":17208,"byteLength":17208,"target":34962,"byteStride":12},{"buffer":0,"byteOffset":34416,"byteLength":17208,"target":34962,"byteStride":12},{"buffer":0,"byteOffset":51624,"byteLength":11472,"target":34962,"byteStride":8}],"buffers":[{"byteLength":63096,"uri":"data:application/octet-stream;base64,"}],"accessors":[{"bufferView":0,"componentType":5126,"count":1434,"max":[0.9052330255508423,2.6266000270843506,0.9052330255508423],"min":[-0.9052330255508423,0.013472599908709526,-0.9052330255508423],"type":"VEC3"},{"bufferView":1,"componentType":5126,"count":1434,"max":[0.983119785785675,0.9981898665428162,0.9997404217720032],"min":[-0.9821009039878845,-1,-0.9996526837348938],"type":"VEC3"},{"bufferView":2,"componentType":5126,"count":1434,"max":[1,1,1],"min":[1,1,1],"type":"VEC3"},{"bufferView":3,"componentType":5126,"count":1434,"max":[0.9878559708595276,0.9902909994125366],"min":[0.0006079999729990959,0.0149940000846982],"type":"VEC2"}],"materials":[{"pbrMetallicRoughness":{"baseColorFactor":[0.8,0.8,0.8,1],"metallicFactor":0,"roughnessFactor":1}}],"meshes":[{"primitives":[{"mode":4,"attributes":{"POSITION":0,"NORMAL":1,"COLOR_0":2,"TEXCOORD_0":3},"material":0}]}]}