{"asset":{"version":"2.0","generator":"GLTFExporter"},"scenes":[{"name":"AuxScene","nodes":[1]}],"scene":0,"nodes":[{"mesh":0},{"children":[0]}],"bufferViews":[{"buffer":0,"byteOffset":0,"byteLength":26352,"target":34962,"byteStride":12},{"buffer":0,"byteOffset":26352,"byteLength":26352,"target":34962,"byteStride":12},{"buffer":0,"byteOffset":52704,"byteLength":26352,"target":34962,"byteStride":12},{"buffer":0,"byteOffset":79056,"byteLength":17568,"target":34962,"byteStride":8}],"buffers":[{"byteLength":96624,"uri":"data:application/octet-stream;base64,"}],"accessors":[{"bufferView":0,"componentType":5126,"count":2196,"max":[0.5997059941291809,2.603369951248169,0.5997059941291809],"min":[-0.5997059941291809,0.0018785200081765652,-0.5997059941291809],"type":"VEC3"},{"bufferView":1,"componentType":5126,"count":2196,"max":[0.9806698560714722,1,0.9806698560714722],"min":[-0.9806700348854065,-1,-0.9806698560714722],"type":"VEC3"},{"bufferView":2,"componentType":5126,"count":2196,"max":[1,1,1],"min":[1,1,1],"type":"VEC3"},{"bufferView":3,"componentType":5126,"count":2196,"max":[0.9740930199623108,0.9998999834060669],"min":[-0.0015820000553503633,0.02333799935877323],"type":"VEC2"}],"materials":[{"pbrMetallicRoughness":{"baseColorFactor":[0.8,0.8,0.8,1],"metallicFactor":0,"roughnessFactor":1}}],"meshes":[{"primitives":[{"mode":4,"attributes":{"POSITION":0,"NORMAL":1,"COLOR_0":2,"TEXCOORD_0":3},"material":0}]}]}