{"asset":{"version":"2.0","generator":"GLTFExporter"},"scenes":[{"name":"AuxScene","nodes":[1]}],"scene":0,"nodes":[{"mesh":0},{"children":[0]}],"bufferViews":[{"buffer":0,"byteOffset":0,"byteLength":46800,"target":34962,"byteStride":12},{"buffer":0,"byteOffset":46800,"byteLength":46800,"target":34962,"byteStride":12},{"buffer":0,"byteOffset":93600,"byteLength":46800,"target":34962,"byteStride":12},{"buffer":0,"byteOffset":140400,"byteLength":31200,"target":34962,"byteStride":8}],"buffers":[{"byteLength":171600,"uri":"data:application/octet-stream;base64,"}],"accessors":[{"bufferView":0,"componentType":5126,"count":3900,"max":[0.8451169729232788,3.5530500411987305,0.9408270120620728],"min":[-0.8451169729232788,0.001386999967508018,-0.9340699911117554],"type":"VEC3"},{"bufferView":1,"componentType":5126,"count":3900,"max":[0.9995120167732239,0.8816189765930176,0.9997249841690063],"min":[-0.9995120167732239,-0.8946200013160706,-0.9984740018844604],"type":"VEC3"},{"bufferView":2,"componentType":5126,"count":3900,"max":[1,1,1],"min":[1,1,1],"type":"VEC3"},{"bufferView":3,"componentType":5126,"count":3900,"max":[1.0020500421524048,1.0000100135803223],"min":[0,0],"type":"VEC2"}],"materials":[{"pbrMetallicRoughness":{"baseColorFactor":[0.8,0.8,0.8,1],"metallicFactor":0,"roughnessFactor":1}}],"meshes":[{"primitives":[{"mode":4,"attributes":{"POSITION":0,"NORMAL":1,"COLOR_0":2,"TEXCOORD_0":3},"material":0}]}]}