{"asset":{"version":"2.0","generator":"GLTFExporter"},"scenes":[{"name":"AuxScene","nodes":[1]}],"scene":0,"nodes":[{"mesh":0},{"children":[0]}],"bufferViews":[{"buffer":0,"byteOffset":0,"byteLength":29952,"target":34962,"byteStride":12},{"buffer":0,"byteOffset":29952,"byteLength":29952,"target":34962,"byteStride":12},{"buffer":0,"byteOffset":59904,"byteLength":29952,"target":34962,"byteStride":12},{"buffer":0,"byteOffset":89856,"byteLength":19968,"target":34962,"byteStride":8}],"buffers":[{"byteLength":109824,"uri":"data:application/octet-stream;base64,"}],"accessors":[{"bufferView":0,"componentType":5126,"count":2496,"max":[0.7549999952316284,2.9070000648498535,1.0190000534057617],"min":[-0.7549999952316284,0,-1.0049999952316284],"type":"VEC3"},{"bufferView":1,"componentType":5126,"count":2496,"max":[1,0.9996735453605652,0.9965709447860718],"min":[-0.9896448850631714,-0.9988006949424744,-0.9996079206466675],"type":"VEC3"},{"bufferView":2,"componentType":5126,"count":2496,"max":[1,1,1],"min":[1,1,1],"type":"VEC3"},{"bufferView":3,"componentType":5126,"count":2496,"max":[0.8125,0.8105469942092896],"min":[0,0],"type":"VEC2"}],"materials":[{"pbrMetallicRoughness":{"baseColorFactor":[0.8,0.8,0.8,1],"metallicFactor":0,"roughnessFactor":1}}],"meshes":[{"primitives":[{"mode":4,"attributes":{"POSITION":0,"NORMAL":1,"COLOR_0":2,"TEXCOORD_0":3},"material":0}]}]}