{"asset":{"version":"2.0","generator":"GLTFExporter"},"scenes":[{"name":"AuxScene","nodes":[3]}],"scene":0,"nodes":[{"extras":{"mapFilename":null},"mesh":0},{"extras":{"mapFilename":null},"mesh":1},{"extras":{"mapFilename":null},"mesh":2},{"children":[0,1,2]}],"bufferViews":[{"buffer":0,"byteOffset":0,"byteLength":216,"target":34962,"byteStride":12},{"buffer":0,"byteOffset":216,"byteLength":216,"target":34962,"byteStride":12},{"buffer":0,"byteOffset":432,"byteLength":216,"target":34962,"byteStride":12},{"buffer":0,"byteOffset":648,"byteLength":144,"target":34962,"byteStride":8},{"buffer":0,"byteOffset":792,"byteLength":72,"target":34962,"byteStride":12},{"buffer":0,"byteOffset":864,"byteLength":72,"target":34962,"byteStride":12},{"buffer":0,"byteOffset":936,"byteLength":72,"target":34962,"byteStride":12},{"buffer":0,"byteOffset":1008,"byteLength":48,"target":34962,"byteStride":8},{"buffer":0,"byteOffset":1056,"byteLength":1296,"target":34962,"byteStride":12},{"buffer":0,"byteOffset":2352,"byteLength":1296,"target":34962,"byteStride":12},{"buffer":0,"byteOffset":3648,"byteLength":1296,"target":34962,"byteStride":12},{"buffer":0,"byteOffset":4944,"byteLength":864,"target":34962,"byteStride":8}],"buffers":[{"byteLength":5808,"uri":"data:application/octet-stream;base64,"}],"accessors":[{"bufferView":0,"componentType":5126,"count":18,"max":[4.872200012207031,-0.05791980028152466,5],"min":[-5,-0.4476960003376007,-5],"type":"VEC3"},{"bufferView":1,"componentType":5126,"count":18,"max":[0.33887800574302673,0.431196004152298,0.868861973285675],"min":[-0.868861973285675,-0.3607900142669678,-0.868861973285675],"type":"VEC3"},{"bufferView":2,"componentType":5126,"count":18,"max":[1,1,1],"min":[1,1,1],"type":"VEC3"},{"bufferView":3,"componentType":5126,"count":18,"max":[0,0],"min":[0,0],"type":"VEC2"},{"bufferView":4,"componentType":5126,"count":6,"max":[4.902900218963623,-0.0016334699466824532,4.902900218963623],"min":[-4.902900218963623,-0.0016338999848812819,-4.902900218963623],"type":"VEC3"},{"bufferView":5,"componentType":5126,"count":6,"max":[0.2961519956588745,0.9080479741096497,0.2961519956588745],"min":[-0.2961519956588745,0.9080479741096497,-0.2961519956588745],"type":"VEC3"},{"bufferView":6,"componentType":5126,"count":6,"max":[1,1,1],"min":[1,1,1],"type":"VEC3"},{"bufferView":7,"componentType":5126,"count":6,"max":[0.9998999834060669,0.9998999834060669],"min":[0.00009999999747378752,0.00009999999747378752],"type":"VEC2"},{"bufferView":8,"componentType":5126,"count":108,"max":[5,-0.0016334699466824532,5],"min":[-5,-0.5638790130615234,-5],"type":"VEC3"},{"bufferView":9,"componentType":5126,"count":108,"max":[0.868861973285675,0.9080479741096497,0.868861973285675],"min":[-0.868861973285675,-0.8882719874382019,-0.868861973285675],"type":"VEC3"},{"bufferView":10,"componentType":5126,"count":108,"max":[1,1,1],"min":[1,1,1],"type":"VEC3"},{"bufferView":11,"componentType":5126,"count":108,"max":[0,0],"min":[0,0],"type":"VEC2"}],"materials":[{"pbrMetallicRoughness":{"baseColorFactor":[0.6392156862745098,0.6392156862745098,0.6392156862745098,1],"metallicFactor":0,"roughnessFactor":1},"name":"mat.board"},{"pbrMetallicRoughness":{"baseColorFactor":[0.6941176470588235,0.6941176470588235,0.6941176470588235,1],"metallicFactor":0,"roughnessFactor":1},"name":"mat.board.top"}],"meshes":[{"primitives":[{"mode":4,"attributes":{"POSITION":0,"NORMAL":1,"COLOR_0":2,"TEXCOORD_0":3},"material":0}]},{"primitives":[{"mode":4,"attributes":{"POSITION":4,"NORMAL":5,"COLOR_0":6,"TEXCOORD_0":7},"material":1}]},{"primitives":[{"mode":4,"attributes":{"POSITION":8,"NORMAL":9,"COLOR_0":10,"TEXCOORD_0":11},"material":0}]}]}