{"asset":{"version":"2.0","generator":"GLTFExporter"},"scenes":[{"name":"AuxScene","nodes":[2]}],"scene":0,"nodes":[{"extras":{"mapFilename":null},"mesh":0},{"extras":{"mapFilename":null},"mesh":1},{"children":[0,1]}],"bufferViews":[{"buffer":0,"byteOffset":0,"byteLength":9792,"target":34962,"byteStride":12},{"buffer":0,"byteOffset":9792,"byteLength":9792,"target":34962,"byteStride":12},{"buffer":0,"byteOffset":19584,"byteLength":9792,"target":34962,"byteStride":12},{"buffer":0,"byteOffset":29376,"byteLength":432,"target":34962,"byteStride":12},{"buffer":0,"byteOffset":29808,"byteLength":432,"target":34962,"byteStride":12},{"buffer":0,"byteOffset":30240,"byteLength":432,"target":34962,"byteStride":12}],"buffers":[{"byteLength":30672,"uri":"data:application/octet-stream;base64,"}],"accessors":[{"bufferView":0,"componentType":5126,"count":816,"max":[0.7191179990768433,0.3441149890422821,0.7191179990768433],"min":[-0.7191179990768433,0.09229619801044464,-0.7191179990768433],"type":"VEC3"},{"bufferView":1,"componentType":5126,"count":816,"max":[0.9750360250473022,0.9868770241737366,0.9750360250473022],"min":[-0.9750360250473022,-0.9994509816169739,-0.9750360250473022],"type":"VEC3"},{"bufferView":2,"componentType":5126,"count":816,"max":[1,1,1],"min":[1,1,1],"type":"VEC3"},{"bufferView":3,"componentType":5126,"count":36,"max":[1,-0.04250510036945343,1],"min":[-1,-0.10605400055646896,-1],"type":"VEC3"},{"bufferView":4,"componentType":5126,"count":36,"max":[0.5773490071296692,0.5773490071296692,0.5773490071296692],"min":[-0.5773490071296692,-0.5773490071296692,-0.5773490071296692],"type":"VEC3"},{"bufferView":5,"componentType":5126,"count":36,"max":[1,1,1],"min":[1,1,1],"type":"VEC3"}],"materials":[{"pbrMetallicRoughness":{"baseColorFactor":[0.6392156862745098,0.6392156862745098,0.6392156862745098,1],"metallicFactor":0,"roughnessFactor":1},"name":"ring"},{"pbrMetallicRoughness":{"baseColorFactor":[0.6392156862745098,0.6392156862745098,0.6392156862745098,1],"metallicFactor":0,"roughnessFactor":1},"name":"square"}],"meshes":[{"primitives":[{"mode":4,"attributes":{"POSITION":0,"NORMAL":1,"COLOR_0":2},"material":0}]},{"primitives":[{"mode":4,"attributes":{"POSITION":3,"NORMAL":4,"COLOR_0":5},"material":1}]}]}