{"asset":{"version":"2.0","generator":"GLTFExporter"},"scenes":[{"name":"AuxScene","nodes":[1]}],"scene":0,"nodes":[{"mesh":0},{"children":[0]}],"bufferViews":[{"buffer":0,"byteOffset":0,"byteLength":21888,"target":34962,"byteStride":12},{"buffer":0,"byteOffset":21888,"byteLength":21888,"target":34962,"byteStride":12},{"buffer":0,"byteOffset":43776,"byteLength":21888,"target":34962,"byteStride":12},{"buffer":0,"byteOffset":65664,"byteLength":14592,"target":34962,"byteStride":8}],"buffers":[{"byteLength":80256,"uri":"data:application/octet-stream;base64,"}],"accessors":[{"bufferView":0,"componentType":5126,"count":1824,"max":[1.100000023841858,3.3380000591278076,0.7549999952316284],"min":[-1.100000023841858,0,-1.100000023841858],"type":"VEC3"},{"bufferView":1,"componentType":5126,"count":1824,"max":[1,1,0.999614417552948],"min":[-0.9684465527534485,-0.9606530666351318,-0.9684465527534485],"type":"VEC3"},{"bufferView":2,"componentType":5126,"count":1824,"max":[1,1,1],"min":[1,1,1],"type":"VEC3"},{"bufferView":3,"componentType":5126,"count":1824,"max":[0.8125,0.8125],"min":[0,0],"type":"VEC2"}],"materials":[{"pbrMetallicRoughness":{"baseColorFactor":[0.8,0.8,0.8,1],"metallicFactor":0,"roughnessFactor":1}}],"meshes":[{"primitives":[{"mode":4,"attributes":{"POSITION":0,"NORMAL":1,"COLOR_0":2,"TEXCOORD_0":3},"material":0}]}]}