{"asset":{"version":"2.0","generator":"GLTFExporter"},"scenes":[{"name":"AuxScene","nodes":[1]}],"scene":0,"nodes":[{"mesh":0},{"children":[0]}],"bufferViews":[{"buffer":0,"byteOffset":0,"byteLength":17352,"target":34962,"byteStride":12},{"buffer":0,"byteOffset":17352,"byteLength":17352,"target":34962,"byteStride":12},{"buffer":0,"byteOffset":34704,"byteLength":17352,"target":34962,"byteStride":12},{"buffer":0,"byteOffset":52056,"byteLength":11568,"target":34962,"byteStride":8}],"buffers":[{"byteLength":63624,"uri":"data:application/octet-stream;base64,"}],"accessors":[{"bufferView":0,"componentType":5126,"count":1446,"max":[0.7947368621826172,3.263157844543457,0.7947368621826172],"min":[-0.7947368621826172,0,-0.7947368621826172],"type":"VEC3"},{"bufferView":1,"componentType":5126,"count":1446,"max":[1,1,1],"min":[-1,-1,-1],"type":"VEC3"},{"bufferView":2,"componentType":5126,"count":1446,"max":[1,1,1],"min":[1,1,1],"type":"VEC3"},{"bufferView":3,"componentType":5126,"count":1446,"max":[0.8125,0.949999988079071],"min":[0,0],"type":"VEC2"}],"materials":[{"pbrMetallicRoughness":{"baseColorFactor":[0.8,0.8,0.8,1],"metallicFactor":0,"roughnessFactor":1}}],"meshes":[{"primitives":[{"mode":4,"attributes":{"POSITION":0,"NORMAL":1,"COLOR_0":2,"TEXCOORD_0":3},"material":0}]}]}