{"asset":{"version":"2.0","generator":"GLTFExporter"},"scenes":[{"name":"AuxScene","nodes":[1]}],"scene":0,"nodes":[{"mesh":0},{"children":[0]}],"bufferViews":[{"buffer":0,"byteOffset":0,"byteLength":39780,"target":34962,"byteStride":12},{"buffer":0,"byteOffset":39780,"byteLength":39780,"target":34962,"byteStride":12},{"buffer":0,"byteOffset":79560,"byteLength":39780,"target":34962,"byteStride":12},{"buffer":0,"byteOffset":119340,"byteLength":26520,"target":34962,"byteStride":8}],"buffers":[{"byteLength":145860,"uri":"data:application/octet-stream;base64,"}],"accessors":[{"bufferView":0,"componentType":5126,"count":3315,"max":[0.7790120244026184,3.094789981842041,0.9668020009994507],"min":[-0.7790120244026184,0.010758399963378906,-0.7790120244026184],"type":"VEC3"},{"bufferView":1,"componentType":5126,"count":3315,"max":[1,0.992758572101593,0.9999305605888367],"min":[-1,-1,-0.9925351738929749],"type":"VEC3"},{"bufferView":2,"componentType":5126,"count":3315,"max":[1,1,1],"min":[1,1,1],"type":"VEC3"},{"bufferView":3,"componentType":5126,"count":3315,"max":[1,0.9868249893188477],"min":[0,0],"type":"VEC2"}],"materials":[{"pbrMetallicRoughness":{"baseColorFactor":[0.8,0.8,0.8,1],"metallicFactor":0,"roughnessFactor":1}}],"meshes":[{"primitives":[{"mode":4,"attributes":{"POSITION":0,"NORMAL":1,"COLOR_0":2,"TEXCOORD_0":3},"material":0}]}]}