{"asset":{"version":"2.0","generator":"GLTFExporter"},"scenes":[{"name":"AuxScene","nodes":[4]}],"scene":0,"nodes":[{"extras":{"mapFilename":null},"mesh":0},{"extras":{"mapFilename":"wood.jpg"},"mesh":1},{"extras":{"mapFilename":null},"mesh":2},{"extras":{"mapFilename":"wood.jpg"},"mesh":3},{"children":[0,1,2,3]}],"bufferViews":[{"buffer":0,"byteOffset":0,"byteLength":216,"target":34962,"byteStride":12},{"buffer":0,"byteOffset":216,"byteLength":216,"target":34962,"byteStride":12},{"buffer":0,"byteOffset":432,"byteLength":216,"target":34962,"byteStride":12},{"buffer":0,"byteOffset":648,"byteLength":144,"target":34962,"byteStride":8},{"buffer":0,"byteOffset":792,"byteLength":432,"target":34962,"byteStride":12},{"buffer":0,"byteOffset":1224,"byteLength":432,"target":34962,"byteStride":12},{"buffer":0,"byteOffset":1656,"byteLength":432,"target":34962,"byteStride":12},{"buffer":0,"byteOffset":2088,"byteLength":288,"target":34962,"byteStride":8},{"buffer":0,"byteOffset":2376,"byteLength":1440,"target":34962,"byteStride":12},{"buffer":0,"byteOffset":3816,"byteLength":1440,"target":34962,"byteStride":12},{"buffer":0,"byteOffset":5256,"byteLength":1440,"target":34962,"byteStride":12},{"buffer":0,"byteOffset":6696,"byteLength":960,"target":34962,"byteStride":8},{"buffer":0,"byteOffset":7656,"byteLength":8136,"target":34962,"byteStride":12},{"buffer":0,"byteOffset":15792,"byteLength":8136,"target":34962,"byteStride":12},{"buffer":0,"byteOffset":23928,"byteLength":8136,"target":34962,"byteStride":12},{"buffer":0,"byteOffset":32064,"byteLength":5424,"target":34962,"byteStride":8}],"buffers":[{"byteLength":37488,"uri":"data:application/octet-stream;base64,"}],"accessors":[{"bufferView":0,"componentType":5126,"count":18,"max":[0.6160849928855896,0.25728699564933777,0.6786379814147949],"min":[-0.7746059894561768,0.25728699564933777,-0.7283599972724915],"type":"VEC3"},{"bufferView":1,"componentType":5126,"count":18,"max":[0.40849000215530396,0.9971920251846313,0.40330201387405396],"min":[-0.4065369963645935,0.8970609903335571,-0.4205150008201599],"type":"VEC3"},{"bufferView":2,"componentType":5126,"count":18,"max":[1,1,1],"min":[1,1,1],"type":"VEC3"},{"bufferView":3,"componentType":5126,"count":18,"max":[0.6553159952163696,0.9153329730033875],"min":[0.5212140083312988,0.1012910008430481],"type":"VEC2"},{"bufferView":4,"componentType":5126,"count":36,"max":[0.5976700186729431,0.25728699564933777,0.10329999774694443],"min":[-0.8207989931106567,0.002287050010636449,-0.7370110154151917],"type":"VEC3"},{"bufferView":5,"componentType":5126,"count":36,"max":[0.908719003200531,0.9592580199241638,-0.02877900004386902],"min":[-0.9254429936408997,-0.696677029132843,-0.8737750053405762],"type":"VEC3"},{"bufferView":6,"componentType":5126,"count":36,"max":[1,1,1],"min":[1,1,1],"type":"VEC3"},{"bufferView":7,"componentType":5126,"count":36,"max":[0.7252960205078125,0.8475520014762878],"min":[0.16592900454998016,0.4483500123023987],"type":"VEC2"},{"bufferView":8,"componentType":5126,"count":120,"max":[0.6160849928855896,0.25728699564933777,0.6786379814147949],"min":[-0.805683970451355,0.25728699564933777,-0.7313780188560486],"type":"VEC3"},{"bufferView":9,"componentType":5126,"count":120,"max":[0.40849000215530396,0.9971920251846313,0.9238560199737549],"min":[-0.41273200511932373,0.3826720118522644,-0.4173409938812256],"type":"VEC3"},{"bufferView":10,"componentType":5126,"count":120,"max":[1,1,1],"min":[1,1,1],"type":"VEC3"},{"bufferView":11,"componentType":5126,"count":120,"max":[0.6553159952163696,0.917078971862793],"min":[0.5182179808616638,0.1012910008430481],"type":"VEC2"},{"bufferView":12,"componentType":5126,"count":678,"max":[0.6310849785804749,0.25728699564933777,0.693638026714325],"min":[-0.8207989931106567,0.002287050010636449,-0.7466750144958496],"type":"VEC3"},{"bufferView":13,"componentType":5126,"count":678,"max":[0.9244970083236694,0.9971920251846313,0.9258710145950317],"min":[-0.9280369877815247,-0.707082986831665,-0.9285560250282288],"type":"VEC3"},{"bufferView":14,"componentType":5126,"count":678,"max":[1,1,1],"min":[1,1,1],"type":"VEC3"},{"bufferView":15,"componentType":5126,"count":678,"max":[0.8268020153045654,0.8733369708061218],"min":[0.16592900454998016,0.15318100154399872],"type":"VEC2"}],"materials":[{"pbrMetallicRoughness":{"baseColorFactor":[0.8,0.8,0.8,1],"metallicFactor":0,"roughnessFactor":1},"name":"face"},{"pbrMetallicRoughness":{"baseColorFactor":[0.6392156862745098,0.6392156862745098,0.6392156862745098,1],"metallicFactor":0,"roughnessFactor":1,"baseColorTexture":{"index":0}},"name":"wood"}],"meshes":[{"primitives":[{"mode":4,"attributes":{"POSITION":0,"NORMAL":1,"COLOR_0":2,"TEXCOORD_0":3},"material":0}]},{"primitives":[{"mode":4,"attributes":{"POSITION":4,"NORMAL":5,"COLOR_0":6,"TEXCOORD_0":7},"material":1}]},{"primitives":[{"mode":4,"attributes":{"POSITION":8,"NORMAL":9,"COLOR_0":10,"TEXCOORD_0":11},"material":0}]},{"primitives":[{"mode":4,"attributes":{"POSITION":12,"NORMAL":13,"COLOR_0":14,"TEXCOORD_0":15},"material":1}]}],"images":[{"uri":"wood.jpg"}],"textures":[{"source":0}]}