{"asset":{"version":"2.0","generator":"GLTFExporter"},"scenes":[{"name":"AuxScene","nodes":[4]}],"scene":0,"nodes":[{"extras":{"mapFilename":null},"mesh":0},{"extras":{"mapFilename":"wood.jpg"},"mesh":1},{"extras":{"mapFilename":null},"mesh":2},{"extras":{"mapFilename":"wood.jpg"},"mesh":3},{"children":[0,1,2,3]}],"bufferViews":[{"buffer":0,"byteOffset":0,"byteLength":36,"target":34962,"byteStride":12},{"buffer":0,"byteOffset":36,"byteLength":36,"target":34962,"byteStride":12},{"buffer":0,"byteOffset":72,"byteLength":36,"target":34962,"byteStride":12},{"buffer":0,"byteOffset":108,"byteLength":24,"target":34962,"byteStride":8},{"buffer":0,"byteOffset":132,"byteLength":648,"target":34962,"byteStride":12},{"buffer":0,"byteOffset":780,"byteLength":648,"target":34962,"byteStride":12},{"buffer":0,"byteOffset":1428,"byteLength":648,"target":34962,"byteStride":12},{"buffer":0,"byteOffset":2076,"byteLength":432,"target":34962,"byteStride":8},{"buffer":0,"byteOffset":2508,"byteLength":1764,"target":34962,"byteStride":12},{"buffer":0,"byteOffset":4272,"byteLength":1764,"target":34962,"byteStride":12},{"buffer":0,"byteOffset":6036,"byteLength":1764,"target":34962,"byteStride":12},{"buffer":0,"byteOffset":7800,"byteLength":1176,"target":34962,"byteStride":8},{"buffer":0,"byteOffset":8976,"byteLength":8640,"target":34962,"byteStride":12},{"buffer":0,"byteOffset":17616,"byteLength":8640,"target":34962,"byteStride":12},{"buffer":0,"byteOffset":26256,"byteLength":8640,"target":34962,"byteStride":12},{"buffer":0,"byteOffset":34896,"byteLength":5760,"target":34962,"byteStride":8}],"buffers":[{"byteLength":40656,"uri":"data:application/octet-stream;base64,"}],"accessors":[{"bufferView":0,"componentType":5126,"count":3,"max":[0.5589879751205444,0.27346399426460266,-0.3624759912490845],"min":[-0.5184199810028076,0.27346399426460266,-0.624002993106842],"type":"VEC3"},{"bufferView":1,"componentType":5126,"count":3,"max":[0.4073610007762909,0.9137849807739258,0.15671299397945404],"min":[-0.4073610007762909,0.8996859788894653,-0.05371300131082535],"type":"VEC3"},{"bufferView":2,"componentType":5126,"count":3,"max":[1,1,1],"min":[1,1,1],"type":"VEC3"},{"bufferView":3,"componentType":5126,"count":3,"max":[0.8066740036010742,0.8456609845161438],"min":[0.7020400166511536,0.6961899995803833],"type":"VEC2"},{"bufferView":4,"componentType":5126,"count":54,"max":[0.5740330219268799,0.27346399426460266,0.3082450032234192],"min":[-0.4940420091152191,0.0030076398979872465,-0.7228999733924866],"type":"VEC3"},{"bufferView":5,"componentType":5126,"count":54,"max":[0.9238560199737549,0.9833369851112366,0.6358839869499207],"min":[-0.8415480256080627,-0.7034209966659546,-0.9204080104827881],"type":"VEC3"},{"bufferView":6,"componentType":5126,"count":54,"max":[1,1,1],"min":[1,1,1],"type":"VEC3"},{"bufferView":7,"componentType":5126,"count":54,"max":[0.8036450147628784,0.9182109832763672],"min":[0.20923200249671936,0.3170680105686188],"type":"VEC2"},{"bufferView":8,"componentType":5126,"count":147,"max":[0.626865029335022,0.27346399426460266,0.6300569772720337],"min":[-0.5862979888916016,0.27346399426460266,-0.7078520059585571],"type":"VEC3"},{"bufferView":9,"componentType":5126,"count":147,"max":[0.40983301401138306,0.984404981136322,0.41102299094200134],"min":[-0.4103519916534424,0.8996859788894653,-0.41117599606513977],"type":"VEC3"},{"bufferView":10,"componentType":5126,"count":147,"max":[1,1,1],"min":[1,1,1],"type":"VEC3"},{"bufferView":11,"componentType":5126,"count":147,"max":[0.8132659792900085,0.8935819864273071],"min":[0.6954479813575745,0.12893100082874298],"type":"VEC2"},{"bufferView":12,"componentType":5126,"count":720,"max":[0.641910970211029,0.27346399426460266,0.6450570225715637],"min":[-0.6013399958610535,0.0030076398979872465,-0.7228999733924866],"type":"VEC3"},{"bufferView":13,"componentType":5126,"count":720,"max":[0.9238560199737549,0.984404981136322,0.9238870143890381],"min":[-0.9238560199737549,-0.707053005695343,-0.9238560199737549],"type":"VEC3"},{"bufferView":14,"componentType":5126,"count":720,"max":[1,1,1],"min":[1,1,1],"type":"VEC3"},{"bufferView":15,"componentType":5126,"count":720,"max":[0.8973230123519897,0.9182109832763672],"min":[0.13580000400543213,0.12071099877357483],"type":"VEC2"}],"materials":[{"pbrMetallicRoughness":{"baseColorFactor":[0.8,0.8,0.8,1],"metallicFactor":0,"roughnessFactor":1},"name":"face"},{"pbrMetallicRoughness":{"baseColorFactor":[0.6392156862745098,0.6392156862745098,0.6392156862745098,1],"metallicFactor":0,"roughnessFactor":1,"baseColorTexture":{"index":0}},"name":"wood"}],"meshes":[{"primitives":[{"mode":4,"attributes":{"POSITION":0,"NORMAL":1,"COLOR_0":2,"TEXCOORD_0":3},"material":0}]},{"primitives":[{"mode":4,"attributes":{"POSITION":4,"NORMAL":5,"COLOR_0":6,"TEXCOORD_0":7},"material":1}]},{"primitives":[{"mode":4,"attributes":{"POSITION":8,"NORMAL":9,"COLOR_0":10,"TEXCOORD_0":11},"material":0}]},{"primitives":[{"mode":4,"attributes":{"POSITION":12,"NORMAL":13,"COLOR_0":14,"TEXCOORD_0":15},"material":1}]}],"images":[{"uri":"wood.jpg"}],"textures":[{"source":0}]}