{"asset":{"version":"2.0","generator":"GLTFExporter"},"scenes":[{"name":"AuxScene","nodes":[4]}],"scene":0,"nodes":[{"extras":{"mapFilename":null},"mesh":0},{"extras":{"mapFilename":"wood.jpg"},"mesh":1},{"extras":{"mapFilename":null},"mesh":2},{"extras":{"mapFilename":"wood.jpg"},"mesh":3},{"children":[0,1,2,3]}],"bufferViews":[{"buffer":0,"byteOffset":0,"byteLength":72,"target":34962,"byteStride":12},{"buffer":0,"byteOffset":72,"byteLength":72,"target":34962,"byteStride":12},{"buffer":0,"byteOffset":144,"byteLength":72,"target":34962,"byteStride":12},{"buffer":0,"byteOffset":216,"byteLength":48,"target":34962,"byteStride":8},{"buffer":0,"byteOffset":264,"byteLength":288,"target":34962,"byteStride":12},{"buffer":0,"byteOffset":552,"byteLength":288,"target":34962,"byteStride":12},{"buffer":0,"byteOffset":840,"byteLength":288,"target":34962,"byteStride":12},{"buffer":0,"byteOffset":1128,"byteLength":192,"target":34962,"byteStride":8},{"buffer":0,"byteOffset":1320,"byteLength":1584,"target":34962,"byteStride":12},{"buffer":0,"byteOffset":2904,"byteLength":1584,"target":34962,"byteStride":12},{"buffer":0,"byteOffset":4488,"byteLength":1584,"target":34962,"byteStride":12},{"buffer":0,"byteOffset":6072,"byteLength":1056,"target":34962,"byteStride":8},{"buffer":0,"byteOffset":7128,"byteLength":8280,"target":34962,"byteStride":12},{"buffer":0,"byteOffset":15408,"byteLength":8280,"target":34962,"byteStride":12},{"buffer":0,"byteOffset":23688,"byteLength":8280,"target":34962,"byteStride":12},{"buffer":0,"byteOffset":31968,"byteLength":5520,"target":34962,"byteStride":8}],"buffers":[{"byteLength":37488,"uri":"data:application/octet-stream;base64,"}],"accessors":[{"bufferView":0,"componentType":5126,"count":6,"max":[0.5019500255584717,0.2562600076198578,0.651170015335083],"min":[-0.5172640085220337,0.2562600076198578,0.19845899939537048],"type":"VEC3"},{"bufferView":1,"componentType":5126,"count":6,"max":[0.3812370002269745,0.9181489944458008,0.41023001074790955],"min":[-0.3812370002269745,0.907010018825531,-0.1716970056295395],"type":"VEC3"},{"bufferView":2,"componentType":5126,"count":6,"max":[1,1,1],"min":[1,1,1],"type":"VEC3"},{"bufferView":3,"componentType":5126,"count":6,"max":[0.9731889963150024,0.37435999512672424],"min":[0.8700169920921326,0.09939999878406525],"type":"VEC2"},{"bufferView":4,"componentType":5126,"count":24,"max":[0.45738500356674194,0.2562600076198578,0.6661700010299683],"min":[-0.2415509968996048,0.0012602700153365731,-0.6702240109443665],"type":"VEC3"},{"bufferView":5,"componentType":5126,"count":24,"max":[0.8881800174713135,0.9120460152626038,0.9238560199737549],"min":[-0.7547529935836792,-0.707082986831665,-0.756401002407074],"type":"VEC3"},{"bufferView":6,"componentType":5126,"count":24,"max":[1,1,1],"min":[1,1,1],"type":"VEC3"},{"bufferView":7,"componentType":5126,"count":24,"max":[0.7858589887619019,0.806755006313324],"min":[0.589942991733551,0.5006300210952759],"type":"VEC2"},{"bufferView":8,"componentType":5126,"count":132,"max":[0.5342540144920349,0.2562600076198578,0.651170015335083],"min":[-0.5495679974555969,0.2562600076198578,-0.7064539790153503],"type":"VEC3"},{"bufferView":9,"componentType":5126,"count":132,"max":[0.4081850051879883,0.976652979850769,0.9238870143890381],"min":[-0.4081850051879883,0.3826409876346588,-0.40769699215888977],"type":"VEC3"},{"bufferView":10,"componentType":5126,"count":132,"max":[1,1,1],"min":[1,1,1],"type":"VEC3"},{"bufferView":11,"componentType":5126,"count":132,"max":[0.9764590263366699,0.9239709973335266],"min":[0.8667470216751099,0.09939999878406525],"type":"VEC2"},{"bufferView":12,"componentType":5126,"count":690,"max":[0.5493199825286865,0.2562600076198578,0.6661700010299683],"min":[-0.5646349787712097,0.001260260003618896,-0.721589982509613],"type":"VEC3"},{"bufferView":13,"componentType":5126,"count":690,"max":[0.9274269938468933,0.976652979850769,0.9238870143890381],"min":[-0.9273049831390381,-0.707082986831665,-0.9275799989700317],"type":"VEC3"},{"bufferView":14,"componentType":5126,"count":690,"max":[1,1,1],"min":[1,1,1],"type":"VEC3"},{"bufferView":15,"componentType":5126,"count":690,"max":[0.7858589887619019,0.8607950210571289],"min":[0.21600200235843658,0.16691499948501587],"type":"VEC2"}],"materials":[{"pbrMetallicRoughness":{"baseColorFactor":[0.8,0.8,0.8,1],"metallicFactor":0,"roughnessFactor":1},"name":"face"},{"pbrMetallicRoughness":{"baseColorFactor":[0.6392156862745098,0.6392156862745098,0.6392156862745098,1],"metallicFactor":0,"roughnessFactor":1,"baseColorTexture":{"index":0}},"name":"wood"}],"meshes":[{"primitives":[{"mode":4,"attributes":{"POSITION":0,"NORMAL":1,"COLOR_0":2,"TEXCOORD_0":3},"material":0}]},{"primitives":[{"mode":4,"attributes":{"POSITION":4,"NORMAL":5,"COLOR_0":6,"TEXCOORD_0":7},"material":1}]},{"primitives":[{"mode":4,"attributes":{"POSITION":8,"NORMAL":9,"COLOR_0":10,"TEXCOORD_0":11},"material":0}]},{"primitives":[{"mode":4,"attributes":{"POSITION":12,"NORMAL":13,"COLOR_0":14,"TEXCOORD_0":15},"material":1}]}],"images":[{"uri":"wood.jpg"}],"textures":[{"source":0}]}