{"asset":{"version":"2.0","generator":"GLTFExporter"},"scenes":[{"name":"AuxScene","nodes":[4]}],"scene":0,"nodes":[{"extras":{"mapFilename":null},"mesh":0},{"extras":{"mapFilename":"wood.jpg"},"mesh":1},{"extras":{"mapFilename":null},"mesh":2},{"extras":{"mapFilename":"wood.jpg"},"mesh":3},{"children":[0,1,2,3]}],"bufferViews":[{"buffer":0,"byteOffset":0,"byteLength":684,"target":34962,"byteStride":12},{"buffer":0,"byteOffset":684,"byteLength":684,"target":34962,"byteStride":12},{"buffer":0,"byteOffset":1368,"byteLength":684,"target":34962,"byteStride":12},{"buffer":0,"byteOffset":2052,"byteLength":456,"target":34962,"byteStride":8},{"buffer":0,"byteOffset":2508,"byteLength":3600,"target":34962,"byteStride":12},{"buffer":0,"byteOffset":6108,"byteLength":3600,"target":34962,"byteStride":12},{"buffer":0,"byteOffset":9708,"byteLength":3600,"target":34962,"byteStride":12},{"buffer":0,"byteOffset":13308,"byteLength":2400,"target":34962,"byteStride":8},{"buffer":0,"byteOffset":15708,"byteLength":1620,"target":34962,"byteStride":12},{"buffer":0,"byteOffset":17328,"byteLength":1620,"target":34962,"byteStride":12},{"buffer":0,"byteOffset":18948,"byteLength":1620,"target":34962,"byteStride":12},{"buffer":0,"byteOffset":20568,"byteLength":1080,"target":34962,"byteStride":8},{"buffer":0,"byteOffset":21648,"byteLength":8208,"target":34962,"byteStride":12},{"buffer":0,"byteOffset":29856,"byteLength":8208,"target":34962,"byteStride":12},{"buffer":0,"byteOffset":38064,"byteLength":8208,"target":34962,"byteStride":12},{"buffer":0,"byteOffset":46272,"byteLength":5472,"target":34962,"byteStride":8}],"buffers":[{"byteLength":51744,"uri":"data:application/octet-stream;base64,"}],"accessors":[{"bufferView":0,"componentType":5126,"count":57,"max":[0.7038819789886475,0.26325300335884094,0.6714940071105957],"min":[-0.7283030152320862,0.26325300335884094,-0.7523499727249146],"type":"VEC3"},{"bufferView":1,"componentType":5126,"count":57,"max":[0.4151740074157715,0.9647819995880127,0.395550012588501],"min":[-0.4151740074157715,0.9045990109443665,-0.39112499356269836],"type":"VEC3"},{"bufferView":2,"componentType":5126,"count":57,"max":[1,1,1],"min":[1,1,1],"type":"VEC3"},{"bufferView":3,"componentType":5126,"count":57,"max":[0.4887070059776306,0.9296799898147583],"min":[0.34891200065612793,0.09579099714756012],"type":"VEC2"},{"bufferView":4,"componentType":5126,"count":300,"max":[0.7191219925880432,0.26325300335884094,0.7045300006866455],"min":[-0.7435430288314819,0.008253009989857674,-0.7776439785957336],"type":"VEC3"},{"bufferView":5,"componentType":5126,"count":300,"max":[0.9280679821968079,0.963621973991394,0.925137996673584],"min":[-0.9281589984893799,-0.7057710289955139,-0.9280369877815247],"type":"VEC3"},{"bufferView":6,"componentType":5126,"count":300,"max":[1,1,1],"min":[1,1,1],"type":"VEC3"},{"bufferView":7,"componentType":5126,"count":300,"max":[0.9087820053100586,0.8888220191001892],"min":[0.08918300271034241,0.14773499965667725],"type":"VEC2"},{"bufferView":8,"componentType":5126,"count":135,"max":[0.6983579993247986,0.26325300335884094,0.6894009709358215],"min":[-0.7283030152320862,0.26325300335884094,-0.7624509930610657],"type":"VEC3"},{"bufferView":9,"componentType":5126,"count":135,"max":[0.4139229953289032,0.9903870224952698,0.4104430079460144],"min":[-0.4151740074157715,0.9045990109443665,-0.4116950035095215],"type":"VEC3"},{"bufferView":10,"componentType":5126,"count":135,"max":[1,1,1],"min":[1,1,1],"type":"VEC3"},{"bufferView":11,"componentType":5126,"count":135,"max":[0.48816800117492676,0.9355959892272949],"min":[0.34891200065612793,0.08530399948358536],"type":"VEC2"},{"bufferView":12,"componentType":5126,"count":684,"max":[0.7191219925880432,0.26325300335884094,0.7045300006866455],"min":[-0.7435430288314819,0.008253009989857674,-0.7776439785957336],"type":"VEC3"},{"bufferView":13,"componentType":5126,"count":684,"max":[0.9280679821968079,0.9903870224952698,0.925137996673584],"min":[-0.9281589984893799,-0.7057710289955139,-0.9280369877815247],"type":"VEC3"},{"bufferView":14,"componentType":5126,"count":684,"max":[1,1,1],"min":[1,1,1],"type":"VEC3"},{"bufferView":15,"componentType":5126,"count":684,"max":[0.9087820053100586,0.8888220191001892],"min":[0.08918300271034241,0.14773499965667725],"type":"VEC2"}],"materials":[{"pbrMetallicRoughness":{"baseColorFactor":[0.8,0.8,0.8,1],"metallicFactor":0,"roughnessFactor":1},"name":"face"},{"pbrMetallicRoughness":{"baseColorFactor":[0.6392156862745098,0.6392156862745098,0.6392156862745098,1],"metallicFactor":0,"roughnessFactor":1,"baseColorTexture":{"index":0}},"name":"wood"}],"meshes":[{"primitives":[{"mode":4,"attributes":{"POSITION":0,"NORMAL":1,"COLOR_0":2,"TEXCOORD_0":3},"material":0}]},{"primitives":[{"mode":4,"attributes":{"POSITION":4,"NORMAL":5,"COLOR_0":6,"TEXCOORD_0":7},"material":1}]},{"primitives":[{"mode":4,"attributes":{"POSITION":8,"NORMAL":9,"COLOR_0":10,"TEXCOORD_0":11},"material":0}]},{"primitives":[{"mode":4,"attributes":{"POSITION":12,"NORMAL":13,"COLOR_0":14,"TEXCOORD_0":15},"material":1}]}],"images":[{"uri":"wood.jpg"}],"textures":[{"source":0}]}