{"asset":{"version":"2.0","generator":"GLTFExporter"},"scenes":[{"name":"AuxScene","nodes":[1]}],"scene":0,"nodes":[{"mesh":0},{"children":[0]}],"bufferViews":[{"buffer":0,"byteOffset":0,"byteLength":72,"target":34962,"byteStride":12},{"buffer":0,"byteOffset":72,"byteLength":72,"target":34962,"byteStride":12},{"buffer":0,"byteOffset":144,"byteLength":72,"target":34962,"byteStride":12},{"buffer":0,"byteOffset":216,"byteLength":48,"target":34962,"byteStride":8}],"buffers":[{"byteLength":264,"uri":"data:application/octet-stream;base64,"}],"accessors":[{"bufferView":0,"componentType":5126,"count":6,"max":[3,0.019999999552965164,1],"min":[-1,0.019999999552965164,-1],"type":"VEC3"},{"bufferView":1,"componentType":5126,"count":6,"max":[0,1,0],"min":[0,1,0],"type":"VEC3"},{"bufferView":2,"componentType":5126,"count":6,"max":[1,1,1],"min":[1,1,1],"type":"VEC3"},{"bufferView":3,"componentType":5126,"count":6,"max":[1,1],"min":[0,0],"type":"VEC2"}],"materials":[{"pbrMetallicRoughness":{"baseColorFactor":[0.8,0.8,0.8,1],"metallicFactor":0,"roughnessFactor":1}}],"meshes":[{"primitives":[{"mode":4,"attributes":{"POSITION":0,"NORMAL":1,"COLOR_0":2,"TEXCOORD_0":3},"material":0}]}]}