{"asset":{"version":"2.0","generator":"GLTFExporter"},"scenes":[{"name":"AuxScene","nodes":[1]}],"scene":0,"nodes":[{"extras":{"mapFilename":null},"mesh":0},{"children":[0]}],"bufferViews":[{"buffer":0,"byteOffset":0,"byteLength":18432,"target":34962,"byteStride":12},{"buffer":0,"byteOffset":18432,"byteLength":18432,"target":34962,"byteStride":12},{"buffer":0,"byteOffset":36864,"byteLength":18432,"target":34962,"byteStride":12}],"buffers":[{"byteLength":55296,"uri":"data:application/octet-stream;base64,"}],"accessors":[{"bufferView":0,"componentType":5126,"count":1536,"max":[0.38497599959373474,3.5304698944091797,0.3684859871864319],"min":[-0.38116300106048584,0.9378719925880432,-0.3976530134677887],"type":"VEC3"},{"bufferView":1,"componentType":5126,"count":1536,"max":[1,1,0.9999690055847168],"min":[-1,-1,-0.9999690055847168],"type":"VEC3"},{"bufferView":2,"componentType":5126,"count":1536,"max":[1,1,1],"min":[1,1,1],"type":"VEC3"}],"materials":[{"pbrMetallicRoughness":{"baseColorFactor":[0.6392156862745098,0.6392156862745098,0.6392156862745098,1],"metallicFactor":0,"roughnessFactor":1},"name":"manamat"}],"meshes":[{"primitives":[{"mode":4,"attributes":{"POSITION":0,"NORMAL":1,"COLOR_0":2},"material":0}]}]}