{"asset":{"version":"2.0","generator":"GLTFExporter"},"scenes":[{"name":"AuxScene","nodes":[3]}],"scene":0,"nodes":[{"extras":{"mapFilename":null},"mesh":0},{"extras":{"mapFilename":null},"mesh":1},{"extras":{"mapFilename":null},"mesh":2},{"children":[0,1,2]}],"bufferViews":[{"buffer":0,"byteOffset":0,"byteLength":41472,"target":34962,"byteStride":12},{"buffer":0,"byteOffset":41472,"byteLength":41472,"target":34962,"byteStride":12},{"buffer":0,"byteOffset":82944,"byteLength":41472,"target":34962,"byteStride":12},{"buffer":0,"byteOffset":124416,"byteLength":52992,"target":34962,"byteStride":12},{"buffer":0,"byteOffset":177408,"byteLength":52992,"target":34962,"byteStride":12},{"buffer":0,"byteOffset":230400,"byteLength":52992,"target":34962,"byteStride":12},{"buffer":0,"byteOffset":283392,"byteLength":432,"target":34962,"byteStride":12},{"buffer":0,"byteOffset":283824,"byteLength":432,"target":34962,"byteStride":12},{"buffer":0,"byteOffset":284256,"byteLength":432,"target":34962,"byteStride":12}],"buffers":[{"byteLength":284688,"uri":"data:application/octet-stream;base64,"}],"accessors":[{"bufferView":0,"componentType":5126,"count":3456,"max":[0.7699999809265137,0.03999999910593033,0.7699999809265137],"min":[-0.7699999809265137,-0.03999999910593033,-0.7699999809265137],"type":"VEC3"},{"bufferView":1,"componentType":5126,"count":3456,"max":[1,0.9999390244483948,1],"min":[-1,-0.9999390244483948,-1],"type":"VEC3"},{"bufferView":2,"componentType":5126,"count":3456,"max":[1,1,1],"min":[1,1,1],"type":"VEC3"},{"bufferView":3,"componentType":5126,"count":4416,"max":[0.8855379819869995,0.9046339988708496,-0.4362269937992096],"min":[0.4743019938468933,0.0681959018111229,-0.8474640250205994],"type":"VEC3"},{"bufferView":4,"componentType":5126,"count":4416,"max":[0.9664300084114075,0.9971010088920593,0.9825739860534668],"min":[-0.9763479828834534,-0.9996340274810791,-0.9567549824714661],"type":"VEC3"},{"bufferView":5,"componentType":5126,"count":4416,"max":[1,1,1],"min":[1,1,1],"type":"VEC3"},{"bufferView":6,"componentType":5126,"count":36,"max":[0.850383996963501,-0.04891590029001236,0.850383996963501],"min":[-0.850383996963501,-0.10144700109958649,-0.850383996963501],"type":"VEC3"},{"bufferView":7,"componentType":5126,"count":36,"max":[0.5773490071296692,0.5773490071296692,0.5773490071296692],"min":[-0.5773490071296692,-0.5773490071296692,-0.5773490071296692],"type":"VEC3"},{"bufferView":8,"componentType":5126,"count":36,"max":[1,1,1],"min":[1,1,1],"type":"VEC3"}],"materials":[{"pbrMetallicRoughness":{"baseColorFactor":[0.6392156862745098,0.6078431372549019,0.6235294117647059,1],"metallicFactor":0,"roughnessFactor":1},"name":"ring"},{"pbrMetallicRoughness":{"baseColorFactor":[0.6392156862745098,0.00392156862745098,0,1],"metallicFactor":0,"roughnessFactor":1},"name":"Material"},{"pbrMetallicRoughness":{"baseColorFactor":[0.8,0.8,0.8,1],"metallicFactor":0,"roughnessFactor":1},"name":"square"}],"meshes":[{"primitives":[{"mode":4,"attributes":{"POSITION":0,"NORMAL":1,"COLOR_0":2},"material":0}]},{"primitives":[{"mode":4,"attributes":{"POSITION":3,"NORMAL":4,"COLOR_0":5},"material":1}]},{"primitives":[{"mode":4,"attributes":{"POSITION":6,"NORMAL":7,"COLOR_0":8},"material":2}]}]}