{"asset":{"version":"2.0","generator":"GLTFExporter"},"scenes":[{"name":"AuxScene","nodes":[1]}],"scene":0,"nodes":[{"extras":{"mapFilename":null},"mesh":0},{"children":[0]}],"bufferViews":[{"buffer":0,"byteOffset":0,"byteLength":2448,"target":34962,"byteStride":12},{"buffer":0,"byteOffset":2448,"byteLength":2448,"target":34962,"byteStride":12},{"buffer":0,"byteOffset":4896,"byteLength":2448,"target":34962,"byteStride":12}],"buffers":[{"byteLength":7344,"uri":"data:application/octet-stream;base64,"}],"accessors":[{"bufferView":0,"componentType":5126,"count":204,"max":[0.17203499376773834,0.029675399884581566,1.053339958190918],"min":[-0.1487790048122406,-0.029675399884581566,-0.9922419786453247],"type":"VEC3"},{"bufferView":1,"componentType":5126,"count":204,"max":[0.7242649793624878,0.7403789758682251,0.7870720028877258],"min":[-0.7523729801177979,-0.7403789758682251,-0.6824550032615662],"type":"VEC3"},{"bufferView":2,"componentType":5126,"count":204,"max":[1,1,1],"min":[1,1,1],"type":"VEC3"}],"materials":[{"pbrMetallicRoughness":{"baseColorFactor":[0,0,0,1],"metallicFactor":0,"roughnessFactor":1},"name":"Material"}],"meshes":[{"primitives":[{"mode":4,"attributes":{"POSITION":0,"NORMAL":1,"COLOR_0":2},"material":0}]}]}