{"asset":{"version":"2.0","generator":"GLTFExporter"},"scenes":[{"name":"AuxScene","nodes":[1]}],"scene":0,"nodes":[{"mesh":0},{"children":[0]}],"bufferViews":[{"buffer":0,"byteOffset":0,"byteLength":44640,"target":34962,"byteStride":12},{"buffer":0,"byteOffset":44640,"byteLength":44640,"target":34962,"byteStride":12},{"buffer":0,"byteOffset":89280,"byteLength":44640,"target":34962,"byteStride":12},{"buffer":0,"byteOffset":133920,"byteLength":29760,"target":34962,"byteStride":8}],"buffers":[{"byteLength":163680,"uri":"data:application/octet-stream;base64,"}],"accessors":[{"bufferView":0,"componentType":5126,"count":3720,"max":[0.9265090227127075,3.25177001953125,0.9265080094337463],"min":[-0.9265090227127075,-0.005401129834353924,-0.9265090227127075],"type":"VEC3"},{"bufferView":1,"componentType":5126,"count":3720,"max":[1,1,0.9998130202293396],"min":[-1,-1,-1],"type":"VEC3"},{"bufferView":2,"componentType":5126,"count":3720,"max":[1,1,1],"min":[1,1,1],"type":"VEC3"},{"bufferView":3,"componentType":5126,"count":3720,"max":[1.0000499486923218,0.9900019764900208],"min":[0.0059910002164542675,0.021933000534772873],"type":"VEC2"}],"materials":[{"pbrMetallicRoughness":{"baseColorFactor":[0.8,0.8,0.8,1],"metallicFactor":0,"roughnessFactor":1}}],"meshes":[{"primitives":[{"mode":4,"attributes":{"POSITION":0,"NORMAL":1,"COLOR_0":2,"TEXCOORD_0":3},"material":0}]}]}