{"asset":{"version":"2.0","generator":"GLTFExporter"},"scenes":[{"name":"AuxScene","nodes":[1]}],"scene":0,"nodes":[{"mesh":0},{"children":[0]}],"bufferViews":[{"buffer":0,"byteOffset":0,"byteLength":39600,"target":34962,"byteStride":12},{"buffer":0,"byteOffset":39600,"byteLength":39600,"target":34962,"byteStride":12},{"buffer":0,"byteOffset":79200,"byteLength":39600,"target":34962,"byteStride":12},{"buffer":0,"byteOffset":118800,"byteLength":26400,"target":34962,"byteStride":8}],"buffers":[{"byteLength":145200,"uri":"data:application/octet-stream;base64,"}],"accessors":[{"bufferView":0,"componentType":5126,"count":3300,"max":[0.8618649840354919,2.9389801025390625,0.8618659973144531],"min":[-0.8618649840354919,0.013566000387072563,-0.8618649840354919],"type":"VEC3"},{"bufferView":1,"componentType":5126,"count":3300,"max":[1,1,0.9914454817771912],"min":[-1,-1,-0.9914453625679016],"type":"VEC3"},{"bufferView":2,"componentType":5126,"count":3300,"max":[1,1,1],"min":[1,1,1],"type":"VEC3"},{"bufferView":3,"componentType":5126,"count":3300,"max":[0.9925580024719238,0.9948779940605164],"min":[0.014171999879181385,0.006244999822229147],"type":"VEC2"}],"materials":[{"pbrMetallicRoughness":{"baseColorFactor":[0.8,0.8,0.8,1],"metallicFactor":0,"roughnessFactor":1}}],"meshes":[{"primitives":[{"mode":4,"attributes":{"POSITION":0,"NORMAL":1,"COLOR_0":2,"TEXCOORD_0":3},"material":0}]}]}