{"asset":{"version":"2.0","generator":"GLTFExporter"},"scenes":[{"name":"AuxScene","nodes":[1]}],"scene":0,"nodes":[{"mesh":0},{"children":[0]}],"bufferViews":[{"buffer":0,"byteOffset":0,"byteLength":18720,"target":34962,"byteStride":12},{"buffer":0,"byteOffset":18720,"byteLength":18720,"target":34962,"byteStride":12},{"buffer":0,"byteOffset":37440,"byteLength":18720,"target":34962,"byteStride":12},{"buffer":0,"byteOffset":56160,"byteLength":12480,"target":34962,"byteStride":8}],"buffers":[{"byteLength":68640,"uri":"data:application/octet-stream;base64,"}],"accessors":[{"bufferView":0,"componentType":5126,"count":1560,"max":[0.7549999952316284,2.700000047683716,0.7549999952316284],"min":[-0.7549999952316284,0,-0.7549999952316284],"type":"VEC3"},{"bufferView":1,"componentType":5126,"count":1560,"max":[1,1,0.9968152642250061],"min":[-0.987762987613678,-1,-0.9968152642250061],"type":"VEC3"},{"bufferView":2,"componentType":5126,"count":1560,"max":[1,1,1],"min":[1,1,1],"type":"VEC3"},{"bufferView":3,"componentType":5126,"count":1560,"max":[0.8125,0.8125],"min":[0,0],"type":"VEC2"}],"materials":[{"pbrMetallicRoughness":{"baseColorFactor":[0.8,0.8,0.8,1],"metallicFactor":0,"roughnessFactor":1}}],"meshes":[{"primitives":[{"mode":4,"attributes":{"POSITION":0,"NORMAL":1,"COLOR_0":2,"TEXCOORD_0":3},"material":0}]}]}