{"asset":{"version":"2.0","generator":"GLTFExporter"},"scenes":[{"name":"AuxScene","nodes":[1]}],"scene":0,"nodes":[{"mesh":0},{"children":[0]}],"bufferViews":[{"buffer":0,"byteOffset":0,"byteLength":22176,"target":34962,"byteStride":12},{"buffer":0,"byteOffset":22176,"byteLength":22176,"target":34962,"byteStride":12},{"buffer":0,"byteOffset":44352,"byteLength":22176,"target":34962,"byteStride":12},{"buffer":0,"byteOffset":66528,"byteLength":14784,"target":34962,"byteStride":8}],"buffers":[{"byteLength":81312,"uri":"data:application/octet-stream;base64,"}],"accessors":[{"bufferView":0,"componentType":5126,"count":1848,"max":[0.7549999952316284,3.200000047683716,0.7549999952316284],"min":[-0.7549999952316284,0,-0.7549999952316284],"type":"VEC3"},{"bufferView":1,"componentType":5126,"count":1848,"max":[1,1,0.9990561604499817],"min":[-0.9872411489486694,-0.9935607314109802,-0.9990561604499817],"type":"VEC3"},{"bufferView":2,"componentType":5126,"count":1848,"max":[1,1,1],"min":[1,1,1],"type":"VEC3"},{"bufferView":3,"componentType":5126,"count":1848,"max":[0.8125,0.8125],"min":[0,0],"type":"VEC2"}],"materials":[{"pbrMetallicRoughness":{"baseColorFactor":[0.8,0.8,0.8,1],"metallicFactor":0,"roughnessFactor":1}}],"meshes":[{"primitives":[{"mode":4,"attributes":{"POSITION":0,"NORMAL":1,"COLOR_0":2,"TEXCOORD_0":3},"material":0}]}]}