{"asset":{"version":"2.0","generator":"GLTFExporter"},"scenes":[{"name":"AuxScene","nodes":[1]}],"scene":0,"nodes":[{"mesh":0},{"children":[0]}],"bufferViews":[{"buffer":0,"byteOffset":0,"byteLength":48888,"target":34962,"byteStride":12},{"buffer":0,"byteOffset":48888,"byteLength":48888,"target":34962,"byteStride":12},{"buffer":0,"byteOffset":97776,"byteLength":48888,"target":34962,"byteStride":12},{"buffer":0,"byteOffset":146664,"byteLength":32592,"target":34962,"byteStride":8}],"buffers":[{"byteLength":179256,"uri":"data:application/octet-stream;base64,"}],"accessors":[{"bufferView":0,"componentType":5126,"count":4074,"max":[0.7729830145835876,3.145709991455078,0.7874150276184082],"min":[-0.7729830145835876,-0.0025220001116394997,-0.7729830145835876],"type":"VEC3"},{"bufferView":1,"componentType":5126,"count":4074,"max":[0.9989929795265198,0.9994199872016907,0.9999079704284668],"min":[-0.9989929795265198,-0.9999079704284668,-0.9997559785842896],"type":"VEC3"},{"bufferView":2,"componentType":5126,"count":4074,"max":[1,1,1],"min":[1,1,1],"type":"VEC3"},{"bufferView":3,"componentType":5126,"count":4074,"max":[0.9890689849853516,0.9898030161857605],"min":[0.002785000018775463,0.003936000168323517],"type":"VEC2"}],"materials":[{"pbrMetallicRoughness":{"baseColorFactor":[0.8,0.8,0.8,1],"metallicFactor":0,"roughnessFactor":1}}],"meshes":[{"primitives":[{"mode":4,"attributes":{"POSITION":0,"NORMAL":1,"COLOR_0":2,"TEXCOORD_0":3},"material":0}]}]}