{"asset":{"version":"2.0","generator":"GLTFExporter"},"scenes":[{"name":"AuxScene","nodes":[1]}],"scene":0,"nodes":[{"mesh":0},{"children":[0]}],"bufferViews":[{"buffer":0,"byteOffset":0,"byteLength":55728,"target":34962,"byteStride":12},{"buffer":0,"byteOffset":55728,"byteLength":55728,"target":34962,"byteStride":12},{"buffer":0,"byteOffset":111456,"byteLength":55728,"target":34962,"byteStride":12},{"buffer":0,"byteOffset":167184,"byteLength":37152,"target":34962,"byteStride":8}],"buffers":[{"byteLength":204336,"uri":"data:application/octet-stream;base64,"}],"accessors":[{"bufferView":0,"componentType":5126,"count":4644,"max":[0.8586549758911133,3.5822699069976807,0.8586549758911133],"min":[-0.8586549758911133,-0.014064700342714787,-0.8586549758911133],"type":"VEC3"},{"bufferView":1,"componentType":5126,"count":4644,"max":[0.9985960125923157,0.9913939833641052,0.9972839951515198],"min":[-0.9985960125923157,-0.9993289709091187,-0.9999390244483948],"type":"VEC3"},{"bufferView":2,"componentType":5126,"count":4644,"max":[1,1,1],"min":[1,1,1],"type":"VEC3"},{"bufferView":3,"componentType":5126,"count":4644,"max":[0.9903119802474976,0.9910500049591064],"min":[0.007369339931756258,0.006906319875270128],"type":"VEC2"}],"materials":[{"pbrMetallicRoughness":{"baseColorFactor":[0.8,0.8,0.8,1],"metallicFactor":0,"roughnessFactor":1}}],"meshes":[{"primitives":[{"mode":4,"attributes":{"POSITION":0,"NORMAL":1,"COLOR_0":2,"TEXCOORD_0":3},"material":0}]}]}