{"asset":{"version":"2.0","generator":"GLTFExporter"},"scenes":[{"name":"AuxScene","nodes":[1]}],"scene":0,"nodes":[{"extras":{"mapFilename":null},"mesh":0},{"children":[0]}],"bufferViews":[{"buffer":0,"byteOffset":0,"byteLength":177552,"target":34962,"byteStride":12},{"buffer":0,"byteOffset":177552,"byteLength":177552,"target":34962,"byteStride":12},{"buffer":0,"byteOffset":355104,"byteLength":177552,"target":34962,"byteStride":12}],"buffers":[{"byteLength":532656,"uri":"data:application/octet-stream;base64,"}],"accessors":[{"bufferView":0,"componentType":5126,"count":14796,"max":[5.113353252410889,2.6133551597595215,1.8222737312316895],"min":[-5.113353252410889,-0.009886222891509533,-6.590959072113037],"type":"VEC3"},{"bufferView":1,"componentType":5126,"count":14796,"max":[0.9998623132705688,0.9999778270721436,0.9999638199806213],"min":[-0.999908983707428,-0.9999757409095764,-0.999867856502533],"type":"VEC3"},{"bufferView":2,"componentType":5126,"count":14796,"max":[1,1,1],"min":[1,1,1],"type":"VEC3"}],"materials":[{"pbrMetallicRoughness":{"baseColorFactor":[0,0,0,1],"metallicFactor":0,"roughnessFactor":1},"name":"Material"}],"meshes":[{"primitives":[{"mode":4,"attributes":{"POSITION":0,"NORMAL":1,"COLOR_0":2},"material":0}]}]}