{"asset":{"version":"2.0","generator":"GLTFExporter"},"scenes":[{"name":"AuxScene","nodes":[1]}],"scene":0,"nodes":[{"extras":{"mapFilename":"slt.jpg"},"mesh":0},{"children":[0]}],"bufferViews":[{"buffer":0,"byteOffset":0,"byteLength":96768,"target":34962,"byteStride":12},{"buffer":0,"byteOffset":96768,"byteLength":96768,"target":34962,"byteStride":12},{"buffer":0,"byteOffset":193536,"byteLength":96768,"target":34962,"byteStride":12},{"buffer":0,"byteOffset":290304,"byteLength":64512,"target":34962,"byteStride":8}],"buffers":[{"byteLength":354816,"uri":"data:application/octet-stream;base64,"}],"accessors":[{"bufferView":0,"componentType":5126,"count":8064,"max":[1.0431100130081177,2.026360034942627,1.0431100130081177],"min":[-1.0431100130081177,0.014236800372600555,-1.0431100130081177],"type":"VEC3"},{"bufferView":1,"componentType":5126,"count":8064,"max":[0.9972839951515198,1,0.9972839951515198],"min":[-0.9972839951515198,-1,-0.9972839951515198],"type":"VEC3"},{"bufferView":2,"componentType":5126,"count":8064,"max":[1,1,1],"min":[1,1,1],"type":"VEC3"},{"bufferView":3,"componentType":5126,"count":8064,"max":[0.9808589816093445,0.9886239767074585],"min":[0,0],"type":"VEC2"}],"materials":[{"pbrMetallicRoughness":{"baseColorFactor":[0.6392156862745098,0.6392156862745098,0.6392156862745098,1],"metallicFactor":0,"roughnessFactor":1,"baseColorTexture":{"index":0}},"name":"Material.001"}],"meshes":[{"primitives":[{"mode":4,"attributes":{"POSITION":0,"NORMAL":1,"COLOR_0":2,"TEXCOORD_0":3},"material":0}]}],"images":[{"uri":"slt.jpg"}],"textures":[{"source":0}]}