{"asset":{"version":"2.0","generator":"GLTFExporter"},"scenes":[{"name":"AuxScene","nodes":[1]}],"scene":0,"nodes":[{"mesh":0},{"children":[0]}],"bufferViews":[{"buffer":0,"byteOffset":0,"byteLength":37008,"target":34962,"byteStride":12},{"buffer":0,"byteOffset":37008,"byteLength":37008,"target":34962,"byteStride":12},{"buffer":0,"byteOffset":74016,"byteLength":37008,"target":34962,"byteStride":12},{"buffer":0,"byteOffset":111024,"byteLength":24672,"target":34962,"byteStride":8}],"buffers":[{"byteLength":135696,"uri":"data:application/octet-stream;base64,"}],"accessors":[{"bufferView":0,"componentType":5126,"count":3084,"max":[0.9276180267333984,4.065800189971924,0.7877079844474792],"min":[-0.9444779753684998,-0.0018909999635070562,-0.7877079844474792],"type":"VEC3"},{"bufferView":1,"componentType":5126,"count":3084,"max":[0.9999390244483948,0.9996950030326843,0.9999390244483948],"min":[-0.9999390244483948,-0.9841910004615784,-0.9999390244483948],"type":"VEC3"},{"bufferView":2,"componentType":5126,"count":3084,"max":[1,1,1],"min":[1,1,1],"type":"VEC3"},{"bufferView":3,"componentType":5126,"count":3084,"max":[0.9950429797172546,0.9969149827957153],"min":[0.0224239993840456,0.0039160000160336494],"type":"VEC2"}],"materials":[{"pbrMetallicRoughness":{"baseColorFactor":[0.8,0.8,0.8,1],"metallicFactor":0,"roughnessFactor":1}}],"meshes":[{"primitives":[{"mode":4,"attributes":{"POSITION":0,"NORMAL":1,"COLOR_0":2,"TEXCOORD_0":3},"material":0}]}]}