{"asset":{"version":"2.0","generator":"GLTFExporter"},"scenes":[{"name":"AuxScene","nodes":[1]}],"scene":0,"nodes":[{"mesh":0},{"children":[0]}],"bufferViews":[{"buffer":0,"byteOffset":0,"byteLength":48816,"target":34962,"byteStride":12},{"buffer":0,"byteOffset":48816,"byteLength":48816,"target":34962,"byteStride":12},{"buffer":0,"byteOffset":97632,"byteLength":48816,"target":34962,"byteStride":12},{"buffer":0,"byteOffset":146448,"byteLength":32544,"target":34962,"byteStride":8}],"buffers":[{"byteLength":178992,"uri":"data:application/octet-stream;base64,"}],"accessors":[{"bufferView":0,"componentType":5126,"count":4068,"max":[0.7698119878768921,3.6923699378967285,0.840258002281189],"min":[-0.7698119878768921,-0.0029279999434947968,-0.7698119878768921],"type":"VEC3"},{"bufferView":1,"componentType":5126,"count":4068,"max":[0.9999690055847168,0.9911800026893616,1],"min":[-0.9999690055847168,-0.9911800026893616,-1],"type":"VEC3"},{"bufferView":2,"componentType":5126,"count":4068,"max":[1,1,1],"min":[1,1,1],"type":"VEC3"},{"bufferView":3,"componentType":5126,"count":4068,"max":[0.9960209727287292,0.9907349944114685],"min":[0.0027389999013394117,0.014856000430881977],"type":"VEC2"}],"materials":[{"pbrMetallicRoughness":{"baseColorFactor":[0.8,0.8,0.8,1],"metallicFactor":0,"roughnessFactor":1}}],"meshes":[{"primitives":[{"mode":4,"attributes":{"POSITION":0,"NORMAL":1,"COLOR_0":2,"TEXCOORD_0":3},"material":0}]}]}