{"asset":{"version":"2.0","generator":"GLTFExporter"},"scenes":[{"name":"AuxScene","nodes":[1]}],"scene":0,"nodes":[{"extras":{"mapFilename":null},"mesh":0},{"children":[0]}],"bufferViews":[{"buffer":0,"byteOffset":0,"byteLength":64512,"target":34962,"byteStride":12},{"buffer":0,"byteOffset":64512,"byteLength":64512,"target":34962,"byteStride":12},{"buffer":0,"byteOffset":129024,"byteLength":64512,"target":34962,"byteStride":12}],"buffers":[{"byteLength":193536,"uri":"data:application/octet-stream;base64,"}],"accessors":[{"bufferView":0,"componentType":5126,"count":5376,"max":[0.040607500821352005,0.8373630046844482,0.8373630046844482],"min":[-0.11288899928331375,-0.8373630046844482,-0.8373630046844482],"type":"VEC3"},{"bufferView":1,"componentType":5126,"count":5376,"max":[0.9988710284233093,1,1],"min":[-0.9863280057907104,-1,-1],"type":"VEC3"},{"bufferView":2,"componentType":5126,"count":5376,"max":[1,1,1],"min":[1,1,1],"type":"VEC3"}],"materials":[{"pbrMetallicRoughness":{"baseColorFactor":[0,0.28627450980392155,0.8,1],"metallicFactor":0,"roughnessFactor":1},"name":"mat-cell-ring"}],"meshes":[{"primitives":[{"mode":4,"attributes":{"POSITION":0,"NORMAL":1,"COLOR_0":2},"material":0}]}]}