{"asset":{"version":"2.0","generator":"GLTFExporter"},"scenes":[{"name":"AuxScene","nodes":[3]}],"scene":0,"nodes":[{"extras":{"mapFilename":null},"mesh":0},{"extras":{"mapFilename":null},"mesh":1},{"extras":{"mapFilename":null},"mesh":2},{"children":[0,1,2]}],"bufferViews":[{"buffer":0,"byteOffset":0,"byteLength":144,"target":34962,"byteStride":12},{"buffer":0,"byteOffset":144,"byteLength":144,"target":34962,"byteStride":12},{"buffer":0,"byteOffset":288,"byteLength":144,"target":34962,"byteStride":12},{"buffer":0,"byteOffset":432,"byteLength":96,"target":34962,"byteStride":8},{"buffer":0,"byteOffset":528,"byteLength":72,"target":34962,"byteStride":12},{"buffer":0,"byteOffset":600,"byteLength":72,"target":34962,"byteStride":12},{"buffer":0,"byteOffset":672,"byteLength":72,"target":34962,"byteStride":12},{"buffer":0,"byteOffset":744,"byteLength":48,"target":34962,"byteStride":8},{"buffer":0,"byteOffset":792,"byteLength":432,"target":34962,"byteStride":12},{"buffer":0,"byteOffset":1224,"byteLength":432,"target":34962,"byteStride":12},{"buffer":0,"byteOffset":1656,"byteLength":432,"target":34962,"byteStride":12},{"buffer":0,"byteOffset":2088,"byteLength":288,"target":34962,"byteStride":8}],"buffers":[{"byteLength":2376,"uri":"data:application/octet-stream;base64,"}],"accessors":[{"bufferView":0,"componentType":5126,"count":12,"max":[1.5663599967956543,-0.7997689843177795,0.028445400297641754],"min":[-1.5663599967956543,-0.8997690081596375,0.028445400297641754],"type":"VEC3"},{"bufferView":1,"componentType":5126,"count":12,"max":[0,0,1],"min":[0,0,1],"type":"VEC3"},{"bufferView":2,"componentType":5126,"count":12,"max":[1,1,1],"min":[1,1,1],"type":"VEC3"},{"bufferView":3,"componentType":5126,"count":12,"max":[0,0],"min":[0,0],"type":"VEC2"},{"bufferView":4,"componentType":5126,"count":6,"max":[1.0663599967956543,0.7997689843177795,0.028445400297641754],"min":[-1.0663599967956543,-0.7997689843177795,0.028445299714803696],"type":"VEC3"},{"bufferView":5,"componentType":5126,"count":6,"max":[0,0,1],"min":[0,0,1],"type":"VEC3"},{"bufferView":6,"componentType":5126,"count":6,"max":[1,1,1],"min":[1,1,1],"type":"VEC3"},{"bufferView":7,"componentType":5126,"count":6,"max":[0.9999560117721558,0.9999129772186279],"min":[0.0000870000003487803,0.0000870000003487803],"type":"VEC2"},{"bufferView":8,"componentType":5126,"count":36,"max":[1.5663599967956543,0.8997690081596375,0.028445400297641754],"min":[-1.5663599967956543,-0.8997690081596375,0.028445299714803696],"type":"VEC3"},{"bufferView":9,"componentType":5126,"count":36,"max":[0,0,1],"min":[0,0,1],"type":"VEC3"},{"bufferView":10,"componentType":5126,"count":36,"max":[1,1,1],"min":[1,1,1],"type":"VEC3"},{"bufferView":11,"componentType":5126,"count":36,"max":[0,0],"min":[0,0],"type":"VEC2"}],"materials":[{"pbrMetallicRoughness":{"baseColorFactor":[0.00784313725490196,0.00784313725490196,0.00784313725490196,1],"metallicFactor":0,"roughnessFactor":1},"name":"mat.screen.frame"},{"pbrMetallicRoughness":{"baseColorFactor":[0.6392156862745098,0.6392156862745098,0.6392156862745098,1],"metallicFactor":0,"roughnessFactor":1},"name":"mat.screen"}],"meshes":[{"primitives":[{"mode":4,"attributes":{"POSITION":0,"NORMAL":1,"COLOR_0":2,"TEXCOORD_0":3},"material":0}]},{"primitives":[{"mode":4,"attributes":{"POSITION":4,"NORMAL":5,"COLOR_0":6,"TEXCOORD_0":7},"material":1}]},{"primitives":[{"mode":4,"attributes":{"POSITION":8,"NORMAL":9,"COLOR_0":10,"TEXCOORD_0":11},"material":0}]}]}