{"asset":{"version":"2.0","generator":"GLTFExporter"},"scenes":[{"name":"AuxScene","nodes":[1]}],"scene":0,"nodes":[{"mesh":0},{"children":[0]}],"bufferViews":[{"buffer":0,"byteOffset":0,"byteLength":35712,"target":34962,"byteStride":12},{"buffer":0,"byteOffset":35712,"byteLength":35712,"target":34962,"byteStride":12},{"buffer":0,"byteOffset":71424,"byteLength":35712,"target":34962,"byteStride":12},{"buffer":0,"byteOffset":107136,"byteLength":23808,"target":34962,"byteStride":8}],"buffers":[{"byteLength":130944,"uri":"data:application/octet-stream;base64,"}],"accessors":[{"bufferView":0,"componentType":5126,"count":2976,"max":[0.9081818461418152,3.081818103790283,0.9545454382896423],"min":[-0.9081818461418152,0,-0.9090909361839294],"type":"VEC3"},{"bufferView":1,"componentType":5126,"count":2976,"max":[1,1,0.9977478981018066],"min":[-1,-1,-0.9993001222610474],"type":"VEC3"},{"bufferView":2,"componentType":5126,"count":2976,"max":[1,1,1],"min":[1,1,1],"type":"VEC3"},{"bufferView":3,"componentType":5126,"count":2976,"max":[0.8125,0.8125],"min":[0,0],"type":"VEC2"}],"materials":[{"pbrMetallicRoughness":{"baseColorFactor":[0.8,0.8,0.8,1],"metallicFactor":0,"roughnessFactor":1}}],"meshes":[{"primitives":[{"mode":4,"attributes":{"POSITION":0,"NORMAL":1,"COLOR_0":2,"TEXCOORD_0":3},"material":0}]}]}