{"asset":{"version":"2.0","generator":"GLTFExporter"},"scenes":[{"name":"AuxScene","nodes":[1]}],"scene":0,"nodes":[{"mesh":0},{"children":[0]}],"bufferViews":[{"buffer":0,"byteOffset":0,"byteLength":18864,"target":34962,"byteStride":12},{"buffer":0,"byteOffset":18864,"byteLength":18864,"target":34962,"byteStride":12},{"buffer":0,"byteOffset":37728,"byteLength":18864,"target":34962,"byteStride":12},{"buffer":0,"byteOffset":56592,"byteLength":12576,"target":34962,"byteStride":8}],"buffers":[{"byteLength":69168,"uri":"data:application/octet-stream;base64,"}],"accessors":[{"bufferView":0,"componentType":5126,"count":1572,"max":[0.5970780253410339,1.3609700202941895,0.640313982963562],"min":[-0.5970780253410339,0.01099110022187233,-0.5970780253410339],"type":"VEC3"},{"bufferView":1,"componentType":5126,"count":1572,"max":[0.9925529956817627,0.9996340274810791,0.992156982421875],"min":[-0.9925529956817627,-0.9999690055847168,-0.9925529956817627],"type":"VEC3"},{"bufferView":2,"componentType":5126,"count":1572,"max":[1,1,1],"min":[1,1,1],"type":"VEC3"},{"bufferView":3,"componentType":5126,"count":1572,"max":[0.9844409823417664,0.968280017375946],"min":[0.00748499995097518,0.014097999781370163],"type":"VEC2"}],"materials":[{"pbrMetallicRoughness":{"baseColorFactor":[0.8,0.8,0.8,1],"metallicFactor":0,"roughnessFactor":1}}],"meshes":[{"primitives":[{"mode":4,"attributes":{"POSITION":0,"NORMAL":1,"COLOR_0":2,"TEXCOORD_0":3},"material":0}]}]}