{"asset":{"version":"2.0","generator":"GLTFExporter"},"scenes":[{"name":"AuxScene","nodes":[1]}],"scene":0,"nodes":[{"mesh":0},{"children":[0]}],"bufferViews":[{"buffer":0,"byteOffset":0,"byteLength":34848,"target":34962,"byteStride":12},{"buffer":0,"byteOffset":34848,"byteLength":34848,"target":34962,"byteStride":12},{"buffer":0,"byteOffset":69696,"byteLength":34848,"target":34962,"byteStride":12},{"buffer":0,"byteOffset":104544,"byteLength":23232,"target":34962,"byteStride":8}],"buffers":[{"byteLength":127776,"uri":"data:application/octet-stream;base64,"}],"accessors":[{"bufferView":0,"componentType":5126,"count":2904,"max":[0.7700049877166748,3.2399799823760986,0.770006000995636],"min":[-0.7700049877166748,-0.0026499999221414328,-0.7700049877166748],"type":"VEC3"},{"bufferView":1,"componentType":5126,"count":2904,"max":[0.9914439916610718,1,1],"min":[-0.9914452433586121,-1,-1],"type":"VEC3"},{"bufferView":2,"componentType":5126,"count":2904,"max":[1,1,1],"min":[1,1,1],"type":"VEC3"},{"bufferView":3,"componentType":5126,"count":2904,"max":[0.9918810129165649,0.9968180060386658],"min":[0.0070409998297691345,0.005683000199496746],"type":"VEC2"}],"materials":[{"pbrMetallicRoughness":{"baseColorFactor":[0.8,0.8,0.8,1],"metallicFactor":0,"roughnessFactor":1}}],"meshes":[{"primitives":[{"mode":4,"attributes":{"POSITION":0,"NORMAL":1,"COLOR_0":2,"TEXCOORD_0":3},"material":0}]}]}