{"asset":{"version":"2.0","generator":"GLTFExporter"},"scenes":[{"name":"AuxScene","nodes":[3]}],"scene":0,"nodes":[{"extras":{"mapFilename":null},"mesh":0},{"extras":{"mapFilename":null},"mesh":1},{"extras":{"mapFilename":"hunter.jpg"},"mesh":2},{"children":[0,1,2]}],"bufferViews":[{"buffer":0,"byteOffset":0,"byteLength":1584,"target":34962,"byteStride":12},{"buffer":0,"byteOffset":1584,"byteLength":1584,"target":34962,"byteStride":12},{"buffer":0,"byteOffset":3168,"byteLength":1584,"target":34962,"byteStride":12},{"buffer":0,"byteOffset":4752,"byteLength":1056,"target":34962,"byteStride":8},{"buffer":0,"byteOffset":5808,"byteLength":2808,"target":34962,"byteStride":12},{"buffer":0,"byteOffset":8616,"byteLength":2808,"target":34962,"byteStride":12},{"buffer":0,"byteOffset":11424,"byteLength":2808,"target":34962,"byteStride":12},{"buffer":0,"byteOffset":14232,"byteLength":1872,"target":34962,"byteStride":8},{"buffer":0,"byteOffset":16104,"byteLength":24192,"target":34962,"byteStride":12},{"buffer":0,"byteOffset":40296,"byteLength":24192,"target":34962,"byteStride":12},{"buffer":0,"byteOffset":64488,"byteLength":24192,"target":34962,"byteStride":12},{"buffer":0,"byteOffset":88680,"byteLength":16128,"target":34962,"byteStride":8}],"buffers":[{"byteLength":104808,"uri":"data:application/octet-stream;base64,"}],"accessors":[{"bufferView":0,"componentType":5126,"count":132,"max":[0.22388200461864471,7.802259922027588,0.1200919970870018],"min":[-0.1324550062417984,7.386390209197998,-0.5763069987297058],"type":"VEC3"},{"bufferView":1,"componentType":5126,"count":132,"max":[0.9403060078620911,0.9704279899597168,0.6813560128211975],"min":[-0.9186679720878601,-0.9681389927864075,-0.863673985004425],"type":"VEC3"},{"bufferView":2,"componentType":5126,"count":132,"max":[1,1,1],"min":[1,1,1],"type":"VEC3"},{"bufferView":3,"componentType":5126,"count":132,"max":[0,0],"min":[0,0],"type":"VEC2"},{"bufferView":4,"componentType":5126,"count":234,"max":[0.48086801171302795,7.6375298500061035,0.7086939811706543],"min":[-0.3512350022792816,6.89778995513916,-0.5526059865951538],"type":"VEC3"},{"bufferView":5,"componentType":5126,"count":234,"max":[0.9668570160865784,0.987883985042572,0.7352820038795471],"min":[-0.86455899477005,-0.823511004447937,-0.8201239705085754],"type":"VEC3"},{"bufferView":6,"componentType":5126,"count":234,"max":[1,1,1],"min":[1,1,1],"type":"VEC3"},{"bufferView":7,"componentType":5126,"count":234,"max":[0,0],"min":[0,0],"type":"VEC2"},{"bufferView":8,"componentType":5126,"count":2016,"max":[1.3261899948120117,7.421380043029785,0.8263220191001892],"min":[-1.3965200185775757,-0.021529199555516243,-0.677901029586792],"type":"VEC3"},{"bufferView":9,"componentType":5126,"count":2016,"max":[0.9990839958190918,0.985289990901947,0.9995729923248291],"min":[-0.999176025390625,-0.9999079704284668,-0.999114990234375],"type":"VEC3"},{"bufferView":10,"componentType":5126,"count":2016,"max":[1,1,1],"min":[1,1,1],"type":"VEC3"},{"bufferView":11,"componentType":5126,"count":2016,"max":[0.9966999888420105,0.994700014591217],"min":[0.0005729999975301325,0.0036069999914616346],"type":"VEC2"}],"materials":[{"pbrMetallicRoughness":{"baseColorFactor":[0.8,0.8,0.8,1],"metallicFactor":0,"roughnessFactor":1},"name":"Material"},{"pbrMetallicRoughness":{"baseColorFactor":[0.3411764705882353,0.5372549019607843,0.3176470588235294,1],"metallicFactor":0,"roughnessFactor":1},"name":"mat.hat"},{"pbrMetallicRoughness":{"metallicFactor":0,"roughnessFactor":1,"baseColorTexture":{"index":0}},"name":"mat.short"}],"meshes":[{"primitives":[{"mode":4,"attributes":{"POSITION":0,"NORMAL":1,"COLOR_0":2,"TEXCOORD_0":3},"material":0}]},{"primitives":[{"mode":4,"attributes":{"POSITION":4,"NORMAL":5,"COLOR_0":6,"TEXCOORD_0":7},"material":1}]},{"primitives":[{"mode":4,"attributes":{"POSITION":8,"NORMAL":9,"COLOR_0":10,"TEXCOORD_0":11},"material":2}]}],"images":[{"uri":"hunter.jpg"}],"textures":[{"source":0}]}