{"asset":{"version":"2.0","generator":"GLTFExporter"},"scenes":[{"name":"AuxScene","nodes":[1]}],"scene":0,"nodes":[{"extras":{"mapFilename":"rabbitskin4.jpg"},"mesh":0},{"children":[0]}],"bufferViews":[{"buffer":0,"byteOffset":0,"byteLength":24408,"target":34962,"byteStride":12},{"buffer":0,"byteOffset":24408,"byteLength":24408,"target":34962,"byteStride":12},{"buffer":0,"byteOffset":48816,"byteLength":24408,"target":34962,"byteStride":12},{"buffer":0,"byteOffset":73224,"byteLength":16272,"target":34962,"byteStride":8}],"buffers":[{"byteLength":89496,"uri":"data:application/octet-stream;base64,"}],"accessors":[{"bufferView":0,"componentType":5126,"count":2034,"max":[2.5796799659729004,7.459819793701172,4.186850070953369],"min":[-2.2828099727630615,-3.0102100372314453,-5.116390228271484],"type":"VEC3"},{"bufferView":1,"componentType":5126,"count":2034,"max":[0.9984740018844604,0.9977110028266907,0.9985049962997437],"min":[-0.9997860193252563,-0.9995729923248291,-0.9911800026893616],"type":"VEC3"},{"bufferView":2,"componentType":5126,"count":2034,"max":[1,1,1],"min":[1,1,1],"type":"VEC3"},{"bufferView":3,"componentType":5126,"count":2034,"max":[0.9973739981651306,0.9959989786148071],"min":[-0.0010339999571442604,0.001408000010997057],"type":"VEC2"}],"materials":[{"pbrMetallicRoughness":{"metallicFactor":0,"roughnessFactor":1,"baseColorTexture":{"index":0}},"name":"Material"}],"meshes":[{"primitives":[{"mode":4,"attributes":{"POSITION":0,"NORMAL":1,"COLOR_0":2,"TEXCOORD_0":3},"material":0}]}],"images":[{"uri":"rabbitskin4.jpg"}],"textures":[{"source":0}]}